<svg xmlns="http://www.w3.org/2000/svg" width="20" height="20" viewBox="0 0 20 20" fill="none">
  <path d="M15 4.16699L12.5 1.66699H4.99999C4.55797 1.66699 4.13404 1.84259 3.82148 2.15515C3.50892 2.46771 3.33333 2.89163 3.33333 3.33366V16.667C3.33333 17.109 3.50892 17.5329 3.82148 17.8455C4.13404 18.1581 4.55797 18.3337 4.99999 18.3337H15C15.442 18.3337 15.8659 18.1581 16.1785 17.8455C16.4911 17.5329 16.6667 17.109 16.6667 16.667M6.66666 15.0003H7.5M15.3333 8.00039C15.6648 7.66887 16.1145 7.48263 16.5833 7.48263C17.0522 7.48263 17.5018 7.66887 17.8333 8.00039C18.1648 8.33191 18.3511 8.78155 18.3511 9.25039C18.3511 9.71923 18.1648 10.1689 17.8333 10.5004L14.1667 14.1671L10.8333 15.0004L11.6667 11.6671L15.3333 8.00039Z" stroke="#4B5563" stroke-width="1.5" stroke-linecap="round" stroke-linejoin="round"/>
</svg>