<?xml version="1.0" encoding="UTF-8"?>
<svg version="1.1" xmlns="http://www.w3.org/2000/svg" width="101" height="118">
<path d="M0 0 C6.41378782 1.31564878 10.60753277 5.3875301 15 10 C16.19298747 11.82976727 17.38051957 13.66310326 18.5625 15.5 C21.23162988 18.98874148 22.50047996 19.88589644 26.84765625 20.87890625 C31.73228569 21.25668551 36.88465873 21.4062662 41.0859375 18.61328125 C42.53958157 16.89672654 42.53958157 16.89672654 43.71484375 14.953125 C46.52076755 10.68880312 51.09463889 7.71980308 55.8125 5.9375 C58 6 58 6 59.6875 7.125 C62.33464733 10.90663905 63.50016217 14.37349988 63 19 C62.34 19.66 61.68 20.32 61 21 C60.01 21 59.02 21 58 21 C55.7436891 26.5719227 54.13353535 31.49307002 56.3125 37.3125 C59.46692524 42.75948566 64.27389529 44.22182155 70.03442383 45.93676758 C75.07839944 47.4435497 78.13923374 49.39299303 82 53 C81.71545728 55.75057959 81.26388045 56.77936966 79.1171875 58.57421875 C73.82033985 60.99696235 68.1494784 60.83278359 62.39648438 61.171875 C61.47802734 61.23890625 60.55957031 61.3059375 59.61328125 61.375 C58.77579346 61.42398438 57.93830566 61.47296875 57.07543945 61.5234375 C54.61118444 61.83918294 54.61118444 61.83918294 53 65 C53.37141066 68.55161448 54.55877081 71.50723431 56 74.75 C57.92663828 79.42997954 59.05480769 83.91384621 59 89 C58.67 89.66 58.34 90.32 58 91 C52.9362318 90.51773636 50.15489978 88.82886793 46 86 C45.113125 85.9175 44.22625 85.835 43.3125 85.75 C41 85 41 85 40.05859375 83.2734375 C39.27799527 81.19938357 38.61303446 79.1290521 38 77 C37.67 76.01 37.34 75.02 37 74 C33.27240449 73.64747783 29.71848873 73.49750152 26 74 C23.47603895 76.27930117 23.47603895 76.27930117 22.30078125 78.203125 C18.92846452 82.86158054 13.95475909 86.48558971 8.4375 87.9375 C7.633125 87.958125 6.82875 87.97875 6 88 C3.678568 84.51785201 3.84924919 82.73296467 4.3671875 78.67578125 C5.36447305 74.45886396 7.23336196 70.67541336 9.13671875 66.796875 C10.21438774 63.30542251 9.65056114 62.18939199 8 59 C7.79117187 58.14535156 7.58234375 57.29070312 7.3671875 56.41015625 C5.25322018 52.68353386 2.01708183 51.90133609 -1.875 50.4375 C-10.89714268 46.95937523 -10.89714268 46.95937523 -14 43 C-14.125 40.9375 -14.125 40.9375 -13 39 C-7.39554761 35.39713775 -1.77687784 34.95070047 4.73046875 34.98046875 C5.93352661 34.98469849 5.93352661 34.98469849 7.16088867 34.98901367 C8.07124878 34.9944519 8.07124878 34.9944519 9 35 C8.70230713 34.34926514 8.40461426 33.69853027 8.09790039 33.02807617 C6.75119068 30.081935 5.40681951 27.13473254 4.0625 24.1875 C3.59392578 23.16333984 3.12535156 22.13917969 2.64257812 21.08398438 C2.19462891 20.10107422 1.74667969 19.11816406 1.28515625 18.10546875 C0.87144775 17.19949951 0.45773926 16.29353027 0.03149414 15.36010742 C-2.05935485 10.57614597 -2.24577802 7.16133848 -2 2 C-1.34 1.34 -0.68 0.68 0 0 Z M0 2 C0.24348246 9.64270037 2.09829239 15.35573674 5.5625 22.125 C5.98724609 22.98609375 6.41199219 23.8471875 6.84960938 24.734375 C7.88593678 26.83031807 8.9359372 28.91804043 10 31 C10.53109375 30.60167969 11.0621875 30.20335938 11.609375 29.79296875 C15.07291667 27.1953125 18.53645833 24.59765625 22 22 C12.70698451 11.24275834 12.70698451 11.24275834 2 2 C1.34 2 0.68 2 0 2 Z M48.9375 13.25 C48.08027344 14.03890625 47.22304687 14.8278125 46.33984375 15.640625 C44.32989171 17.6673546 42.63242298 19.66643797 41 22 C42.62445619 22.98006859 44.24958261 23.95902636 45.875 24.9375 C47.23238281 25.75541016 47.23238281 25.75541016 48.6171875 26.58984375 C50.05201636 27.43898017 51.50875448 28.25437724 53 29 C53.99 26.03 54.98 23.06 56 20 C55.67 19.67 55.34 19.34 55 19 C54.6875 16.625 54.6875 16.625 55 14 C57 12.1875 57 12.1875 59 11 C58.67 10.34 58.34 9.68 58 9 C53.11026025 9 52.41441797 9.99858349 48.9375 13.25 Z M26 23 C29.30406447 31.8143941 29.30406447 31.8143941 35.9609375 38.0234375 C39.93604576 39.07432819 43.89642984 39.20517851 48 39 C50.32918751 35.21912437 50.32918751 35.21912437 50.80078125 30.9609375 C49.23794679 27.13389897 45.6210587 25.63494542 42 24 C36.43700979 22.41722454 31.66709371 21.59088481 26 23 Z M16.9375 27.75 C16.24527344 28.26046875 15.55304687 28.7709375 14.83984375 29.296875 C12.91543413 31.07828178 12.00713397 32.59957707 11 35 C13.31 35.33 15.62 35.66 18 36 C18.33 35.34 18.66 34.68 19 34 C21.8125 33.8125 21.8125 33.8125 25 34 C26.0194119 34.98020375 27.02246356 35.97803008 28 37 C30.07487962 36.62978352 30.07487962 36.62978352 32 36 C30.74131097 34.15830774 29.46766474 32.32682969 28.1875 30.5 C27.47980469 29.4790625 26.77210937 28.458125 26.04296875 27.40625 C25.36878906 26.6121875 24.69460937 25.818125 24 25 C20.48336486 25 19.68152977 25.67787284 16.9375 27.75 Z M52 34 C51.34 35.98 50.68 37.96 50 40 C52.97 40.495 52.97 40.495 56 41 C55.39816251 38.97954558 54.72693904 36.97888961 54 35 C53.34 34.67 52.68 34.34 52 34 Z M10 37 C7.14894415 42.34572972 7.18723465 48.3997035 8.5 54.21484375 C10.93165989 61.41310968 14.5964115 65.48849775 21.3125 68.875 C22.8685583 69.59737451 24.42904921 70.31061189 26 71 C27.95965048 68.39682213 29.91748982 65.79228758 31.875 63.1875 C32.43058594 62.44951172 32.98617187 61.71152344 33.55859375 60.95117188 C34.09355469 60.23896484 34.62851562 59.52675781 35.1796875 58.79296875 C35.91807861 57.81106567 35.91807861 57.81106567 36.67138672 56.80932617 C39.22795617 53.64926906 39.22795617 53.64926906 39.9375 49.8125 C38.58126472 45.74379415 37.05798214 42.08035762 34 39 C30.95439619 38.13066098 29.22805377 38.47081086 26 39 C25.34 39.66 24.68 40.32 24 41 C21.02412658 40.76506262 19.36495588 40.28512178 17 38.4375 C14.51091681 36.64847145 12.99743256 36.75021395 10 37 Z M-3.625 37.8125 C-4.56601563 37.96332031 -5.50703125 38.11414062 -6.4765625 38.26953125 C-9.17094353 39.04948365 -10.24970498 39.85618227 -12 42 C-8.4423859 45.08326555 -5.11624823 47.00780243 -0.75 48.75 C0.30703125 49.17796875 1.3640625 49.6059375 2.453125 50.046875 C4.70286443 51.05841561 4.70286443 51.05841561 6 51 C6.33 46.38 6.66 41.76 7 37 C3.21544336 37 0.05870956 37.18840045 -3.625 37.8125 Z M37 40 C38.32 42.31 39.64 44.62 41 47 C41.99 46.67 42.98 46.34 44 46 C45.21869929 43.49552484 45.21869929 43.49552484 46 41 C43.03 40.67 40.06 40.34 37 40 Z M48 42 C45.54965788 44.82896641 43.85044518 47.32669161 43 51 C44.6781619 55.47331691 47.16889002 59.17119909 50 63 C53.83668453 59.567177 55.90751103 57.06517613 57 52 C57.14118093 49.30782565 57.09309962 46.69988904 57 44 C52.545 43.01 52.545 43.01 48 42 Z M59 45 C58.34 49.62 57.68 54.24 57 59 C68.30902438 59.31216827 68.30902438 59.31216827 79 56 C78.84051901 54.07313962 78.84051901 54.07313962 78 52 C72.33837886 47.93351815 65.76453393 46.20015925 59 45 Z M41 53 C39.37145746 55.2475089 37.74709026 57.49784162 36.125 59.75 C35.66480469 60.38421875 35.20460938 61.0184375 34.73046875 61.671875 C32.56337959 64.68695557 30.50142178 67.58297113 29 71 C29.99649753 72.22556415 29.99649753 72.22556415 31.96875 72.0546875 C38.7057398 71.5764444 43.3695665 69.68562193 49 66 C48.04901734 64.01729088 47.08899297 62.03891621 46.125 60.0625 C45.32449219 58.40927734 45.32449219 58.40927734 44.5078125 56.72265625 C43.28340155 53.90595489 43.28340155 53.90595489 41 53 Z M12 65 C7.76405156 74.17014115 7.76405156 74.17014115 6 84 C6.33 84.66 6.66 85.32 7 86 C14.14493126 83.99048808 19.75471652 77.83726478 24 72 C23.07767578 71.49339844 23.07767578 71.49339844 22.13671875 70.9765625 C20.92435547 70.30753906 20.92435547 70.30753906 19.6875 69.625 C18.88699219 69.18414062 18.08648437 68.74328125 17.26171875 68.2890625 C15.46472057 67.26486665 13.72099292 66.14732862 12 65 Z M43.375 70.5 C42.55773438 70.9640625 41.74046875 71.428125 40.8984375 71.90625 C40.27195313 72.2671875 39.64546875 72.628125 39 73 C39.73990208 75.02257219 39.73990208 75.02257219 41 77 C44.56206661 77.81870185 44.56206661 77.81870185 48 78 C47.87625 78.886875 47.7525 79.77375 47.625 80.6875 C48.02995443 84.26459745 48.26072113 84.69445487 50.8125 86.9375 C51.864375 87.618125 52.91625 88.29875 54 89 C54.99 88.67 55.98 88.34 57 88 C55.93787671 80.54928441 53.65875889 74.56342244 50 68 C47.25748805 68 45.74494155 69.14574768 43.375 70.5 Z " fill="#141820" transform="translate(17,16)"/>
<path d="M0 0 C0.66 0 1.32 0 2 0 C5.465 6.435 5.465 6.435 9 13 C10.65 11.35 12.3 9.7 14 8 C14.66 8 15.32 8 16 8 C16 8.66 16 9.32 16 10 C22.27 9.67 28.54 9.34 35 9 C35 9.66 35 10.32 35 11 C34.37432129 11.04487549 33.74864258 11.08975098 33.10400391 11.13598633 C30.27636596 11.34696879 27.45090145 11.57945488 24.625 11.8125 C23.64015625 11.88275391 22.6553125 11.95300781 21.640625 12.02539062 C20.69960937 12.10595703 19.75859375 12.18652344 18.7890625 12.26953125 C17.91975098 12.33760986 17.05043945 12.40568848 16.15478516 12.47583008 C13.62112184 12.83450904 13.62112184 12.83450904 12 16 C12.37141066 19.55161448 13.55877081 22.50723431 15 25.75 C16.92663828 30.42997954 18.05480769 34.91384621 18 40 C17.67 40.66 17.34 41.32 17 42 C11.9362318 41.51773636 9.15489978 39.82886793 5 37 C4.113125 36.9175 3.22625 36.835 2.3125 36.75 C0 36 0 36 -0.94140625 34.2734375 C-1.72200473 32.19938357 -2.38696554 30.1290521 -3 28 C-3.33 27.01 -3.66 26.02 -4 25 C-6.64 25 -9.28 25 -12 25 C-12.33 23.68 -12.66 22.36 -13 21 C-12.030625 21.226875 -11.06125 21.45375 -10.0625 21.6875 C-5.3261484 22.37099789 -1.27804011 20.99272848 3 19 C4.32 18.01 5.64 17.02 7 16 C5.02 12.37 3.04 8.74 1 5 C0.01 5 -0.98 5 -2 5 C-1.34 3.35 -0.68 1.7 0 0 Z M2.375 21.5 C1.55773437 21.9640625 0.74046875 22.428125 -0.1015625 22.90625 C-0.72804688 23.2671875 -1.35453125 23.628125 -2 24 C-1.26009792 26.02257219 -1.26009792 26.02257219 0 28 C3.56206661 28.81870185 3.56206661 28.81870185 7 29 C6.87625 29.886875 6.7525 30.77375 6.625 31.6875 C7.02995443 35.26459745 7.26072113 35.69445487 9.8125 37.9375 C10.864375 38.618125 11.91625 39.29875 13 40 C13.99 39.67 14.98 39.34 16 39 C14.93787671 31.54928441 12.65875889 25.56342244 9 19 C6.25748805 19 4.74494155 20.14574768 2.375 21.5 Z " fill="#191E26" transform="translate(58,65)"/>
<path d="M0 0 C1.98 0 3.96 0 6 0 C6.33 0.99 6.66 1.98 7 3 C7.99 3.33 8.98 3.66 10 4 C8.68 4.33 7.36 4.66 6 5 C5.67 6.32 5.34 7.64 5 9 C1.12265667 8.46148009 -0.97595561 7.43874548 -4 5 C-5.31836295 4.30419733 -6.64791086 3.62775567 -8 3 C-5.69 3 -3.38 3 -1 3 C-0.67 2.01 -0.34 1.02 0 0 Z " fill="#18202B" transform="translate(36,49)"/>
<path d="M0 0 C0.66 0.66 1.32 1.32 2 2 C-2.04871951 7.80903235 -7.63321358 13.11400357 -14.5625 14.9375 C-15.366875 14.958125 -16.17125 14.97875 -17 15 C-19.23551759 11.64672361 -19.17283528 11.09256343 -18.625 7.3125 C-18.51414062 6.50425781 -18.40328125 5.69601563 -18.2890625 4.86328125 C-18.19367187 4.24839844 -18.09828125 3.63351563 -18 3 C-17.34 3.33 -16.68 3.66 -16 4 C-16 6.97 -16 9.94 -16 13 C-9.93974033 9.24841068 -4.82995861 5.24927977 0 0 Z " fill="#10141C" transform="translate(40,89)"/>
<path d="M0 0 C4.875 0.875 4.875 0.875 6 2 C6.04063832 3.66617115 6.042721 5.33388095 6 7 C2.94736336 7.98120464 1.05263664 7.98120464 -2 7 C-1.125 2.25 -1.125 2.25 0 0 Z " fill="#1C2632" transform="translate(60,92)"/>
<path d="M0 0 C0 0.33 0 0.66 0 1 C-0.77085938 1.12117188 -1.54171875 1.24234375 -2.3359375 1.3671875 C-3.33882812 1.53476562 -4.34171875 1.70234375 -5.375 1.875 C-6.87160156 2.11863281 -6.87160156 2.11863281 -8.3984375 2.3671875 C-11.1425115 2.7958802 -11.1425115 2.7958802 -13 5 C-12.01 6.32 -11.02 7.64 -10 9 C-13 9 -13 9 -14.75 7.75 C-16 6 -16 6 -16.0625 4 C-12.69646291 -2.33606982 -5.93954214 -1.09551555 0 0 Z " fill="#0B0B12" transform="translate(19,53)"/>
<path d="M0 0 C-0.33 1.98 -0.66 3.96 -1 6 C-2.65 6.33 -4.3 6.66 -6 7 C-6.33 5.35 -6.66 3.7 -7 2 C-4 0 -4 0 0 0 Z " fill="#202736" transform="translate(79,29)"/>
<path d="M0 0 C2 1 2 1 4 3 C3.67 3.99 3.34 4.98 3 6 C1.1875 6.875 1.1875 6.875 -1 7 C-3 5.6875 -3 5.6875 -5 4 C-6.32 3.34 -7.64 2.68 -9 2 C-6.03 2 -3.06 2 0 2 C0 1.34 0 0.68 0 0 Z " fill="#1E2632" transform="translate(37,50)"/>
<path d="M0 0 C1.32 0.33 2.64 0.66 4 1 C4.33 2.98 4.66 4.96 5 7 C3.35 7.66 1.7 8.32 0 9 C0 10.65 0 12.3 0 14 C-0.66 13.67 -1.32 13.34 -2 13 C-2.25 10.6875 -2.25 10.6875 -2 8 C0 6.3125 0 6.3125 2 5 C2 4.34 2 3.68 2 3 C1.34 2.67 0.68 2.34 0 2 C0 1.34 0 0.68 0 0 Z " fill="#0F141D" transform="translate(73,22)"/>
<path d="M0 0 C0.66 0.33 1.32 0.66 2 1 C1.67 1.33 1.34 1.66 1 2 C1.09017996 4.19050021 1.24666208 6.378466 1.4375 8.5625 C1.53933594 9.76003906 1.64117188 10.95757812 1.74609375 12.19140625 C1.82988281 13.11824219 1.91367187 14.04507812 2 15 C1.34 15 0.68 15 0 15 C-2.25491788 10.49016424 -2.32431261 6.94576735 -2 2 C-1.34 1.34 -0.68 0.68 0 0 Z " fill="#202126" transform="translate(17,16)"/>
<path d="M0 0 C0.80824219 0.10183594 1.61648437 0.20367187 2.44921875 0.30859375 C3.06410156 0.39238281 3.67898437 0.47617187 4.3125 0.5625 C4.3125 0.8925 4.3125 1.2225 4.3125 1.5625 C0.3525 2.2225 -3.6075 2.8825 -7.6875 3.5625 C-7.6875 2.5725 -7.6875 1.5825 -7.6875 0.5625 C-4.59271121 -0.46909626 -3.16118607 -0.41232862 0 0 Z " fill="#11111A" transform="translate(14.6875,52.4375)"/>
<path d="M0 0 C2.88807727 2.38580296 3.61954948 4.29060747 4 8 C3.67 8.66 3.34 9.32 3 10 C1 9 1 9 -0.1875 5.5625 C-1 2 -1 2 0 0 Z " fill="#0C0F16" transform="translate(71,48)"/>
</svg>
