<svg xmlns="http://www.w3.org/2000/svg" width="20" height="20" viewBox="0 0 20 20" fill="none">
  <g clip-path="url(#clip0_1019_4193)">
    <path d="M11.6667 18.3337V15.0003C11.6667 14.5583 11.4911 14.1344 11.1785 13.8218C10.866 13.5093 10.442 13.3337 10 13.3337C9.55798 13.3337 9.13406 13.5093 8.82149 13.8218C8.50893 14.1344 8.33334 14.5583 8.33334 15.0003V18.3337M15 8.33366L18.3333 10.0003V16.667C18.3333 17.109 18.1577 17.5329 17.8452 17.8455C17.5326 18.1581 17.1087 18.3337 16.6667 18.3337H3.33334C2.89131 18.3337 2.46739 18.1581 2.15483 17.8455C1.84227 17.5329 1.66667 17.109 1.66667 16.667V10.0003L5.00001 8.33366M15 4.16699V18.3337M3.33334 5.00033L10 1.66699L16.6667 5.00033M5.00001 4.16699V18.3337M11.6667 7.50033C11.6667 8.4208 10.9205 9.16699 10 9.16699C9.07953 9.16699 8.33334 8.4208 8.33334 7.50033C8.33334 6.57985 9.07953 5.83366 10 5.83366C10.9205 5.83366 11.6667 6.57985 11.6667 7.50033Z" stroke="#4B5563" stroke-width="1.5" stroke-linecap="round" stroke-linejoin="round"/>
  </g>
  <defs>
    <clipPath id="clip0_1019_4193">
      <rect width="20" height="20" fill="white"/>
    </clipPath>
  </defs>
</svg>