<svg width="100" height="87" viewBox="0 0 100 87" fill="none" xmlns="http://www.w3.org/2000/svg">
<g id="Frame" clip-path="url(#clip0_806_5252)">
<g id="Clip path group">
<mask id="mask0_806_5252" style="mask-type:luminance" maskUnits="userSpaceOnUse" x="0" y="0" width="100" height="86">
<g id="clip0_508_39499">
<path id="Vector" d="M100 0.244141H0V85.2501H100V0.244141Z" fill="white"/>
</g>
</mask>
<g mask="url(#mask0_806_5252)">
<g id="Group">
<path id="Vector_2" d="M100 0.244141H0V85.2501H100V0.244141Z" fill="white" fill-opacity="0.01"/>
<path id="Vector_3" d="M69.8098 24.9512H8.94727V85.2696H69.8098V24.9512Z" fill="#CFD4DB"/>
<path id="Vector_4" d="M69.8492 24.9512H25.875V67.3575H69.8492V24.9512Z" fill="url(#paint0_linear_806_5252)"/>
<path id="Vector_5" d="M34.2187 45.1855H19.7891V45.9916H34.2187V45.1855Z" fill="white"/>
<path id="Vector_6" d="M34.2187 40.3887H19.7891V41.1948H34.2187V40.3887Z" fill="white"/>
<path id="Vector_7" d="M27.6085 35.5918H19.7891V36.398H27.6085V35.5918Z" fill="white"/>
<path id="Vector_8" d="M17.1289 35.5918H15.3555V36.398H17.1289V35.5918Z" fill="white"/>
<path id="Vector_9" d="M17.1289 40.3887H15.3555V41.1948H17.1289V40.3887Z" fill="white"/>
<path id="Vector_10" d="M17.1289 45.1855H15.3555V45.9916H17.1289V45.1855Z" fill="white"/>
<path id="Vector_11" d="M17.1289 49.9414H15.3555V50.7475H17.1289V49.9414Z" fill="white"/>
<path id="Vector_12" d="M17.1289 54.7383H15.3555V55.5445H17.1289V54.7383Z" fill="white"/>
<path id="Vector_13" d="M17.1289 59.4941H15.3555V60.3002H17.1289V59.4941Z" fill="white"/>
<path id="Vector_14" d="M17.1289 64.291H15.3555V65.0971H17.1289V64.291Z" fill="white"/>
<path id="Vector_15" d="M17.1289 69.0879H15.3555V69.894H17.1289V69.0879Z" fill="white"/>
<path id="Vector_16" d="M17.1289 73.8438H15.3555V74.6498H17.1289V73.8438Z" fill="white"/>
<path id="Vector_17" d="M61.829 59.4941H37.2422V60.3002H61.829V59.4941Z" fill="white"/>
<path id="Vector_18" d="M34.5009 59.4941H19.7891V60.3002H34.5009V59.4941Z" fill="white"/>
<path id="Vector_19" d="M64.167 64.291H43.248V65.0971H64.167V64.291Z" fill="white"/>
<path id="Vector_20" d="M40.5477 64.291H27.6094V65.0971H40.5477V64.291Z" fill="white"/>
<path id="Vector_21" d="M56.0656 69.0879H27.6094V69.894H56.0656V69.0879Z" fill="white"/>
<path id="Vector_22" d="M47.1972 73.8438H35.4277V74.6498H47.1972V73.8438Z" fill="white"/>
<path id="Vector_23" d="M42.36 49.9414H28.8574V50.7475H42.36V49.9414Z" fill="white"/>
<path id="Vector_24" d="M42.36 54.7383H28.8574V55.5445H42.36V54.7383Z" fill="white"/>
<path id="Vector_25" d="M16.807 55.666C14.0032 55.6613 11.2635 56.5043 8.94727 58.0844V62.5584C10.3549 61.003 12.1924 59.9002 14.2272 59.3896C16.2619 58.8791 18.4024 58.9837 20.3776 59.6903C22.3528 60.3969 24.074 61.6737 25.3232 63.359C26.5724 65.0443 27.2935 67.0624 27.3951 69.1578C27.4968 71.2531 26.9745 73.3315 25.8943 75.1298C24.8141 76.9282 23.2246 78.3656 21.3271 79.2601C19.4295 80.1546 17.3092 80.4659 15.2346 80.1548C13.16 79.8436 11.2244 78.9239 9.67278 77.512L8.94727 76.7865V81.2605C10.7592 82.4782 12.831 83.2549 14.9969 83.5283C17.1628 83.8018 19.3627 83.5644 21.4204 82.8352C23.4781 82.106 25.3366 80.9052 26.847 79.329C28.3575 77.7528 29.4779 75.8449 30.1188 73.7579C30.7597 71.671 30.9031 69.4631 30.5376 67.3108C30.1722 65.1585 29.308 63.1216 28.0142 61.3632C26.7203 59.6048 25.0329 58.1737 23.0868 57.1844C21.1407 56.1951 18.9901 55.6751 16.807 55.666Z" fill="#CFD4DB"/>
<path id="Vector_26" d="M93.511 0.244141H32.6484V60.5625H93.511V0.244141Z" fill="url(#paint1_linear_806_5252)"/>
<path id="Vector_27" d="M57.9219 20.4785H43.4922V21.2846H57.9219V20.4785Z" fill="#FFAB00"/>
<path id="Vector_28" d="M57.9219 15.6816H43.4922V16.4877H57.9219V15.6816Z" fill="#0065FF"/>
<path id="Vector_29" d="M51.3116 10.8848H43.4922V11.691H51.3116V10.8848Z" fill="#E5E8EC"/>
<path id="Vector_30" d="M40.7911 10.8848H39.0176V11.691H40.7911V10.8848Z" fill="#E5E8EC"/>
<path id="Vector_31" d="M40.7911 15.6816H39.0176V16.4877H40.7911V15.6816Z" fill="#E5E8EC"/>
<path id="Vector_32" d="M40.7911 20.4785H39.0176V21.2846H40.7911V20.4785Z" fill="#E5E8EC"/>
<path id="Vector_33" d="M40.7911 25.2344H39.0176V26.0405H40.7911V25.2344Z" fill="#E5E8EC"/>
<path id="Vector_34" d="M40.7911 30.0293H39.0176V30.8355H40.7911V30.0293Z" fill="#E5E8EC"/>
<path id="Vector_35" d="M40.7911 34.7871H39.0176V35.5932H40.7911V34.7871Z" fill="#E5E8EC"/>
<path id="Vector_36" d="M40.7911 39.584H39.0176V40.3901H40.7911V39.584Z" fill="#E5E8EC"/>
<path id="Vector_37" d="M40.7911 44.3789H39.0176V45.185H40.7911V44.3789Z" fill="#E5E8EC"/>
<path id="Vector_38" d="M40.7911 49.1367H39.0176V49.9428H40.7911V49.1367Z" fill="#E5E8EC"/>
<path id="Vector_39" d="M85.4912 34.7871H60.9043V35.5932H85.4912V34.7871Z" fill="#FFAB00"/>
<path id="Vector_40" d="M58.204 34.7871H43.4922V35.5932H58.204V34.7871Z" fill="#E5E8EC"/>
<path id="Vector_41" d="M87.8682 39.584H66.9492V40.3901H87.8682V39.584Z" fill="#FFAB00"/>
<path id="Vector_42" d="M64.2098 39.584H51.2715V40.3901H64.2098V39.584Z" fill="#0065FF"/>
<path id="Vector_43" d="M79.7277 44.3789H51.2715V45.185H79.7277V44.3789Z" fill="#0065FF"/>
<path id="Vector_44" d="M70.8593 49.1367H59.0898V49.9428H70.8593V49.1367Z" fill="#E5E8EC"/>
<path id="Vector_45" d="M66.0632 25.2344H52.5605V26.0405H66.0632V25.2344Z" fill="#E5E8EC"/>
<path id="Vector_46" d="M66.0632 30.0293H52.5605V30.8355H66.0632V30.0293Z" fill="#E5E8EC"/>
<path id="Vector_47" opacity="0.5" d="M93.5119 26.8464C91.7262 24.7337 89.3541 23.1979 86.6956 22.4334C84.037 21.6689 81.2115 21.7099 78.5763 22.5512C75.9411 23.3925 73.6145 24.9964 71.8908 27.16C70.1672 29.3236 69.1238 31.9498 68.8927 34.7064C68.6615 37.4629 69.253 40.2262 70.5924 42.6466C71.9317 45.067 73.9587 47.0359 76.417 48.3043C78.8754 49.5727 81.6546 50.0836 84.4033 49.7725C87.152 49.4613 89.7467 48.342 91.8593 46.5562C92.4497 46.0463 93.0021 45.494 93.5119 44.9036V26.8464ZM82.8307 46.4755C80.7341 46.4755 78.6846 45.8538 76.9414 44.689C75.1981 43.5242 73.8394 41.8686 73.0371 39.9316C72.2347 37.9946 72.0248 35.8632 72.4338 33.8069C72.8429 31.7506 73.8525 29.8618 75.335 28.3793C76.8175 26.8967 78.7063 25.8871 80.7626 25.4781C82.8189 25.0691 84.9504 25.279 86.8874 26.0813C88.8244 26.8837 90.4799 28.2424 91.6448 29.9856C92.8096 31.7289 93.4313 33.7784 93.4313 35.875C93.4313 38.6864 92.3144 41.3827 90.3264 43.3707C88.3384 45.3587 85.6422 46.4755 82.8307 46.4755Z" fill="#091E42"/>
<path id="Vector_48" d="M5.95198 75.6113L-0.0332031 81.5965L1.67685 83.3065L7.66203 77.3213L5.95198 75.6113Z" fill="#0065FF"/>
<path id="Vector_49" d="M84.8442 46.1532C91.6337 46.1532 97.1376 40.6493 97.1376 33.8598C97.1376 27.0703 91.6337 21.5664 84.8442 21.5664C78.0547 21.5664 72.5508 27.0703 72.5508 33.8598C72.5508 40.6493 78.0547 46.1532 84.8442 46.1532Z" fill="#344563"/>
<path id="Vector_50" d="M87.8274 35.2305H72.0273V37.6489H87.8274V35.2305Z" fill="#FDC150"/>
<path id="Vector_51" d="M87.8265 27.6133H73.6387V30.0316H87.8265V27.6133Z" fill="#FAFBFC"/>
<path id="Vector_52" opacity="0.5" d="M97.1376 33.859C97.1376 33.4157 97.1376 33.0126 97.0973 32.5692C95.8881 28.8987 93.2795 25.8535 89.8382 24.095C86.3968 22.3366 82.4006 22.007 78.7177 23.1778C76.8459 24.2538 75.2905 25.8037 74.2079 27.6717C73.1253 29.5396 72.5538 31.6597 72.5508 33.8187C72.9666 32.4025 73.6601 31.0832 74.5908 29.9377C75.5216 28.7922 76.6709 27.8434 77.972 27.1464C79.2731 26.4495 80.6999 26.0185 82.1692 25.8784C83.6385 25.7384 85.121 25.8921 86.5303 26.3307C87.9396 26.7693 89.2475 27.4839 90.3779 28.433C91.5083 29.382 92.4385 30.5465 93.1144 31.8587C93.7903 33.1708 94.1983 34.6043 94.3146 36.0757C94.431 37.5471 94.2534 39.0269 93.7922 40.4289C93.4032 41.6446 92.8177 42.7883 92.059 43.8147C93.632 42.6745 94.9123 41.1779 95.7951 39.4473C96.6779 37.7168 97.138 35.8017 97.1376 33.859Z" fill="#091E42"/>
<path id="Vector_53" d="M84.8444 47.3627C82.1739 47.3627 79.5633 46.5708 77.3428 45.0871C75.1223 43.6034 73.3916 41.4946 72.3696 39.0273C71.3476 36.5601 71.0803 33.8451 71.6013 31.2259C72.1223 28.6066 73.4083 26.2007 75.2966 24.3123C77.185 22.4239 79.5909 21.1379 82.2102 20.6169C84.8294 20.0959 87.5444 20.3633 90.0117 21.3853C92.4789 22.4073 94.5877 24.138 96.0714 26.3585C97.5551 28.5789 98.347 31.1895 98.347 33.8601C98.347 37.4412 96.9244 40.8757 94.3922 43.4079C91.86 45.9401 88.4255 47.3627 84.8444 47.3627ZM84.8444 22.7759C82.6522 22.7759 80.5091 23.4259 78.6863 24.6439C76.8636 25.8618 75.4429 27.593 74.6039 29.6184C73.765 31.6437 73.5455 33.8724 73.9732 36.0225C74.4009 38.1727 75.4565 40.1477 77.0067 41.6978C78.5568 43.248 80.5319 44.3037 82.682 44.7314C84.8321 45.1591 87.0608 44.9396 89.0862 44.1006C91.1116 43.2617 92.8427 41.841 94.0606 40.0182C95.2786 38.1954 95.9287 36.0524 95.9287 33.8601C95.9287 30.9204 94.7609 28.1011 92.6822 26.0224C90.6035 23.9437 87.7841 22.7759 84.8444 22.7759Z" fill="#0065FF"/>
<path id="Vector_54" d="M15.6391 79.8485C22.4286 79.8485 27.9326 74.3446 27.9326 67.5551C27.9326 60.7656 22.4286 55.2617 15.6391 55.2617C8.84966 55.2617 3.3457 60.7656 3.3457 67.5551C3.3457 74.3446 8.84966 79.8485 15.6391 79.8485Z" fill="#E5E8EC"/>
<path id="Vector_55" d="M21.4441 72.7539H14.2695V75.1723H21.4441V72.7539Z" fill="white"/>
<path id="Vector_56" d="M21.4441 65.1777H14.2695V67.5961H21.4441V65.1777Z" fill="white"/>
<path id="Vector_57" d="M21.1216 57.5586H14.2695V59.977H21.1216V57.5586Z" fill="white"/>
<path id="Vector_58" opacity="0.2" d="M17.4529 55.3828C13.9568 55.4989 10.6164 56.8569 8.0311 59.2133C5.44576 61.5696 3.78463 64.7701 3.3457 68.2405C3.48102 70.6706 4.33465 73.0059 5.79844 74.9505C7.26223 76.895 9.27029 78.3613 11.5682 79.1635C10.2935 78.367 9.19342 77.3204 8.33441 76.0869C7.4754 74.8534 6.87526 73.4587 6.57024 71.9868C6.26522 70.515 6.26163 68.9966 6.5597 67.5234C6.85777 66.0501 7.45131 64.6525 8.30448 63.415C9.15766 62.1775 10.2528 61.1257 11.5237 60.3232C12.7946 59.5206 14.215 58.984 15.6991 58.7456C17.1832 58.5072 18.7002 58.5721 20.1585 58.9362C21.6169 59.3004 22.9863 59.9563 24.1841 60.8644C25.5806 61.8093 26.7395 63.0647 27.5698 64.5323C26.9609 62.1861 25.6784 60.0694 23.8806 58.4435C22.0828 56.8176 19.8483 55.7536 17.4529 55.3828Z" fill="#091E42"/>
<path id="Vector_59" d="M15.6393 81.058C12.9688 81.058 10.3582 80.2661 8.13769 78.7824C5.9172 77.2988 4.18653 75.1899 3.16455 72.7227C2.14257 70.2554 1.87517 67.5404 2.39617 64.9212C2.91718 62.3019 4.20318 59.896 6.09155 58.0076C7.97993 56.1192 10.3859 54.8333 13.0051 54.3122C15.6244 53.7912 18.3393 54.0586 20.8066 55.0806C23.2739 56.1026 25.3827 57.8333 26.8664 60.0538C28.35 62.2743 29.142 64.8849 29.142 67.5554C29.142 71.1365 27.7194 74.571 25.1871 77.1032C22.6549 79.6354 19.2205 81.058 15.6393 81.058ZM15.6393 56.4712C13.4471 56.4712 11.3041 57.1213 9.48127 58.3392C7.65848 59.5572 6.23778 61.2883 5.39884 63.3137C4.5599 65.339 4.3404 67.5677 4.76808 69.7178C5.19577 71.868 6.25144 73.843 7.8016 75.3932C9.35176 76.9433 11.3268 77.999 13.4769 78.4267C15.627 78.8544 17.8557 78.6349 19.8811 77.7959C21.9065 76.957 23.6376 75.5363 24.8556 73.7135C26.0735 71.8907 26.7236 69.7477 26.7236 67.5554C26.7236 64.6157 25.5558 61.7964 23.4771 59.7177C21.3984 57.639 18.5791 56.4712 15.6393 56.4712Z" fill="#0065FF"/>
<path id="Vector_60" d="M94.0284 41.9648L92.3184 43.6748L98.2921 49.6486L100.002 47.9386L94.0284 41.9648Z" fill="#0065FF"/>
</g>
</g>
</g>
</g>
<defs>
<linearGradient id="paint0_linear_806_5252" x1="47.85" y1="67.3575" x2="47.85" y2="7.03905" gradientUnits="userSpaceOnUse">
<stop stop-color="#E5E8EC" stop-opacity="0.1"/>
<stop offset="0.08" stop-color="#E1E4E9" stop-opacity="0.27"/>
<stop offset="0.18" stop-color="#DCE0E5" stop-opacity="0.46"/>
<stop offset="0.29" stop-color="#D8DCE2" stop-opacity="0.63"/>
<stop offset="0.4" stop-color="#D5D9DF" stop-opacity="0.76"/>
<stop offset="0.53" stop-color="#D2D7DD" stop-opacity="0.87"/>
<stop offset="0.66" stop-color="#D0D5DC" stop-opacity="0.94"/>
<stop offset="0.8" stop-color="#CFD4DB" stop-opacity="0.99"/>
<stop offset="1" stop-color="#CFD4DB"/>
</linearGradient>
<linearGradient id="paint1_linear_806_5252" x1="32.7734" y1="60.6996" x2="93.3619" y2="0.107094" gradientUnits="userSpaceOnUse">
<stop stop-color="#172B4D"/>
<stop offset="0.58" stop-color="#192D4E"/>
<stop offset="0.78" stop-color="#203354"/>
<stop offset="0.93" stop-color="#2B3D5C"/>
<stop offset="1" stop-color="#344563"/>
</linearGradient>
<clipPath id="clip0_806_5252">
<rect width="100" height="86" fill="white" transform="translate(0 0.244141)"/>
</clipPath>
</defs>
</svg>
