<svg width="20" height="20" viewBox="0 0 20 20" fill="none" xmlns="http://www.w3.org/2000/svg">
<g id="icon">
<path id="Vector" d="M2.5 8.33301L4.16667 7.2219M17.5 8.33301L15.8333 7.2219M15.8333 7.2219L10 3.33301L4.16667 7.2219M15.8333 7.2219V14.9997C15.8333 15.4599 15.4602 15.833 15 15.833H12.5C12.0398 15.833 11.6667 15.4599 11.6667 14.9997V11.6663C11.6667 11.2061 11.2936 10.833 10.8333 10.833H9.16667C8.70643 10.833 8.33333 11.2061 8.33333 11.6663V14.9997C8.33333 15.4599 7.96024 15.833 7.5 15.833H5C4.53976 15.833 4.16667 15.4599 4.16667 14.9997L4.16667 7.2219" stroke="#2563EB" stroke-width="1.5" stroke-linecap="round" stroke-linejoin="round"/>
</g>
</svg>
