<svg width="100" height="66" viewBox="0 0 100 66" fill="none" xmlns="http://www.w3.org/2000/svg">
<g id="Frame" clip-path="url(#clip0_806_4909)">
<g id="Clip path group">
<mask id="mask0_806_4909" style="mask-type:luminance" maskUnits="userSpaceOnUse" x="0" y="-1" width="100" height="67">
<g id="clip0_989_5732">
<path id="Vector" d="M100 -0.00195312H0V65.1993H100V-0.00195312Z" fill="white"/>
</g>
</mask>
<g mask="url(#mask0_806_4909)">
<g id="Group">
<path id="Vector_2" d="M100 -0.00195312H0V65.1993H100V-0.00195312Z" fill="white" fill-opacity="0.01"/>
<path id="Vector_3" opacity="0.1" d="M42.2061 63.4763C45.5508 63.4763 48.2622 63.0349 48.2622 62.4892C48.2622 61.944 45.5508 61.502 42.2061 61.502C38.8614 61.502 36.15 61.944 36.15 62.4892C36.15 63.0349 38.8614 63.4763 42.2061 63.4763Z" fill="#344563"/>
<path id="Vector_4" opacity="0.1" d="M7.46711 63.8631C11.3503 63.8631 14.4983 63.3503 14.4983 62.718C14.4983 62.0851 11.3503 61.5723 7.46711 61.5723C3.58387 61.5723 0.435913 62.0851 0.435913 62.718C0.435913 63.3503 3.58387 63.8631 7.46711 63.8631Z" fill="#344563"/>
<path id="Vector_5" opacity="0.1" d="M71.2043 65.2003C75.7189 65.2003 79.3793 64.6033 79.3793 63.8667C79.3793 63.1302 75.7189 62.5332 71.2043 62.5332C66.6897 62.5332 63.0293 63.1302 63.0293 63.8667C63.0293 64.6033 66.6897 65.2003 71.2043 65.2003Z" fill="#344563"/>
<path id="Vector_6" opacity="0.05" d="M99.3202 55.2246H37.8086L9.06897 59.8417H86.9232L99.4202 56.5792C99.7927 56.523 100.047 56.1751 99.9909 55.8027C99.9415 55.4706 99.6556 55.2246 99.3202 55.2246Z" fill="#344563"/>
<path id="Vector_7" d="M39.4236 56.082H93.1817C93.6 56.1048 93.9561 55.7851 93.9793 55.3669C93.9848 55.2703 93.972 55.1754 93.9403 55.084L77.9037 4.93398C77.7573 4.51935 77.3659 4.24352 76.9268 4.24001H23.1703C22.7522 4.2119 22.392 4.52989 22.3657 4.94628C22.3586 5.04466 22.3727 5.14305 22.4043 5.23792L38.4484 55.3862C38.5925 55.8026 38.9843 56.0802 39.4236 56.082Z" fill="url(#paint0_linear_806_4909)"/>
<path id="Vector_8" d="M32.2586 59.8421H86.0146C86.5158 59.8457 86.9231 59.4416 86.925 58.9409C86.925 58.8846 86.9195 58.8284 86.9109 58.774L77.0933 4.98536C77.014 4.55492 76.6402 4.24044 76.2006 4.24219H22.4427C21.942 4.24219 21.5361 4.64628 21.5361 5.14699C21.5361 5.20321 21.5414 5.25767 21.552 5.31213L31.3661 59.099C31.4434 59.5312 31.8211 59.8439 32.2586 59.8421Z" fill="#C1C7D0"/>
<path id="Vector_9" d="M78.2988 59.8421H24.5143C24.0347 59.8439 23.6376 59.4696 23.6078 58.9901L20.3381 5.20496C20.3065 4.706 20.686 4.27557 21.185 4.24394C21.2043 4.24219 21.2236 4.24219 21.243 4.24219H75.0274C75.5067 4.24219 75.9042 4.61464 75.9341 5.09427L79.2055 58.8811C79.2372 59.3801 78.8573 59.8105 78.3585 59.8421C78.3372 59.8421 78.3183 59.8421 78.2988 59.8421Z" fill="url(#paint1_linear_806_4909)"/>
<path id="Vector_10" d="M70.5702 59.842H16.7841C16.2834 59.8437 15.8775 59.4379 15.8757 58.9371C15.8757 58.9178 15.8757 58.8985 15.8775 58.8792L19.1524 5.09233C19.1805 4.6127 19.5793 4.24024 20.059 4.24024H73.8415C74.3421 4.23848 74.7482 4.64433 74.7501 5.14503C74.7501 5.16436 74.7501 5.18369 74.7482 5.20301L71.4751 58.9881C71.447 59.4677 71.0501 59.842 70.5702 59.842Z" fill="url(#paint2_linear_806_4909)"/>
<path id="Vector_11" d="M62.8256 59.8421H9.06918C8.56845 59.8421 8.1626 59.4381 8.1626 58.9373C8.1626 58.8829 8.1679 58.8284 8.17668 58.774L17.982 4.98536C18.0611 4.55492 18.4353 4.24044 18.8745 4.24219H72.6414C73.1421 4.24219 73.5481 4.64628 73.5481 5.14699C73.5481 5.20321 73.5427 5.25767 73.5323 5.31213L63.7183 59.099C63.639 59.5294 63.2628 59.8421 62.8256 59.8421Z" fill="url(#paint3_linear_806_4909)"/>
<path id="Vector_12" d="M73.5317 5.31215C73.6146 4.88172 73.3774 4.45304 72.9677 4.29492L20.814 5.90071C20.3747 5.90246 19.9847 6.18004 19.8371 6.59467L14.8563 22.1606L8.3645 57.741H58.3188C58.758 57.7392 59.1481 57.4616 59.2957 57.0469L72.8537 9.05784L73.5317 5.31215Z" fill="url(#paint4_linear_806_4909)"/>
<path id="Vector_13" d="M55.0004 56.082H1.24236C0.82421 56.1101 0.46404 55.7921 0.437687 55.3757C0.430659 55.2773 0.444715 55.1789 0.476339 55.084L16.5187 4.93398C16.6645 4.51935 17.0563 4.24352 17.4956 4.24001H71.2555C71.6732 4.2119 72.0336 4.52989 72.0598 4.94628C72.0671 5.04466 72.0531 5.14305 72.0214 5.23792L55.9772 55.3862C55.8331 55.8026 55.4414 56.0802 55.0004 56.082Z" fill="url(#paint5_linear_806_4909)"/>
<path id="Vector_14" d="M71.2548 4.242H17.4969C17.0576 4.24376 16.6676 4.52134 16.52 4.93596L14.1482 12.357H69.7475L72.0225 5.24518C72.1579 4.84988 71.9469 4.41768 71.5518 4.28241C71.4567 4.24903 71.3548 4.23497 71.2548 4.242Z" fill="#FF7143"/>
<path id="Vector_15" d="M60.1582 9.57269C60.9345 9.57269 61.564 8.94349 61.564 8.16721C61.564 7.39099 60.9345 6.76172 60.1582 6.76172C59.382 6.76172 58.7527 7.39099 58.7527 8.16721C58.7527 8.94349 59.382 9.57269 60.1582 9.57269Z" fill="#0065FF"/>
<path id="Vector_16" d="M64.3994 4.24091H63.7689C63.7689 2.25036 62.1488 0.628766 60.1566 0.628766C58.1642 0.628766 56.5443 2.24861 56.5443 4.24091H55.9136C55.9153 1.90075 57.8181 -0.00195312 60.1583 -0.00195312C62.4988 -0.00195312 64.3994 1.90075 64.3994 4.24091Z" fill="#EBECF0"/>
<path id="Vector_17" d="M60.16 8.48112C57.8216 8.48112 55.9171 6.57844 55.9171 4.23828H56.5478C56.5478 6.22881 58.1677 7.85045 60.16 7.85045V8.48112Z" fill="url(#paint6_linear_806_4909)"/>
<path id="Vector_18" d="M42.3045 9.57269C43.0807 9.57269 43.71 8.94349 43.71 8.16721C43.71 7.39099 43.0807 6.76172 42.3045 6.76172C41.5282 6.76172 40.8989 7.39099 40.8989 8.16721C40.8989 8.94349 41.5282 9.57269 42.3045 9.57269Z" fill="#0065FF"/>
<path id="Vector_19" d="M46.5474 4.24091H45.9167C45.9167 2.25036 44.2968 0.628766 42.3045 0.628766C40.3139 0.628766 38.6923 2.24861 38.6923 4.24091H38.0615C38.0633 1.90075 39.966 -0.00195312 42.3062 -0.00195312C44.6447 -0.00195312 46.5474 1.90075 46.5474 4.24091Z" fill="#EBECF0"/>
<path id="Vector_20" d="M42.3045 8.48112C39.966 8.48112 38.0615 6.57844 38.0615 4.23828H38.6923C38.6923 6.22881 40.3121 7.85045 42.3045 7.85045V8.48112Z" fill="url(#paint7_linear_806_4909)"/>
<path id="Vector_21" d="M24.453 9.57269C25.2293 9.57269 25.8585 8.94349 25.8585 8.16721C25.8585 7.39099 25.2293 6.76172 24.453 6.76172C23.6768 6.76172 23.0475 7.39099 23.0475 8.16721C23.0475 8.94349 23.6768 9.57269 24.453 9.57269Z" fill="#0065FF"/>
<path id="Vector_22" d="M28.6889 4.24091H28.0581C28.0581 2.25036 26.4382 0.628766 24.4459 0.628766C22.4536 0.628766 20.8337 2.24861 20.8337 4.24091H20.2047C20.2047 1.90075 22.1075 -0.00195312 24.4459 -0.00195312C26.7844 -0.00195312 28.6889 1.90075 28.6889 4.24091Z" fill="#EBECF0"/>
<path id="Vector_23" d="M24.4458 8.48112C23.3144 8.48112 22.2515 8.04192 21.4503 7.24252C20.6474 6.4432 20.2046 5.3785 20.2029 4.24531L20.8336 4.23828C20.8354 5.20808 21.2114 6.11466 21.8948 6.79631C22.5765 7.47618 23.4813 7.85045 24.4441 7.85045C24.4458 7.85045 24.4476 7.85045 24.4493 7.85045L24.4511 8.48112C24.4511 8.48112 24.4493 8.48112 24.4458 8.48112Z" fill="url(#paint8_linear_806_4909)"/>
<path id="Vector_24" d="M60.2097 23.7876L60.3749 23.2746H51.3478L53.6265 16.1855H53.1135L50.8348 23.2746H44.2165L46.4917 16.1855H45.9787L43.7 23.2746H37.0887L39.3674 16.1855H38.8544L36.574 23.2746H29.9557L32.2361 16.1855H31.7231L29.4444 23.2746H22.8243L25.103 16.1855H24.5901L22.3113 23.2746H15.2222L15.0518 23.7876H22.1409L20.0151 30.404H12.9294L12.7643 30.9169H19.8534L17.7276 37.5351H10.6366L10.4715 38.0482H17.5606L15.4347 44.6663H8.34383L8.17871 45.1793H15.2679L12.9891 52.2683H13.5021L15.7808 45.1793H22.3974L20.1187 52.2683H20.6317L22.9104 45.1793H29.5269L27.2482 52.2683H27.7613L30.04 45.1793H36.6565L34.3848 52.2683H34.8979L37.1766 45.1793H43.7931L41.5144 52.2683H42.0274L44.3061 45.1793H53.3261L53.4913 44.6663H44.4695L46.5954 38.0499H55.6207L55.7858 37.5369H46.7605L48.8864 30.9205H57.9116L58.0768 30.4075H49.0515L51.1739 23.7876H60.2097ZM43.5383 23.7876L41.4143 30.404H34.7924L36.9236 23.7876H43.5383ZM34.629 30.9187H41.2455L39.1197 37.5351H32.5014L34.629 30.9187ZM31.9866 37.5351H25.3701L27.496 30.9187H34.1125L31.9866 37.5351ZM36.407 23.7876L34.2811 30.404H27.6629L29.7887 23.7876H36.407ZM22.661 23.7876H29.2775L27.1516 30.404H20.5333L22.661 23.7876ZM20.3682 30.9187H26.9847L24.8571 37.5351H18.2405L20.3682 30.9187ZM15.946 44.6663L18.0719 38.0499H24.6884L22.5626 44.6663H15.946ZM23.0773 44.6663L25.2049 38.0482H31.8215L29.6974 44.6663H23.0773ZM30.2086 44.6663L32.3345 38.0499H38.951L36.8252 44.6663H30.2086ZM43.9565 44.6663H37.3382L39.4605 38.0482H46.0771L43.9565 44.6663ZM46.2493 37.5351H39.631L41.7568 30.9187H48.3733L46.2493 37.5351ZM48.5421 30.404H41.9237L44.0496 23.7876H50.6661L48.5421 30.404Z" fill="url(#paint9_linear_806_4909)"/>
<path id="Vector_25" opacity="0.7" d="M27.506 33.1023L27.2565 33.5362C27.1827 33.6645 27.2267 33.8278 27.3549 33.9017C27.3567 33.9017 27.3567 33.9034 27.3584 33.9034L29.5335 35.1051C28.2967 35.3247 27.1213 35.8131 26.0952 36.5387C22.2441 39.1529 21.8945 48.048 21.7539 49.0354C21.7328 49.1812 21.8329 49.3147 21.9788 49.3358C21.984 49.3358 21.9893 49.3376 21.9946 49.3376L22.657 49.3973C22.7975 49.4096 22.924 49.3112 22.9433 49.1707C23.0645 48.3396 23.6671 39.7767 26.8296 37.4698C27.8697 36.7126 29.1048 36.2734 30.3891 36.2031L28.3318 38.8209C28.2404 38.9368 28.2615 39.1055 28.3792 39.1968L28.381 39.1986L28.7868 39.5026C28.9027 39.5904 29.0679 39.5676 29.1575 39.4534L31.9668 35.8764C32.1249 35.6743 32.0898 35.3827 31.8877 35.2246C31.8684 35.2087 31.8474 35.1965 31.8263 35.1842L27.8662 32.9986C27.7379 32.9301 27.5781 32.9757 27.506 33.1023Z" fill="url(#paint10_linear_806_4909)"/>
<path id="Vector_26" opacity="0.7" d="M61.7359 27.2455L61.7957 26.6604C61.8134 26.49 61.6902 26.3372 61.5201 26.3196C61.5183 26.3196 61.5146 26.3196 61.5128 26.3196L58.6209 26.0719C59.8666 25.2866 60.8944 24.1973 61.6061 22.9077C63.0957 20.1846 62.6109 17.5282 62.2945 16.4178C62.2475 16.2527 62.0768 16.156 61.9115 16.2035C61.9067 16.2053 61.8994 16.207 61.8939 16.2088L61.1597 16.46C61.0048 16.5145 60.9208 16.6796 60.9647 16.8377C61.4792 18.6561 61.2707 20.6045 60.3797 22.2718C59.6453 23.5859 58.5331 24.6471 57.1856 25.3164L58.1378 21.5338C58.18 21.367 58.0798 21.1983 57.913 21.1562C57.9112 21.1562 57.9076 21.1544 57.9059 21.1544L57.3209 21.0209C57.1557 20.9822 56.9906 21.0841 56.9501 21.2475L55.6694 26.4022C55.5973 26.6938 55.7748 26.9872 56.0647 27.0593C56.091 27.0663 56.1191 27.0698 56.1472 27.0733L61.4006 27.5318C61.5707 27.5459 61.7219 27.4194 61.7359 27.249C61.7359 27.2473 61.7359 27.2455 61.7359 27.2455Z" fill="url(#paint11_linear_806_4909)"/>
<path id="Vector_27" d="M43.4854 41.7532C40.9696 41.7637 38.5907 40.6094 37.0411 38.6294C35.7111 36.941 35.2245 34.7362 35.7199 32.6437C36.2909 30.1946 38.1076 27.9335 40.7078 26.4402C43.2342 24.989 45.9961 24.5674 47.9146 25.3404C49.0671 25.806 49.9807 26.7195 50.6291 28.0583L49.5398 28.6873C49.0004 27.5734 48.2607 26.8197 47.3436 26.4507C45.7677 25.8165 43.3537 26.2083 41.1945 27.4487C38.9368 28.7452 37.3643 30.6795 36.883 32.7579C36.4701 34.5359 36.8918 36.4052 38.0267 37.8353C39.376 39.5641 41.4474 40.5725 43.6401 40.569C47.1328 40.569 51.5374 37.5384 52.5582 32.656C53.4471 28.4044 50.9576 24.4549 46.7638 23.4781L47.182 22.3203C51.9204 23.4289 54.7332 27.909 53.723 32.7404C52.8164 37.071 48.6455 41.7479 43.4767 41.7532H43.4854Z" fill="#FF8F73"/>
<path id="Vector_28" d="M55.0248 46.3554L53.2187 45.7563C53.1326 45.7282 53.0395 45.7739 53.0096 45.86L52.2981 47.9472C52.2682 48.0332 52.3139 48.1281 52.4017 48.158L52.7162 48.2652C52.8023 48.295 52.8972 48.2493 52.927 48.1615L53.2872 47.1038L55.1232 51.8668C55.1566 51.9511 55.2514 51.995 55.3358 51.9616L55.6467 51.8439C55.7328 51.8105 55.775 51.7157 55.7434 51.6296L53.8283 46.6576L54.8157 46.9861C54.9018 47.0143 54.9967 46.9668 55.0248 46.8807L55.1302 46.5663C55.1566 46.4802 55.1109 46.3853 55.0248 46.3554Z" fill="#FF8F73"/>
<path id="Vector_29" d="M50.3532 43.1377L48.6648 42.2628C48.584 42.2207 48.4838 42.2523 48.4416 42.3331L47.4121 44.285C47.3699 44.3658 47.3998 44.466 47.4824 44.5099L47.7758 44.6645C47.8566 44.7066 47.9567 44.6767 48.0007 44.5942L48.5224 43.6033L49.1075 46.3827C49.1268 46.4723 49.2129 46.5303 49.3025 46.511L49.6276 46.4424C49.7171 46.4231 49.7751 46.337 49.7558 46.2474L49.1304 43.2484L50.0545 43.7263C50.1353 43.7685 50.2354 43.7386 50.2794 43.656L50.4322 43.3609C50.4726 43.2783 50.4393 43.1799 50.3584 43.1377C50.3566 43.1377 50.3549 43.1377 50.3532 43.1377Z" fill="#FFC400"/>
<path id="Vector_30" d="M54.7649 39.0529L52.8693 39.2251C52.7779 39.2338 52.7111 39.3129 52.7182 39.4042L52.9008 41.6021C52.9079 41.6935 52.9887 41.762 53.0801 41.7549C53.0801 41.7549 53.0801 41.7549 53.0818 41.7549L53.4121 41.7268C53.5035 41.7198 53.572 41.639 53.565 41.5476C53.565 41.5476 53.565 41.5476 53.565 41.5459L53.4719 40.4303L55.4554 42.4612C55.5204 42.5262 55.6258 42.5262 55.6891 42.4612L55.928 42.2293C55.993 42.1643 55.993 42.0589 55.928 41.9956L53.7793 39.8031L54.8159 39.7099C54.9073 39.7012 54.974 39.6221 54.967 39.5307L54.9371 39.2004C54.9266 39.1126 54.8528 39.0493 54.7649 39.0529Z" fill="#FFC400"/>
<path id="Vector_31" d="M31.3909 31.7476L32.7929 30.4616C32.8614 30.4 32.8667 30.2947 32.8052 30.2279L31.3258 28.5922C31.2644 28.5237 31.1589 28.5185 31.0922 28.5799L30.8462 28.803C30.7777 28.8646 30.7724 28.97 30.8339 29.0368L31.5841 29.866L28.7766 29.4531C28.687 29.4355 28.5991 29.4953 28.5833 29.5849C28.5833 29.5884 28.5816 29.5902 28.5816 29.5936L28.5324 29.9222C28.5148 30.0118 28.5746 30.0996 28.6641 30.1155C28.6677 30.1155 28.6694 30.1172 28.6729 30.1172L31.7054 30.5599L30.9376 31.2627C30.8708 31.3242 30.8655 31.4296 30.9271 31.4964L31.1519 31.7406C31.2134 31.8091 31.3188 31.8144 31.3856 31.7511C31.3874 31.7511 31.3891 31.7494 31.3909 31.7476Z" fill="#FF8F73"/>
<path id="Vector_32" d="M33.4322 28.5278L35.3209 28.2994C35.4104 28.2888 35.4754 28.2062 35.4649 28.1167L35.2172 25.9258C35.2067 25.8345 35.1241 25.7695 35.0345 25.78L34.7042 25.8169C34.6128 25.8274 34.5478 25.91 34.5584 25.9996L34.6831 27.11L30.1327 22.6317C30.0677 22.5667 29.964 22.5649 29.8973 22.6299L29.8955 22.6317L29.6653 22.8706C29.6003 22.9356 29.6003 23.041 29.6653 23.1043L34.3826 27.7442L33.3496 27.8689C33.2583 27.8795 33.1933 27.962 33.2055 28.0534L33.2442 28.3837C33.2583 28.475 33.3408 28.54 33.4322 28.5278Z" fill="#FFE380"/>
<path id="Vector_33" d="M35.9462 43.4245C35.8302 43.4842 35.7002 43.5141 35.5684 43.5106L34.7673 43.4895L34.2262 44.1852C34.1418 44.2942 34.0364 44.382 33.9134 44.4453C33.7061 44.5559 33.4601 44.5612 33.2476 44.4611C33.0385 44.3592 32.8926 44.1606 32.8575 43.9322L32.7117 43.11L31.9755 42.8465C31.6944 42.7394 31.5082 42.4705 31.5082 42.1683C31.4994 41.8451 31.654 41.5394 31.9211 41.3567L32.6326 40.8683L32.7187 40.0091C32.7503 39.6877 32.9436 39.403 33.2317 39.2555C33.4952 39.1096 33.8203 39.1448 34.0487 39.3416L34.6337 39.8633L35.4155 39.5963C35.6949 39.4926 36.0076 39.5769 36.1974 39.8071C36.3871 40.0566 36.4223 40.3886 36.2888 40.6715L35.9462 41.4831L36.3485 42.1771C36.4662 42.3897 36.4873 42.6409 36.4065 42.8711C36.3309 43.1065 36.1658 43.3068 35.9462 43.4245Z" fill="url(#paint12_linear_806_4909)"/>
<path id="Vector_34" d="M36.0396 42.9089C35.9237 42.9687 35.7936 42.9985 35.6619 42.995L34.8607 42.9739L34.3196 43.6696C34.2353 43.7785 34.1298 43.8664 34.0069 43.9296C33.7995 44.0404 33.5536 44.0456 33.341 43.9455C33.1319 43.8436 32.9861 43.6451 32.9509 43.4166L32.8052 42.5944L32.069 42.3309C31.7879 42.2237 31.6017 41.9549 31.6017 41.6527C31.5928 41.3294 31.7475 41.0238 32.0145 40.841L32.7261 40.3526L32.8122 39.4935C32.8438 39.172 33.037 38.8874 33.3252 38.7398C33.5887 38.594 33.9137 38.6291 34.1422 38.8259L34.7272 39.3477L35.5091 39.0807C35.7884 38.977 36.1011 39.0613 36.2908 39.2915C36.4806 39.541 36.5158 39.873 36.3822 40.1558L36.0326 40.9658L36.4349 41.6597C36.5527 41.8724 36.5737 42.1236 36.4929 42.3537C36.4209 42.5874 36.2575 42.7877 36.0396 42.9089Z" fill="white"/>
<path id="Vector_35" d="M33.8221 39.2259L34.5881 39.9076L35.6212 39.558C35.7776 39.507 35.9444 39.5913 35.9954 39.746C36.0218 39.8268 36.0129 39.9146 35.969 39.9884L35.5123 41.0496L36.0393 41.9579C36.1307 42.1388 36.0587 42.3602 35.8777 42.4515C35.8302 42.4762 35.7775 42.4884 35.7248 42.4919L34.6777 42.4638L33.9697 43.3739C33.8836 43.5144 33.7008 43.5566 33.5621 43.4722C33.49 43.4283 33.4408 43.3563 33.425 43.2738L33.23 42.1985L32.2655 41.8524C32.0985 41.7681 32.0301 41.5643 32.1144 41.3957C32.1442 41.3377 32.1882 41.2885 32.2444 41.2569L33.1738 40.6191L33.2862 39.4965C33.2898 39.3102 33.4443 39.1609 33.6306 39.1661C33.6991 39.1644 33.7658 39.1872 33.8221 39.2259Z" fill="#FFAB00"/>
<path id="Vector_36" d="M55.4374 34.4894C55.3197 34.4314 55.2196 34.3471 55.1422 34.2417L54.6767 33.5864L53.7964 33.5724C53.6611 33.5706 53.5277 33.5372 53.4064 33.4792C53.1956 33.3791 53.0427 33.1876 52.9935 32.9574C52.9532 32.7291 53.0269 32.4971 53.1886 32.332L53.7596 31.7206L53.5189 30.9739C53.4345 30.6841 53.5382 30.3731 53.7789 30.1921C54.0319 29.9901 54.371 29.9303 54.6767 30.034L55.4936 30.3081L56.2315 29.86C56.5074 29.6931 56.85 29.6774 57.1416 29.8179C57.4157 29.9409 57.5844 30.222 57.5633 30.5206L57.4983 31.3025L58.1852 31.7733C58.4364 31.9332 58.5577 32.2353 58.4874 32.5252C58.3996 32.8239 58.1553 33.0488 57.8514 33.1103L56.994 33.3194L56.6813 34.0572C56.5829 34.2786 56.3949 34.4473 56.163 34.5193C55.9294 34.6072 55.6675 34.5966 55.4374 34.4894Z" fill="url(#paint13_linear_806_4909)"/>
<path id="Vector_37" d="M55.9066 34.2553C55.7889 34.1973 55.6888 34.113 55.6114 34.0075L55.1459 33.3557L54.2657 33.3417C54.1304 33.3399 53.9969 33.3066 53.8757 33.2486C53.6648 33.1485 53.5119 32.9569 53.4628 32.7268C53.4224 32.4984 53.4961 32.2665 53.6578 32.1013L54.2288 31.4899L53.9969 30.7415C53.9125 30.4516 54.0162 30.1407 54.2569 29.9597C54.5099 29.7577 54.8489 29.6979 55.1547 29.8016L55.9716 30.0757L56.7096 29.6277C56.9853 29.4607 57.328 29.4449 57.6196 29.5855C57.8937 29.7085 58.0624 29.9896 58.0413 30.2882L57.9763 31.07L58.6632 31.5409C58.9145 31.7008 59.0357 32.003 58.9654 32.2929C58.8775 32.5915 58.6333 32.8164 58.3294 32.8779L57.4721 33.0869L57.1593 33.8249C57.0609 34.0462 56.8729 34.2149 56.641 34.2869C56.4021 34.3765 56.1385 34.3642 55.9066 34.2553Z" fill="white"/>
<path id="Vector_38" d="M57.5145 30.265L57.4302 31.2857L58.3297 31.9006C58.465 31.9938 58.4984 32.1782 58.4053 32.3135C58.3578 32.3838 58.2805 32.4295 58.1962 32.44L57.0753 32.7141L56.6677 33.6909C56.5781 33.8736 56.3584 33.9474 56.1758 33.8578C56.1283 33.835 56.0861 33.7998 56.0528 33.7594L55.4431 32.9056L54.2906 32.888C54.1272 32.9038 53.9814 32.7844 53.9656 32.6227C53.9568 32.5384 53.9849 32.4558 54.0428 32.3925L54.7895 31.5914L54.4856 30.6146C54.41 30.3722 54.6806 30.1491 54.9476 30.2404L56.0159 30.597L56.9804 30.012C57.1333 29.9031 57.3441 29.94 57.4512 30.0911C57.4882 30.142 57.5092 30.2017 57.5145 30.265Z" fill="#2684FF"/>
<path id="Vector_39" d="M19.7705 50.0142L19.9462 50.2759L21.2358 49.4098L20.9969 49.0549C20.591 48.4506 20.41 47.725 20.4856 47.0011V46.9116C20.5611 46.1877 20.3801 45.4603 19.9744 44.8577L4.35186 21.6195C3.61923 20.5302 2.14166 20.2403 1.05237 20.973C-0.0369133 21.7056 -0.326804 23.1831 0.405829 24.2724L15.9721 47.4158C16.4166 48.0763 17.0965 48.5402 17.8713 48.7141C18.6478 48.8898 19.326 49.3536 19.7705 50.0142Z" fill="#4C9AFF"/>
<path id="Vector_40" d="M10.1214 38.7099C10.146 37.4292 10.2795 35.7215 10.3814 34.4144C10.4868 33.0476 10.5764 31.8985 10.6168 30.9252L9.4028 29.1191C9.41511 30.6073 9.24469 32.798 9.12518 34.3177C9.04792 35.3192 8.98286 36.1924 8.93018 36.9513L10.1214 38.7099Z" fill="#2684FF"/>
<path id="Vector_41" d="M4.89812 22.4238C4.63458 29.3319 5.24423 30.9236 6.3019 31.1309C7.24885 31.3136 7.91123 30.1893 8.6105 28.9998C8.70532 28.8382 8.82306 28.6379 8.94428 28.4429L8.18001 27.308C7.96391 27.6172 7.74782 27.9791 7.52471 28.3621C7.27172 28.7925 6.83074 29.5427 6.54788 29.8115C6.37038 29.4636 6.04187 28.2672 6.10684 24.2264L4.89812 22.4238Z" fill="#2684FF"/>
<path id="Vector_42" d="M12.8042 34.1699C11.7184 36.9388 10.9981 38.4655 10.5308 39.3158L11.3126 40.4683C11.8748 39.5899 12.6145 38.0544 13.6563 35.4402L12.8042 34.1699Z" fill="#2684FF"/>
<path id="Vector_43" d="M21.2128 51.1593L21.6028 50.5918C21.6573 50.5128 21.6573 50.4091 21.6028 50.33L21.0617 49.5254L20.1428 50.1438L20.8245 51.1575C20.8948 51.2647 21.0389 51.2963 21.146 51.2261C21.1723 51.2085 21.1952 51.1856 21.2128 51.1593Z" fill="#0065FF"/>
<path id="Vector_44" d="M57.3226 41.2015L57.0819 41.3965L58.0324 42.5841L58.3592 42.3224C58.9143 41.8779 59.6101 41.6407 60.3216 41.6548H60.4095C61.1207 41.6688 61.8165 41.4316 62.372 40.9871L83.7586 23.8506C84.7622 23.0477 84.9238 21.5824 84.1207 20.5793C84.1207 20.5793 84.1207 20.5793 84.1207 20.5775C83.3177 19.5743 81.8525 19.4127 80.8494 20.2156C80.8494 20.2156 80.8494 20.2156 80.8476 20.2156L59.5468 37.296C58.9407 37.7809 58.5419 38.4801 58.4329 39.2479C58.3257 40.0174 57.9287 40.7166 57.3226 41.2015Z" fill="#FFAB00"/>
<path id="Vector_45" d="M67.5621 30.867C68.8127 30.7862 70.4908 30.7756 71.7786 30.7668C73.1158 30.7668 74.2487 30.7458 75.2012 30.7124L76.8646 29.3789C75.4134 29.5124 73.2615 29.5248 71.7701 29.5352C70.7932 29.5352 69.9286 29.5493 69.1835 29.5669L67.5621 30.867Z" fill="#FFC400"/>
<path id="Vector_46" d="M83.0268 24.4434C76.264 24.7526 74.7603 25.4782 74.6475 26.527C74.5457 27.467 75.6969 28.0186 76.914 28.6054C77.0792 28.6862 77.2829 28.7829 77.4853 28.8848L78.5304 28.0467C78.2109 27.8517 77.8402 27.6795 77.4481 27.4915C77.0073 27.2807 76.2396 26.9065 75.9548 26.6606C76.2817 26.4655 77.4219 26.0404 81.3683 25.7715L83.0268 24.4434Z" fill="#FFC400"/>
<path id="Vector_47" d="M72.2036 33.1157C69.414 32.2812 67.8609 31.7067 66.9981 31.3184L65.9371 32.167C66.842 32.6431 68.3999 33.2387 71.0353 34.0468L72.2036 33.1157Z" fill="#FFC400"/>
<path id="Vector_48" d="M56.3265 42.7072L56.9115 43.0463C56.9924 43.0937 57.0943 43.085 57.168 43.027L57.9094 42.4419L57.2296 41.5898L56.2966 42.3383C56.2 42.4191 56.1877 42.5614 56.2668 42.658C56.2843 42.6773 56.3036 42.6949 56.3265 42.7072Z" fill="#FF991F"/>
<path id="Vector_49" d="M52.386 21.7313C52.3228 21.6312 52.2454 21.5417 52.1541 21.4661C52.393 21.3642 52.574 21.1586 52.646 20.9092L53.5209 17.8909C53.6879 17.3216 53.3593 16.726 52.7901 16.5591C52.2208 16.3922 51.6253 16.7207 51.4584 17.29C51.4443 17.3374 51.4337 17.3848 51.4267 17.4323L50.9541 20.5384C50.9154 20.7949 50.9945 21.0567 51.1684 21.25C50.7696 21.3607 50.4657 21.6839 50.3778 22.088C50.246 22.6818 50.6185 23.2687 51.2124 23.4021L51.3143 23.4197C51.9187 23.4988 52.4738 23.0736 52.5546 22.4675C52.588 22.211 52.5318 21.951 52.393 21.7313H52.386Z" fill="url(#paint14_linear_806_4909)"/>
<path id="Vector_50" d="M55.2564 21.8222C55.2178 21.7097 55.1598 21.6061 55.0877 21.5112C55.3442 21.4638 55.5656 21.3057 55.6904 21.0772L57.2119 18.3277C57.5087 17.8147 57.3313 17.1577 56.8183 16.8608C56.3053 16.5638 55.6482 16.7413 55.3512 17.2543C55.3214 17.3052 55.2968 17.358 55.2775 17.4124L54.1232 20.3412C54.0283 20.5836 54.0459 20.8559 54.1742 21.0826C53.7612 21.1019 53.3906 21.3478 53.2148 21.7238C52.9548 22.2719 53.1867 22.929 53.7349 23.1908L53.8298 23.2294C54.4025 23.442 55.0386 23.1504 55.2511 22.5794C55.3408 22.3369 55.3442 22.0699 55.2581 21.8257L55.2564 21.8222Z" fill="url(#paint15_linear_806_4909)"/>
<path id="Vector_51" d="M8.06568 34.421C8.0833 34.5458 8.06568 34.6705 8.01654 34.7864C7.93568 34.9814 7.68269 35.5683 7.48769 35.5331C7.39458 35.512 7.35239 35.3504 7.34538 35.2696C7.32958 35.1097 7.52806 35.0131 7.54038 34.8444C7.53861 34.8093 7.54391 34.7759 7.55623 34.7425C7.57379 34.6406 7.5808 34.5862 7.60538 34.5809C7.62824 34.5756 7.69501 34.6828 7.76525 34.681C7.88647 34.681 7.94446 34.291 8.01123 34.3033C8.04464 34.2945 8.05867 34.3876 8.06568 34.421Z" fill="#8C715D"/>
<path id="Vector_52" d="M6.93133 35.6112C7.0895 35.7587 7.48828 35.6815 7.68157 35.446C7.79224 35.2967 7.83791 35.107 7.80803 34.9224C7.78346 34.7274 7.69913 34.7099 7.63413 34.5096C7.49706 34.0845 7.70261 33.7278 7.60072 33.6733C7.57614 33.6628 7.53047 33.6734 7.43907 33.7542C7.42151 33.7313 7.39517 33.719 7.36706 33.7173C7.30206 33.7173 7.26517 33.8349 7.24761 33.8877C7.12816 34.2057 7.02797 34.5324 6.95066 34.8645C6.87511 35.3143 6.85053 35.5392 6.93133 35.6112Z" fill="#8C715D"/>
<path id="Vector_53" d="M6.96266 34.2559C6.92754 34.3947 6.91699 34.5388 6.93455 34.6811C6.93455 35.2011 6.86601 35.5332 6.90644 35.5332C6.94687 35.5332 6.96613 35.4313 6.98723 35.3733C7.14711 34.9042 7.39485 33.9168 7.25077 33.8694C7.17699 33.8431 7.02589 34.0556 6.96266 34.2559Z" fill="#8C715D"/>
<path id="Vector_54" d="M5.31451 62.5882L3.18689 62.1345L3.47502 60.7871L4.1286 61.1175C4.1286 61.3547 4.2182 61.5827 4.38159 61.7553C4.6504 62.015 5.01935 61.9376 5.21262 62.2278C5.28289 62.3352 5.31803 62.4614 5.31451 62.5882Z" fill="#162B4C"/>
<path id="Vector_55" d="M3.14101 61.9727L3.11011 62.1166L5.31247 62.5885L5.34337 62.444L3.14101 61.9727Z" fill="#8893A5"/>
<path id="Vector_56" d="M14.4663 62.4149H12.0612V60.8848L12.843 60.9182C12.9238 61.4222 13.1171 61.6295 13.2682 61.7228C13.6055 61.9356 14.0026 61.7631 14.2837 62.0423C14.3802 62.1448 14.4452 62.2746 14.4663 62.4149Z" fill="#162B4C"/>
<path id="Vector_57" d="M14.5172 62.252H12.0135V62.4154H14.5172V62.252Z" fill="#8893A5"/>
<path id="Vector_58" d="M9.79624 43.8486C9.58015 43.6817 9.41679 43.4533 9.32893 43.195C9.08295 42.4624 9.47825 41.6683 10.2109 41.4223C10.6255 41.2835 11.0823 41.3451 11.4442 41.5928C11.685 41.4856 11.9678 41.5928 12.0767 41.8352C12.1593 42.0197 12.1172 42.234 11.9713 42.3746C11.9713 42.4202 11.9643 42.4677 11.9503 42.5116C11.8273 43.0018 11.5251 43.4304 11.1051 43.7098L9.79624 43.8486Z" fill="#27375C"/>
<path id="Vector_59" d="M10.6662 45.1597C10.2006 45.3231 9.6823 45.2335 9.29932 44.9208C9.60322 44.5501 9.78419 44.0951 9.81761 43.6172L10.9579 43.8122L10.6662 45.1597Z" fill="#8C715D"/>
<path id="Vector_60" d="M11.9734 42.3711C11.9681 42.5398 11.9752 42.7084 11.9944 42.8753C12.0085 42.9877 12.0243 43.0703 12.0278 43.0896C12.0647 43.2846 12.1227 43.4744 12.2 43.6571L11.9189 43.6993L11.6554 44.576C11.2777 44.6568 10.8876 44.6603 10.5099 44.59C10.1901 44.5268 9.86333 44.4653 9.72803 44.2176C9.68766 44.1297 9.65778 44.0366 9.64022 43.9417C9.62437 43.8838 9.60681 43.8276 9.58571 43.7713C9.5629 43.701 9.52601 43.6027 9.47681 43.4849C9.58571 43.5499 9.7087 43.5868 9.83345 43.5938C9.95467 43.6185 10.0812 43.5921 10.1831 43.5236C10.3236 43.3901 10.2235 43.1564 10.3517 43.0932C10.408 43.0703 10.4747 43.0773 10.5239 43.1143C10.6627 43.2196 10.5977 43.5675 10.5977 43.5675H10.8489C10.8647 43.4112 10.9192 43.2601 11.0071 43.1283C11.1441 42.9333 11.2671 42.9333 11.3672 42.7383C11.4674 42.5432 11.4006 42.4291 11.4955 42.3482C11.5903 42.2674 11.6835 42.2587 11.9734 42.3711Z" fill="#8C715D"/>
<path id="Vector_61" d="M15.1569 40.1181C15.1481 40.2358 15.1727 40.3518 15.2272 40.4554C15.3168 40.6276 15.5909 41.1687 15.7718 41.116C15.8579 41.0914 15.8843 40.9368 15.8878 40.8595C15.8878 40.7084 15.6928 40.6329 15.6752 40.4695C15.6717 40.4379 15.6664 40.4062 15.6559 40.3763C15.633 40.2815 15.6225 40.2341 15.6014 40.2305C15.5804 40.227 15.5259 40.3324 15.4609 40.3342C15.3484 40.3342 15.2659 39.9863 15.2043 40.0004C15.1762 40.0021 15.1587 40.0882 15.1569 40.1181Z" fill="#8C715D"/>
<path id="Vector_62" d="M7.13499 48.5664C6.92243 48.9564 6.73267 49.3658 6.54999 49.7979C5.84896 51.4073 5.3781 53.1079 5.15146 54.849C4.90022 55.434 4.65601 56.0472 4.42234 56.7025C3.91986 58.1343 3.5351 59.6066 3.27332 61.1017L4.41531 61.3633L6.60444 55.4253C6.72035 55.1828 6.8873 54.8191 7.09108 54.3817C8.56517 51.1894 8.70743 50.6202 8.53877 50.0422C8.43864 49.7101 8.15054 49.1145 7.13499 48.5664Z" fill="#FF5630"/>
<path id="Vector_63" d="M16.392 41.1652C16.2462 41.3251 15.8438 41.2741 15.633 41.0545C15.5101 40.9122 15.4521 40.726 15.4696 40.5398C15.4837 40.3448 15.5627 40.3272 15.6137 40.1146C15.7209 39.6894 15.4907 39.3328 15.5891 39.2783C15.6119 39.2643 15.6594 39.2783 15.7543 39.3486C15.7701 39.3257 15.7946 39.3117 15.8227 39.3082C15.8877 39.3082 15.9335 39.4189 15.9563 39.4698C16.0986 39.779 16.2198 40.097 16.32 40.4203C16.4184 40.8648 16.4658 41.0879 16.392 41.1652Z" fill="#8C715D"/>
<path id="Vector_64" d="M10.0321 49.2266C10.8104 51.0977 11.4675 53.0179 11.9998 54.9734C12.5532 57.0008 12.9732 59.0634 13.256 61.1452H11.9401C11.7504 60.309 11.5325 59.4429 11.2865 58.5486C10.9492 57.3258 10.5838 56.1768 10.2078 55.0946C8.35776 53.3131 7.12087 51.8022 6.76074 51.0503C6.6219 50.7639 6.37068 50.2579 6.54812 49.773C6.57276 49.6957 6.643 49.5604 6.78007 49.267C6.91709 48.9736 7.04007 48.7382 7.11916 48.5801C8.05379 48.9385 9.03769 49.1493 10.0374 49.2073L10.0321 49.2266Z" fill="#FF5630"/>
<path id="Vector_65" d="M11.6464 45.0145C10.6818 44.9284 9.76301 44.5577 9.00752 43.9499C8.41721 43.4509 7.94813 42.8237 7.64069 42.1139C7.33142 41.4498 7.15398 40.733 7.11362 40.0039C7.28752 39.0921 7.44038 38.1311 7.56862 37.1191C7.63014 36.6394 7.68105 36.1704 7.72502 35.7101L6.74813 35.1777C6.53557 35.935 6.35813 36.7396 6.17538 37.5882C5.98038 38.5369 5.82577 39.4469 5.7063 40.3061C5.82752 41.5183 6.17892 42.6954 6.74465 43.7741C7.07666 44.4031 7.47904 44.9934 7.94636 45.531C7.81282 45.9861 7.65471 46.471 7.45971 46.9734C7.22252 47.5796 6.95368 48.1734 6.65325 48.7496C7.61081 49.6579 8.9566 50.0339 10.2462 49.7493C10.4095 49.347 10.5677 48.913 10.7188 48.4474C10.912 47.8589 11.0719 47.2598 11.1967 46.6537C11.7132 46.7099 12.235 46.6958 12.7462 46.6115C13.2926 46.5202 14.208 46.3673 14.974 45.6839C15.6118 45.1235 15.8261 44.4769 16.095 43.7021C16.3989 42.8237 16.5429 41.8978 16.5201 40.9684C16.3971 40.9122 16.2636 40.8858 16.1301 40.8911C15.9509 40.8964 15.7769 40.9561 15.6329 41.0633C15.4062 42.3247 14.9318 43.5299 14.2361 44.6069C13.4437 45.0338 12.5319 45.1832 11.6447 45.0321L11.6464 45.0145Z" fill="#FF7452"/>
<path id="Vector_66" opacity="0.2" d="M53.6052 26.748H41.0959V39.9193H53.6052V26.748Z" fill="url(#paint16_linear_806_4909)"/>
<path id="Vector_67" d="M41.927 39.1505L41.9147 38.8835L41.8058 38.5568V37.8804C41.8199 37.8786 41.8339 37.8786 41.8462 37.8804C41.9744 37.9295 41.971 38.1948 41.971 38.2089L41.9885 37.485C42.0237 37.4657 42.0746 37.4464 42.1097 37.4675C42.1449 37.4885 42.1466 37.601 42.1396 37.7327C42.1326 37.8716 42.1326 38.0104 42.1396 38.1491L42.2327 37.4482C42.2626 37.4446 42.2925 37.4516 42.3171 37.4692C42.3487 37.5026 42.3645 37.5483 42.3575 37.5939C42.3575 37.7732 42.3065 38.1228 42.303 38.1597L42.5138 37.4921C42.5507 37.5008 42.5824 37.5202 42.6052 37.55C42.6474 37.6097 42.6157 37.6853 42.5525 37.9243C42.5103 38.0859 42.4769 38.1808 42.5279 38.2546C42.5367 38.2668 42.5455 38.2774 42.5577 38.2861C42.5753 38.1825 42.6404 38.0947 42.7352 38.0507C42.7791 38.0349 42.8283 38.0314 42.874 38.0402C42.8565 38.0736 42.8406 38.1069 42.823 38.1439C42.7704 38.2546 42.7282 38.3705 42.6948 38.49L42.5718 38.822V39.0925L41.927 39.1505Z" fill="#ECC19C"/>
<path id="Vector_68" d="M53.7476 26.75C53.0079 31.0315 51.1052 35.0284 48.2485 38.3015H35.5986C38.4554 35.0266 40.3564 31.0315 41.096 26.75H53.7476Z" fill="url(#paint17_linear_806_4909)"/>
<path id="Vector_69" d="M51.8904 21.4011C51.8272 21.3009 51.7499 21.2113 51.6585 21.1358C51.8974 21.0339 52.0784 20.8283 52.1504 20.5788L53.0219 17.5588C53.1888 16.9896 52.8603 16.394 52.291 16.2271C51.7218 16.0602 51.1262 16.3887 50.9593 16.9579C50.9452 17.0054 50.9346 17.0528 50.9276 17.1002L50.455 20.2064C50.4164 20.4629 50.4954 20.7247 50.6694 20.9179C50.2706 21.0286 49.9666 21.3519 49.8788 21.756C49.747 22.3497 50.1195 22.9366 50.7133 23.0701L50.8152 23.0877C51.4196 23.1667 51.9748 22.7416 52.0556 22.1354C52.089 21.879 52.0328 21.6189 51.894 21.3993L51.8904 21.4011Z" fill="white"/>
<path id="Vector_70" d="M51.7412 20.4594L52.6126 17.4393C52.711 17.095 52.5125 16.7348 52.1664 16.6347C52.1541 16.6312 52.14 16.6276 52.1278 16.6242C51.7764 16.5486 51.4303 16.7699 51.3547 17.1214C51.3512 17.1354 51.3494 17.1477 51.3476 17.1617L50.8751 20.2679C50.8399 20.4998 50.991 20.7194 51.2212 20.7704C51.4496 20.8196 51.6762 20.6843 51.7412 20.4594Z" fill="#0065FF"/>
<path id="Vector_71" d="M50.2915 21.8451C50.2089 22.207 50.4356 22.5689 50.7992 22.6515C50.8203 22.6567 50.8432 22.6603 50.8643 22.6638C51.2367 22.7271 51.5899 22.4775 51.6532 22.1051C51.7164 21.7327 51.4669 21.3795 51.0944 21.3163C50.7255 21.2425 50.3671 21.4779 50.2915 21.8451Z" fill="#0065FF"/>
<path id="Vector_72" d="M54.9666 21.3827C54.9385 21.2667 54.8945 21.1578 54.8313 21.0559C55.0913 21.0348 55.3267 20.8995 55.4761 20.6869L57.2734 18.1079C57.6142 17.6229 57.4965 16.9518 57.0116 16.611C56.5267 16.2702 55.8555 16.3879 55.5147 16.8727C55.4866 16.9132 55.462 16.9554 55.4391 16.9975L53.9914 19.7874C53.872 20.0193 53.8632 20.2899 53.9669 20.5288C53.554 20.506 53.1605 20.7133 52.9479 21.0682C52.6334 21.5865 52.7968 22.2629 53.315 22.5791L53.4047 22.6283C53.9528 22.8971 54.6152 22.6722 54.884 22.1241C54.9982 21.8922 55.0263 21.6287 54.9666 21.3791V21.3827Z" fill="white"/>
<path id="Vector_73" d="M55.1305 20.4454L56.9278 17.8663C57.1333 17.5711 57.0613 17.167 56.7661 16.9615C56.7556 16.9545 56.7433 16.9457 56.7328 16.9387C56.4253 16.7542 56.0247 16.8526 55.8403 17.16C55.8332 17.1706 55.8262 17.1829 55.821 17.1952L54.3732 19.9851C54.2643 20.1924 54.3363 20.4489 54.5366 20.5702C54.7369 20.6896 54.9952 20.6352 55.1305 20.4454Z" fill="#253858"/>
<path id="Vector_74" d="M53.3103 21.2823C53.1153 21.5985 53.2119 22.0131 53.5281 22.2099C53.5475 22.2222 53.5685 22.2327 53.5896 22.2433C53.9217 22.4242 54.3363 22.2995 54.5173 21.9675C54.6982 21.6354 54.5735 21.2208 54.2414 21.0398C53.9164 20.8518 53.5 20.959 53.3103 21.2823Z" fill="#253858"/>
<path id="Vector_75" d="M40.3282 27.9707C39.5499 27.9936 38.8032 27.6563 38.306 27.0571C37.4047 25.9064 37.8123 24.1091 39.2161 23.048C39.8345 22.5718 40.5918 22.3066 41.3736 22.296C42.1519 22.2731 42.8986 22.6105 43.3958 23.2096C44.2971 24.3603 43.8895 26.1576 42.4857 27.2188C41.8673 27.6966 41.1101 27.9602 40.3282 27.9707Z" fill="url(#paint18_linear_806_4909)"/>
<path id="Vector_76" d="M40.3282 27.4062C39.5499 27.429 38.8032 27.0916 38.306 26.4926C37.4047 25.3418 37.8123 23.5445 39.2161 22.4833C39.8345 22.0073 40.5918 21.7419 41.3736 21.7314C42.1537 21.7103 42.9003 22.0494 43.3993 22.6502C44.3006 23.801 43.893 25.5983 42.4892 26.6594C41.8673 27.1355 41.1101 27.3973 40.3282 27.4062Z" fill="white"/>
<path id="Vector_77" d="M42.215 26.3048C41.0432 27.1886 39.4813 27.1288 38.7311 26.1695C37.9809 25.2103 38.3182 23.7152 39.4901 22.8279C40.6619 21.9407 42.2238 22.004 42.9741 22.9632C43.7243 23.9225 43.3852 25.4211 42.215 26.3048Z" fill="#FFC400"/>
<path id="Vector_78" d="M40.6514 23.6872C40.5442 23.7839 40.3808 23.7769 40.2807 23.6732C40.2051 23.5537 40.2403 23.3938 40.3615 23.3183C40.4687 23.2217 40.6321 23.2287 40.7322 23.3323C40.8077 23.4518 40.7726 23.6099 40.6514 23.6872Z" fill="#FF991F"/>
<path id="Vector_79" d="M41.9989 25.3201C41.8918 25.4167 41.7283 25.4097 41.6282 25.306C41.5527 25.1865 41.5878 25.0267 41.709 24.9511C41.8162 24.8545 41.9796 24.8615 42.0797 24.9651C42.1553 25.0847 42.1202 25.2428 41.9989 25.3201Z" fill="#FF991F"/>
<path id="Vector_80" d="M39.7117 24.0996C39.5958 24.5019 39.6766 24.9359 39.9278 25.2714C40.1966 25.5965 40.6007 25.781 41.0241 25.7739L39.7117 24.0996Z" fill="#FF991F"/>
<path id="Vector_81" d="M73.3634 47.6973C73.5903 48.1277 73.8116 48.581 74.0189 49.0641C74.7939 50.8491 75.3122 52.7342 75.5616 54.6651L77.3781 61.5992L76.3665 61.8876C75.7458 59.63 74.9342 57.4286 73.9415 55.3098C73.8049 55.027 73.6714 54.7353 73.4025 54.1538C71.7756 50.6137 71.6086 49.983 71.7964 49.3435C71.9195 48.964 72.2372 48.3034 73.3634 47.6973Z" fill="url(#paint19_linear_806_4909)"/>
<path id="Vector_82" d="M63.2488 39.2881C63.3964 39.448 63.7988 39.3971 64.0079 39.1775C64.1293 39.0352 64.189 38.8507 64.1714 38.6645C64.1592 38.4695 64.0799 38.4502 64.0274 38.2411C63.922 37.8141 64.15 37.4592 64.0518 37.4048C64.0287 37.3908 63.9817 37.3942 63.8866 37.4751C63.8707 37.4522 63.8464 37.4382 63.8183 37.4347C63.7531 37.4347 63.7073 37.5436 63.6878 37.5945C63.5457 37.9055 63.4244 38.2253 63.3244 38.552C63.2244 38.9895 63.175 39.2109 63.2488 39.2881Z" fill="#926D5A"/>
<path id="Vector_83" d="M64.4854 38.2392C64.4945 38.3568 64.4695 38.4746 64.4152 38.5782C64.3274 38.7521 64.05 39.2915 63.8707 39.2388C63.7848 39.2142 63.7579 39.0596 63.7549 38.9823C63.7549 38.8312 63.9494 38.7557 63.9707 38.5923C63.9707 38.5554 63.9829 38.536 63.9902 38.4992C64.0128 38.4043 64.025 38.3568 64.0463 38.3516C64.0671 38.3463 64.122 38.4535 64.1866 38.4553C64.2994 38.4553 64.3817 38.1092 64.4396 38.1214C64.475 38.1232 64.4805 38.211 64.4854 38.2392Z" fill="#926D5A"/>
<path id="Vector_84" d="M63.375 37.9399C63.3293 38.0752 63.3104 38.2192 63.3171 38.3615C63.289 38.8816 63.1908 39.2013 63.2293 39.2101C63.2683 39.2206 63.2982 39.1117 63.3207 39.0555C63.5158 38.5987 63.8317 37.6324 63.6896 37.5727C63.6195 37.5463 63.4524 37.7466 63.375 37.9399Z" fill="#926D5A"/>
<path id="Vector_85" d="M70.1536 48.4272C68.3932 52.6613 67.1914 57.1044 66.5768 61.6494L67.6554 61.6598C67.8768 60.7868 68.2054 59.5429 68.6426 58.0513C68.9871 56.8795 69.1311 56.0503 69.6548 54.9505C69.8707 54.4427 70.1432 53.9613 70.4628 53.5133C71.7048 51.8531 73.0561 51.8882 73.7817 50.4774C73.9061 50.2315 74.2158 49.6289 74.0243 49.0614C73.9945 48.9736 73.9189 48.8154 73.7658 48.501C73.6128 48.1865 73.4792 47.9159 73.3878 47.7402C72.353 48.132 71.2622 48.364 70.1536 48.4272Z" fill="url(#paint20_linear_806_4909)"/>
<path id="Vector_86" d="M66.5591 60.875C66.5165 61.2706 66.4415 61.6621 66.3341 62.0468C66.2006 62.5285 65.7963 62.8846 65.3024 62.9584L64.3713 63.0974V63.259L65.8207 63.609C65.9543 63.584 66.3287 63.5206 66.3799 63.6371C66.3921 63.6615 66.3921 63.7054 66.339 63.7773C66.4695 63.8054 66.6049 63.8285 66.7451 63.8493C66.886 63.8706 67.0207 63.7877 67.0646 63.6541C67.2598 63.031 67.8171 61.3426 67.8469 61.1017L66.5591 60.875Z" fill="#344563"/>
<path id="Vector_87" d="M76.1414 61.3267C76.2097 61.4633 76.3365 61.8273 76.4609 62.1907C76.6384 62.723 76.4786 63.3102 76.0566 63.6791L75.5597 64.1145L75.6335 64.2432L76.9176 63.7987C77.0073 63.7139 77.264 63.4822 77.3603 63.5456C77.3816 63.5596 77.4012 63.5932 77.3975 63.6737C77.5731 63.6054 77.7542 63.5298 77.9384 63.442L77.9841 63.3328C77.9652 63.2767 77.942 63.2066 77.9158 63.1237C77.6823 62.3895 77.3585 61.1212 77.2444 60.875L76.1414 61.3267Z" fill="#344563"/>
<path id="Vector_88" d="M71.9628 33.9044L71.7945 33.6971C71.6537 33.5249 71.5957 33.2983 71.6366 33.0804L71.6537 32.6131C71.761 32.5165 71.861 32.411 71.9524 32.2986C72.0738 32.1528 72.1232 32.0649 72.1476 32.0737C72.172 32.0843 72.1793 32.1932 72.0579 32.6588C72.3268 32.5428 72.5884 32.4093 72.8396 32.2565C73.186 32.0474 73.4689 31.8295 73.6585 31.9191C73.6811 31.9314 73.7585 31.9666 73.7677 32.0316C73.7781 32.0984 73.6799 32.1774 73.6726 32.1844C73.7098 32.1844 73.764 32.2143 73.7799 32.2547C73.7957 32.2951 73.711 32.4093 73.6464 32.4638C73.3774 32.6992 72.6994 33.163 72.5323 33.2754L72.5677 33.539L71.9628 33.9044Z" fill="#926D5A"/>
<path id="Vector_89" d="M68.3616 43.7573C69.3592 43.4147 70.336 43.0177 71.2903 42.5679L71.4256 42.4555L71.4573 42.4274L71.4903 42.3975C72.0897 41.8652 72.5762 40.667 72.5762 40.667C72.8378 40.0222 73.0647 39.3616 73.2579 38.6922C73.047 38.1634 72.8799 37.6188 72.7555 37.0636C72.5098 35.9585 72.5427 35.2593 72.0494 34.358C71.9317 34.1419 71.7945 33.9382 71.6433 33.7449L72.6006 33.2969C72.9384 33.6605 73.2439 34.0523 73.5147 34.4687C74.1628 35.4666 74.6073 36.584 74.8214 37.7558C74.8762 39.3546 74.5281 40.9428 73.8098 42.3711C73.4531 43.0721 73.0086 43.7239 72.4848 44.3125C72.483 44.7359 72.5201 45.1575 72.5958 45.574C72.7482 46.3927 73.0488 47.178 73.483 47.8895L69.8811 49.0403C70.1836 48.3797 70.1744 47.9352 70.0659 47.6752C69.8232 47.0901 69.1769 46.9882 68.9378 46.2872C68.8622 46.0588 68.839 45.8146 68.8708 45.5757C68.4177 45.6161 66.5098 45.7356 64.8458 44.4038C62.4512 42.4871 62.7958 39.3529 62.8201 39.1613L64.1025 39.4653C64.0464 40.1329 64.1165 40.8058 64.3116 41.4471C64.9055 43.1547 66.8256 44.2176 68.3616 43.7573Z" fill="url(#paint21_linear_806_4909)"/>
<path id="Vector_90" d="M68.8744 40.6914C68.9238 40.7072 68.9744 40.7177 69.0256 40.7248C69.1714 40.7424 69.3116 40.7915 69.4384 40.8671C69.6543 41.0182 69.5122 41.3098 69.7 41.7332C69.7494 41.8421 69.7842 41.9563 69.8055 42.0759C69.8159 42.1321 69.8214 42.1883 69.825 42.2462C69.825 42.3851 69.9177 42.6662 70.2342 43.2793L70.039 43.2248L69.4433 42.9965C69.0165 42.7118 68.9201 42.6662 68.9183 42.4641C68.9183 42.2199 68.9183 41.7948 68.9006 41.7789C68.7622 41.6454 68.583 41.619 68.7214 41.4539C68.7988 41.3608 68.8604 41.294 68.8799 41.2747C68.9378 41.2009 68.9817 41.0656 68.8744 40.6914Z" fill="#926D5A"/>
<path id="Vector_91" d="M69.4213 40.8537C69.3561 41.6848 69.4683 42.521 69.7494 43.3063L69.778 43.3819C70.1098 44.2832 71.1098 44.7435 72.0091 44.4114C72.1037 44.3763 72.1933 44.3341 72.2811 44.2832L72.3744 44.2234L72.3902 44.2112C72.9018 43.8545 73.0262 43.15 72.6677 42.6387C72.6396 42.5983 72.6079 42.5579 72.5732 42.521C72.3165 42.2382 72.0988 41.9237 71.925 41.5846C71.4994 40.7448 71.5573 40.151 70.9921 39.8277C70.628 39.652 70.2207 39.5835 69.8201 39.6327C69.6073 39.6327 69.4 39.6942 69.2226 39.8084C69.0854 39.9121 68.9732 40.0455 68.8939 40.1984C68.8098 40.353 68.7604 40.5252 68.75 40.7009C68.9799 40.7149 69.2067 40.7729 69.4177 40.8696L69.4213 40.8537Z" fill="#172B4D"/>
<path id="Vector_92" d="M46.7638 39.0295L46.8534 38.6659L47.0941 38.2513L47.2891 37.3289C47.2698 37.3254 47.2505 37.3254 47.2311 37.3289C47.0361 37.3588 46.9728 37.7189 46.9694 37.7417L47.1468 36.7474C47.1046 36.7122 47.0396 36.6701 46.9869 36.6894C46.9342 36.7088 46.8991 36.8616 46.8745 37.0425C46.8481 37.2341 46.8095 37.4255 46.762 37.6135L46.8305 36.6367C46.7919 36.6227 46.7497 36.6227 46.7111 36.6367C46.6584 36.6736 46.625 36.7333 46.6215 36.7966C46.5723 37.0443 46.5406 37.5345 46.5372 37.5784L46.4352 36.6016C46.3843 36.6033 46.3333 36.6227 46.2947 36.656C46.2209 36.728 46.2438 36.837 46.2613 37.1831C46.2736 37.415 46.2947 37.5555 46.2033 37.6416C46.1893 37.6557 46.1717 37.668 46.1541 37.6767C46.1612 37.531 46.0944 37.3922 45.9784 37.3043C45.9205 37.2692 45.8519 37.2499 45.7834 37.2516C45.7975 37.3008 45.8116 37.3535 45.8238 37.408C45.8642 37.5749 45.8906 37.7453 45.9011 37.9157L45.9767 38.4041L45.9081 38.7748L46.7638 39.0295Z" fill="#F1DAD5"/>
<path id="Vector_93" d="M39.3076 43.4616H40.6903C40.4794 42.9697 40.4267 42.4233 40.5427 41.8997L39.6994 41.8594C39.6888 41.9085 39.6748 41.9806 39.6484 42.0666C39.6361 42.151 39.6045 42.2318 39.557 42.3004C39.4622 42.3899 39.2777 42.3372 39.2233 42.3196L39.3076 43.4616Z" fill="url(#paint22_linear_806_4909)"/>
<path id="Vector_94" d="M42.5278 38.8105C42.7843 40.0579 42.8756 41.3352 42.7966 42.6072C42.2326 43.2362 41.5316 43.728 40.748 44.0443C40.3527 44.213 39.9293 44.3061 39.5006 44.3201C38.8312 44.3201 37.9247 44.1251 37.8842 43.779C37.8439 43.4329 38.6784 42.9972 39.2722 42.8355C39.4602 42.7864 39.6535 42.7495 39.8467 42.7266C40.5267 42.6019 41.1714 42.3349 41.7425 41.9448L41.9129 39.0161L42.5278 38.8105Z" fill="#253858"/>
<path id="Vector_95" d="M38.854 48.4653C38.9102 48.2228 38.9999 47.9892 39.1193 47.7695C39.2248 47.8012 39.3302 47.8293 39.4373 47.8504C39.5568 47.8732 39.6499 47.8837 39.6991 47.889C39.9802 47.9294 40.5179 47.9945 41.9638 48.1034C42.0622 48.2281 42.1518 48.3581 42.2343 48.4934C42.5014 48.9186 42.6946 49.3859 42.8088 49.8743C43.7382 53.6815 44.4357 57.5431 44.8996 61.4343C44.7538 61.6331 44.5623 61.7928 44.3409 61.9001C44.2284 61.9459 44.2337 62.0264 44.0229 62.0477C43.9052 61.5892 43.7172 60.8934 43.4378 60.0572C43.0636 58.9064 42.8756 58.5498 42.6982 57.8505C42.4838 56.9862 42.4012 56.0937 42.454 55.2047C42.1799 54.7075 41.897 54.205 41.6089 53.6973C41.2996 53.1421 40.9992 52.5922 40.7076 52.0458C40.7638 52.9401 40.799 53.8712 40.806 54.8375C40.82 56.7279 40.7287 58.62 40.5301 60.4999C40.4423 60.5667 40.3387 60.6106 40.2297 60.6264C40.1208 60.6422 40.0084 60.6299 39.9047 60.5912C39.736 60.5456 39.5849 60.4542 39.4654 60.326C39.2195 58.6622 39.1966 56.9721 39.3987 55.3013C39.1351 54.5599 38.9384 53.7939 38.8137 53.0173C38.8137 53.0173 38.3691 51.185 38.6186 49.5457C38.6643 49.277 38.8066 48.6691 38.854 48.4653Z" fill="#344563"/>
<path id="Vector_96" d="M47.1993 62.9155L46.4174 62.6698C45.6057 62.4131 45.0137 61.7107 44.903 60.8655C44.8837 60.7144 44.7677 60.0837 44.7202 59.8096C44.5147 59.7674 44.3038 59.7621 44.0965 59.7938C43.812 59.8412 43.5431 59.9607 43.3147 60.1381C43.4939 60.5387 43.6398 60.9533 43.7469 61.3783C43.8576 61.8265 43.9279 62.2851 43.9577 62.7454C43.9701 62.9247 43.9718 63.0741 43.9718 63.1704H44.7431L44.8713 63.0265L45.0663 63.1637H47.0183L47.1993 62.9155Z" fill="#172B4D"/>
<path id="Vector_97" d="M39.3584 59.3611C39.78 59.0853 40.3265 59.0853 40.7481 59.3611C40.7024 59.5632 40.669 59.767 40.6497 59.9725C40.6093 60.4276 40.5865 60.6876 40.7481 60.8282C40.8833 60.93 41.0608 60.9599 41.2224 60.9107L41.3208 60.9494C40.9185 61.4394 40.6163 61.812 40.4336 62.0632C40.3633 62.1669 40.2649 62.248 40.1507 62.2949C40.0172 62.3547 39.8626 62.348 39.7361 62.2742C39.6518 62.2108 39.5955 62.1157 39.5797 62.0108L39.3584 59.3611Z" fill="#172B4D"/>
<path id="Vector_98" d="M40.8831 40.7246C40.9446 41.0795 41.1326 41.401 41.4119 41.6259L41.2292 41.8209L41.0834 42.6449C40.8971 42.7239 40.6986 42.7731 40.4983 42.796C40.2348 42.8241 39.8904 42.861 39.7481 42.6677C39.6743 42.543 39.6479 42.3954 39.676 42.2531C39.6848 42.1372 39.7042 42.023 39.7323 41.9105C39.8026 41.7313 39.9045 41.5662 40.0345 41.4239C40.1698 41.2236 40.3384 41.0479 40.5317 40.9038C40.6406 40.8318 40.7583 40.7703 40.8831 40.7246Z" fill="#ECC19C"/>
<path id="Vector_99" d="M45.6517 43.4609C44.501 44.204 43.2237 44.7329 41.8849 45.0227C41.9569 46.1629 42.1907 47.2873 42.5824 48.3626C41.4053 48.9318 40.056 49.0337 38.805 48.6489C38.8349 47.6317 38.6821 46.6162 38.3535 45.6517C38.1884 45.1685 37.9793 44.703 37.7299 44.2567C37.9108 44.0863 38.1075 43.9317 38.3149 43.7946C38.3149 43.7946 38.3728 43.756 38.4607 43.7033C38.4607 43.7033 38.6224 43.6049 38.7928 43.5224C39.5008 43.1692 40.8009 43.048 40.8009 43.048C42.5719 42.8846 42.5122 42.9145 42.853 42.853C43.4942 42.7493 44.1197 42.5737 44.7224 42.3295L45.9592 38.5645L46.9361 38.8209C46.7779 39.6256 46.5759 40.4882 46.3194 41.3948C46.0997 42.1309 45.8836 42.8196 45.6517 43.4609Z" fill="#505F79"/>
<path id="Vector_100" d="M38.1815 41.4483C37.6526 42.4075 37.2854 42.3566 37.1888 42.9346C37.1045 43.4494 37.2819 44.1785 37.8529 44.4842C38.4995 44.8321 39.2075 44.4033 39.2479 44.3788C39.5273 44.1961 39.7434 43.9308 39.8664 43.6198C40.1914 42.8591 39.7187 42.5112 40.0614 41.9437C40.1966 41.7171 40.3319 41.6697 40.8309 41.0214C40.9398 40.8984 41.0083 40.7455 41.0259 40.5822C41.0312 40.3942 40.9679 40.2097 40.8484 40.0639C40.5568 39.7019 40.042 39.7213 39.8856 39.73C39.5642 39.7459 39.2532 39.8583 38.9949 40.0516C38.5398 40.3959 38.5803 40.7262 38.1815 41.4483Z" fill="#172B4D"/>
<g id="Group_2" opacity="0.7">
<path id="Vector_101" opacity="0.7" d="M42.0691 30.3926L50.0103 30.4295" stroke="#0065FF" stroke-width="1.4411" stroke-miterlimit="10"/>
<path id="Vector_102" opacity="0.7" d="M41.5265 31.7129L49.466 31.7498" stroke="#0065FF" stroke-width="1.4411" stroke-miterlimit="10"/>
<path id="Vector_103" opacity="0.7" d="M41.0204 32.9395L47.1116 32.9676" stroke="#0065FF" stroke-width="1.4411" stroke-miterlimit="10"/>
</g>
</g>
</g>
</g>
</g>
<defs>
<linearGradient id="paint0_linear_806_4909" x1="22.3626" y1="30.161" x2="93.9817" y2="30.161" gradientUnits="userSpaceOnUse">
<stop stop-color="#FAFBFC"/>
<stop offset="0.07" stop-color="#F7F8F9"/>
<stop offset="0.36" stop-color="#EEEFF2"/>
<stop offset="0.8" stop-color="#EBECF0"/>
</linearGradient>
<linearGradient id="paint1_linear_806_4909" x1="23.0539" y1="58.7582" x2="76.4878" y2="5.32494" gradientUnits="userSpaceOnUse">
<stop stop-color="#F7F8F9"/>
<stop offset="0.7" stop-color="#C1C7D0"/>
</linearGradient>
<linearGradient id="paint2_linear_806_4909" x1="16.9595" y1="60.3945" x2="73.6653" y2="3.6892" gradientUnits="userSpaceOnUse">
<stop offset="0.47" stop-color="#CFD4DB"/>
<stop offset="1" stop-color="#F7F8F9"/>
</linearGradient>
<linearGradient id="paint3_linear_806_4909" x1="40.8544" y1="59.8424" x2="40.8544" y2="4.24181" gradientUnits="userSpaceOnUse">
<stop stop-color="#EBECF0"/>
<stop offset="0.1" stop-color="#EBECF0"/>
<stop offset="0.8" stop-color="#EBECF0"/>
</linearGradient>
<linearGradient id="paint4_linear_806_4909" x1="8.9217" y1="62.4647" x2="70.2963" y2="1.08849" gradientUnits="userSpaceOnUse">
<stop offset="0.16" stop-color="#F0F2F5"/>
<stop offset="1" stop-color="white"/>
</linearGradient>
<linearGradient id="paint5_linear_806_4909" x1="5.60315" y1="60.8065" x2="66.8933" y2="-0.485167" gradientUnits="userSpaceOnUse">
<stop offset="0.16" stop-color="#F0F2F5"/>
<stop offset="1" stop-color="white"/>
</linearGradient>
<linearGradient id="paint6_linear_806_4909" x1="55.9174" y1="6.36057" x2="60.1597" y2="6.36057" gradientUnits="userSpaceOnUse">
<stop offset="0.37" stop-color="#E5E8EC"/>
<stop offset="0.52" stop-color="#E5E8EC" stop-opacity="0.99"/>
<stop offset="0.61" stop-color="#E4E7EB" stop-opacity="0.95"/>
<stop offset="0.68" stop-color="#E3E6EA" stop-opacity="0.89"/>
<stop offset="0.74" stop-color="#E1E4E9" stop-opacity="0.81"/>
<stop offset="0.8" stop-color="#DEE2E7" stop-opacity="0.7"/>
<stop offset="0.85" stop-color="#DBDFE5" stop-opacity="0.56"/>
<stop offset="0.91" stop-color="#D8DCE2" stop-opacity="0.4"/>
<stop offset="0.95" stop-color="#D4D8DF" stop-opacity="0.22"/>
<stop offset="1" stop-color="#CFD4DB" stop-opacity="0"/>
</linearGradient>
<linearGradient id="paint7_linear_806_4909" x1="38.0617" y1="6.36057" x2="42.3039" y2="6.36057" gradientUnits="userSpaceOnUse">
<stop offset="0.37" stop-color="#E5E8EC"/>
<stop offset="0.52" stop-color="#E5E8EC" stop-opacity="0.99"/>
<stop offset="0.61" stop-color="#E4E7EB" stop-opacity="0.95"/>
<stop offset="0.68" stop-color="#E3E6EA" stop-opacity="0.89"/>
<stop offset="0.74" stop-color="#E1E4E9" stop-opacity="0.81"/>
<stop offset="0.8" stop-color="#DEE2E7" stop-opacity="0.7"/>
<stop offset="0.85" stop-color="#DBDFE5" stop-opacity="0.56"/>
<stop offset="0.91" stop-color="#D8DCE2" stop-opacity="0.4"/>
<stop offset="0.95" stop-color="#D4D8DF" stop-opacity="0.22"/>
<stop offset="1" stop-color="#CFD4DB" stop-opacity="0"/>
</linearGradient>
<linearGradient id="paint8_linear_806_4909" x1="20.2093" y1="6.36057" x2="24.4526" y2="6.36057" gradientUnits="userSpaceOnUse">
<stop offset="0.37" stop-color="#E5E8EC"/>
<stop offset="0.52" stop-color="#E5E8EC" stop-opacity="0.99"/>
<stop offset="0.61" stop-color="#E4E7EB" stop-opacity="0.95"/>
<stop offset="0.68" stop-color="#E3E6EA" stop-opacity="0.89"/>
<stop offset="0.74" stop-color="#E1E4E9" stop-opacity="0.81"/>
<stop offset="0.8" stop-color="#DEE2E7" stop-opacity="0.7"/>
<stop offset="0.85" stop-color="#DBDFE5" stop-opacity="0.56"/>
<stop offset="0.91" stop-color="#D8DCE2" stop-opacity="0.4"/>
<stop offset="0.95" stop-color="#D4D8DF" stop-opacity="0.22"/>
<stop offset="1" stop-color="#CFD4DB" stop-opacity="0"/>
</linearGradient>
<linearGradient id="paint9_linear_806_4909" x1="8.17871" y1="34.2273" x2="60.3749" y2="34.2273" gradientUnits="userSpaceOnUse">
<stop stop-color="#FAFBFC"/>
<stop offset="0.07" stop-color="#F7F8F9"/>
<stop offset="0.36" stop-color="#EEEFF2"/>
<stop offset="0.8" stop-color="#EBECF0"/>
</linearGradient>
<linearGradient id="paint10_linear_806_4909" x1="21.7507" y1="41.1826" x2="32.0652" y2="41.1826" gradientUnits="userSpaceOnUse">
<stop stop-color="#0065FF"/>
<stop offset="1" stop-color="#2684FF"/>
</linearGradient>
<linearGradient id="paint11_linear_806_4909" x1="55.6449" y1="21.8611" x2="62.6237" y2="21.8611" gradientUnits="userSpaceOnUse">
<stop stop-color="#0065FF"/>
<stop offset="1" stop-color="#2684FF"/>
</linearGradient>
<linearGradient id="paint12_linear_806_4909" x1="31.513" y1="42.1423" x2="36.5586" y2="41.4096" gradientUnits="userSpaceOnUse">
<stop stop-color="#FAFBFC"/>
<stop offset="0.07" stop-color="#F7F8F9"/>
<stop offset="0.36" stop-color="#EEEFF2"/>
<stop offset="0.8" stop-color="#EBECF0"/>
</linearGradient>
<linearGradient id="paint13_linear_806_4909" x1="53.7964" y1="30.1753" x2="57.4148" y2="33.7622" gradientUnits="userSpaceOnUse">
<stop stop-color="#FAFBFC"/>
<stop offset="0.07" stop-color="#F7F8F9"/>
<stop offset="0.36" stop-color="#EEEFF2"/>
<stop offset="0.8" stop-color="#EBECF0"/>
</linearGradient>
<linearGradient id="paint14_linear_806_4909" x1="50.3475" y1="19.9716" x2="53.5593" y2="19.9716" gradientUnits="userSpaceOnUse">
<stop stop-color="#FAFBFC"/>
<stop offset="0.07" stop-color="#F7F8F9"/>
<stop offset="0.36" stop-color="#EEEFF2"/>
<stop offset="0.8" stop-color="#EBECF0"/>
</linearGradient>
<linearGradient id="paint15_linear_806_4909" x1="53.6553" y1="19.6472" x2="56.7875" y2="20.3641" gradientUnits="userSpaceOnUse">
<stop stop-color="#FAFBFC"/>
<stop offset="0.07" stop-color="#F7F8F9"/>
<stop offset="0.36" stop-color="#EEEFF2"/>
<stop offset="0.8" stop-color="#EBECF0"/>
</linearGradient>
<linearGradient id="paint16_linear_806_4909" x1="47.3499" y1="39.9194" x2="47.3499" y2="26.7486" gradientUnits="userSpaceOnUse">
<stop stop-color="#FAFBFC" stop-opacity="0"/>
<stop offset="0.46" stop-color="#7A869A"/>
</linearGradient>
<linearGradient id="paint17_linear_806_4909" x1="44.6729" y1="38.3028" x2="44.6729" y2="26.7508" gradientUnits="userSpaceOnUse">
<stop stop-color="#0065FF"/>
<stop offset="0.02" stop-color="#0569FF"/>
<stop offset="0.15" stop-color="#1F7BFF"/>
<stop offset="0.3" stop-color="#3389FF"/>
<stop offset="0.46" stop-color="#4192FF"/>
<stop offset="0.66" stop-color="#4A98FF"/>
<stop offset="1" stop-color="#4C9AFF"/>
</linearGradient>
<linearGradient id="paint18_linear_806_4909" x1="37.8254" y1="25.1336" x2="43.8753" y2="25.1336" gradientUnits="userSpaceOnUse">
<stop stop-color="#FAFBFC"/>
<stop offset="0.12" stop-color="#EBECEF"/>
<stop offset="0.26" stop-color="#E2E4E7"/>
<stop offset="0.46" stop-color="#DFE1E5"/>
</linearGradient>
<linearGradient id="paint19_linear_806_4909" x1="73.7049" y1="51.7619" x2="76.3726" y2="58.6803" gradientUnits="userSpaceOnUse">
<stop offset="0.25" stop-color="#0065FF"/>
<stop offset="0.37" stop-color="#0065FF"/>
<stop offset="0.76" stop-color="#4C9AFF"/>
</linearGradient>
<linearGradient id="paint20_linear_806_4909" x1="70.3311" y1="61.658" x2="70.3311" y2="47.7371" gradientUnits="userSpaceOnUse">
<stop stop-color="#4C9AFF"/>
<stop offset="1" stop-color="#0065FF"/>
</linearGradient>
<linearGradient id="paint21_linear_806_4909" x1="68.8061" y1="49.0413" x2="68.8061" y2="33.2989" gradientUnits="userSpaceOnUse">
<stop stop-color="#B2D4FF"/>
<stop offset="1" stop-color="#2684FF"/>
</linearGradient>
<linearGradient id="paint22_linear_806_4909" x1="40.6894" y1="42.6607" x2="39.223" y2="42.6607" gradientUnits="userSpaceOnUse">
<stop offset="0.38" stop-color="#F1DBCB"/>
<stop offset="1" stop-color="#EFC7B0"/>
</linearGradient>
<clipPath id="clip0_806_4909">
<rect width="100" height="65.2439" fill="white"/>
</clipPath>
</defs>
</svg>
