<svg width="133" height="222" viewBox="0 0 133 222" fill="none" xmlns="http://www.w3.org/2000/svg">
    <g id="freepik--Character--inject-119">
        <path id="Vector" d="M101.858 221.512L105.12 172.983L101.8 142.541C101.8 142.541 74.0935 146.322 40.1895 138.098L39.303 180.981L41.3012 206.142C57.5557 211.678 73.2725 219.057 90.8058 220.893C94.4825 221.242 98.1665 221.453 101.858 221.512Z" fill="#1F2937" stroke="#1F2937" stroke-width="0.901857" stroke-linecap="round" stroke-linejoin="round"/>
        <path id="Vector_2" d="M101.8 142.506C101.8 142.506 74.0938 146.287 40.1897 138.062L40.0807 143.081C42.8636 145.143 50.1226 149.222 65.6722 151.174C81.8759 153.207 96.401 149.827 102.41 148.093L101.8 142.506Z" fill="#6B7280" stroke="#1F2937" stroke-width="0.901857" stroke-linecap="round" stroke-linejoin="round"/>
        <path id="Vector_3" d="M83.5033 151.495C84.7531 151.393 85.9739 151.269 87.1364 151.13V143.365C74.2861 143.49 61.4547 142.343 48.829 139.941L49.6792 142.506V147.743C50.6456 148.064 51.6919 148.384 52.8109 148.697L53.0071 142.731L83.8085 145.172L83.5033 151.495Z" fill="#1F2937" stroke="#1F2937" stroke-width="0.901857" stroke-linecap="round" stroke-linejoin="round"/>
        <path id="Vector_4" d="M60.2079 150.344C61.9033 150.65 63.7247 150.926 65.6721 151.174C67.9464 151.458 70.1916 151.633 72.3788 151.728L72.5459 146.949L60.5785 144.953L60.2079 150.344Z" fill="white" stroke="#1F2937" stroke-width="0.901857" stroke-linecap="round" stroke-linejoin="round"/>
        <path id="Vector_5" d="M52.157 149.615C52.157 149.615 47.4994 158.728 41.5193 159.813" stroke="#6B7280" stroke-width="0.901857" stroke-linecap="round" stroke-linejoin="round"/>
        <path id="Vector_6" d="M91.6851 166.173C92.1434 166.609 92.6288 167.015 93.1384 167.389" stroke="#6B7280" stroke-width="0.901857" stroke-linecap="round" stroke-linejoin="round"/>
        <path id="Vector_7" d="M85.6178 153.84C86.2045 157.56 87.6584 161.089 89.8613 164.14" stroke="#6B7280" stroke-width="0.901857" stroke-linecap="round" stroke-linejoin="round"/>
        <path id="Vector_8" d="M71.9065 211.89L71.9138 215.707" stroke="#6B7280" stroke-width="0.901857" stroke-linecap="round" stroke-linejoin="round"/>
        <path id="Vector_9" d="M63.0126 182.496L71.8774 190.276L71.8992 209.113" stroke="#6B7280" stroke-width="0.901857" stroke-linecap="round" stroke-linejoin="round"/>
        <path id="Vector_10" d="M63.0562 160.521L63.6738 176.503L68.3315 180.057L67.8882 163.391" stroke="#6B7280" stroke-width="0.901857" stroke-linecap="round" stroke-linejoin="round"/>
        <path id="Vector_11" d="M62.7874 153.84L62.9036 156.71" stroke="#6B7280" stroke-width="0.901857" stroke-linecap="round" stroke-linejoin="round"/>
        <path id="Vector_12" d="M73.2289 55.186C73.2289 55.186 48.0588 55.9727 46.2859 57.1601C44.5129 58.3474 29.7698 65.6391 29.7698 65.6391C29.7698 65.6391 34.8561 55.3827 34.8561 51.2451C34.8561 47.1075 31.7099 44.5434 26.0059 42.3727C20.3019 40.2019 12.4327 43.3561 10.8632 47.6976C9.29365 52.0391 1.81673 78.8458 1.03199 86.5309C0.247236 94.216 10.478 100.925 14.7942 100.532C19.1103 100.138 41.1487 92.0525 41.1487 92.0525C41.1487 92.0525 39.5719 135.424 39.5719 136.611C39.5719 137.799 39.5719 139.569 41.9334 140.552C44.2949 141.536 55.4994 147.254 69.0727 148.441C82.6459 149.629 97.9776 146.861 99.9468 146.664C101.916 146.467 103.682 142.33 103.682 140.552C103.682 138.775 105.302 125.175 105.302 125.175L108.208 137.201C108.208 137.201 110.17 139.387 116.463 139.962C122.755 140.538 127.675 137.398 129.048 134.244C130.421 131.09 130.428 130.303 130.428 130.303C130.428 130.303 117.654 81.4099 116.688 77.0684C115.722 72.7269 115.903 72.6978 113.149 69.58C110.396 66.4623 92.4989 59.3308 87.5869 57.9249C82.675 56.519 73.2289 55.186 73.2289 55.186Z" fill="#60A5FA" stroke="#1F2937" stroke-width="0.901857" stroke-linecap="round" stroke-linejoin="round"/>
        <path id="Vector_13" d="M29.7697 65.6338L21.5081 88.7036" stroke="#1F2937" stroke-width="0.901857" stroke-linecap="round" stroke-linejoin="round"/>
        <path id="Vector_14" d="M26.4273 75.4961C26.6394 79.2444 26.5081 83.0044 26.035 86.7287" stroke="#1F2937" stroke-width="0.901857" stroke-linecap="round" stroke-linejoin="round"/>
        <path id="Vector_15" d="M41.1778 92.0535L41.7664 70.5645" stroke="#1F2937" stroke-width="0.901857" stroke-linecap="round" stroke-linejoin="round"/>
        <path id="Vector_16" d="M41.1777 88.3091C41.1777 88.3091 37.8353 80.2234 37.2394 72.9316" stroke="#1F2937" stroke-width="0.901857" stroke-linecap="round" stroke-linejoin="round"/>
        <path id="Vector_17" d="M105.287 125.175L111.892 85.7812" stroke="#1F2937" stroke-width="0.901857" stroke-linecap="round" stroke-linejoin="round"/>
        <path id="Vector_18" d="M107.867 110.215L113.927 91.3916" stroke="#1F2937" stroke-width="0.901857" stroke-linecap="round" stroke-linejoin="round"/>
        <path id="Vector_19" d="M69.4359 71.635L72.5458 78.9631L57.6937 129.401L65.2288 140.728L74.3188 130.063L75.8665 80.0776L85.1745 74.7454L77.8647 64.9697L69.4359 71.635Z" fill="#1F2937" stroke="#1F2937" stroke-width="0.901857" stroke-linecap="round" stroke-linejoin="round"/>
        <path id="Vector_20" d="M73.6504 51.4141C73.6504 51.4141 70.1045 52.0842 69.8865 53.4173C69.6685 54.7503 66.5586 57.1906 65.8974 62.3043C65.2361 67.418 66.1153 74.5203 66.1153 74.5203C66.1153 74.5203 72.9891 71.4098 74.3189 71.1913C75.6486 70.9728 79.4052 71.4098 80.081 72.5243C80.7567 73.6389 84.2881 80.5372 86.061 79.4081C87.834 78.279 96.2337 68.9695 96.6988 61.4156C97.1638 53.8616 89.8322 54.5245 88.9457 54.0802C88.0592 53.6358 73.6504 51.4141 73.6504 51.4141Z" fill="#60A5FA" stroke="#1F2937" stroke-width="0.901857" stroke-linecap="round" stroke-linejoin="round"/>
        <path id="Vector_21" d="M73.6504 44.3047C73.6504 44.3047 72.9892 50.7514 72.5459 56.0836C72.1027 61.4158 71.4342 66.9665 73.6504 69.8585C75.8666 72.7504 78.308 73.1875 83.6269 69.1883C88.9457 65.1891 92.0484 61.6343 92.9494 57.8901C93.8504 54.146 95.1293 50.1104 95.1293 50.1104C95.1293 50.1104 84.2881 52.9732 73.6504 44.3047Z" fill="white" stroke="#1F2937" stroke-width="0.901857" stroke-linecap="round" stroke-linejoin="round"/>
        <path id="Vector_22" d="M73.6504 44.3047C73.6504 44.3047 73.0909 49.7534 72.655 54.7797C74.2283 56.4824 76.2986 57.6426 78.5696 58.0941C85.7341 59.6093 92.201 54.2115 94.8314 51.0646C95.0276 50.4527 95.1511 50.0812 95.1511 50.0812C95.1511 50.0812 84.2881 52.9732 73.6504 44.3047Z" fill="#1F2937" stroke="#1F2937" stroke-width="0.901857" stroke-linecap="round" stroke-linejoin="round"/>
        <path id="Vector_23" d="M73.3306 27.9291C73.3306 27.9291 72.4441 25.0154 70.6712 27.259C68.8982 29.5026 69.7847 35.0388 70.8964 36.3718C72.0081 37.7049 73.3306 27.9291 73.3306 27.9291Z" fill="white" stroke="#1F2937" stroke-width="0.901857" stroke-linecap="round" stroke-linejoin="round"/>
        <path id="Vector_24" d="M76.4624 14.3286C76.4624 14.3286 69.6612 36.6408 70.6858 41.3975C71.7103 46.1543 73.5922 54.2108 81.4034 55.8571C89.2146 57.5034 96.2483 50.9037 98.3119 48.0118C98.3119 48.0118 103.667 48.631 105.113 45.098C106.559 41.5651 108.615 37.8719 106.566 37.0414C105.649 36.61 104.667 36.332 103.66 36.2183C103.66 36.2183 109.429 27.1273 109.843 24.0242C110.257 20.921 108.194 10.5917 101.596 5.63096C94.9985 0.670267 83.8739 0.0583756 84.4915 2.33112C85.1092 4.60386 86.5551 4.80783 86.5551 4.80783C86.5551 4.80783 73.5704 3.35094 72.5386 6.87661C71.5068 10.4023 77.0727 12.4565 77.0727 12.4565L76.4624 14.3286Z" fill="white" stroke="#1F2937" stroke-width="0.901857" stroke-linecap="round" stroke-linejoin="round"/>
        <path id="Vector_25" d="M103.667 36.232C103.667 36.232 109.436 27.141 109.851 24.0378C110.265 20.9347 108.201 10.6053 101.603 5.64464C95.0057 0.683939 83.8811 0.0720476 84.4987 2.34479C85.1164 4.61753 86.5623 4.82149 86.5623 4.82149C86.5623 4.82149 73.5776 3.36461 72.5458 6.89028C71.514 10.4159 77.08 12.4701 77.08 12.4701L76.4623 14.3277C76.4623 14.3277 75.1544 18.6036 73.7811 23.7974H74.1953C74.1953 23.7974 74.8129 21.9326 75.6485 19.0407C76.4841 16.1488 78.1263 12.8417 86.3662 13.6721C94.606 14.5025 102.86 18.8367 103.267 21.9326C103.674 25.0285 100.179 26.3033 101.414 27.7237C102.65 29.1442 104.321 29.7852 103.267 30.8196C102.214 31.854 100.179 36.1955 101.414 36.8147C102.65 37.4339 104.713 36.3995 104.713 36.3995H104.771C104.411 36.3017 104.04 36.2455 103.667 36.232Z" fill="#1F2937" stroke="#1F2937" stroke-width="0.901857" stroke-linecap="round" stroke-linejoin="round"/>
        <path id="Vector_26" d="" stroke="#1F2937" stroke-width="0.901857" stroke-linecap="round" stroke-linejoin="round"/>
        <path id="Vector_27" d="" stroke="#1F2937" stroke-width="0.901857" stroke-linecap="round" stroke-linejoin="round"/>
        <path id="Vector_28" d="M76.4623 23.4189C76.4623 23.4189 81.614 24.2421 83.0527 25.0725" stroke="#1F2937" stroke-width="1.80371" stroke-linecap="round" stroke-linejoin="round"/>
        <path id="Vector_29" d="M90.4789 25.2762C90.4789 25.2762 94.1847 24.0378 96.6625 27.141" stroke="#1F2937" stroke-width="1.80371" stroke-linecap="round" stroke-linejoin="round"/>
        <path id="Vector_30" d="" fill="#1F2937"/>
        <path id="Vector_31" d="" fill="#1F2937"/>
        <path id="Vector_32" d="M23.6734 37.8436L20.1348 44.7784C20.1348 44.7784 20.1348 47.9326 25.4464 48.916C30.758 49.8994 32.5236 46.7306 32.5236 46.7306L36.273 36.4596C36.273 36.4596 39.2231 34.4855 39.6155 32.322C40.0078 30.1585 39.6155 23.6463 40.204 20.6669C40.7926 17.6876 45.1232 13.1785 42.9579 12.5812C40.7926 11.9839 38.4383 13.5719 37.8716 16.3327C37.3048 19.0935 36.2948 22.2404 36.2948 22.2404C36.2948 22.2404 34.3257 19.8802 34.1149 17.8697C33.9042 15.8592 34.907 14.9122 33.5264 14.5189C32.1458 14.1255 23.1066 20.8272 22.7143 22.998C22.3219 25.1687 23.6734 37.8436 23.6734 37.8436Z" fill="white" stroke="#1F2937" stroke-width="0.901857" stroke-linecap="round" stroke-linejoin="round"/>
        <path id="Vector_33" d="M36.6073 5.88574V22.9313" stroke="#1F2937" stroke-width="2.70557" stroke-linecap="round" stroke-linejoin="round"/>
        <path id="Vector_34" d="M33.1122 35.4766C33.1122 35.4766 31.3393 39.0241 28.5927 39.6141C25.846 40.2042 25.0468 38.6307 25.0468 38.6307" stroke="#1F2937" stroke-width="0.901857" stroke-linecap="round" stroke-linejoin="round"/>
        <g id="Vector_35">
            <path d="M25.7371 18.8516C25.7371 18.8516 24.9741 18.4145 25.8461 17.7662C26.718 17.1179 29.7625 15.6902 30.7362 15.1511C31.7099 14.6121 33.2431 19.835 33.7808 21.7071C34.3185 23.5792 34.5437 24.0017 33.7808 24.0017C33.0178 24.0017 32.3711 24.0017 31.3902 22.0349C30.9719 21.1148 30.4632 20.2387 29.8715 19.4198L28.0187 19.7476" fill="white"/>
            <path d="M25.7371 18.8516C25.7371 18.8516 24.9741 18.4145 25.8461 17.7662C26.718 17.1179 29.7625 15.6902 30.7362 15.1511C31.7099 14.6121 33.2431 19.835 33.7808 21.7071C34.3185 23.5792 34.5437 24.0017 33.7808 24.0017C33.0178 24.0017 32.3711 24.0017 31.3902 22.0349C30.9719 21.1148 30.4632 20.2387 29.8715 19.4198L28.0187 19.7476" stroke="#1F2937" stroke-width="0.901857" stroke-linecap="round" stroke-linejoin="round"/>
        </g>
        <g id="Vector_36">
            <path d="M23.3464 20.7388C23.3464 20.7388 22.5834 20.3017 23.4554 19.6461C24.3273 18.9905 27.3718 17.5773 28.3455 17.031C29.3192 16.4847 30.8451 21.7149 31.3901 23.587C31.935 25.4591 32.153 25.8743 31.3901 25.8743C30.6271 25.8743 29.9804 25.8743 28.9995 23.9148C28.5782 22.9939 28.0696 22.1157 27.4808 21.2924L25.628 21.6202" fill="white"/>
            <path d="M23.3464 20.7388C23.3464 20.7388 22.5834 20.3017 23.4554 19.6461C24.3273 18.9905 27.3718 17.5773 28.3455 17.031C29.3192 16.4847 30.8451 21.7149 31.3901 23.587C31.935 25.4591 32.153 25.8743 31.3901 25.8743C30.6271 25.8743 29.9804 25.8743 28.9995 23.9148C28.5782 22.9939 28.0696 22.1157 27.4808 21.2924L25.628 21.6202" stroke="#1F2937" stroke-width="0.901857" stroke-linecap="round" stroke-linejoin="round"/>
        </g>
        <g id="Vector_37">
            <path d="M23.8696 24.2343L26.0494 26.2084C26.0494 26.2084 26.8342 28.3937 28.0113 28.5758C29.1884 28.758 29.1957 27.5852 28.0113 25.4217C26.8269 23.2582 26.2456 19.9001 25.4609 19.7034C24.6761 19.5067 21.5226 22.2602 21.5226 22.2602L23.0993 27.3593" fill="white"/>
            <path d="M23.8696 24.2343L26.0494 26.2084C26.0494 26.2084 26.8342 28.3937 28.0113 28.5758C29.1884 28.758 29.1957 27.5852 28.0113 25.4217C26.8269 23.2582 26.2456 19.9001 25.4609 19.7034C24.6761 19.5067 21.5226 22.2602 21.5226 22.2602L23.0993 27.3593" stroke="#1F2937" stroke-width="0.901857" stroke-linecap="round" stroke-linejoin="round"/>
        </g>
        <path id="Vector_38" d="M33.8534 13.2785C33.8534 13.2785 31.8697 13.2785 31.6735 14.9831C31.4773 16.6876 32.7126 17.1684 34.5146 16.7823C36.3166 16.3963 37.1595 14.699 36.4983 13.752C35.8371 12.805 33.8534 13.2785 33.8534 13.2785Z" fill="white" stroke="#1F2937" stroke-width="0.901857" stroke-linecap="round" stroke-linejoin="round"/>
        <path id="Vector_39" d="M32.5236 46.7086L34.3257 41.7552C27.0595 43.9406 23.7025 41.9374 22.3219 40.4805L20.142 44.7419C20.142 44.7419 20.142 47.896 25.4536 48.8794C30.7652 49.8628 32.5236 46.7086 32.5236 46.7086Z" fill="#60A5FA" stroke="#1F2937" stroke-width="0.901857" stroke-linecap="round" stroke-linejoin="round"/>
        <g id="Vector_40">
            <path d="M117.538 132.92C117.538 132.92 111.217 133.087 109.219 135.426C107.22 137.764 107.039 149.266 107.039 151.116C107.039 152.967 110.672 158.459 117.357 159.799C124.042 161.14 129.709 157.126 129.847 152.952C129.985 148.778 132.841 137.429 132.18 133.087C131.519 128.746 128.685 127.26 128.685 127.26" fill="#60A5FA"/>
            <path d="M117.538 132.92C117.538 132.92 111.217 133.087 109.219 135.426C107.22 137.764 107.039 149.266 107.039 151.116C107.039 152.967 110.672 158.459 117.357 159.799C124.042 161.14 129.709 157.126 129.847 152.952C129.985 148.778 132.841 137.429 132.18 133.087C131.519 128.746 128.685 127.26 128.685 127.26" stroke="#1F2937" stroke-width="0.901857" stroke-linecap="round" stroke-linejoin="round"/>
        </g>
        <path id="Vector_41" d="M116.768 160.397C121.094 160.397 124.601 156.962 124.601 152.726C124.601 148.49 121.094 145.056 116.768 145.056C112.442 145.056 108.935 148.49 108.935 152.726C108.935 156.962 112.442 160.397 116.768 160.397Z" fill="#60A5FA" stroke="#1F2937" stroke-width="0.901857" stroke-linecap="round" stroke-linejoin="round"/>
        <path id="Vector_42" d="M119.042 159.769C119.042 159.769 119.871 156.091 119.042 153.942C118.214 151.793 112.713 148.93 111.049 149.571C109.386 150.212 110.214 151.407 108.717 152.077C107.22 152.747 101.553 153.577 100.39 155.078C99.2274 156.579 98.3918 159.449 96.5607 162.756C94.7296 166.063 92.5643 167.6 95.0639 167.767C96.1401 167.806 97.2037 167.525 98.1215 166.96C99.0392 166.395 99.7702 165.571 100.223 164.591C100.798 163.533 101.666 162.663 102.722 162.086C102.722 162.086 98.2246 172.284 98.8931 173.275C99.1882 173.803 99.6549 174.214 100.216 174.44C100.216 174.44 99.7142 176.443 100.884 176.946C101.235 177.092 101.615 177.153 101.994 177.124C102.373 177.095 102.739 176.976 103.064 176.778C103.064 176.778 104.561 177.944 105.396 177.944C105.932 177.926 106.452 177.754 106.893 177.449C106.893 177.449 109.72 177.776 110.526 176.443C111.333 175.11 115.024 170.769 116.855 167.265C118.016 164.914 118.757 162.377 119.042 159.769Z" fill="white" stroke="#1F2937" stroke-width="0.901857" stroke-linecap="round" stroke-linejoin="round"/>
        <path id="Vector_43" d="M100.223 174.455L107.38 163.769" stroke="#1F2937" stroke-width="0.901857" stroke-linecap="round" stroke-linejoin="round"/>
        <path id="Vector_44" d="M103.057 176.794L111.05 166.442" stroke="#1F2937" stroke-width="0.901857" stroke-linecap="round" stroke-linejoin="round"/>
        <path id="Vector_45" d="M106.886 177.456L113.208 170.281" stroke="#1F2937" stroke-width="0.901857" stroke-linecap="round" stroke-linejoin="round"/>
        <path id="Vector_46" d="M102.722 162.1L104.052 157.599" stroke="#1F2937" stroke-width="0.901857" stroke-linecap="round" stroke-linejoin="round"/>
    </g>
</svg>