<svg width="239" height="177" viewBox="0 0 239 177" fill="none" xmlns="http://www.w3.org/2000/svg">
    <g id="freepik--Character--inject-2">
        <path id="Vector" d="M218.784 148.073C215.139 151.106 187.062 170.377 146.997 167.269C144.841 149.032 136.62 74.1094 145.97 62.359C145.97 62.359 168.655 51.5402 189.551 56.0826C210.448 60.625 218.58 64.977 220.07 68.7442C221.198 71.5934 219.587 124.647 218.784 148.073Z" fill="#1F2937"/>
        <path id="Vector_2" d="M188.857 64.0865C176.821 74.5109 161.317 72.3077 161.657 64.3041C161.712 63.0529 163.051 61.5025 163.051 61.5025L162.582 60.7817L160.542 57.7013C159.053 55.3961 157.19 52.4993 155.891 50.3913C154.803 48.5961 181.928 31.9089 181.928 41.5037C181.928 55.0221 188.565 57.5653 188.565 57.5653C191.068 58.5717 193.4 60.1629 188.857 64.0865Z" fill="white" stroke="#1F2937" stroke-width="0.68" stroke-linecap="round" stroke-linejoin="round"/>
        <path id="Vector_3" d="M196.467 84.7324C196.467 84.7324 194.039 93.0556 195.188 95.4424" stroke="white" stroke-width="0.68" stroke-linecap="round" stroke-linejoin="round"/>
        <path id="Vector_4" d="M193.631 60.5645C193.631 68.5953 169.675 76.4629 162.657 68.4049" stroke="white" stroke-width="0.68" stroke-linecap="round" stroke-linejoin="round"/>
        <path id="Vector_5" d="M173.925 51.2969C173.925 51.2969 172.32 57.3489 164.84 62.0749C164.483 61.4624 163.907 61.008 163.228 60.8033C163.003 60.7666 162.774 60.7666 162.548 60.8033L160.508 57.7229C164.378 54.9349 173.925 51.2969 173.925 51.2969Z" fill="#1F2937"/>
        <g id="Vector_6">
            <path d="M177.284 43.8567C177.284 43.8567 177.202 49.8271 175.924 51.0443C166.438 60.1427 157.163 60.8635 155.633 58.4631C145.331 42.3063 147.765 38.0631 146.718 35.2955C144.861 30.4403 142.583 22.5115 143.59 17.7107C145.834 6.98707 166.03 -1.32933 176.665 9.45547C181.765 14.6167 183.377 25.8163 182.302 35.1459" fill="white"/>
            <path d="M177.284 43.8567C177.284 43.8567 177.202 49.8271 175.924 51.0443C166.438 60.1427 157.163 60.8635 155.633 58.4631C145.331 42.3063 147.765 38.0631 146.718 35.2955C144.861 30.4403 142.583 22.5115 143.59 17.7107C145.834 6.98707 166.03 -1.32933 176.665 9.45547C181.765 14.6167 183.377 25.8163 182.302 35.1459" stroke="#1F2937" stroke-width="0.68" stroke-linecap="round" stroke-linejoin="round"/>
        </g>
        <path id="Vector_7" d="M148.017 30.3037C148.017 30.3037 145.181 29.0321 144.569 30.5485" stroke="#1F2937" stroke-width="0.68" stroke-linecap="round" stroke-linejoin="round"/>
        <path id="Vector_8" d="M154.891 30.3987C154.891 30.3987 160.787 27.9303 163.439 30.9291" stroke="#1F2937" stroke-width="0.68" stroke-linecap="round" stroke-linejoin="round"/>
        <path id="Vector_9" d="" fill="#1F2937"/>
        <path id="Vector_10" d="" fill="#1F2937"/>
        <g id="Vector_11">
            <path d="" fill="white"/>
            <path d="" stroke="#1F2937" stroke-width="0.68" stroke-linecap="round" stroke-linejoin="round"/>
        </g>
        <path id="Vector_12" d="" stroke="#1F2937" stroke-width="0.68" stroke-linecap="round" stroke-linejoin="round"/>
        <path id="Vector_13" d="M187.96 18.309C187.96 14.2698 183.975 5.98062 176.985 5.04902C172.966 0.846618 167.24 -0.696986 160.291 0.901014C144.229 4.58661 139.34 20.4442 138.639 23.069C138.571 23.3138 138.537 23.4498 138.537 23.4498L142.835 22.3618L140.985 25.9726L143.236 27.4618L142.719 28.033L145.331 30.549L144.515 25.9522C145.018 22.9874 148.431 18.8394 148.431 18.8394C147.186 20.4542 146.409 22.3812 146.187 24.4086C147.547 20.8794 155.707 17.6086 155.707 17.6086C153.062 19.7574 151.627 23.9598 151.627 23.9598C154.143 20.859 160.039 18.853 163.813 17.7854C165.085 20.8522 167.104 24.055 169.987 25.8298C172.707 27.5026 172.612 30.957 172.612 30.957C175.539 32.9913 177.695 35.9521 178.732 39.3618L182.023 43.8634C182.023 43.8634 187.96 36.5806 187.96 18.309Z" fill="#1F2937"/>
        <g id="Vector_14">
            <path d="M174.108 32.1128C173.007 29.7532 177.005 23.3612 179.841 24.15C181.432 24.5988 183.513 27.5024 183.921 30.5488C184.329 33.5952 182.173 39.3888 179.875 40.6468C178.413 41.4628 177.209 39.2392 177.209 39.2392" fill="white"/>
            <path d="M174.108 32.1128C173.007 29.7532 177.005 23.3612 179.841 24.15C181.432 24.5988 183.513 27.5024 183.921 30.5488C184.329 33.5952 182.173 39.3888 179.875 40.6468C178.413 41.4628 177.209 39.2392 177.209 39.2392" stroke="#1F2937" stroke-width="0.68" stroke-linecap="round" stroke-linejoin="round"/>
        </g>
        <g id="Group 5">
            <path id="Vector_15" d="M0.62664 147.53L77.4598 129.564L237.722 148.074L196.46 176.294L0.62664 147.53Z" fill="#F3F4F6"/>
            <g id="Vector_16">
                <path d="M0.62664 147.53L77.4598 129.564L237.722 148.074" fill="#F3F4F6"/>
                <path d="M0.62664 147.53L77.4598 129.564L237.722 148.074" stroke="#1F2937" stroke-width="0.68" stroke-linecap="round" stroke-linejoin="round"/>
            </g>
        </g>
        <path id="Vector_17" d="M67.1169 151.133L98.2201 137.384L137.544 139.417L120.055 154.37L67.1169 151.133Z" fill="white" stroke="#1F2937" stroke-width="0.68" stroke-linecap="round" stroke-linejoin="round"/>
        <path id="Vector_18" d="M147.486 61.6797C137.511 65.7597 135.362 74.9329 118.41 111.184C118.41 111.184 110.882 112.727 106.85 121.873C102.817 131.019 109.57 138.241 117.342 137.996C117.342 137.996 120.463 140.716 126.862 140.437C133.261 140.158 161.542 96.8833 161.542 96.8833L147.486 61.6797Z" fill="#1F2937"/>
        <path id="Vector_19" d="M121.381 113.312C125.842 117.283 128.405 123.11 127.045 129.57" stroke="white" stroke-width="0.68" stroke-linecap="round" stroke-linejoin="round"/>
        <path id="Vector_20" d="M125.686 115.223C125.686 115.223 131.166 116.419 132.016 123.437" stroke="white" stroke-width="0.68" stroke-linecap="round" stroke-linejoin="round"/>
        <path id="Vector_21" d="M141.72 94.6864C139.13 88.2972 138.235 81.3474 139.122 74.5107" stroke="white" stroke-width="0.68" stroke-linecap="round" stroke-linejoin="round"/>
        <path id="Vector_22" d="M140.945 85.4385C140.53 88.2945 143.481 103.499 143.461 119.486" stroke="white" stroke-width="0.68" stroke-linecap="round" stroke-linejoin="round"/>
        <path id="Vector_23" d="M215.513 64.6855C227.991 70.9551 229.474 90.2467 217.703 113.312C209.387 129.592 197.908 153.63 190.646 155.241C183.384 156.853 176.298 152.331 176.298 152.331C176.298 152.331 170.178 152.045 168.328 147.693C163.269 135.8 176.128 120.772 181.16 124.369C181.16 124.369 197.317 89.2335 200.261 87.0167" fill="#1F2937"/>
        <path id="Vector_24" d="M167.172 140.463C165.52 132.256 178.44 122.572 181.16 124.368C181.16 124.368 190.755 124.905 192.189 131.542" stroke="white" stroke-width="0.68" stroke-linecap="round" stroke-linejoin="round"/>
        <path id="Vector_25" d="M202.321 142.212C207.938 132.304 217.703 113.312 217.703 113.312" stroke="white" stroke-width="0.68" stroke-linecap="round" stroke-linejoin="round"/>
        <path id="Vector_26" d="M181.16 124.369C181.16 124.369 187.885 120.343 192.91 124.151" stroke="white" stroke-width="0.68" stroke-linecap="round" stroke-linejoin="round"/>
        <path id="Vector_27" d="M183.458 119.48C183.458 119.48 187.171 111.32 190.938 103.84C194.706 96.3595 203.328 85.2823 206.912 84.7451" stroke="white" stroke-width="0.68" stroke-linecap="round" stroke-linejoin="round"/>
        <path id="Vector_28" d="M112.589 134.147C111.781 134.108 110.992 133.892 110.277 133.515C98.7166 127.483 89.727 117.514 84.3142 110.361C82.2098 107.627 80.2728 104.768 78.5138 101.799L81.2882 89.9131C81.2882 89.9131 83.8994 96.7131 94.3918 103.397C104.884 110.082 117.349 112.285 121.381 119.037C124.951 124.919 118.661 134.439 112.589 134.147Z" fill="white"/>
        <g id="Clip path group">
            <mask id="mask0_267_2848" style="mask-type:luminance" maskUnits="userSpaceOnUse" x="78" y="89" width="45" height="46">
                <g id="freepik--clip-path-2--inject-2">
                    <path id="Vector_29" d="M112.589 134.147C111.781 134.108 110.992 133.892 110.277 133.515C98.717 127.483 89.7274 117.514 84.3146 110.361C82.2101 107.627 80.2731 104.768 78.5142 101.799L81.2886 89.9131C81.2886 89.9131 83.8998 96.7131 94.3922 103.397C104.885 110.082 117.349 112.285 121.381 119.037C124.951 124.919 118.661 134.439 112.589 134.147Z" fill="white"/>
                </g>
            </mask>
            <g mask="url(#mask0_267_2848)">
                <g id="Group">
                    <path id="Vector_30" opacity="0.4" d="M112.589 134.147C112.46 133.287 112.232 132.445 111.909 131.638C109.481 125.559 94.7934 113.475 94.7934 113.475C91.2982 113.366 87.4562 111.911 84.3282 110.361C82.2191 107.627 80.2775 104.768 78.5142 101.799L81.2886 89.9131C81.2886 89.9131 83.8998 96.7131 94.3922 103.397C104.885 110.082 117.349 112.285 121.381 119.037C124.951 124.919 118.661 134.439 112.589 134.147Z" fill="#60A5FA"/>
                </g>
            </g>
        </g>
        <path id="Vector_31" d="M112.589 134.147C111.781 134.108 110.992 133.892 110.277 133.515C98.7166 127.483 89.727 117.514 84.3142 110.361C82.2098 107.627 80.2728 104.768 78.5138 101.799L81.2882 89.9131C81.2882 89.9131 83.8994 96.7131 94.3918 103.397C104.884 110.082 117.349 112.285 121.381 119.037C124.951 124.919 118.661 134.439 112.589 134.147Z" stroke="#1F2937" stroke-width="0.68" stroke-linecap="round" stroke-linejoin="round"/>
        <path id="Vector_32" d="M86.4086 101.078C86.4086 101.078 84.9738 107.416 81.193 105.994C79.153 105.226 75.2225 99.1332 74.4813 96.0596L86.4086 101.078Z" fill="white" stroke="#1F2937" stroke-width="0.68" stroke-linecap="round" stroke-linejoin="round"/>
        <path id="Vector_33" d="M69.7419 62.0531L72.8291 60.4619C72.8291 60.4619 81.5535 60.5367 86.9663 64.9363C91.8827 68.9347 94.3783 75.1975 94.3783 75.1975C94.3783 75.1975 113.48 64.6507 132.989 70.7027L140.945 115.046L104.368 117.439L81.5399 95.7539L69.7419 62.0531Z" fill="white" stroke="#1F2937" stroke-width="0.68" stroke-linecap="round" stroke-linejoin="round"/>
        <path id="Vector_34" d="M143.461 116.82C143.461 116.82 139.17 116.691 133.431 116.881C124.754 117.153 112.765 118.133 107.285 121.322L107.026 121.233L102.008 119.479L101.906 119.329C100.981 117.969 93.5213 107.259 82.8657 102.901L67.7969 60.7949C67.7969 60.7949 83.4369 61.4749 91.9845 75.6053L96.2753 77.1557C96.2753 77.1557 121.809 69.5941 136.103 72.3141L143.461 116.82Z" fill="#60A5FA"/>
        <g id="Clip path group_2">
            <mask id="mask1_267_2848" style="mask-type:luminance" maskUnits="userSpaceOnUse" x="67" y="60" width="77" height="62">
                <g id="freepik--clip-path-3--inject-2">
                    <path id="Vector_35" d="M143.461 116.821C143.461 116.821 139.17 116.692 133.431 116.882C124.754 117.154 112.765 118.133 107.285 121.323L107.026 121.234L102.008 119.48L101.906 119.33C100.981 117.97 93.5213 107.26 82.8657 102.901L67.7969 60.7959C67.7969 60.7959 83.4369 61.4759 91.9845 75.6063L96.2753 77.1567C96.2753 77.1567 121.809 69.5951 136.103 72.3151L143.461 116.821Z" fill="white"/>
                </g>
            </mask>
            <g mask="url(#mask1_267_2848)">
                <g id="Group_2">
                    <path id="Vector_36" opacity="0.3" d="M101.906 119.336C100.981 117.976 93.5213 107.266 82.8657 102.907L67.7969 60.8018C67.7969 60.8018 83.4369 61.4818 91.9845 75.6122L101.906 119.336Z" fill="black" fill-opacity="0.7"/>
                    <path id="Vector_37" opacity="0.3" d="M133.431 116.88C124.754 117.152 112.765 118.132 107.285 121.321L107.026 121.232L97.0031 78.6781C97.0031 78.6781 105.204 76.8353 107.727 77.7669C107.72 77.7805 124.393 90.0817 133.431 116.88Z" fill="url(#paint0_linear_267_2848)" fill-opacity="0.7"/>
                </g>
            </g>
        </g>
        <path id="Vector_38" d="M143.461 116.82C143.461 116.82 139.17 116.691 133.431 116.881C124.754 117.153 112.765 118.133 107.285 121.322L107.026 121.233L102.008 119.479L101.906 119.329C100.981 117.969 93.5213 107.259 82.8657 102.901L67.7969 60.7949C67.7969 60.7949 83.4369 61.4749 91.9845 75.6053L96.2753 77.1557C96.2753 77.1557 121.809 69.5941 136.103 72.3141L143.461 116.82Z" stroke="#1F2937" stroke-width="0.68" stroke-linecap="round" stroke-linejoin="round"/>
        <path id="Vector_39" d="M96.289 77.1631L106.129 117.983" stroke="#1F2937" stroke-width="0.68" stroke-linecap="round" stroke-linejoin="round"/>
        <path id="Vector_40" d="M102.008 119.487L92.447 78.6934" stroke="#1F2937" stroke-width="0.68" stroke-linecap="round" stroke-linejoin="round"/>
        <g id="Vector_41">
            <path d="M77.7182 101.833C75.5354 101.228 71.1358 88.1104 73.1486 82.4596C73.1486 82.4596 75.5422 78.3048 76.5486 78.0192C78.0718 77.5772 84.219 77.7064 83.9198 78.74C83.2398 81.1336 78.5206 81.0928 78.5206 81.0928L76.9906 83.8944L77.0518 85.438C77.0518 85.438 79.2754 83.8196 80.0914 83.8672C80.513 83.8672 82.689 84.9552 84.4162 85.8664C85.8918 86.6484 86.7962 87.0768 86.4562 87.784C85.3614 90.1368 80.7034 88.464 80.7034 88.464L78.949 91.1092C78.949 91.1092 80.6422 91.4016 81.3834 91.4832C82.1246 91.5648 88.2786 95.6652 88.095 96.1752C87.3674 98.1744 81.533 96.012 81.533 96.012L80.4994 96.8756C80.4994 96.8756 84.797 97.984 85.2594 98.1472C85.9394 98.3988 88.5574 100.412 88.5166 100.643C88.2038 102.411 84.593 101.112 84.593 101.112L81.431 100.983C80.9493 101.408 80.37 101.707 79.7446 101.853" fill="white"/>
            <path d="M77.7182 101.833C75.5354 101.228 71.1358 88.1104 73.1486 82.4596C73.1486 82.4596 75.5422 78.3048 76.5486 78.0192C78.0718 77.5772 84.219 77.7064 83.9198 78.74C83.2398 81.1336 78.5206 81.0928 78.5206 81.0928L76.9906 83.8944L77.0518 85.438C77.0518 85.438 79.2754 83.8196 80.0914 83.8672C80.513 83.8672 82.689 84.9552 84.4162 85.8664C85.8918 86.6484 86.7962 87.0768 86.4562 87.784C85.3614 90.1368 80.7034 88.464 80.7034 88.464L78.949 91.1092C78.949 91.1092 80.6422 91.4016 81.3834 91.4832C82.1246 91.5648 88.2786 95.6652 88.095 96.1752C87.3674 98.1744 81.533 96.012 81.533 96.012L80.4994 96.8756C80.4994 96.8756 84.797 97.984 85.2594 98.1472C85.9394 98.3988 88.5574 100.412 88.5166 100.643C88.2038 102.411 84.593 101.112 84.593 101.112L81.431 100.983C80.9493 101.408 80.37 101.707 79.7446 101.853" stroke="#1F2937" stroke-width="0.68" stroke-linecap="round" stroke-linejoin="round"/>
        </g>
        <path id="Vector_42" d="M77.0246 85.4385C77.0246 85.4385 74.9846 87.1521 74.461 87.6485C73.9374 88.1449 74.0666 89.7225 74.0666 89.7225" stroke="#1F2937" stroke-width="0.68" stroke-linecap="round" stroke-linejoin="round"/>
        <path id="Vector_43" d="M75.549 93.2041C75.549 94.9313 76.705 95.9785 77.2354 96.5361C77.7658 97.0937 76.3854 98.6101 77.9154 99.6981" stroke="#1F2937" stroke-width="0.68" stroke-linecap="round" stroke-linejoin="round"/>
        <path id="Vector_44" d="M176.271 147.951C171.953 149.127 167.261 141.538 161.535 133.256C157.754 127.816 153.525 122.016 148.663 118.296C148.275 118.004 147.881 117.718 147.486 117.446L150.329 103.166C156.231 106.26 159.89 111.217 166.016 116.31C175.876 124.518 184.614 129.557 187.035 133.188C189.456 136.819 183.669 145.931 176.271 147.951Z" fill="white"/>
        <g id="Clip path group_3">
            <mask id="mask2_267_2848" style="mask-type:luminance" maskUnits="userSpaceOnUse" x="147" y="103" width="41" height="46">
                <g id="freepik--clip-path-4--inject-2">
                    <path id="Vector_45" d="M176.271 147.953C171.953 149.129 167.261 141.54 161.535 133.258C157.754 127.818 153.525 122.018 148.663 118.298C148.275 118.006 147.881 117.72 147.486 117.448L150.329 103.168C156.231 106.262 159.89 111.219 166.016 116.312C175.876 124.52 184.614 129.559 187.035 133.19C189.456 136.821 183.669 145.933 176.271 147.953Z" fill="white"/>
                </g>
            </mask>
            <g mask="url(#mask2_267_2848)">
                <g id="Group_3">
                    <path id="Vector_46" opacity="0.4" d="M161.535 133.251C157.755 127.811 153.525 122.011 148.663 118.291C149.304 118.324 149.944 118.227 150.547 118.006C150.547 118.006 158.231 124.241 161.535 133.251Z" fill="#60A5FA"/>
                </g>
            </g>
        </g>
        <path id="Vector_47" d="M176.271 147.951C171.953 149.127 167.261 141.538 161.535 133.256C157.754 127.816 153.525 122.016 148.663 118.296C148.275 118.004 147.881 117.718 147.486 117.446L150.329 103.166C156.231 106.26 159.89 111.217 166.016 116.31C175.876 124.518 184.614 129.557 187.035 133.188C189.456 136.819 183.669 145.931 176.271 147.951Z" stroke="#1F2937" stroke-width="0.68" stroke-linecap="round" stroke-linejoin="round"/>
        <path id="Vector_48" d="M151.92 116.882C151.624 117.41 151.137 117.804 150.56 117.983C150.406 118.043 150.25 118.096 150.09 118.14H149.961C145.398 119.33 135.13 116.854 135.13 116.854C135.13 116.854 128.405 113.658 127.997 112.904C127.713 112.306 127.461 111.693 127.242 111.068L127.059 110.53C127.059 110.53 124.638 109.17 124.339 108.11C124.04 107.049 123.53 106.75 125.019 106.559C126.508 106.369 134.539 106.559 134.539 106.559L125.801 102.996C125.801 102.996 120.014 100.079 119.477 99.052C118.94 98.0252 118.266 97.3452 121.224 97.7532C124.182 98.1612 130.642 100.038 130.642 100.038L135.736 101.119L130.677 98.9636C130.677 98.9636 120.721 97.76 122.605 94.666H128.256C131.457 94.8073 134.641 95.2122 137.776 95.8764C139.421 96.3796 150.301 103.139 150.301 103.139" fill="white"/>
        <g id="Clip path group_4">
            <mask id="mask3_267_2848" style="mask-type:luminance" maskUnits="userSpaceOnUse" x="119" y="94" width="33" height="25">
                <g id="freepik--clip-path-5--inject-2">
                    <path id="Vector_49" d="M151.92 116.884C151.625 117.412 151.138 117.806 150.56 117.985C150.407 118.045 150.25 118.098 150.091 118.142H149.962C145.399 119.332 135.131 116.856 135.131 116.856C135.131 116.856 128.406 113.66 127.998 112.906C127.714 112.307 127.462 111.695 127.243 111.07L127.059 110.532C127.059 110.532 124.639 109.172 124.339 108.112C124.04 107.051 123.53 106.752 125.019 106.561C126.509 106.371 134.539 106.561 134.539 106.561L125.801 102.998C125.801 102.998 120.015 100.081 119.477 99.054C118.94 98.0272 118.267 97.3472 121.225 97.7552C124.183 98.1632 130.643 100.04 130.643 100.04L135.736 101.121L130.677 98.9656C130.677 98.9656 120.722 97.762 122.605 94.668H128.256C131.457 94.8093 134.641 95.2141 137.776 95.8784C139.422 96.3816 150.302 103.141 150.302 103.141" fill="white"/>
                </g>
            </mask>
            <g mask="url(#mask3_267_2848)">
                <g id="Group_4">
                    <path id="Vector_50" opacity="0.4" d="M149.948 118.168C145.385 119.358 135.117 116.882 135.117 116.882C135.117 116.882 128.392 113.686 127.984 112.932C127.7 112.334 127.448 111.721 127.229 111.096L135.484 112C135.195 112.52 135.044 113.105 135.044 113.7C135.044 114.295 135.195 114.88 135.484 115.4C136.402 117.052 146.861 118.725 149.948 118.168Z" fill="#60A5FA"/>
                </g>
            </g>
        </g>
        <path id="Vector_51" d="M151.92 116.882C151.624 117.41 151.137 117.804 150.56 117.983C150.406 118.043 150.25 118.096 150.09 118.14H149.961C145.398 119.33 135.13 116.854 135.13 116.854C135.13 116.854 128.405 113.658 127.997 112.904C127.713 112.306 127.461 111.693 127.242 111.068L127.059 110.53C127.059 110.53 124.638 109.17 124.339 108.11C124.04 107.049 123.53 106.75 125.019 106.559C126.508 106.369 134.539 106.559 134.539 106.559L125.801 102.996C125.801 102.996 120.014 100.079 119.477 99.052C118.94 98.0252 118.266 97.3452 121.224 97.7532C124.182 98.1612 130.642 100.038 130.642 100.038L135.736 101.119L130.677 98.9636C130.677 98.9636 120.721 97.76 122.605 94.666H128.256C131.457 94.8073 134.641 95.2122 137.776 95.8764C139.421 96.3796 150.301 103.139 150.301 103.139" stroke="#1F2937" stroke-width="0.68" stroke-linecap="round" stroke-linejoin="round"/>
        <path id="Vector_52" d="M127.046 110.558L136.98 112.02" stroke="#1F2937" stroke-width="0.68" stroke-linecap="round" stroke-linejoin="round"/>
        <path id="Vector_53" d="M28.0102 140.981L52.9118 148.461L98.4718 138.063C98.4718 138.063 70.6462 130.162 70.3878 130.359C70.1294 130.556 28.0102 140.981 28.0102 140.981Z" fill="#60A5FA"/>
        <g id="Clip path group_5">
            <mask id="mask4_267_2848" style="mask-type:luminance" maskUnits="userSpaceOnUse" x="28" y="130" width="71" height="19">
                <g id="freepik--clip-path-6--inject-2">
                    <path id="Vector_54" d="M28.0102 140.982L52.9118 148.462L98.4718 138.064C98.4718 138.064 70.6462 130.163 70.3878 130.36C70.1294 130.557 28.0102 140.982 28.0102 140.982Z" fill="white"/>
                </g>
            </mask>
            <g mask="url(#mask4_267_2848)">
                <g id="Group_5">
                    <path id="Vector_55" opacity="0.3" d="M28.0102 140.982L52.9118 148.462L98.4718 138.064C98.4718 138.064 70.6462 130.163 70.3878 130.36C70.1294 130.557 28.0102 140.982 28.0102 140.982Z" fill="black" fill-opacity="0.7"/>
                </g>
            </g>
        </g>
        <path id="Vector_56" d="M28.0102 140.981L52.9118 148.461L98.4718 138.063C98.4718 138.063 70.6462 130.162 70.3878 130.359C70.1294 130.556 28.0102 140.981 28.0102 140.981Z" stroke="#1F2937" stroke-width="0.68" stroke-linecap="round" stroke-linejoin="round"/>
        <path id="Vector_57" d="M28.3706 132.209C26.623 132.331 26.1878 138.628 28.0102 140.981L68.239 132.631L71.4622 125.001L28.3706 132.209Z" fill="#60A5FA"/>
        <g id="Clip path group_6">
            <mask id="mask5_267_2848" style="mask-type:luminance" maskUnits="userSpaceOnUse" x="26" y="125" width="46" height="16">
                <g id="freepik--clip-path-7--inject-2">
                    <path id="Vector_58" d="M28.3711 132.209C26.6235 132.331 26.1883 138.628 28.0107 140.981L68.2395 132.631L71.4627 125.001L28.3711 132.209Z" fill="white"/>
                </g>
            </mask>
            <g mask="url(#mask5_267_2848)">
                <g id="Group_6">
                    <path id="Vector_59" opacity="0.3" d="M28.3711 132.209C26.6235 132.331 26.1883 138.628 28.0107 140.981L68.2395 132.631L71.4627 125.001L28.3711 132.209Z" fill="black" fill-opacity="0.7"/>
                </g>
            </g>
        </g>
        <path id="Vector_60" d="M28.3706 132.209C26.623 132.331 26.1878 138.628 28.0102 140.981L68.239 132.631L71.4622 125.001L28.3706 132.209Z" stroke="#1F2937" stroke-width="0.68" stroke-linecap="round" stroke-linejoin="round"/>
        <path id="Vector_61" d="M96.5202 132.12C96.5202 132.12 95.9218 135.431 96.3094 137.471L52.8642 147.304L29.9618 140.559C29.9618 140.559 27.5818 136.349 29.6558 133.079L71.503 125.973L96.5202 132.12Z" fill="white" stroke="#1F2937" stroke-width="0.68" stroke-linecap="round" stroke-linejoin="round"/>
        <path id="Vector_62" d="M28.3705 132.209L71.4621 125.001L98.2201 131.781L53.2177 140.75L28.3705 132.209Z" fill="#60A5FA" stroke="#1F2937" stroke-width="0.68" stroke-linecap="round" stroke-linejoin="round"/>
        <path id="Vector_63" d="M29.9005 136.235L52.6873 143.022L89.9853 135.515" stroke="#1F2937" stroke-width="0.68" stroke-linecap="round" stroke-linejoin="round"/>
        <path id="Vector_64" d="M96.187 136.207L56.0806 144.761" stroke="#1F2937" stroke-width="0.68" stroke-linecap="round" stroke-linejoin="round"/>
        <path id="Vector_65" d="M30.4377 138.907C30.7845 138.941 47.6145 144.123 47.6145 144.123" stroke="#1F2937" stroke-width="0.68" stroke-linecap="round" stroke-linejoin="round"/>
        <path id="Vector_66" d="M92.9094 134.637L96.0986 134.12" stroke="#1F2937" stroke-width="0.68" stroke-linecap="round" stroke-linejoin="round"/>
        <path id="Vector_67" d="M51.9462 145.381L50.253 145" stroke="#1F2937" stroke-width="0.68" stroke-linecap="round" stroke-linejoin="round"/>
        <path id="Vector_68" d="M29.6557 133.08C30.5474 134.107 31.0634 135.407 31.119 136.766C31.1746 138.126 30.7665 139.463 29.9617 140.56C29.2167 139.466 28.7931 138.186 28.739 136.864C28.6849 135.542 29.0025 134.231 29.6557 133.08Z" fill="#1F2937"/>
        <g id="Clip path group_7">
            <mask id="mask6_267_2848" style="mask-type:luminance" maskUnits="userSpaceOnUse" x="28" y="133" width="4" height="8">
                <g id="freepik--clip-path-8--inject-2">
                    <path id="Vector_69" d="M29.6557 133.08C30.5474 134.107 31.0634 135.407 31.119 136.766C31.1746 138.126 30.7665 139.463 29.9617 140.56C29.2167 139.466 28.7931 138.186 28.739 136.864C28.6849 135.542 29.0025 134.231 29.6557 133.08Z" fill="white"/>
                </g>
            </mask>
            <g mask="url(#mask6_267_2848)">
                <g id="Group_7">
                    <path id="Vector_70" d="M29.6557 133.08C30.5474 134.107 31.0634 135.407 31.119 136.766C31.1746 138.126 30.7665 139.463 29.9617 140.56C29.2167 139.466 28.7931 138.186 28.739 136.864C28.6849 135.542 29.0025 134.231 29.6557 133.08Z" fill="#6B7280"/>
                </g>
            </g>
        </g>
        <path id="Vector_71" d="M29.6557 133.08C30.5474 134.107 31.0634 135.407 31.119 136.766C31.1746 138.126 30.7665 139.463 29.9617 140.56C29.2167 139.466 28.7931 138.186 28.739 136.864C28.6849 135.542 29.0025 134.231 29.6557 133.08Z" stroke="#1F2937" stroke-width="0.68" stroke-linecap="round" stroke-linejoin="round"/>
        <path id="Vector_72" d="M122.727 143.021L166.213 144.802L161.977 159.769L108.481 157.729L122.727 143.021Z" fill="white"/>
        <g id="Clip path group_8">
            <mask id="mask7_267_2848" style="mask-type:luminance" maskUnits="userSpaceOnUse" x="108" y="143" width="59" height="17">
                <g id="freepik--clip-path-9--inject-2">
                    <path id="Vector_73" d="M122.728 143.02L166.214 144.801L161.977 159.768L108.482 157.728L122.728 143.02Z" fill="white"/>
                </g>
            </mask>
            <g mask="url(#mask7_267_2848)">
                <g id="Group_8">
                    <path id="Vector_74" opacity="0.4" d="M122.728 143.02L166.214 144.801L161.977 159.768L108.482 157.728L122.728 143.02Z" fill="#60A5FA"/>
                </g>
            </g>
        </g>
        <path id="Vector_75" d="M122.727 143.021L166.213 144.802L161.977 159.769L108.481 157.729L122.727 143.021Z" stroke="#1F2937" stroke-width="0.68" stroke-linecap="round" stroke-linejoin="round"/>
    </g>
    <defs>
        <linearGradient id="paint0_linear_267_2848" x1="112" y1="81.498" x2="102" y2="97.998" gradientUnits="userSpaceOnUse">
            <stop stop-opacity="0.1"/>
            <stop offset="1"/>
        </linearGradient>
    </defs>
</svg>