<svg width="87" height="88" viewBox="0 0 87 88" fill="none" xmlns="http://www.w3.org/2000/svg">
<g id="freepik--Earth--inject-2">
<path id="Vector" d="M81.3835 63.8942C80.4516 65.6597 79.3997 67.3592 78.2351 68.9806C72.1936 77.3805 63.3161 83.31 53.2428 85.6736C43.1695 88.0373 32.5811 86.6753 23.4339 81.8394C22.4887 81.343 21.5639 80.8126 20.6799 80.255C19.7959 79.6974 18.9323 79.1262 18.1027 78.5142C17.0963 77.7866 16.1307 77.0114 15.2059 76.2022C15.1467 76.1578 15.092 76.1077 15.0427 76.0526C9.01673 70.7198 4.61233 63.7995 2.33271 56.0823C0.0530831 48.3652 -0.00983065 40.1624 2.15115 32.4112C4.31212 24.66 8.60985 17.673 14.5533 12.2483C20.4967 6.82372 27.8462 3.1803 35.762 1.73435C43.6779 0.288397 51.8408 1.09823 59.3182 4.07132C66.7956 7.04441 73.286 12.0608 78.0477 18.5475C82.8095 25.0342 85.6506 32.7295 86.2465 40.7542C86.8423 48.7789 85.169 56.8094 81.4175 63.9282L81.3835 63.8942Z" fill="#60A5FA" stroke="#1F2937" stroke-width="0.68" stroke-linecap="round" stroke-linejoin="round"/>
<g id="Clip path group">
<mask id="mask0_267_2834" style="mask-type:luminance" maskUnits="userSpaceOnUse" x="0" y="1" width="87" height="86">
<g id="freepik--clip-path--inject-2">
<path id="Vector_2" d="M81.3832 63.8932C80.4514 65.6587 79.3994 67.3582 78.2348 68.9796C72.1933 77.3795 63.3158 83.309 53.2425 85.6727C43.1693 88.0363 32.5809 86.6743 23.4336 81.8384C22.4884 81.342 21.5636 80.8116 20.6796 80.254C19.7956 79.6964 18.932 79.1252 18.1024 78.5132C17.096 77.7856 16.1304 77.0104 15.2056 76.2012C15.1464 76.1569 15.0918 76.1068 15.0424 76.0516C9.01648 70.7188 4.61208 63.7985 2.33246 56.0814C0.052839 48.3642 -0.0100748 40.1614 2.1509 32.4102C4.31188 24.659 8.6096 17.672 14.553 12.2474C20.4965 6.82274 27.846 3.17932 35.7618 1.73337C43.6776 0.28742 51.8406 1.09725 59.318 4.07034C66.7954 7.04343 73.2857 12.0599 78.0475 18.5465C82.8092 25.0332 85.6503 32.7285 86.2462 40.7532C86.8421 48.7779 85.1687 56.8084 81.4172 63.9272L81.3832 63.8932Z" fill="white"/>
</g>
</mask>
<g mask="url(#mask0_267_2834)">
<g id="Group">
<path id="Vector_3" d="M81.3835 63.8939C80.4516 65.6594 79.3996 67.3589 78.2351 68.9803L77.4054 68.3003L75.9775 67.5455L74.4747 66.7567L74.7262 64.9411L74.6447 63.3023C74.5563 61.6635 75.7395 63.0031 76.6847 62.5067C77.4218 61.9799 78.0175 61.2791 78.4187 60.4667C78.4187 60.4667 79.0987 58.2839 78.8743 57.4067C78.5081 56.396 78.0765 55.4102 77.5822 54.4555L75.1479 57.8555L73.1079 57.6991L71.1766 56.6791L70.925 53.9931L69.9322 53.4763L69.5175 51.9327L64.1522 50.4299L63.5402 49.3555C62.9282 48.2811 60.4599 47.7303 60.4599 47.7303L61.065 46.3295L62.017 44.7655C62.9758 43.2015 63.9687 45.7991 63.9687 45.7991L65.1043 46.3907L67.2122 44.6227L67.7699 42.0863L71.2039 42.2835C71.1366 41.9402 71.189 41.5843 71.3523 41.2749C71.5156 40.9656 71.78 40.7216 72.1014 40.5835C73.2438 40.1347 72.7406 37.6527 72.3054 36.7347C71.8702 35.8167 70.2654 36.5579 70.2654 36.5579C70.2654 36.5579 68.5178 33.8991 68.2799 32.8383C68.0419 31.7775 71.6118 32.1583 73.1418 31.0907C74.6718 30.0231 74.1482 27.9015 73.4002 27.8539C72.6522 27.8063 74.8622 23.0259 79.1122 24.3383C80.2954 24.7055 81.0434 24.5763 81.5058 24.1683C84.6946 30.3077 86.349 37.1281 86.3277 44.0462C86.3064 50.9642 84.6099 57.7743 81.3835 63.8939Z" fill="#93C5FD" stroke="#1F2937" stroke-width="0.68" stroke-linecap="round" stroke-linejoin="round"/>
<path id="Vector_4" d="M51.647 45.5L50.1918 47.3292C50.1918 47.3292 49.5731 45.8536 48.6891 46.6492L47.3291 47.8596L46.3431 50.6204L44.5751 51.7628L43.4939 51.1984L42.4739 50.6544L41.3654 50.0696L40.3046 52.1096L39.441 53.7416C39.8619 54.5428 40.3854 55.2857 40.9983 55.9516L42.875 59.2632L45.1599 60.4192C46.1128 60.4546 47.0612 60.5683 47.9954 60.7592L49.5662 61.582L49.0087 64.982C49.0087 64.982 47.8254 66.9064 47.0366 66.376L46.241 65.8524L44.9491 70.3268L44.8946 72.7884C44.8946 72.7884 44.1262 73.108 43.351 73.3664C42.5758 73.6248 43.0654 73.4888 41.4403 73.992C39.815 74.4952 39.9442 74.4748 38.625 74.8488C37.5005 75.2424 36.4184 75.7482 35.3951 76.3584L35.5106 78.7248L32.4031 79.1804L30.6622 78.2556L31.0906 76.7596L31.2947 74.4204L31.0566 72.6728L30.3087 71.1292L32.4031 69.232L31.9406 68.042L30.7506 65.6756L28.2346 67.0356L26.9427 67.7156L24.0187 66.4032L23.6991 64.6284L22.7199 61.4392L21.8087 59.4536L20.1903 57.264L19.7822 55.3804L20.6935 53.6532L21.1762 52.742L19.687 50.736L19.2791 49.308L16.7699 47.03C16.7699 47.03 17.4975 46.9824 17.3343 45.9692C17.1711 44.956 18.7691 43.2492 18.7691 43.2492C19.6735 43.7252 22.3866 45.6156 22.3866 45.6156L24.7598 45.942C24.7598 45.942 25.2359 45.942 25.6983 45.0444C26.2384 44.2188 26.8728 43.4589 27.5887 42.78C27.5887 42.78 26.4938 38.9788 27.2758 38.4688C28.0578 37.9588 28.8535 35.47 28.8535 35.47L29.4791 34.28C29.4791 34.28 28.0035 33.634 27.7246 32.852C27.4459 32.07 23.8079 33.1104 23.8079 33.1104L21.2987 34.8512L19.3199 36.3812L18.4631 38.0064C18.4631 38.0064 16.7155 35.9052 16.7087 37.0816C16.5753 38.2877 16.3108 39.4757 15.9199 40.6244C15.9199 40.6244 16.2803 40.8148 15.8043 41.726C15.3283 42.6372 14.8115 42.5896 13.7643 42.7188C12.3991 42.7325 11.0349 42.6393 9.68425 42.44C9.68425 42.44 9.00425 44.956 9.47345 45.3912L9.93585 45.8128C9.93585 45.8128 9.20825 47.642 8.48746 47.2612L6.73305 46.3364L4.27825 47.3292L1.55825 50.3348L0.953049 50.2124C-0.713981 39.031 2.10046 27.6436 8.78443 18.5263C15.4684 9.40886 25.4814 3.29873 36.6462 1.52441C36.8026 2.20441 36.9727 2.84362 36.9727 2.84362L36.2927 6.20281L35.4222 7.86202L34.6743 9.28322L33.6203 11.2824L36.3199 13.7712L35.7418 16.7156L34.2799 17.6336L33.8583 19.8436L36.3675 24.7464L37.0475 26.6708C36.6276 27.5921 36.4207 28.5962 36.4422 29.6084C36.4422 29.6084 36.7483 31.4444 38.0879 32.172C39.4275 32.8996 41.1887 33.7564 41.1887 33.7564L41.0458 36.4764L40.4406 37.1564L41.447 40.0872C44.5138 41.2908 44.2215 42.2972 44.5139 41.2908L44.8131 40.2912L46.9007 39.5364L49.5595 42.712C49.8688 42.7079 50.1743 42.7817 50.4476 42.9267C50.7209 43.0717 50.9534 43.2831 51.1235 43.5416C51.8987 44.5208 53.109 43.6708 51.647 45.5Z" fill="#93C5FD" stroke="#1F2937" stroke-width="0.68" stroke-linecap="round" stroke-linejoin="round"/>
<path id="Vector_5" d="M15.6069 69.1844C15.6817 70.15 14.4577 71.3604 14.4577 71.3604L15.4573 71.884L15.7633 74.604L15.0085 76.0456C9.66004 71.3208 5.58051 65.3312 3.14253 58.624L3.68653 55.7408L6.08693 55.4008C6.08693 55.4008 8.23574 53.9728 9.18774 54.3536C10.1397 54.7344 11.0101 57.0736 11.0101 57.0736C11.0101 57.0736 11.6901 60.2288 11.6017 60.1676H11.5609H11.6153L12.5945 60.6844L12.8733 61.9288L11.5133 64.5128H9.32374C9.32374 64.5128 8.88854 64.2816 8.84774 65.4172C8.88319 65.8113 9.00294 66.1932 9.19887 66.5369C9.3948 66.8807 9.66233 67.1783 9.98334 67.4096L12.3497 66.8044L12.9821 64.3564L15.3077 63.9008C15.3077 63.9008 14.9745 65.4036 15.5185 65.6892L16.0693 65.9816L16.3957 67.7768C16.1521 67.9214 15.951 68.1277 15.8125 68.3748C15.674 68.6219 15.6031 68.9012 15.6069 69.1844Z" fill="#93C5FD" stroke="#1F2937" stroke-width="0.68" stroke-linecap="round" stroke-linejoin="round"/>
<path id="Vector_6" d="M26.8541 73.0339C26.6433 72.4491 26.5549 71.9391 25.1065 71.1775C23.6581 70.4159 23.7465 70.6879 23.1753 71.3203C22.9293 71.6456 22.5935 71.8917 22.2092 72.0283C21.8249 72.1648 21.409 72.1858 21.0129 72.0887C20.0609 71.8779 20.5573 72.9523 20.5573 72.9523L20.7885 75.8559L18.1025 78.5079C18.9321 79.1199 19.7912 79.7002 20.6797 80.2487L21.2509 78.4943L25.7117 79.7999C24.7665 79.5211 25.3241 78.2291 25.3241 78.2291L24.3721 77.7259C24.3721 77.7259 27.0649 73.6051 26.8541 73.0339Z" fill="#93C5FD" stroke="#1F2937" stroke-width="0.68" stroke-linecap="round" stroke-linejoin="round"/>
<path id="Vector_7" d="M21.251 78.4933L20.6798 80.2477C19.7731 79.6947 18.9141 79.1144 18.1026 78.5069L20.7886 75.8549L20.5574 72.9513C20.5574 72.9513 20.061 71.8769 21.013 72.0877C21.4091 72.1849 21.825 72.1639 22.2093 72.0273C22.5936 71.8907 22.9294 71.6446 23.1754 71.3193C23.733 70.6869 23.665 70.4149 25.1066 71.1765C26.5482 71.9381 26.6434 72.4481 26.8542 73.0329C27.065 73.6177 24.3722 77.7453 24.3722 77.7453L25.3242 78.2485C25.3242 78.2485 24.7666 79.5405 25.7118 79.8193L21.251 78.4933Z" fill="#93C5FD" stroke="#1F2937" stroke-width="0.68" stroke-linecap="round" stroke-linejoin="round"/>
<path id="Vector_8" d="M51.8174 56.9836L53.4902 56.46L54.9522 57.9356C54.9522 57.9356 57.8422 58.3096 56.7134 59.5676C55.5846 60.8256 53.429 60.812 53.429 60.812L52.6402 62.2944L51.2802 60.642L50.6002 59.282L51.1102 58.3028L51.8174 56.9836Z" fill="#93C5FD" stroke="#1F2937" stroke-width="0.68" stroke-linecap="round" stroke-linejoin="round"/>
<path id="Vector_9" d="M54.2176 50.6729C53.8753 51.0793 53.6248 51.5548 53.4832 52.0669L53.3744 52.7061L50.6544 51.2781L52.1368 48.4697L54.2176 50.6729Z" fill="#93C5FD" stroke="#1F2937" stroke-width="0.68" stroke-linecap="round" stroke-linejoin="round"/>
<path id="Vector_10" d="M53.1974 85.6596C48.2658 86.8138 43.1691 87.0878 38.1422 86.4688L38.659 84.5784C38.659 84.5784 38.1694 83.7556 40.1618 83.9324C42.1542 84.1092 43.6706 84.3132 43.6706 84.3132L45.255 81.3076H48.0362L48.9474 81.7836L49.7294 82.9328L51.4158 84.558C52.0294 84.8922 52.6242 85.26 53.1974 85.6596Z" fill="#93C5FD" stroke="#1F2937" stroke-width="0.68" stroke-linecap="round" stroke-linejoin="round"/>
</g>
</g>
</g>
</g>
</svg>
