<svg width="22" height="24" viewBox="0 0 22 24" fill="none" xmlns="http://www.w3.org/2000/svg">
<g id="Group 1">
<path id="Vector" d="M1.38875 5.01345C0.98683 5.27098 0.651245 5.62169 0.409754 6.03655C0.168263 6.45141 0.0278062 6.91852 0 7.39924V16.6015C0.0278062 17.0823 0.168263 17.5494 0.409754 17.9642C0.651245 18.3791 0.98683 18.7298 1.38875 18.9873L9.54453 23.6055C9.97684 23.82 10.4519 23.9314 10.9333 23.9314C11.4147 23.9314 11.8897 23.82 12.322 23.6055L20.4862 18.9873C20.8882 18.7298 21.2237 18.3791 21.4652 17.9642C21.7067 17.5494 21.8472 17.0823 21.875 16.6015V7.39924C21.8472 6.91852 21.7067 6.45141 21.4652 6.03655C21.2237 5.62169 20.8882 5.27098 20.4862 5.01345L12.3305 0.395258C11.8982 0.18082 11.4231 0.0693359 10.9417 0.0693359C10.4603 0.0693359 9.98526 0.18082 9.55295 0.395258L1.38875 5.01345Z" fill="#2563EB"/>
<g id="Vector_2">
<path d="M11.0623 17.9054C11.0623 14.6981 13.7532 12.3017 17.0535 12.3017H17.1923V11.6579H17.0535C13.7532 11.6579 11.0744 9.2733 11.0623 6.04224C11.2674 6.04224 11.4786 6.04224 11.6656 6.04224C12.8848 6.03587 14.0768 6.39792 15.0819 7.07984C16.087 7.76176 16.857 8.73096 17.2888 9.85752C17.5432 10.5431 17.6739 11.2674 17.675 11.9976C17.6739 12.7337 17.5433 13.4639 17.2888 14.1557C16.8553 15.2806 16.0847 16.2481 15.0799 16.9288C14.075 17.6095 12.8839 17.971 11.6656 17.965C11.4726 17.9352 11.2674 17.9233 11.0623 17.9054Z" fill="white"/>
<path d="M10.8209 17.8993C10.8209 14.6921 8.13 12.2957 4.8297 12.2957H4.69093V11.6518H4.8297C8.13 11.6518 10.8089 9.26728 10.8209 6.03622C10.6158 6.03622 10.4046 6.03622 10.2176 6.03622C8.99839 6.02985 7.80637 6.39189 6.80131 7.07381C5.79625 7.75574 5.02621 8.72494 4.59439 9.85149C4.33997 10.5371 4.20927 11.2614 4.20825 11.9916C4.20927 12.7277 4.33993 13.4579 4.59439 14.1496C5.02791 15.2746 5.79855 16.2421 6.80336 16.9227C7.80817 17.6034 8.9993 17.9649 10.2176 17.959C10.4107 17.9291 10.6158 17.9172 10.8209 17.8993Z" fill="white"/>
</g>
</g>
</svg>
