<svg xmlns="http://www.w3.org/2000/svg" width="20" height="20" viewBox="0 0 20 20" fill="none">
    <g clip-path="url(#clip0_643_12540)">
        <path d="M7.57503 7.50039C7.77095 6.94345 8.15766 6.47382 8.66666 6.17467C9.17566 5.87553 9.77411 5.76618 10.356 5.86599C10.9379 5.9658 11.4657 6.26833 11.8459 6.72C12.2261 7.17167 12.4342 7.74333 12.4334 8.33373C12.4334 10.0004 9.93337 10.8337 9.93337 10.8337M9.99996 14.167H10.0083M18.3333 10.0003C18.3333 14.6027 14.6023 18.3337 9.99996 18.3337C5.39759 18.3337 1.66663 14.6027 1.66663 10.0003C1.66663 5.39795 5.39759 1.66699 9.99996 1.66699C14.6023 1.66699 18.3333 5.39795 18.3333 10.0003Z" stroke="#4B5563" stroke-width="2.22222" stroke-linecap="round" stroke-linejoin="round"/>
    </g>
    <defs>
        <clipPath id="clip0_643_12540">
            <rect width="20" height="20" fill="white"/>
        </clipPath>
    </defs>
</svg>