<?xml version="1.0" encoding="UTF-8"?>
<svg version="1.1" xmlns="http://www.w3.org/2000/svg" width="1024" height="1024">
<path d="M0 0 C1.22508575 -0.00445784 2.4501715 -0.00891569 3.71238106 -0.01350862 C5.07392896 -0.01341932 6.43547686 -0.01322948 7.79702473 -0.01294994 C9.24186865 -0.01624958 10.68671165 -0.01997536 12.13155347 -0.02409142 C16.10709436 -0.03410804 20.08262015 -0.03782767 24.05817187 -0.04048073 C28.34393717 -0.04438475 32.62969052 -0.05396297 36.91544819 -0.0626936 C47.26763737 -0.08245447 57.61982752 -0.09252339 67.97203085 -0.10142139 C72.84675391 -0.10580459 77.72147588 -0.11117129 82.59619808 -0.11641026 C98.80000267 -0.13342158 115.00380657 -0.14791614 131.20761871 -0.155159 C135.41241361 -0.15706889 139.61720849 -0.15898923 143.82200336 -0.16094494 C144.86708635 -0.16142868 145.91216933 -0.16191242 146.9889215 -0.16241082 C163.92168698 -0.17071259 180.85438185 -0.19605244 197.78711649 -0.22852562 C215.17026876 -0.26159094 232.55338514 -0.27960725 249.93656904 -0.28280324 C259.69714824 -0.28496874 269.45762446 -0.29372337 279.21817303 -0.31926441 C287.52994583 -0.34096413 295.84159061 -0.34902538 304.15338852 -0.33929763 C308.39351431 -0.33475092 312.63337593 -0.33666066 316.87346554 -0.35605907 C320.75796538 -0.37367706 324.64200806 -0.37270437 328.52651266 -0.35716178 C329.92897211 -0.35478363 331.33146311 -0.35912014 332.73387434 -0.37099043 C341.62305808 -0.44154743 349.33876186 -0.0322581 356.24265766 6.07172108 C360.4044158 12.33214357 361.09149852 17.71449936 360.05125141 25.13422108 C358.37415248 30.4614765 354.77598992 34.22938184 350.05125141 37.13422108 C344.93660216 38.88400106 340.29141604 39.40774665 334.93015766 39.32953358 C333.81301632 39.32528873 333.81301632 39.32528873 332.67330647 39.32095814 C330.3199504 39.30986024 327.96699032 39.28477618 325.61375141 39.25922108 C324.00763716 39.2491778 322.40151688 39.24005432 320.79539204 39.23187733 C316.88052845 39.20995514 312.96595681 39.17549869 309.05125141 39.13422108 C308.80649412 64.10214565 308.65604871 89.06916469 308.61340809 114.03828716 C308.59147837 125.63593575 308.54038314 137.23199564 308.41697407 148.8290453 C308.30930174 158.95460569 308.26006948 169.07860825 308.27680254 179.20475304 C308.28370803 184.55154884 308.26422783 189.89488063 308.17437458 195.24099827 C307.74507757 222.14349992 310.5667632 242.38455082 324.18338013 265.85238552 C326.70727565 270.28685065 328.84822999 274.85807063 330.95359516 279.50140858 C331.63075667 280.93639839 332.31013343 282.37034756 332.9929018 283.80267811 C335.17772135 288.40736487 337.36079222 293.01287901 339.54343891 297.61859608 C340.10699841 298.80771091 340.10699841 298.80771091 340.68194294 300.02084827 C344.66663426 308.43013472 348.64116842 316.84420928 352.61375141 325.25922108 C352.96284565 325.99865955 353.31193989 326.73809803 353.67161274 327.49994373 C356.48261444 333.45425674 359.29301364 339.40885407 362.10337543 345.36346912 C364.56488015 350.57885541 367.02666055 355.79411147 369.48875141 361.00922108 C369.83752338 361.74801502 370.18629536 362.48680897 370.54563618 363.24799061 C376.43653669 375.72555658 382.34344956 388.19549467 388.25361347 400.6639452 C393.53741333 411.81231625 398.80302313 422.96906314 404.05125141 434.13422108 C409.65723075 446.05993099 415.28312239 457.97604363 420.92625141 469.88422108 C421.30038166 470.67373158 421.67451191 471.46324207 422.05997944 472.27667713 C424.72311093 477.89615518 427.38708591 483.51523319 430.05125141 489.13422108 C433.09349556 495.55061412 436.13536937 501.96718236 439.17625141 508.38422108 C439.55054279 509.17405384 439.92483418 509.9638866 440.31046772 510.77765369 C445.90035926 522.57528435 451.46853532 534.3829729 457.02122211 546.1981554 C460.94834368 554.55391995 464.88594808 562.90459165 468.84031391 571.24750233 C469.2440926 572.09940144 469.64787128 572.95130054 470.06388569 573.82901478 C472.02071321 577.95671163 473.9786743 582.08386721 475.93797016 586.21039295 C477.981373 590.51568105 480.01804418 594.82411015 482.05125141 599.13422108 C482.35720234 599.78098804 482.66315327 600.42775501 482.97837543 601.09412098 C483.82688523 602.89080478 484.66969357 604.69017791 485.51218891 606.48968983 C486.21674213 607.99052113 486.21674213 607.99052113 486.93552876 609.52167225 C489.44577047 615.39959274 489.92111632 620.61161284 487.80125141 626.75922108 C484.79519804 632.55660972 482.19080045 635.71316904 476.05125141 638.13422108 C472.61320558 638.5629297 469.20455319 638.53864571 465.74345207 638.51453781 C464.70196474 638.51919773 463.66047741 638.52385765 462.58742985 638.52865878 C459.08049766 638.54065599 455.57394951 638.53119488 452.06701374 638.52190113 C449.53419443 638.52607196 447.00137698 638.53154809 444.46856302 638.53822094 C438.9529126 638.54969439 433.43738016 638.55179395 427.92172337 638.54567051 C419.71979526 638.53658908 411.51794598 638.5446037 403.31602393 638.55596175 C388.66808981 638.57564497 374.02019105 638.57797292 359.37224686 638.57276655 C346.55309489 638.56821235 333.73395693 638.56880484 320.91480541 638.5746069 C319.19638339 638.57536376 317.47796137 638.57611974 315.75953935 638.57687484 C313.17014995 638.57802001 310.58076056 638.57916989 307.99137117 638.58033408 C283.91230349 638.59104176 259.83324049 638.59576157 235.75417137 638.58786392 C234.8461678 638.58756675 233.93816422 638.58726958 233.00264539 638.5869634 C225.62864299 638.58451437 218.25464064 638.58190283 210.8806383 638.57927926 C182.1133498 638.5691757 153.34611966 638.57753323 124.5788393 638.60077381 C92.26991257 638.6268333 59.96102097 638.63969789 27.65208334 638.63258606 C24.20855996 638.63186998 20.76503657 638.6311956 17.32151318 638.63054562 C16.47360974 638.63037581 15.62570631 638.630206 14.75210884 638.63003104 C1.94081489 638.627726 -10.87044649 638.63571479 -23.68173313 638.64883709 C-38.24770478 638.66372993 -52.81359996 638.66461621 -67.37956994 638.64676618 C-75.53436473 638.63718475 -83.68898131 638.63867547 -91.8437643 638.65600087 C-97.92643556 638.66768878 -104.0088852 638.65855494 -110.09155077 638.6411785 C-112.55715852 638.63739254 -115.02278767 638.64041437 -117.48837649 638.65079015 C-120.83095252 638.66386041 -124.17257402 638.65246475 -127.51510811 638.63479233 C-128.48007203 638.64444284 -129.44503595 638.65409335 -130.4392412 638.6640363 C-136.46832378 638.5982529 -139.99357129 637.62009571 -144.94874859 634.13422108 C-146.69093609 632.35297108 -146.69093609 632.35297108 -147.82374859 630.63422108 C-148.21304546 630.06703358 -148.60234234 629.49984608 -149.00343609 628.91547108 C-151.19195426 624.79165171 -151.32010395 620.73902757 -150.94874859 616.13422108 C-148.07346767 607.1803042 -143.53379454 598.6830403 -139.51124859 590.19672108 C-138.79454692 588.67905052 -138.07799631 587.16130861 -137.36159039 585.64349842 C-132.51767557 575.39274991 -127.60794084 565.17482881 -122.66920757 554.96942616 C-118.89113325 547.14362305 -115.21404623 539.27494062 -111.57374859 531.38422108 C-106.66746597 520.75034635 -101.61626056 510.19665562 -96.49129009 499.66705799 C-92.04765482 490.53243029 -87.70048624 481.36028234 -83.44874859 472.13422108 C-78.58603131 461.58236412 -73.57510646 451.11197264 -68.49074078 440.66595936 C-64.0472912 431.53169759 -59.70031442 422.3599095 -55.44874859 413.13422108 C-50.58603131 402.58236412 -45.57510646 392.11197264 -40.49074078 381.66595936 C-36.0472912 372.53169759 -31.70031442 363.3599095 -27.44874859 354.13422108 C-22.58603131 343.58236412 -17.57510646 333.11197264 -12.49074078 322.66595936 C-7.4991692 312.40494016 -2.65187891 302.08494426 2.12400532 291.72137928 C7.12865361 280.89435481 12.31802435 270.16018185 17.54942036 259.44122791 C18.41935511 257.6512541 19.27603419 255.85485036 20.13048172 254.05743217 C21.31554677 251.59279149 22.55743339 249.22824778 23.8938961 246.8362236 C29.50272378 236.2882922 30.04672671 227.23178866 29.93772602 215.43915272 C29.94563203 213.50591579 29.95660495 211.57268938 29.97037983 209.63948536 C29.99889013 204.43775665 29.98497641 199.23693698 29.96293807 194.03520989 C29.94721697 188.58193426 29.97121449 183.12882998 29.99084187 177.67558765 C30.02197962 167.36993626 30.01784724 157.06461885 30.00076729 146.75894684 C29.98304572 135.01752127 30.00506319 123.27627275 30.03027427 111.53487313 C30.08121107 87.40126272 30.08271289 63.2678549 30.05125141 39.13422108 C29.06842182 39.14993153 28.08559223 39.16564198 27.07297993 39.1818285 C23.38849465 39.23657691 19.70404453 39.27073249 16.01926899 39.299016 C14.43164215 39.31400121 12.84405599 39.33439654 11.25657368 39.36053944 C-8.65648948 39.68000034 -8.65648948 39.68000034 -15.82374859 33.75922108 C-19.81704908 28.82632047 -22.14708442 24.65596997 -21.94874859 18.13422108 C-20.60951591 11.50446593 -18.09620022 6.33743722 -12.44874859 2.38422108 C-8.23626248 0.27797802 -4.69287676 0.0079195 0 0 Z M68.05125141 39.13422108 C68.05125141 45.07422108 68.05125141 51.01422108 68.05125141 57.13422108 C89.50125141 57.13422108 110.95125141 57.13422108 133.05125141 57.13422108 C133.05125141 69.67422108 133.05125141 82.21422108 133.05125141 95.13422108 C111.60125141 95.13422108 90.15125141 95.13422108 68.05125141 95.13422108 C68.05125141 99.09422108 68.05125141 103.05422108 68.05125141 107.13422108 C89.50125141 107.13422108 110.95125141 107.13422108 133.05125141 107.13422108 C133.05125141 119.67422108 133.05125141 132.21422108 133.05125141 145.13422108 C111.60125141 145.13422108 90.15125141 145.13422108 68.05125141 145.13422108 C68.05125141 146.78422108 68.05125141 148.43422108 68.05125141 150.13422108 C135.04125141 150.13422108 202.03125141 150.13422108 271.05125141 150.13422108 C271.05125141 113.50422108 271.05125141 76.87422108 271.05125141 39.13422108 C204.06125141 39.13422108 137.07125141 39.13422108 68.05125141 39.13422108 Z " fill="#FEAA00" transform="translate(342.948748588562,378.86577892303467)"/>
<path d="M0 0 C1.22508575 -0.00445784 2.4501715 -0.00891569 3.71238106 -0.01350862 C5.07392896 -0.01341932 6.43547686 -0.01322948 7.79702473 -0.01294994 C9.24186865 -0.01624958 10.68671165 -0.01997536 12.13155347 -0.02409142 C16.10709436 -0.03410804 20.08262015 -0.03782767 24.05817187 -0.04048073 C28.34393717 -0.04438475 32.62969052 -0.05396297 36.91544819 -0.0626936 C47.26763737 -0.08245447 57.61982752 -0.09252339 67.97203085 -0.10142139 C72.84675391 -0.10580459 77.72147588 -0.11117129 82.59619808 -0.11641026 C98.80000267 -0.13342158 115.00380657 -0.14791614 131.20761871 -0.155159 C135.41241361 -0.15706889 139.61720849 -0.15898923 143.82200336 -0.16094494 C144.86708635 -0.16142868 145.91216933 -0.16191242 146.9889215 -0.16241082 C163.92168698 -0.17071259 180.85438185 -0.19605244 197.78711649 -0.22852562 C215.17026876 -0.26159094 232.55338514 -0.27960725 249.93656904 -0.28280324 C259.69714824 -0.28496874 269.45762446 -0.29372337 279.21817303 -0.31926441 C287.52994583 -0.34096413 295.84159061 -0.34902538 304.15338852 -0.33929763 C308.39351431 -0.33475092 312.63337593 -0.33666066 316.87346554 -0.35605907 C320.75796538 -0.37367706 324.64200806 -0.37270437 328.52651266 -0.35716178 C329.92897211 -0.35478363 331.33146311 -0.35912014 332.73387434 -0.37099043 C341.62305808 -0.44154743 349.33876186 -0.0322581 356.24265766 6.07172108 C360.4044158 12.33214357 361.09149852 17.71449936 360.05125141 25.13422108 C358.37415248 30.4614765 354.77598992 34.22938184 350.05125141 37.13422108 C344.93660216 38.88400106 340.29141604 39.40774665 334.93015766 39.32953358 C333.81301632 39.32528873 333.81301632 39.32528873 332.67330647 39.32095814 C330.3199504 39.30986024 327.96699032 39.28477618 325.61375141 39.25922108 C324.00763716 39.2491778 322.40151688 39.24005432 320.79539204 39.23187733 C316.88052845 39.20995514 312.96595681 39.17549869 309.05125141 39.13422108 C308.80649412 64.10214565 308.65604871 89.06916469 308.61340809 114.03828716 C308.59147837 125.63593575 308.54038314 137.23199564 308.41697407 148.8290453 C308.30930174 158.95460569 308.26006948 169.07860825 308.27680254 179.20475304 C308.28370803 184.55154884 308.26422783 189.89488063 308.17437458 195.24099827 C307.74507757 222.14349992 310.5667632 242.38455082 324.18338013 265.85238552 C326.70727565 270.28685065 328.84822999 274.85807063 330.95359516 279.50140858 C331.63075667 280.93639839 332.31013343 282.37034756 332.9929018 283.80267811 C335.17772135 288.40736487 337.36079222 293.01287901 339.54343891 297.61859608 C340.10699841 298.80771091 340.10699841 298.80771091 340.68194294 300.02084827 C344.66663426 308.43013472 348.64116842 316.84420928 352.61375141 325.25922108 C352.96284565 325.99865955 353.31193989 326.73809803 353.67161274 327.49994373 C356.48261444 333.45425674 359.29301364 339.40885407 362.10337543 345.36346912 C364.56488015 350.57885541 367.02666055 355.79411147 369.48875141 361.00922108 C369.83752338 361.74801502 370.18629536 362.48680897 370.54563618 363.24799061 C376.43653669 375.72555658 382.34344956 388.19549467 388.25361347 400.6639452 C393.53741333 411.81231625 398.80302313 422.96906314 404.05125141 434.13422108 C409.65723075 446.05993099 415.28312239 457.97604363 420.92625141 469.88422108 C421.30038166 470.67373158 421.67451191 471.46324207 422.05997944 472.27667713 C424.72311093 477.89615518 427.38708591 483.51523319 430.05125141 489.13422108 C433.09349556 495.55061412 436.13536937 501.96718236 439.17625141 508.38422108 C439.55054279 509.17405384 439.92483418 509.9638866 440.31046772 510.77765369 C445.90035926 522.57528435 451.46853532 534.3829729 457.02122211 546.1981554 C460.94834368 554.55391995 464.88594808 562.90459165 468.84031391 571.24750233 C469.2440926 572.09940144 469.64787128 572.95130054 470.06388569 573.82901478 C472.02071321 577.95671163 473.9786743 582.08386721 475.93797016 586.21039295 C477.981373 590.51568105 480.01804418 594.82411015 482.05125141 599.13422108 C482.35720234 599.78098804 482.66315327 600.42775501 482.97837543 601.09412098 C483.82688523 602.89080478 484.66969357 604.69017791 485.51218891 606.48968983 C486.21674213 607.99052113 486.21674213 607.99052113 486.93552876 609.52167225 C489.44577047 615.39959274 489.92111632 620.61161284 487.80125141 626.75922108 C484.79519804 632.55660972 482.19080045 635.71316904 476.05125141 638.13422108 C472.61320558 638.5629297 469.20455319 638.53864571 465.74345207 638.51453781 C464.70196474 638.51919773 463.66047741 638.52385765 462.58742985 638.52865878 C459.08049766 638.54065599 455.57394951 638.53119488 452.06701374 638.52190113 C449.53419443 638.52607196 447.00137698 638.53154809 444.46856302 638.53822094 C438.9529126 638.54969439 433.43738016 638.55179395 427.92172337 638.54567051 C419.71979526 638.53658908 411.51794598 638.5446037 403.31602393 638.55596175 C388.66808981 638.57564497 374.02019105 638.57797292 359.37224686 638.57276655 C346.55309489 638.56821235 333.73395693 638.56880484 320.91480541 638.5746069 C319.19638339 638.57536376 317.47796137 638.57611974 315.75953935 638.57687484 C313.17014995 638.57802001 310.58076056 638.57916989 307.99137117 638.58033408 C283.91230349 638.59104176 259.83324049 638.59576157 235.75417137 638.58786392 C234.8461678 638.58756675 233.93816422 638.58726958 233.00264539 638.5869634 C225.62864299 638.58451437 218.25464064 638.58190283 210.8806383 638.57927926 C182.1133498 638.5691757 153.34611966 638.57753323 124.5788393 638.60077381 C92.26991257 638.6268333 59.96102097 638.63969789 27.65208334 638.63258606 C24.20855996 638.63186998 20.76503657 638.6311956 17.32151318 638.63054562 C16.47360974 638.63037581 15.62570631 638.630206 14.75210884 638.63003104 C1.94081489 638.627726 -10.87044649 638.63571479 -23.68173313 638.64883709 C-38.24770478 638.66372993 -52.81359996 638.66461621 -67.37956994 638.64676618 C-75.53436473 638.63718475 -83.68898131 638.63867547 -91.8437643 638.65600087 C-97.92643556 638.66768878 -104.0088852 638.65855494 -110.09155077 638.6411785 C-112.55715852 638.63739254 -115.02278767 638.64041437 -117.48837649 638.65079015 C-120.83095252 638.66386041 -124.17257402 638.65246475 -127.51510811 638.63479233 C-128.48007203 638.64444284 -129.44503595 638.65409335 -130.4392412 638.6640363 C-136.46832378 638.5982529 -139.99357129 637.62009571 -144.94874859 634.13422108 C-146.69093609 632.35297108 -146.69093609 632.35297108 -147.82374859 630.63422108 C-148.21304546 630.06703358 -148.60234234 629.49984608 -149.00343609 628.91547108 C-151.19195426 624.79165171 -151.32010395 620.73902757 -150.94874859 616.13422108 C-148.07346767 607.1803042 -143.53379454 598.6830403 -139.51124859 590.19672108 C-138.79454692 588.67905052 -138.07799631 587.16130861 -137.36159039 585.64349842 C-132.51767557 575.39274991 -127.60794084 565.17482881 -122.66920757 554.96942616 C-118.89113325 547.14362305 -115.21404623 539.27494062 -111.57374859 531.38422108 C-106.66746597 520.75034635 -101.61626056 510.19665562 -96.49129009 499.66705799 C-92.04765482 490.53243029 -87.70048624 481.36028234 -83.44874859 472.13422108 C-78.58603131 461.58236412 -73.57510646 451.11197264 -68.49074078 440.66595936 C-64.0472912 431.53169759 -59.70031442 422.3599095 -55.44874859 413.13422108 C-50.58603131 402.58236412 -45.57510646 392.11197264 -40.49074078 381.66595936 C-36.0472912 372.53169759 -31.70031442 363.3599095 -27.44874859 354.13422108 C-22.58603131 343.58236412 -17.57510646 333.11197264 -12.49074078 322.66595936 C-7.4991692 312.40494016 -2.65187891 302.08494426 2.12400532 291.72137928 C7.12865361 280.89435481 12.31802435 270.16018185 17.54942036 259.44122791 C18.41935511 257.6512541 19.27603419 255.85485036 20.13048172 254.05743217 C21.31554677 251.59279149 22.55743339 249.22824778 23.8938961 246.8362236 C29.50272378 236.2882922 30.04672671 227.23178866 29.93772602 215.43915272 C29.94563203 213.50591579 29.95660495 211.57268938 29.97037983 209.63948536 C29.99889013 204.43775665 29.98497641 199.23693698 29.96293807 194.03520989 C29.94721697 188.58193426 29.97121449 183.12882998 29.99084187 177.67558765 C30.02197962 167.36993626 30.01784724 157.06461885 30.00076729 146.75894684 C29.98304572 135.01752127 30.00506319 123.27627275 30.03027427 111.53487313 C30.08121107 87.40126272 30.08271289 63.2678549 30.05125141 39.13422108 C29.06842182 39.14993153 28.08559223 39.16564198 27.07297993 39.1818285 C23.38849465 39.23657691 19.70404453 39.27073249 16.01926899 39.299016 C14.43164215 39.31400121 12.84405599 39.33439654 11.25657368 39.36053944 C-8.65648948 39.68000034 -8.65648948 39.68000034 -15.82374859 33.75922108 C-19.81704908 28.82632047 -22.14708442 24.65596997 -21.94874859 18.13422108 C-20.60951591 11.50446593 -18.09620022 6.33743722 -12.44874859 2.38422108 C-8.23626248 0.27797802 -4.69287676 0.0079195 0 0 Z M68.05125141 39.13422108 C68.05125141 45.07422108 68.05125141 51.01422108 68.05125141 57.13422108 C89.50125141 57.13422108 110.95125141 57.13422108 133.05125141 57.13422108 C133.05125141 69.67422108 133.05125141 82.21422108 133.05125141 95.13422108 C111.60125141 95.13422108 90.15125141 95.13422108 68.05125141 95.13422108 C68.05125141 99.09422108 68.05125141 103.05422108 68.05125141 107.13422108 C89.50125141 107.13422108 110.95125141 107.13422108 133.05125141 107.13422108 C133.05125141 119.67422108 133.05125141 132.21422108 133.05125141 145.13422108 C111.60125141 145.13422108 90.15125141 145.13422108 68.05125141 145.13422108 C68.05125141 146.78422108 68.05125141 148.43422108 68.05125141 150.13422108 C135.04125141 150.13422108 202.03125141 150.13422108 271.05125141 150.13422108 C271.05125141 113.50422108 271.05125141 76.87422108 271.05125141 39.13422108 C204.06125141 39.13422108 137.07125141 39.13422108 68.05125141 39.13422108 Z M59.05125141 261.13422108 C53.88754526 271.46163337 48.82034181 281.7805127 43.98875141 292.25922108 C40.03692925 300.82576604 35.98242671 309.31386247 31.73704243 317.73968983 C29.05969241 323.1308375 26.55903681 328.60018929 24.05125141 334.07172108 C19.32844905 344.31461014 14.48867111 354.49314127 9.55125141 364.63422108 C4.80626465 374.38192792 0.14927939 384.16161069 -4.38624859 394.00922108 C-9.44528035 404.99132715 -14.67893079 415.87789229 -19.97822857 426.74542713 C-25.13893146 437.33436355 -30.15748661 447.9774798 -35.08546734 458.67718983 C-39.10532896 467.38028924 -43.2533838 476.01493257 -47.44874859 484.63422108 C-52.21369251 494.42389631 -56.89159014 504.24541174 -61.44874859 514.13422108 C-66.30850061 524.67964357 -71.31533976 535.14421663 -76.39769268 545.58334827 C-81.57932081 556.23180568 -86.62234137 566.93783004 -91.56202984 577.70062733 C-94.52021869 584.13079573 -97.5979173 590.47447889 -100.84498882 596.76434803 C-102.08948202 599.00067132 -102.08948202 599.00067132 -101.94874859 601.13422108 C76.91125141 601.13422108 255.77125141 601.13422108 440.05125141 601.13422108 C438.62187006 596.84607701 437.21608661 593.19461852 435.25047016 589.18890858 C434.69222553 588.04405994 434.1339809 586.89921131 433.55881977 585.7196703 C433.26264759 585.11604664 432.96647541 584.51242298 432.66132832 583.8905077 C431.06867592 580.64282652 429.48914646 577.3887897 427.91062641 574.13422108 C427.58666386 573.46647663 427.2627013 572.79873219 426.9289217 572.11075306 C423.70378977 565.44617532 420.58844962 558.73307219 417.48875141 552.00922108 C413.25935576 542.8426455 408.95153937 533.72000696 404.55125141 524.63422108 C399.5674399 514.34317812 394.71929757 503.99578258 389.92625141 493.61468983 C386.21004181 485.58374648 382.40805788 477.59850907 378.55125141 469.63422108 C374.26227953 460.77439406 370.05270996 451.88338841 365.92625141 442.94672108 C360.64551124 431.51552904 355.27319675 420.13001834 349.86375141 408.75922108 C349.46117115 407.91290119 349.05859089 407.06658131 348.64381123 406.19461536 C347.00335359 402.74628311 345.36267569 399.29805581 343.72164631 395.84999561 C339.42642418 386.82412313 335.14289087 377.79272788 330.86375141 368.75922108 C330.49183674 367.97414173 330.11992207 367.18906239 329.73673725 366.38019276 C323.816249 353.88049078 317.91959931 341.369682 312.03464985 328.85321522 C307.07085244 318.296399 302.09546216 307.7450956 297.11375141 297.19672108 C296.77230091 296.47361744 296.43085041 295.7505138 296.07905293 295.00549793 C290.74542292 283.71080912 285.3983546 272.42255004 280.05125141 261.13422108 C207.12125141 261.13422108 134.19125141 261.13422108 59.05125141 261.13422108 Z " fill="#43525B" transform="translate(342.948748588562,378.86577892303467)"/>
<path d="M0 0 C0.7336377 0.22010742 1.46727539 0.44021484 2.22314453 0.66699219 C20.90373953 6.3244311 38.8367729 15.01765009 55.6875 24.8125 C56.66444824 25.37940552 56.66444824 25.37940552 57.66113281 25.95776367 C61.80530133 28.45201371 65.62693963 31.21636286 69.453125 34.17578125 C81.75979576 43.48224226 91.94644722 49.02805308 107.7265625 47.453125 C117.60124286 45.6687264 124.94519501 39.88575401 132.65380859 33.79492188 C136.06225227 31.18733832 139.65703419 29.0084338 143.375 26.875 C144.04821289 26.48538086 144.72142578 26.09576172 145.41503906 25.69433594 C167.32842602 13.1650829 189.26522187 2.5258869 214 -3 C215.18819336 -3.26828613 215.18819336 -3.26828613 216.40039062 -3.54199219 C228.76512075 -5.7204514 244.70111753 -6.00486966 256 0 C256.79921875 0.42410156 257.5984375 0.84820313 258.421875 1.28515625 C268.16207044 7.15215317 274.86009717 15.80496438 278.078125 26.625 C284.24362443 52.33436118 272.85613947 78.77041989 261 101 C260.65598145 101.64936523 260.31196289 102.29873047 259.95751953 102.96777344 C251.10216837 119.55555944 240.33201401 134.82010735 229.12890625 149.890625 C228.60184082 150.60412109 228.07477539 151.31761719 227.53173828 152.05273438 C226 154 226 154 224.47998047 155.52539062 C221.53905135 158.47974864 220.58170172 160.81409877 220.3125 164.8671875 C220.63600075 170.7229882 223.21459583 173.86176282 227 178.125 C228.29624605 179.68808093 229.58497104 181.25742121 230.8671875 182.83203125 C231.88377441 184.07847412 231.88377441 184.07847412 232.92089844 185.35009766 C252.32986548 210.08764207 268.49043667 238.67718981 277 269 C277.268125 269.8971875 277.53625 270.794375 277.8125 271.71875 C280.66558505 282.97258547 280.91353334 298.37721942 276 309 C275.67128906 309.75023437 275.34257813 310.50046875 275.00390625 311.2734375 C270.18878772 321.03696503 262.24837933 328.34498359 252 332 C216.45712534 342.31620451 180.32043342 323.78290349 149.67578125 307.14453125 C148.11331846 306.26989696 146.55453964 305.38864032 145 304.5 C144.25314941 304.07380371 143.50629883 303.64760742 142.73681641 303.20849609 C138.63852046 300.79095695 134.88156097 298.17424706 131.16015625 295.20703125 C119.09926787 285.81842759 109.0489699 282.51424291 93.6328125 283.74609375 C84.34286939 285.09642222 77.99181049 289.55726411 70.92480469 295.44873047 C68.05491797 297.7616757 64.98859854 299.64066169 61.8125 301.5 C60.92461792 302.02678345 60.92461792 302.02678345 60.01879883 302.56420898 C29.1631772 320.61747197 -9.7341802 341.81161947 -46.6796875 332.9609375 C-57.37118622 329.86669199 -65.57916601 323.86419892 -71.66796875 314.41015625 C-79.90378349 298.73554109 -78.5490874 279.86965414 -73.71875 263.29052734 C-64.79289186 234.84541828 -48.76127161 208.24979751 -30.2890625 184.97265625 C-29.54624023 184.03437988 -28.80341797 183.09610352 -28.03808594 182.12939453 C-26.64094218 180.39069171 -25.22100868 178.66994952 -23.77441406 176.97216797 C-19.81192032 172.08752707 -18.04189089 168.58518843 -18.53417969 162.20336914 C-19.2065283 159.02310383 -20.43685282 157.3274197 -22.6875 155 C-23.50992188 154.0821875 -24.33234375 153.164375 -25.1796875 152.21875 C-25.63311523 151.7134375 -26.08654297 151.208125 -26.55371094 150.6875 C-51.05286715 122.10239404 -77.02983828 80.44342298 -77.25 41.75 C-77.2809375 40.41388672 -77.2809375 40.41388672 -77.3125 39.05078125 C-77.38346163 26.82763998 -73.0631415 16.33683996 -64.875 7.25 C-47.97895531 -8.63228201 -20.5275697 -6.5378084 0 0 Z M-37.8671875 35.23828125 C-40.38234506 39.1497849 -39.60295119 43.57005279 -39 48 C-33.47545846 71.35814934 -20.28632242 92.36087971 -7 112 C-4.35797032 109.51177906 -2.63150876 106.83801315 -0.79125977 103.70751953 C4.50203981 94.7363601 10.57959902 87.27929172 18 80 C18.93070313 79.0821875 19.86140625 78.164375 20.8203125 77.21875 C26.74268264 71.616964 32.96526998 67.10926202 40 63 C38.65219839 58.95659517 37.00336047 58.64900875 33.26171875 56.70703125 C32.67336243 56.39966537 32.0850061 56.0922995 31.4788208 55.77561951 C29.55423179 54.77606158 27.62180484 53.79311008 25.6875 52.8125 C25.03161896 52.4767395 24.37573792 52.140979 23.69998169 51.79504395 C-6.39572477 34.88752479 -6.39572477 34.88752479 -37.8671875 35.23828125 Z M174.4375 53.8125 C173.32366943 54.37582031 172.20983887 54.93914062 171.06225586 55.51953125 C170.02979736 56.05578125 168.99733887 56.59203125 167.93359375 57.14453125 C167.00603271 57.62253174 166.07847168 58.10053223 165.12280273 58.59301758 C162.69491254 59.88849886 162.69491254 59.88849886 162 63 C163.09054687 63.67482422 163.09054687 63.67482422 164.203125 64.36328125 C172.28749984 69.53520823 179.18934946 75.2721753 186 82 C186.84304688 82.81855469 187.68609375 83.63710937 188.5546875 84.48046875 C196.48876742 92.65535941 202.15970084 102.27776196 208 112 C222.65324522 94.17406553 240.86191406 66.20776362 241.25 42.4375 C241.27578125 41.48746094 241.3015625 40.53742187 241.328125 39.55859375 C241.18349028 37.01086698 241.18349028 37.01086698 239.86328125 35.19140625 C223.38311575 24.65377422 188.61618877 46.57488503 174.4375 53.8125 Z M-7 218 C-21.77419867 238.46978461 -38.75582061 264.9806077 -39.36328125 291.0546875 C-39.1166443 293.05966068 -39.1166443 293.05966068 -37.8828125 294.72265625 C-33.29828256 297.83290789 -26.30571229 296.68080141 -21 296 C1.23076282 291.65413659 21.50031535 279.98325611 41 269 C38.70016148 266.60511281 36.28447893 264.7897622 33.52026367 262.9440918 C16.80177095 251.66700617 5.03787876 237.10507149 -4.90625 219.73046875 C-5.44765625 218.87388672 -5.44765625 218.87388672 -6 218 C-6.33 218 -6.66 218 -7 218 Z M207 219 C206.52691406 219.88300781 206.05382812 220.76601562 205.56640625 221.67578125 C196.15525267 238.90260943 183.18125336 253.5035889 166.6796875 264.1953125 C164.46336558 265.68793747 162.83018634 267.09470158 161 269 C197.1744612 290.71093043 197.1744612 290.71093043 238 296 C239.95740543 294.83042242 239.95740543 294.83042242 241 293 C243.90389906 268.1094366 224.16843184 240.73144432 210.8125 221.24609375 C210.214375 220.50488281 209.61625 219.76367188 209 219 C208.34 219 207.68 219 207 219 Z " fill="#43525B" transform="translate(411,11)"/>
<path d="M0 0 C0.85698673 0.00291284 1.71397346 0.00582568 2.59692949 0.00882679 C3.50024899 0.00797237 4.40356848 0.00711794 5.3342613 0.00623763 C8.38529224 0.00458005 11.43626915 0.01010871 14.48729509 0.01555592 C16.66475479 0.01583776 18.84221459 0.01568012 21.01967424 0.01511341 C26.95125229 0.01482531 32.88281031 0.02072415 38.81438369 0.02768737 C45.0057224 0.03391873 51.19706152 0.03452453 57.38840288 0.03571278 C68.4537988 0.03864949 79.51918639 0.04587962 90.58457851 0.0553555 C104.60652416 0.0672998 118.62846867 0.07348206 132.65041834 0.0787577 C160.12917082 0.08922356 187.60791505 0.10682425 215.08666033 0.12908131 C217.00974067 4.10707139 218.93222017 8.08535114 220.85417265 12.06388623 C221.50642614 13.41387564 222.15883629 14.76378938 222.81141371 16.11362225 C227.24910382 25.29316499 231.64477106 34.48766175 235.89916033 43.75408131 C240.0454337 52.74500145 244.22692605 61.71560055 248.54881853 70.62371022 C251.08666033 75.9119373 251.08666033 75.9119373 251.08666033 78.12908131 C154.06666033 78.12908131 57.04666033 78.12908131 -42.91333967 78.12908131 C-37.73450824 66.620567 -32.58122753 55.19725995 -27.02274519 43.88347584 C-21.19956167 32.02661706 -15.52521883 20.11844446 -10.09937483 8.07341725 C-9.68864729 7.16366139 -9.27791975 6.25390553 -8.85474592 5.31658131 C-8.50097883 4.526386 -8.14721174 3.73619068 -7.78272444 2.92205006 C-5.99365779 -0.7676173 -3.86493268 0.00997027 0 0 Z " fill="#D6DDE0" transform="translate(407.9133396744728,639.8709186911583)"/>
<path d="M0 0 C66.99 0 133.98 0 203 0 C203 24.09 203 48.18 203 73 C136.01 73 69.02 73 0 73 C0 63.76 0 54.52 0 45 C21.45 45 42.9 45 65 45 C65 32.46 65 19.92 65 7 C43.55 7 22.1 7 0 7 C0 4.69 0 2.38 0 0 Z " fill="#D7DEE1" transform="translate(411,529)"/>
<path d="M0 0 C2.79058063 1.29190732 5.01067907 2.69736435 7.3203125 4.72265625 C7.93285889 5.25648926 8.54540527 5.79032227 9.17651367 6.34033203 C9.81951416 6.90864746 10.46251465 7.47696289 11.125 8.0625 C11.79442627 8.6488623 12.46385254 9.23522461 13.15356445 9.83935547 C18.47823013 14.51276619 23.75930206 19.23265542 29 24 C29.86109375 24.76828125 30.7221875 25.5365625 31.609375 26.328125 C38.20781163 32.27036352 44.56937772 38.43559653 50.875 44.6875 C51.68380615 45.48333496 52.4926123 46.27916992 53.32592773 47.09912109 C54.10266846 47.87465332 54.87940918 48.65018555 55.6796875 49.44921875 C56.71198486 50.47535278 56.71198486 50.47535278 57.76513672 51.5222168 C60.75552793 54.83765053 63.36942874 58.39618447 66 62 C60.88071413 67.14478747 55.75739591 72.28553431 50.63134766 77.42358398 C48.89052279 79.16941587 47.15059922 80.91614698 45.41162109 82.66381836 C42.90182134 85.1858435 40.38872283 87.70454196 37.875 90.22265625 C37.10696045 90.99585709 36.3389209 91.76905792 35.54760742 92.56568909 C30.86240339 97.25137123 26.04093002 101.70038196 21 106 C19.77704963 107.05564895 18.55435255 108.11159148 17.33203125 109.16796875 C16.15921817 110.17490329 14.98604441 111.18141789 13.8125 112.1875 C13.22275391 112.69474609 12.63300781 113.20199219 12.02539062 113.72460938 C8.73271716 116.5484706 5.40598931 119.31241145 2 122 C-7.11677624 117.9269958 -14.72486024 109.5318085 -21.98046875 102.7734375 C-24.18386215 100.72702746 -26.43802628 98.75167412 -28.71606445 96.78881836 C-32.81680161 93.20562669 -36.70942989 89.45180549 -40.5625 85.60546875 C-41.57763672 84.59532463 -41.57763672 84.59532463 -42.61328125 83.56477356 C-44.02620184 82.15687137 -45.43781191 80.74765282 -46.84814453 79.3371582 C-49.0170651 77.17045232 -51.19389907 75.01190348 -53.37109375 72.85351562 C-54.74788349 71.47965519 -56.12420312 70.10532344 -57.5 68.73046875 C-58.47948608 67.76176094 -58.47948608 67.76176094 -59.47875977 66.77348328 C-60.37099243 65.87663567 -60.37099243 65.87663567 -61.28125 64.96166992 C-61.80783203 64.43651291 -62.33441406 63.9113559 -62.87695312 63.37028503 C-64 62 -64 62 -64 60 C-63.34 60 -62.68 60 -62 60 C-61.72886383 59.40387405 -61.45772766 58.80774811 -61.17837524 58.19355774 C-60.01630797 56.03035746 -58.87542967 54.62762356 -57.14599609 52.90307617 C-56.57134613 52.32534958 -55.99669617 51.74762299 -55.40463257 51.15238953 C-54.7838382 50.53878067 -54.16304382 49.92517181 -53.5234375 49.29296875 C-52.87935944 48.64934891 -52.23528137 48.00572906 -51.57168579 47.34260559 C-50.20721862 45.98115702 -48.84032432 44.62213725 -47.47119141 43.26538086 C-45.39826306 41.21055985 -43.33330021 39.14800013 -41.26953125 37.08398438 C-39.93796785 35.75734275 -38.60595051 34.43115656 -37.2734375 33.10546875 C-36.66478851 32.49793259 -36.05613953 31.89039642 -35.42904663 31.26445007 C-31.65533562 27.53130042 -27.7646101 23.978395 -23.7464447 20.50956726 C-21.52323995 18.58790486 -19.35629788 16.60768388 -17.1875 14.625 C-12.63263693 10.50864859 -7.92738012 6.60753289 -3.15234375 2.75 C-1.14403815 1.17822462 -1.14403815 1.17822462 0 0 Z " fill="#E9ECEE" transform="translate(511,115)"/>
<path d="M0 0 C3.3543884 2.84575753 5.75708418 5.98055341 8.03515625 9.7265625 C8.44894531 10.39300781 8.86273438 11.05945313 9.2890625 11.74609375 C13.27444547 19.23083738 13.18875251 27.64555425 11.33984375 35.7890625 C7.63787009 46.98831056 1.19166052 53.51815338 -9.16796875 58.86328125 C-17.24234343 61.35551142 -28.88365072 61.31954588 -36.58984375 57.7890625 C-45.86810373 51.99217406 -52.3054528 44.4401089 -54.96484375 33.7265625 C-56.58458076 21.98969892 -53.92297115 13.6162937 -47.08984375 4.12109375 C-34.50634038 -10.05847898 -14.87717571 -10.65279248 0 0 Z " fill="#FFD47E" transform="translate(499.96484375,885.2734375)"/>
<path d="M0 0 C5.67903986 3.21271398 10.15323155 6.47304899 13.4375 12.1875 C14.17033203 13.43853516 14.17033203 13.43853516 14.91796875 14.71484375 C19.23308493 22.92748422 19.70732263 31.64191025 17.375 40.6171875 C13.34387442 51.03976878 7.39766563 57.63402687 -2.75 62.25 C-10.65132294 65.70682879 -19.65802088 64.79505795 -27.75 62.25 C-30.62192221 60.82910142 -33.18874725 59.16961386 -35.75 57.25 C-36.57371094 56.65960937 -37.39742188 56.06921875 -38.24609375 55.4609375 C-41.07942076 52.95912301 -42.64464661 50.5338113 -44.5 47.25 C-45.09296875 46.21875 -45.6859375 45.1875 -46.296875 44.125 C-49.93492429 36.92713903 -49.78965209 28.26561887 -48.171875 20.4609375 C-45.01791199 11.42913435 -38.4317008 4.4126436 -30.25 -0.375 C-20.51894685 -4.71922016 -9.58292276 -4.62623857 0 0 Z " fill="#FFD47E" transform="translate(426.75,747.75)"/>
<path d="M0 0 C8.83741746 5.46078081 15.35723562 13.22110456 18.13671875 23.3203125 C19.36655264 34.01339453 17.84082955 43.35521382 11.08203125 51.92578125 C4.2971957 59.12146324 -2.97085651 63.35555467 -13.02026367 63.66357422 C-21.44295533 63.7747028 -27.80638637 63.41319633 -34.86328125 58.3203125 C-35.50394531 57.8975 -36.14460937 57.4746875 -36.8046875 57.0390625 C-42.86605051 52.53558761 -47.60535507 44.79875273 -48.86328125 37.3203125 C-49.48239034 28.60203859 -49.65679564 20.90631035 -44.86328125 13.3203125 C-44.43917969 12.62421875 -44.01507812 11.928125 -43.578125 11.2109375 C-34.15013725 -2.7603424 -15.15476258 -7.35867928 0 0 Z " fill="#FFD47F" transform="translate(627.86328125,814.6796875)"/>
<path d="M0 0 C7.6129547 3.93060161 13.52878574 9.69162482 17.25 17.4375 C20.07455226 26.34570329 18.23647032 35.22773935 14.25 43.4375 C10.39693637 49.44374625 4.11400978 53.80958598 -2.67578125 56.08203125 C-12.15318827 57.70621965 -19.68629202 56.65697327 -27.75 51.4375 C-28.678125 50.839375 -29.60625 50.24125 -30.5625 49.625 C-36.91842173 43.26907827 -39.76667083 35.94883224 -40.0625 27 C-39.80690361 17.61961241 -36.58392247 12.4582113 -30.16796875 5.64453125 C-22.0779838 -1.7397038 -10.26522308 -4.18477735 0 0 Z " fill="#FEAB02" transform="translate(522.75,148.5625)"/>
<path d="M0 0 C4.97309568 4.16447517 9.62936384 8.50559801 14.18359375 13.12109375 C14.84279312 13.78407974 15.50199249 14.44706573 16.1811676 15.13014221 C18.97009346 17.93524066 21.7529851 20.74629681 24.53637695 23.55688477 C26.58332833 25.62207178 28.63339306 27.68413321 30.68359375 29.74609375 C31.29843124 30.36922958 31.91326874 30.99236542 32.54673767 31.63438416 C39.01427986 38.13768483 45.99108013 44.03138221 53 49.9375 C53.58394531 50.43056641 54.16789062 50.92363281 54.76953125 51.43164062 C56.17915104 52.62172946 57.58949449 53.81096106 59 55 C54.61121364 59.86423822 49.48419583 63.21309109 44 66.75 C43.11054688 67.33910156 42.22109375 67.92820312 41.3046875 68.53515625 C40.00917969 69.37626953 40.00917969 69.37626953 38.6875 70.234375 C37.90761719 70.74194336 37.12773437 71.24951172 36.32421875 71.77246094 C33.82737629 73.09117143 31.80150525 73.68952614 29 74 C20.06570112 70.21739005 12.88366464 62.64759933 6 56 C5.19433594 55.2575 4.38867188 54.515 3.55859375 53.75 C-4.33686386 46.28021054 -13.29148153 35.37958904 -17 25 C-16.26291343 20.68724777 -13.84824741 17.64416763 -11.3125 14.1875 C-10.86277832 13.56601074 -10.41305664 12.94452148 -9.94970703 12.30419922 C-6.82295145 8.02104929 -3.55982912 3.93454798 0 0 Z " fill="#E9ECEE" transform="translate(422,205)"/>
<path d="M0 0 C9.0490481 2.88108706 16.83702857 11.44169581 23.61328125 17.83203125 C24.29003906 18.44433594 24.96679688 19.05664062 25.6640625 19.6875 C33.56966058 27.11781162 43.03294938 38.45991831 46.61328125 48.83203125 C45.87043286 53.14461781 43.46249534 56.18654586 40.92578125 59.64453125 C40.25119873 60.57676514 40.25119873 60.57676514 39.56298828 61.52783203 C36.4362327 65.81098196 33.17311037 69.89748327 29.61328125 73.83203125 C24.95742938 69.94614162 20.55839914 65.90633024 16.3046875 61.5859375 C15.73427231 61.01173569 15.16385712 60.43753387 14.57615662 59.84593201 C12.1695291 57.42317679 9.76896696 54.99444587 7.36791992 52.56616211 C0.95998864 46.09201699 -5.42991921 39.7228117 -12.38671875 33.83203125 C-14.27609245 32.13892503 -16.14216939 30.42216355 -18.01171875 28.70703125 C-21.73034278 25.31423937 -25.47703773 22.00204289 -29.38671875 18.83203125 C-26.02982539 15.16148877 -22.27359461 12.58734524 -18.13671875 9.89453125 C-17.46721191 9.4564917 -16.79770508 9.01845215 -16.10791016 8.56713867 C-14.7902478 7.70635342 -13.4714387 6.84732045 -12.15136719 5.99023438 C-10.68575375 5.02829883 -9.24043791 4.03552191 -7.80078125 3.03515625 C-3.03696389 -0.21373068 -3.03696389 -0.21373068 0 0 Z " fill="#E9EDEF" transform="translate(572.38671875,73.16796875)"/>
<path d="M0 0 C4.34059567 4.26191138 8.13776693 8.71270365 11.875 13.5 C12.48085938 14.24636719 13.08671875 14.99273437 13.7109375 15.76171875 C14.278125 16.49003906 14.8453125 17.21835938 15.4296875 17.96875 C15.94772949 18.62294922 16.46577148 19.27714844 16.99951172 19.95117188 C18.34230685 22.70098562 17.89623262 24.12380576 17 27 C7.50121739 45.07374346 -9.0714116 65.87508025 -28.39453125 74.0078125 C-32.54076155 73.99538003 -35.25344953 71.82009148 -38.625 69.5625 C-39.32560547 69.10891113 -40.02621094 68.65532227 -40.74804688 68.18798828 C-46.6484477 64.332214 -52.38396233 60.25962179 -58 56 C-53.99057833 51.93691494 -49.86253945 48.01720057 -45.6875 44.125 C-45.06166016 43.53847656 -44.43582031 42.95195312 -43.79101562 42.34765625 C-40.64813996 39.41430563 -37.47543781 36.53331073 -34.21606445 33.72973633 C-30.20035247 30.22304439 -26.40911215 26.53826761 -22.65625 22.75390625 C-22.00168823 22.09792953 -21.34712646 21.44195282 -20.67272949 20.76609802 C-18.61276177 18.70059855 -16.55632634 16.63162405 -14.5 14.5625 C-13.0913795 13.14885566 -11.68252733 11.73544214 -10.2734375 10.32226562 C-6.84627867 6.88416851 -3.42227981 3.44295344 0 0 Z " fill="#E9ECEE" transform="translate(601,205)"/>
<path d="M0 0 C2.10888672 1.13574219 2.10888672 1.13574219 4.1796875 2.546875 C4.94410156 3.0625 5.70851563 3.578125 6.49609375 4.109375 C7.28113281 4.65078125 8.06617188 5.1921875 8.875 5.75 C10.04095703 6.53890625 10.04095703 6.53890625 11.23046875 7.34375 C15.87015854 10.49406038 20.44893741 13.72323494 25 17 C22.22277142 20.70730747 19.32877115 23.52172671 15.6875 26.375 C11.80186477 29.48763087 8.20163477 32.65760828 4.7565918 36.24536133 C3.13125397 37.86889197 1.45913357 39.334124 -0.30078125 40.80859375 C-7.03574914 46.66037599 -13.21599419 53.11144213 -19.5 59.4375 C-20.81226585 60.75479059 -22.12476395 62.07184986 -23.4375 63.38867188 C-26.62768506 66.5897861 -29.81470651 69.79401865 -33 73 C-37.95034934 69.23682657 -41.24798668 65.05766769 -44.875 60.0625 C-45.48085938 59.26392578 -46.08671875 58.46535156 -46.7109375 57.64257812 C-47.278125 56.86462891 -47.8453125 56.08667969 -48.4296875 55.28515625 C-48.94772949 54.58269775 -49.46577148 53.88023926 -49.99951172 53.15649414 C-51.312577 50.3262585 -50.93040731 48.93678988 -50 46 C-48.63376301 43.41073745 -47.24248724 40.9701048 -45.6875 38.5 C-45.02850708 37.44921265 -45.02850708 37.44921265 -44.35620117 36.37719727 C-39.67398926 29.14701002 -34.04053431 23.10102607 -28 17 C-27.39800781 16.33742188 -26.79601562 15.67484375 -26.17578125 14.9921875 C-20.29209197 8.61942581 -8.87980735 -2.43088632 0 0 Z " fill="#E9EDEF" transform="translate(456,74)"/>
<path d="M0 0 C7.92 0 15.84 0 24 0 C22.76634671 3.70095987 21.3725544 4.54449081 18.25 6.8125 C17.38890625 7.45832031 16.5278125 8.10414062 15.640625 8.76953125 C13 10 13 10 10.44140625 9.38671875 C8.06617061 8.03758491 5.86921296 6.64347492 3.6875 5 C2.99011719 4.484375 2.29273438 3.96875 1.57421875 3.4375 C1.05472656 2.963125 0.53523438 2.48875 0 2 C0 1.34 0 0.68 0 0 Z " fill="#E7EAEC" transform="translate(500,57)"/>
<path d="M0 0 C2.71527914 1.42131102 4.99585404 3.00864562 7.39453125 4.9140625 C8.18472656 5.53410156 8.97492187 6.15414063 9.7890625 6.79296875 C10.38074219 7.30730469 10.97242188 7.82164062 11.58203125 8.3515625 C11.58203125 8.6815625 11.58203125 9.0115625 11.58203125 9.3515625 C3.00203125 9.3515625 -5.57796875 9.3515625 -14.41796875 9.3515625 C-8.42849507 3.36208882 -8.42849507 3.36208882 -5.91796875 1.4140625 C-5.098125 0.75083984 -5.098125 0.75083984 -4.26171875 0.07421875 C-2.41796875 -0.6484375 -2.41796875 -0.6484375 0 0 Z " fill="#E4E8EA" transform="translate(513.41796875,285.6484375)"/>
<path d="M0 0 C0.33 0 0.66 0 1 0 C1 2.97 1 5.94 1 9 C-0.32 7.68 -1.64 6.36 -3 5 C-1.125 1.125 -1.125 1.125 0 0 Z " fill="#E0E3E6" transform="translate(630,172)"/>
<path d="M0 0 C1.32 0.99 2.64 1.98 4 3 C2.25 6.875 2.25 6.875 0 8 C0 5.36 0 2.72 0 0 Z " fill="#E2E5E7" transform="translate(393,172)"/>
</svg>
