<svg width="318" height="624" viewBox="0 0 318 624" fill="none" xmlns="http://www.w3.org/2000/svg">
    <path d="M80.998 319.108V245.839H87.2308" stroke="#1F2937" stroke-width="0.42" stroke-linecap="round" stroke-linejoin="round"/>
    <path d="M81.0022 331.085V328.414" stroke="#1F2937" stroke-width="0.42" stroke-linecap="round" stroke-linejoin="round"/>
    <path d="M103.254 245.839H167.539V340.465H80.998" stroke="#1F2937" stroke-width="0.42" stroke-linecap="round" stroke-linejoin="round"/>
    <path d="M95.3704 245.839H101.019" stroke="#1F2937" stroke-width="0.42" stroke-linecap="round" stroke-linejoin="round"/>
    <path d="M164.284 249.089H84.2531V337.217H164.284V249.089Z" stroke="#1F2937" stroke-width="0.42" stroke-linecap="round" stroke-linejoin="round"/>
    <path d="M160.563 255.272V289.549H87.9742V286.424" stroke="#1F2937" stroke-width="0.42" stroke-linecap="round" stroke-linejoin="round"/>
    <path d="M87.9742 279.09V252.491H160.563" stroke="#1F2937" stroke-width="0.42" stroke-linecap="round" stroke-linejoin="round"/>
    <path d="M87.9784 284.016V280.976" stroke="#1F2937" stroke-width="0.42" stroke-linecap="round" stroke-linejoin="round"/>
    <path d="M148.307 293.152H164.284" stroke="#1F2937" stroke-width="0.42" stroke-linecap="round" stroke-linejoin="round"/>
    <path d="M142.625 293.152H144.884" stroke="#1F2937" stroke-width="0.42" stroke-linecap="round" stroke-linejoin="round"/>
    <path d="M84.2531 293.152H139.924" stroke="#1F2937" stroke-width="0.42" stroke-linecap="round" stroke-linejoin="round"/>
    <path d="M120.247 289.548V287.901H126.937V288.838H124.27V289.548" stroke="#1F2937" stroke-width="0.42" stroke-linecap="round" stroke-linejoin="round"/>
    <path d="M84.3918 322.691C84.3918 322.691 85.5006 323.531 86.2818 328.613C86.2818 328.613 87.6258 320.494 89.2554 320.368C90.885 320.242 90.5406 325.652 90.5406 325.652C90.5406 325.652 90.8094 322.985 92.0862 323.107C93.363 323.229 92.0862 328.613 92.0862 328.613C92.0862 328.613 93.6192 324.413 95.0682 324.489C96.5172 324.564 94.1064 332.095 94.1064 332.095C94.1064 332.095 97.8276 329.398 99.3354 330.717C100.843 332.036 98.4954 335.362 98.4954 335.362C98.4954 335.362 103.834 334.203 104.661 337.332" stroke="#1F2937" stroke-width="0.42" stroke-linecap="round" stroke-linejoin="round"/>
    <path d="M104.673 334.299C104.673 334.299 107 332.774 108.827 333.484C108.827 333.484 107.664 331.712 108.827 330.628C109.99 329.545 111.486 333.484 111.486 333.484C111.486 333.484 111.654 326.886 113.98 327.218C116.307 327.55 113.98 333.484 113.98 333.484C113.98 333.484 118.134 329.805 119.13 331.086C120.125 332.367 118.466 334.299 118.466 334.299C118.466 334.299 120.957 333.501 122.784 335.362C122.784 335.362 125.568 332.518 128.664 332.111C128.664 332.111 126.606 326.138 127.605 324.933C128.605 323.728 130.411 330.145 130.411 330.145C130.411 330.145 131.205 325.97 133.804 325.651C133.804 325.651 131.637 324.471 132.28 322.69C132.922 320.909 135.913 323.11 135.913 323.11C135.913 323.11 134.682 319.973 136.627 319.112C138.571 318.251 139.382 321.737 139.382 321.737C139.382 321.737 139.924 318.083 142.209 318.284C144.493 318.486 143.754 322.694 143.754 322.694C143.754 322.694 145.909 319.334 147.064 319.691C149.37 320.372 148.668 325.655 148.668 325.655C148.668 325.655 151.89 323.417 152.717 324.446C153.612 325.559 149.357 328.419 149.357 328.419C149.357 328.419 152.553 328.772 154.54 330.632" stroke="#1F2937" stroke-width="0.42" stroke-linecap="round" stroke-linejoin="round"/>
    <path d="M164.284 323.896C164.284 323.896 163.919 320.536 160.563 320.368C157.207 320.2 161.487 327.718 161.487 327.718C161.487 327.718 158.719 325.429 157.728 326.135C156.737 326.84 160.563 330.717 160.563 330.717C160.563 330.717 158.728 329.037 156.783 329.545C154.838 330.053 157.888 335.467 157.888 335.467C155.013 334.887 152.029 335.235 149.366 336.462" stroke="#1F2937" stroke-width="0.42" stroke-linecap="round" stroke-linejoin="round"/>
    <path d="M197.665 368.961V327.096H244.806" stroke="#1F2937" stroke-width="0.42" stroke-linecap="round" stroke-linejoin="round"/>
    <path d="M243.093 331.426H201.458V370.423" stroke="#1F2937" stroke-width="0.42" stroke-linecap="round" stroke-linejoin="round"/>
    <path d="M209.791 352.694V335.36H212.517V338.935H216.154V337.33H219.405V339.275H223.794V335.36H228.283V337.99H230.703V336.461H235.037V346.671" stroke="#1F2937" stroke-width="0.42" stroke-linecap="round" stroke-linejoin="round"/>
    <path d="M230.703 337.99V352.694" stroke="#1F2937" stroke-width="0.42" stroke-linecap="round" stroke-linejoin="round"/>
    <path d="M228.632 340.191V342.816" stroke="#1F2937" stroke-width="0.42" stroke-linecap="round" stroke-linejoin="round"/>
    <path d="M228.632 344.697V355.479" stroke="#1F2937" stroke-width="0.42" stroke-linecap="round" stroke-linejoin="round"/>
    <path d="M223.794 339.28V348.965" stroke="#1F2937" stroke-width="0.42" stroke-linecap="round" stroke-linejoin="round"/>
    <path d="M223.962 352.156V355.172" stroke="#1F2937" stroke-width="0.42" stroke-linecap="round" stroke-linejoin="round"/>
    <path d="M219.405 339.28V344.698" stroke="#1F2937" stroke-width="0.42" stroke-linecap="round" stroke-linejoin="round"/>
    <path d="M219.405 348.027V359.443" stroke="#1F2937" stroke-width="0.42" stroke-linecap="round" stroke-linejoin="round"/>
    <path d="M216.154 338.935V352.391" stroke="#1F2937" stroke-width="0.42" stroke-linecap="round" stroke-linejoin="round"/>
    <path d="M212.517 338.935V344.025" stroke="#1F2937" stroke-width="0.42" stroke-linecap="round" stroke-linejoin="round"/>
    <path d="M212.517 346.672V358.772" stroke="#1F2937" stroke-width="0.42" stroke-linecap="round" stroke-linejoin="round"/>
    <path d="M209.791 355.172V360.636" stroke="#1F2937" stroke-width="0.42" stroke-linecap="round" stroke-linejoin="round"/>
    <path d="M204.167 360.637H237.255" stroke="#1F2937" stroke-width="0.42" stroke-linecap="round" stroke-linejoin="round"/>
    <path d="M230.703 360.636V357.138" stroke="#1F2937" stroke-width="0.42" stroke-linecap="round" stroke-linejoin="round"/>
    <path d="M223.962 358.062V360.473" stroke="#1F2937" stroke-width="0.42" stroke-linecap="round" stroke-linejoin="round"/>
    <path d="M235.407 340.952H238.615" stroke="#1F2937" stroke-width="0.42" stroke-linecap="round" stroke-linejoin="round"/>
    <path d="M204.293 363.686H235.037" stroke="#1F2937" stroke-width="0.42" stroke-linecap="round" stroke-linejoin="round"/>
    <path d="M210.891 372.577V368.503H216.587V371.128H221.169V376.248H223.794V368.658H229.611V370.422H233.185" stroke="#1F2937" stroke-width="0.42" stroke-linecap="round" stroke-linejoin="round"/>
    <path d="M229.611 370.423V374.791" stroke="#1F2937" stroke-width="0.42" stroke-linecap="round" stroke-linejoin="round"/>
    <path d="M223.962 378.096V381.036" stroke="#1F2937" stroke-width="0.42" stroke-linecap="round" stroke-linejoin="round"/>
    <path d="M221.169 376.247V380.119" stroke="#1F2937" stroke-width="0.42" stroke-linecap="round" stroke-linejoin="round"/>
    <path d="M216.586 371.128V373.35" stroke="#1F2937" stroke-width="0.42" stroke-linecap="round" stroke-linejoin="round"/>
    <path d="M243.235 237.731H142.587V307.271H243.235V237.731Z" fill="#DBEAFE" stroke="#1F2937" stroke-width="0.42" stroke-linecap="round" stroke-linejoin="round"/>
    <path d="M243.235 237.731H142.587V244.607H243.235V237.731Z" fill="#1F2937"/>
    <path d="M183.36 285.41L181 282.125C180.999 281.439 180.964 280.754 180.895 280.071C180.806 279.765 179.374 277.509 179.34 276.976C179.335 276.721 179.303 276.468 179.244 276.22C179.244 276.22 178.509 276.405 178.517 276.854C178.526 277.304 178.605 278.82 178.605 278.82C178.605 278.82 176.69 277.703 176.476 277.409C176.262 277.115 173.927 275.401 173.708 275.145C173.49 274.889 172.6 274.872 172.495 275.145L172.62 275.46L171.885 275.808L172.377 277.266C172.236 277.594 172.151 277.943 172.125 278.299C172.205 278.48 172.465 279.559 172.465 279.559C172.465 279.559 172.306 279.723 172.327 280.294C172.348 280.865 175.485 283.784 176.107 284.099C176.849 284.411 177.609 284.679 178.383 284.901L180.353 287.451L183.36 285.41Z" fill="white" stroke="#1F2937" stroke-width="0.42" stroke-linecap="round" stroke-linejoin="round"/>
    <path d="M178.601 278.82C178.235 279.655 178.141 280.584 178.332 281.475" stroke="#1F2937" stroke-width="0.42" stroke-linecap="round" stroke-linejoin="round"/>
    <path d="M172.616 275.461C173.251 275.705 174.044 276.889 174.41 277.254C174.74 277.552 175.094 277.823 175.468 278.065" stroke="#1F2937" stroke-width="0.42" stroke-linecap="round" stroke-linejoin="round"/>
    <path d="M172.373 277.254C172.894 277.145 173.246 277.347 173.234 277.855C173.221 278.363 174.347 279.136 174.347 279.136" stroke="#1F2937" stroke-width="0.42" stroke-linecap="round" stroke-linejoin="round"/>
    <path d="M172.461 279.547C172.461 279.547 172.826 278.896 173.116 279.194C173.406 279.493 173.498 280.257 174.032 280.417" stroke="#1F2937" stroke-width="0.42" stroke-linecap="round" stroke-linejoin="round"/>
    <path d="M214.053 281.84C214.053 281.84 205.767 282.352 203.94 283.1C202.441 283.717 191.894 290.66 191.894 290.66C191.894 290.66 185.691 285.981 183.889 284.36C183.542 284.192 183.168 284.084 182.785 284.04L181.84 283.44L179.517 286.712L180.168 287.615C180.168 287.615 180.273 289.072 180.563 289.437C184.418 294.28 191.802 301.059 192.911 301.727C194.019 302.394 203.856 296.573 203.856 296.573L205.683 307.283H235.02C235.02 307.283 234.944 288.488 233.71 287.048C232.475 285.607 218.321 279.958 218.321 279.958L214.053 281.84Z" fill="#1F2937" stroke="#4B5563" stroke-width="0.42" stroke-linecap="round" stroke-linejoin="round"/>
    <path d="M223.962 275.04C223.962 275.04 221.332 276.804 222.727 282.44C222.727 282.44 218.766 285.271 214.848 282.415C214.848 282.415 215.751 277.921 214.848 277.018" fill="white"/>
    <path d="M223.962 275.04C223.962 275.04 221.332 276.804 222.727 282.44C222.727 282.44 218.766 285.271 214.848 282.415C214.848 282.415 215.751 277.921 214.848 277.018" stroke="#1F2937" stroke-width="0.42" stroke-linecap="round" stroke-linejoin="round"/>
    <path d="M233.185 287.922C233.185 287.922 229.61 292.034 229.195 299.073L233.185 287.922Z" fill="#374151"/>
    <path d="M233.185 287.922C233.185 287.922 229.61 292.034 229.195 299.073" stroke="#4B5563" stroke-width="0.42" stroke-linecap="round" stroke-linejoin="round"/>
    <path d="M217.455 263.746C217.455 263.746 215.112 263.393 214.293 266.266C213.816 268.026 214.009 269.899 214.835 271.525L219.144 267.48L217.455 263.746Z" fill="#1F2937"/>
    <path d="M223.159 276.754C226.179 273.15 228.313 267.144 223.777 264.746C215.024 260.118 212.13 269.16 213.6 277.56C214.054 280.152 217.573 278.997 220.148 278.06" fill="white"/>
    <path d="M223.159 276.754C226.179 273.15 228.313 267.144 223.777 264.746C215.024 260.118 212.13 269.16 213.6 277.56C214.054 280.152 217.573 278.997 220.148 278.06" stroke="#1F2937" stroke-width="0.42" stroke-linecap="round" stroke-linejoin="round"/>
    <path d="M221.811 272.596C221.811 272.596 220.455 274.561 219.543 275.191C218.954 275.568 218.245 275.709 217.557 275.586C217.557 275.586 216.393 274.15 214.696 274.129C214.257 273.849 213.757 273.678 213.239 273.629L213.336 271.437C213.336 271.437 212.046 276.136 212.168 277.821C212.29 279.505 216.431 280.672 218.502 280.202C220.572 279.732 221.626 276.51 222.256 273.482C222.303 273.23 221.811 272.596 221.811 272.596Z" fill="#1F2937"/>
    <path d="M213.491 275.212C213.491 275.212 215.129 275.997 216.586 275.813" stroke="white" stroke-width="0.42" stroke-linecap="round" stroke-linejoin="round"/>
    <path d="M223.168 266.606C223.705 266.186 222.328 264.38 221.555 264.418C220.782 264.456 216.989 264.599 216.989 264.599C216.989 264.599 216.191 260.424 222.575 262.679C223.621 263.049 223.957 264.027 224.894 264.527C225.83 265.027 227.099 267.656 226.738 269.899C226.376 272.142 225.179 276.077 223.008 277.257C223.008 277.257 222.26 277.182 222.714 276.665C224.852 274.259 222.613 269.731 222.256 273.473L221.504 273.024C221.498 272.613 221.541 272.203 221.63 271.802C221.79 270.773 220.652 268.668 223.168 266.606Z" fill="#1F2937"/>
    <path d="M222.84 272.322C222.84 272.322 224.213 270.692 225.045 271.247C225.876 271.801 225.318 273.767 224.873 274.258C224.427 274.75 224.066 274.859 223.449 275.644C222.831 276.43 222.054 276.165 222.189 275.535" fill="white"/>
    <path d="M222.84 272.322C222.84 272.322 224.213 270.692 225.045 271.247C225.876 271.801 225.318 273.767 224.873 274.258C224.427 274.75 224.066 274.859 223.449 275.644C222.831 276.43 222.054 276.165 222.189 275.535" stroke="#1F2937" stroke-width="0.42" stroke-linecap="round" stroke-linejoin="round"/>
    <path d="M218.64 271.121C218.686 272.032 218.132 272.801 217.38 272.838C216.628 272.876 216.015 272.171 215.969 271.259C215.922 270.348 216.477 269.579 217.229 269.541C217.98 269.504 218.585 270.209 218.64 271.121Z" stroke="#1F2937" stroke-width="0.21" stroke-miterlimit="10"/>
    <path d="M214.768 270.294C214.818 271.205 214.26 271.974 213.529 272.016C212.798 272.058 212.164 271.344 212.113 270.432C212.063 269.521 212.626 268.752 213.373 268.714C214.121 268.677 214.722 269.382 214.768 270.294Z" stroke="#1F2937" stroke-width="0.21" stroke-miterlimit="10"/>
    <path d="M215.167 269.514C215.167 269.934 212.991 272.416 212.966 272.962C212.941 273.508 214.99 273.541 214.99 273.541" fill="white"/>
    <path d="M215.167 269.514C215.167 269.934 212.991 272.416 212.966 272.962C212.941 273.508  273.541 214.99 273.541" stroke="#1F2937" stroke-width="0.42" stroke-linecap="round" stroke-linejoin="round"/>
    <path d="M214.768 270.294C214.768 270.294 215.419 270.131 215.965 271.008" stroke="#1F2937" stroke-width="0.21" stroke-miterlimit="10"/>
    <path d="M218.649 271.44L219.354 271.545L223.315 271.823" stroke="#1F2937" stroke-width="0.21" stroke-miterlimit="10"/>
    <path d="M230.703 290.16L229.913 289.182C229.913 289.182 223.26 289.942 220.32 293.907C220.32 293.907 214.86 291.328 209.946 292.584L209.803 294.343L220.551 300.774L224.751 299.026L230.703 290.16Z" fill="white" stroke="#1F2937" stroke-width="0.42" stroke-linecap="round" stroke-linejoin="round"/>
    <path d="M231.782 289.567L230.648 297.127C230.648 297.127 224.39 299.874 223.088 302.083L222.777 302.125L221.307 302.331L220.513 302.096C218.571 301.531 216.592 301.098 214.591 300.802C213.896 300.695 213.192 300.668 212.491 300.723L208.258 294.124C208.258 294.124 214.805 293.217 219.333 294.767L221.5 294.616L221.58 294.549C222.231 294.015 226.792 290.391 231.782 289.567Z" fill="#60A5FA"/>
    <mask id="mask0_267_2961" style="mask-type:luminance" maskUnits="userSpaceOnUse" x="208" y="289" width="24" height="14">
        <path d="M231.782 289.566L230.648 297.126C230.648 297.126 224.39 299.873 223.088 302.082L222.777 302.124L221.307 302.33L220.513 302.095C218.571 301.53 216.592 301.097 214.591 300.801C213.897 300.694 213.192 300.667 212.491 300.722L208.258 294.123C208.258 294.123 214.806 293.216 219.333 294.766L221.5 294.615L221.58 294.548C222.231 294.014 226.792 290.39 231.782 289.566Z" fill="white"/>
    </mask>
    <g mask="url(#mask0_267_2961)">
        <path opacity="0.3" d="M222.693 300.36L221.58 294.543C222.227 294.014 226.788 290.39 231.778 289.566L230.644 297.126C230.644 297.126 224.386 299.873 223.084 302.082L222.773 302.124L222.693 300.36Z" fill="black" fill-opacity="0.7"/>
        <path opacity="0.3" d="M220.538 300.773L220.509 302.091C218.567 301.526 216.588 301.094 214.587 300.798C214.676 299.464 215.198 298.195 216.073 297.185C216.949 296.174 218.13 295.477 219.438 295.199L220.538 300.773Z" fill="black" fill-opacity="0.7"/>
    </g>
    <path d="M231.782 289.567L230.648 297.127C230.648 297.127 224.39 299.874 223.088 302.083L222.777 302.125L221.307 302.331L220.513 302.096C218.571 301.531 216.592 301.098 214.591 300.802C213.896 300.695 213.192 300.668 212.491 300.723L208.258 294.124C208.258 294.124 214.805 293.217 219.333 294.767L221.5 294.616L221.58 294.549C222.231 294.015 226.792 290.391 231.782 289.567Z" stroke="#1F2937" stroke-width="0.42" stroke-linecap="round" stroke-linejoin="round"/>
    <path d="M222.668 303.929C220.425 303.786 216.158 300.35 216.158 300.35C215.901 299.709 215.541 299.115 215.091 298.59C214.482 297.981 215.293 297.473 215.293 297.473C215.293 297.473 214.583 297.015 214.18 296.763C213.776 296.511 214.482 295.848 214.482 295.848C214.482 295.848 217.527 296.268 217.842 296.154C218.157 296.041 221.08 297.931 221.534 297.981C222.15 297.993 222.757 297.834 223.289 297.524C223.592 297.272 224.528 295.697 225.137 295.39C225.746 295.083 226.817 295.088 226.305 295.747C225.793 296.406 225.885 297.876 225.633 298.082C225.381 298.288 224.965 300.497 224.965 301.257L228.283 304.29L226.393 306.864L222.668 303.929Z" fill="white" stroke="#1F2937" stroke-width="0.42" stroke-linecap="round" stroke-linejoin="round"/>
    <path d="M215.28 297.473C215.877 297.539 216.458 297.702 217.002 297.956" stroke="#1F2937" stroke-width="0.42" stroke-linecap="round" stroke-linejoin="round"/>
    <path d="M217.539 298.673C217.539 298.673 217.35 299.441 217.3 299.559C217.25 299.677 217.926 300.428 217.829 300.773C217.733 301.117 218.514 302.033 218.514 302.033" stroke="#1F2937" stroke-width="0.42" stroke-linecap="round" stroke-linejoin="round"/>
    <path d="M216.775 299.56C216.191 299.279 215.63 298.955 215.095 298.59" stroke="#1F2937" stroke-width="0.42" stroke-linecap="round" stroke-linejoin="round"/>
    <path d="M215.15 280.433L216.603 283.36L222.575 280.051L223.89 282.982L217.796 286.851L216.624 283.822L214.255 286.103L213.453 282.415L215.15 280.433Z" fill="#1F2937" stroke="#1F2937" stroke-width="0.42" stroke-linecap="round" stroke-linejoin="round"/>
    <path d="M233.726 287.035C235.175 288.585 240.329 299.95 240.824 307.271H225.125V306.616L223.411 305.612C223.411 305.612 224.474 301.874 227.502 302.458L228.384 303.718L230.337 305.188C230.337 305.188 233.764 305.276 234.759 306.263" fill="#1F2937"/>
    <path d="M233.726 287.035C235.175 288.585 240.329 299.95 240.824 307.271H225.125V306.616L223.411 305.612C223.411 305.612 224.474 301.874 227.502 302.458L228.384 303.718L230.337 305.188C230.337 305.188 233.764 305.276 234.759 306.263" stroke="#4B5563" stroke-width="0.42" stroke-linecap="round" stroke-linejoin="round"/>
    <path d="M230.337 305.204C230.337 305.204 232.24 302.461 235.037 303.621L230.337 305.204Z" fill="#374151"/>
    <path d="M230.337 305.204C230.337 305.204 232.24 302.461 235.037 303.621" stroke="#4B5563" stroke-width="0.42" stroke-linecap="round" stroke-linejoin="round"/>
    <path d="M229.61 300.773C230.221 301.907 230.765 303.075 231.24 304.272L229.61 300.773Z" fill="#374151"/>
    <path d="M229.61 300.773C230.221 301.907 230.765 303.075 231.24 304.272" stroke="#4B5563" stroke-width="0.42" stroke-linecap="round" stroke-linejoin="round"/>
    <path d="M203.856 296.56C203.856 296.56 202.693 289.781 203.016 287.438L203.856 296.56Z" fill="#374151"/>
    <path d="M203.856 296.56C203.856 296.56 202.693 289.781 203.016 287.438" stroke="#4B5563" stroke-width="0.42" stroke-linecap="round" stroke-linejoin="round"/>
    <path d="M201.529 290.08C201.529 290.08 202.176 293.411 203.629 295.196L201.529 290.08Z" fill="#374151"/>
    <path d="M201.529 290.08C201.529 290.08 202.176 293.411 203.629 295.196" stroke="#4B5563" stroke-width="0.42" stroke-linecap="round" stroke-linejoin="round"/>
    <path d="M191.894 290.663C191.894 290.663 193.721 292.175 192.558 295.947L191.894 290.663Z" fill="#374151"/>
    <path d="M191.894 290.663C191.894 290.663 193.721 292.175 192.558 295.947" stroke="#4B5563" stroke-width="0.42" stroke-linecap="round" stroke-linejoin="round"/>
    <path d="M216.116 286.218L216.116 286.22C216.116 286.257 216.105 286.292 216.085 286.323C216.064 286.353 216.035 286.377 216.001 286.391C215.967 286.405 215.93 286.408 215.894 286.401C215.858 286.394 215.825 286.376 215.8 286.35C215.774 286.324 215.756 286.291 215.75 286.255C215.743 286.219 215.747 286.182 215.761 286.148C215.775 286.114 215.799 286.085 215.83 286.065C215.86 286.045 215.896 286.035 215.933 286.035L215.933 286.035L215.935 286.035C215.959 286.035 215.983 286.04 216.005 286.049C216.027 286.058 216.047 286.072 216.064 286.089C216.08 286.106 216.094 286.126 216.103 286.148C216.112 286.17 216.116 286.194 216.116 286.218Z" fill="#374151" stroke="#4B5563" stroke-width="0.42"/>
    <path d="M215.477 291.605C215.477 291.707 215.395 291.79 215.293 291.79C215.19 291.79 215.108 291.707 215.108 291.605C215.108 291.503 215.19 291.42 215.293 291.42C215.395 291.42 215.477 291.503 215.477 291.605Z" fill="#374151" stroke="#4B5563" stroke-width="0.42"/>
    <path d="M214.881 303.73C214.881 303.832 214.798 303.915 214.696 303.915C214.594 303.915 214.512 303.832 214.512 303.73C214.512 303.628 214.594 303.545 214.696 303.545C214.798 303.545 214.881 303.628 214.881 303.73Z" fill="#374151" stroke="#4B5563" stroke-width="0.42"/>
    <path d="M163.595 268.101H168.542L171.02 263.813L168.542 259.529H163.595L161.121 263.813L163.595 268.101Z" stroke="#1F2937" stroke-width="0.42" stroke-linecap="round" stroke-linejoin="round"/>
    <path d="M162.876 277.502L160.403 273.218H155.455" stroke="#1F2937" stroke-width="0.42" stroke-linecap="round" stroke-linejoin="round"/>
    <path d="M156.119 263.812H161.067L163.54 259.528L161.067 255.24H156.119L153.645 259.528L156.119 263.812Z" stroke="#1F2937" stroke-width="0.42" stroke-linecap="round" stroke-linejoin="round"/>
    <path d="M163.595 259.529H168.543L171.021 255.241L168.543 250.957H163.595L161.121 255.241L163.595 259.529Z" stroke="#1F2937" stroke-width="0.42" stroke-linecap="round" stroke-linejoin="round"/>
    <path d="M162.877 259.53C162.876 259.398 162.914 259.268 162.987 259.158C163.06 259.047 163.165 258.961 163.287 258.91C163.409 258.859 163.544 258.845 163.674 258.871C163.804 258.897 163.923 258.96 164.017 259.054C164.11 259.148 164.174 259.267 164.2 259.397C164.225 259.527 164.212 259.661 164.161 259.784C164.109 259.906 164.023 260.01 163.913 260.083C163.802 260.156 163.673 260.195 163.54 260.194C163.364 260.194 163.195 260.124 163.071 260C162.947 259.875 162.877 259.706 162.877 259.53Z" fill="#1F2937"/>
    <path d="M153.208 251.197C153.575 251.197 153.872 250.9 153.872 250.534C153.872 250.167 153.575 249.87 153.208 249.87C152.842 249.87 152.545 250.167 152.545 250.534C152.545 250.9 152.842 251.197 153.208 251.197Z" fill="#1F2937"/>
    <path d="M162.213 277.501C162.213 277.369 162.252 277.241 162.325 277.132C162.398 277.023 162.501 276.938 162.623 276.887C162.744 276.837 162.877 276.824 163.006 276.85C163.135 276.875 163.253 276.938 163.346 277.031C163.439 277.124 163.502 277.242 163.527 277.371C163.553 277.5 163.54 277.633 163.49 277.754C163.439 277.876 163.354 277.979 163.245 278.052C163.136 278.125 163.008 278.164 162.877 278.164C162.701 278.164 162.532 278.094 162.407 277.97C162.283 277.845 162.213 277.677 162.213 277.501Z" fill="#1F2937"/>
    <path d="M155.455 273.881C155.822 273.881 156.119 273.584 156.119 273.217C156.119 272.851 155.822 272.554 155.455 272.554C155.089 272.554 154.791 272.851 154.791 273.217C154.791 273.584 155.089 273.881 155.455 273.881Z" fill="#1F2937"/>
    <path d="M175.8 255.353C175.8 255.221 175.839 255.092 175.913 254.982C175.986 254.872 176.091 254.786 176.213 254.736C176.336 254.686 176.47 254.673 176.6 254.699C176.729 254.725 176.848 254.789 176.942 254.883C177.035 254.976 177.098 255.096 177.123 255.226C177.149 255.355 177.135 255.49 177.084 255.612C177.032 255.734 176.946 255.838 176.836 255.911C176.725 255.984 176.596 256.022 176.464 256.021C176.376 256.021 176.29 256.004 176.209 255.97C176.128 255.937 176.055 255.887 175.993 255.825C175.931 255.763 175.882 255.69 175.849 255.609C175.816 255.528 175.8 255.441 175.8 255.353Z" fill="#1F2937"/>
    <path d="M160.352 273.881C160.719 273.881 161.016 273.584 161.016 273.217C161.016 272.851 160.719 272.554 160.352 272.554C159.986 272.554 159.689 272.851 159.689 273.217C159.689 273.584 159.986 273.881 160.352 273.881Z" fill="#1F2937"/>
    <path d="M170.34 255.353C170.34 255.221 170.379 255.092 170.453 254.982C170.526 254.873 170.63 254.787 170.752 254.736C170.874 254.686 171.009 254.673 171.138 254.698C171.268 254.724 171.387 254.788 171.48 254.881C171.573 254.975 171.637 255.094 171.663 255.223C171.688 255.353 171.675 255.487 171.625 255.609C171.574 255.731 171.489 255.835 171.379 255.909C171.269 255.982 171.14 256.021 171.008 256.021C170.831 256.021 170.661 255.951 170.536 255.826C170.41 255.7 170.34 255.53 170.34 255.353Z" fill="#1F2937"/>
    <path d="M162.877 268.103C162.876 267.97 162.914 267.841 162.987 267.73C163.06 267.62 163.165 267.533 163.287 267.482C163.409 267.431 163.544 267.418 163.674 267.443C163.804 267.469 163.923 267.533 164.017 267.626C164.11 267.72 164.174 267.839 164.2 267.969C164.225 268.099 164.212 268.234 164.161 268.356C164.109 268.478 164.023 268.582 163.913 268.655C163.802 268.729 163.673 268.767 163.54 268.766C163.365 268.765 163.196 268.695 163.072 268.571C162.948 268.446 162.878 268.278 162.877 268.103Z" fill="#1F2937"/>
    <path d="M171.02 255.355H176.468" stroke="#1F2937" stroke-width="0.42" stroke-linecap="round" stroke-linejoin="round"/>
    <path d="M163.54 268.103L160.352 273.218" stroke="#1F2937" stroke-width="0.42" stroke-linecap="round" stroke-linejoin="round"/>
    <path d="M156.119 255.241L153.208 250.533" stroke="#1F2937" stroke-width="0.42" stroke-linecap="round" stroke-linejoin="round"/>
    <path d="M150.415 288.811C150.861 288.41 151.362 288.073 151.902 287.812C151.924 287.946 151.996 288.068 152.105 288.151C152.214 288.233 152.35 288.271 152.486 288.257C152.784 288.211 153.12 287.917 153.326 288.131C153.41 288.215 153.427 288.349 153.515 288.429C153.784 288.677 154.241 288.143 154.544 288.345C154.624 288.4 154.666 288.492 154.75 288.547C154.816 288.575 154.887 288.59 154.96 288.59C155.032 288.59 155.103 288.575 155.17 288.547C155.92 288.376 156.69 288.309 157.459 288.349L160.982 288.374L160.714 288.236" stroke="#1F2937" stroke-width="0.42" stroke-linecap="round" stroke-linejoin="round"/>
    <path d="M150.226 291.752C150.256 291.614 150.332 291.491 150.443 291.403C150.554 291.316 150.692 291.27 150.833 291.273C150.974 291.277 151.109 291.33 151.215 291.422C151.322 291.515 151.392 291.642 151.415 291.781C151.502 291.741 151.58 291.682 151.644 291.61C151.707 291.538 151.755 291.453 151.784 291.361C152.011 291.87 152.713 291.912 153.271 291.874L155.762 291.697C156.509 291.643 157.383 291.508 157.719 290.857C158.088 291.531 158.235 292.304 158.139 293.067C158.37 292.518 158.671 292.001 159.034 291.529C159.109 291.798 159.185 292.067 159.256 292.336C160.991 291.122 163.364 291.916 165.464 291.651" stroke="#1F2937" stroke-width="0.42" stroke-linecap="round" stroke-linejoin="round"/>
    <path d="M150.449 295.646C150.441 295.568 150.462 295.491 150.507 295.428C150.553 295.365 150.621 295.322 150.697 295.305C150.72 295.382 150.759 295.452 150.811 295.513C150.863 295.573 150.926 295.623 150.998 295.658C151.069 295.693 151.148 295.713 151.227 295.716C151.307 295.72 151.386 295.707 151.461 295.679C151.761 295.553 152.017 295.343 152.2 295.074C152.263 295.125 152.335 295.162 152.413 295.183C152.491 295.203 152.573 295.207 152.652 295.193C152.732 295.18 152.808 295.149 152.875 295.104C152.941 295.059 152.998 295 153.04 294.932C153.228 295.235 153.382 295.557 153.502 295.893C153.729 295.314 154.498 295.221 155.123 295.226H160.163" stroke="#1F2937" stroke-width="0.42" stroke-linecap="round" stroke-linejoin="round"/>
    <path d="M189.408 249.933C188.205 249.904 187.025 250.268 186.048 250.971C184.839 251.743 183.688 253.045 183.99 254.448C184.293 255.851 185.947 256.594 187.405 256.876C188.658 257.12 189.933 257.233 191.21 257.212C191.702 257.219 192.192 257.167 192.672 257.056C193.156 256.919 193.626 256.735 194.074 256.506L197.325 254.977C197.77 254.767 198.27 254.499 198.392 254.02C198.543 253.428 198.035 252.877 197.552 252.52C195.727 251.216 193.477 250.648 191.252 250.933" stroke="#1F2937" stroke-width="0.42" stroke-linecap="round" stroke-linejoin="round"/>
    <path d="M185.548 253.073C185.74 252.858 185.987 252.701 186.262 252.619C186.208 252.78 186.208 252.954 186.262 253.115C186.338 253.266 186.569 253.342 186.682 253.216C186.796 253.09 186.821 252.888 186.947 252.951L187.098 253.287C187.304 253.216 187.464 253.048 187.665 252.959C187.895 252.882 188.139 252.859 188.379 252.892C190.182 252.985 191.99 252.93 193.785 252.728" stroke="#1F2937" stroke-width="0.42" stroke-linecap="round" stroke-linejoin="round"/>
    <path d="M188.488 254.881C188.514 254.795 188.56 254.716 188.622 254.651C188.684 254.586 188.761 254.537 188.845 254.507C188.749 254.612 188.866 254.792 189.009 254.818C189.154 254.82 189.297 254.79 189.429 254.729C189.588 254.688 189.752 254.666 189.916 254.662L192.978 254.452" stroke="#1F2937" stroke-width="0.42" stroke-linecap="round" stroke-linejoin="round"/>
    <path d="M189.795 259.147C188.909 262.304 187.072 265.112 184.534 267.188C181.997 269.265 178.881 270.509 175.611 270.752" stroke="#1F2937" stroke-width="0.42" stroke-linecap="round" stroke-linejoin="round"/>
    <path d="M175.662 269.84C175.067 270.207 174.538 270.669 174.095 271.209C174.357 271.154 174.629 271.173 174.881 271.263C175.133 271.354 175.355 271.512 175.523 271.721" stroke="#1F2937" stroke-width="0.42" stroke-linecap="round" stroke-linejoin="round"/>
    <path d="M188.786 270.841L189.169 271.681L189.715 271.034C189.817 271.11 189.888 271.22 189.916 271.345C189.958 271.462 190.021 271.593 190.139 271.626C190.256 271.66 190.403 271.5 190.315 271.412C190.392 271.464 190.48 271.499 190.572 271.515C190.664 271.53 190.759 271.525 190.849 271.5C190.928 271.5 191 271.441 191.08 271.42C191.175 271.4 191.272 271.391 191.369 271.395H197.044" stroke="#1F2937" stroke-width="0.42" stroke-linecap="round" stroke-linejoin="round"/>
    <path d="M189.051 275.46C189.078 275.393 189.121 275.334 189.178 275.288C189.234 275.243 189.301 275.213 189.372 275.201C189.444 275.189 189.517 275.196 189.585 275.221C189.653 275.246 189.714 275.288 189.761 275.343C189.779 275.397 189.808 275.446 189.845 275.49C189.895 275.525 189.957 275.541 190.019 275.533C190.08 275.525 190.136 275.495 190.176 275.448C190.269 275.364 190.328 275.25 190.424 275.175C190.689 274.969 191.067 275.129 191.39 275.217C191.804 275.303 192.229 275.326 192.65 275.284L195.872 275.116" stroke="#1F2937" stroke-width="0.42" stroke-linecap="round" stroke-linejoin="round"/>
    <path d="M189.152 279.03C189.259 279.033 189.364 279 189.45 278.936C189.536 278.872 189.598 278.781 189.626 278.677C189.68 278.686 189.729 278.711 189.768 278.749C189.807 278.786 189.834 278.835 189.845 278.887C189.999 278.792 190.131 278.665 190.231 278.514C192.306 278.539 194.384 278.539 196.464 278.514" stroke="#1F2937" stroke-width="0.42" stroke-linecap="round" stroke-linejoin="round"/>
    <path d="M189.148 281.697C189.276 281.75 189.42 281.754 189.551 281.708C189.682 281.661 189.791 281.568 189.857 281.445C189.989 281.552 190.081 281.7 190.118 281.865C190.2 281.809 190.294 281.771 190.392 281.753C190.491 281.735 190.592 281.737 190.689 281.76C190.769 281.76 190.849 281.815 190.928 281.836C191.13 281.888 191.338 281.906 191.546 281.891L198.787 281.786" stroke="#1F2937" stroke-width="0.42" stroke-linecap="round" stroke-linejoin="round"/>
    <path d="M169.706 298.678L172.994 298.358C173.026 298.363 173.059 298.359 173.089 298.347C173.119 298.335 173.146 298.316 173.167 298.292C173.188 298.267 173.202 298.238 173.209 298.206C173.215 298.174 173.214 298.141 173.204 298.111V296.011C173.212 295.941 173.194 295.871 173.154 295.813C173.127 295.788 173.095 295.769 173.06 295.757C173.026 295.745 172.989 295.74 172.952 295.742C172.238 295.679 170.63 295.322 170.012 295.805C169.395 296.288 169.71 297.959 169.706 298.678Z" stroke="#1F2937" stroke-width="0.42" stroke-linecap="round" stroke-linejoin="round"/>
    <path d="M170.647 296.805C170.689 297.002 170.726 297.199 170.768 297.401C171.267 297.297 171.778 297.27 172.285 297.321" stroke="#1F2937" stroke-width="0.42" stroke-linecap="round" stroke-linejoin="round"/>
    <path d="M172.323 299.585C172.292 299.632 172.275 299.687 172.274 299.744C172.273 299.8 172.287 299.856 172.316 299.904C172.345 299.953 172.387 299.992 172.437 300.018C172.487 300.044 172.543 300.056 172.6 300.051C172.822 300.009 172.999 299.711 173.205 299.803" stroke="#1F2937" stroke-width="0.42" stroke-linecap="round" stroke-linejoin="round"/>
    <path d="M170.058 294.742C170.1 294.679 170.159 294.63 170.228 294.601C170.297 294.571 170.373 294.562 170.447 294.575C170.521 294.588 170.589 294.622 170.644 294.673C170.699 294.725 170.738 294.791 170.756 294.864L171.545 294.771" stroke="#1F2937" stroke-width="0.42" stroke-linecap="round" stroke-linejoin="round"/>
    <path d="M176.61 301.706C177.73 301.706 178.85 301.706 179.97 301.706C180.841 301.718 181.711 301.666 182.574 301.551C182.671 301.546 182.763 301.507 182.835 301.442C182.894 301.356 182.92 301.251 182.906 301.148V296.041C182.906 295.982 177.761 295.818 177.161 296.234C175.951 297.082 176.61 300.4 176.61 301.706Z" stroke="#1F2937" stroke-width="0.42" stroke-linecap="round" stroke-linejoin="round"/>
    <path d="M178.433 297.553L179.236 297.574C179.091 298.119 178.863 298.639 178.559 299.115C178.45 299.262 178.32 299.447 178.4 299.611C178.82 299.678 179.311 299.716 179.576 299.392C179.92 298.972 179.618 298.313 179.878 297.843L179.979 298.838L180.328 299.17C180.418 299.271 180.532 299.349 180.659 299.397C180.723 299.419 180.793 299.418 180.856 299.395C180.92 299.372 180.973 299.328 181.008 299.271" stroke="#1F2937" stroke-width="0.42" stroke-linecap="round" stroke-linejoin="round"/>
    <path d="M180.769 302.562C181.033 302.465 181.142 302.961 181.415 303.032C181.688 303.104 181.835 302.743 182.066 302.583C182.176 302.51 182.308 302.48 182.439 302.497C182.569 302.514 182.689 302.577 182.776 302.675" stroke="#1F2937" stroke-width="0.42" stroke-linecap="round" stroke-linejoin="round"/>
    <path d="M178.602 294.481C178.854 294.544 178.753 294.964 178.942 295.145C179.131 295.326 179.446 295.145 179.66 294.973C179.874 294.801 180.265 294.725 180.344 294.973" stroke="#1F2937" stroke-width="0.42" stroke-linecap="round" stroke-linejoin="round"/>
    <path d="M243.235 307.174H142.587V314.28H243.235V307.174Z" fill="#D1D5DB" stroke="#1F2937" stroke-width="0.42" stroke-linecap="round" stroke-linejoin="round"/>
    <path d="M224.612 309.972H158.849V311.484H224.612V309.972Z" fill="#1F2937"/>
    <path d="M196.145 310.739C196.145 310.958 196.08 311.171 195.959 311.353C195.837 311.535 195.665 311.676 195.463 311.76C195.261 311.843 195.039 311.865 194.825 311.823C194.611 311.78 194.414 311.675 194.259 311.52C194.105 311.366 194 311.169 193.957 310.955C193.914 310.741 193.936 310.518 194.02 310.317C194.103 310.115 194.245 309.942 194.427 309.821C194.608 309.7 194.822 309.635 195.04 309.635C195.333 309.635 195.614 309.751 195.821 309.958C196.029 310.165 196.145 310.446 196.145 310.739Z" fill="#60A5FA" stroke="#1F2937" stroke-width="0.42" stroke-linecap="round" stroke-linejoin="round"/>
    <path d="M239.976 309.367H237.254V312.089H239.976V309.367Z" stroke="#1F2937" stroke-width="0.42" stroke-linecap="round" stroke-linejoin="round"/>
    <path d="M235.41 309.367H232.689V312.089H235.41V309.367Z" stroke="#1F2937" stroke-width="0.42" stroke-linecap="round" stroke-linejoin="round"/>
    <path d="M150.445 309.337H145.703V312.117H150.445V309.337Z" stroke="#1F2937" stroke-width="0.42" stroke-linecap="round" stroke-linejoin="round"/>
    <path d="M145.648 241.168H163.54" stroke="white" stroke-width="0.42" stroke-linecap="round" stroke-linejoin="round"/>
    <path d="M240.686 241.103C240.687 241.312 240.626 241.516 240.51 241.69C240.394 241.864 240.23 242 240.037 242.08C239.844 242.16 239.632 242.182 239.427 242.141C239.222 242.101 239.034 242 238.886 241.852C238.739 241.705 238.638 241.516 238.598 241.312C238.557 241.107 238.578 240.894 238.659 240.702C238.739 240.509 238.875 240.344 239.049 240.229C239.223 240.113 239.427 240.052 239.636 240.053C239.914 240.053 240.181 240.163 240.378 240.36C240.575 240.557 240.686 240.824 240.686 241.103Z" stroke="white" stroke-width="0.42" stroke-linecap="round" stroke-linejoin="round"/>
    <path d="M236.532 241.166C236.532 241.374 236.47 241.577 236.355 241.75C236.24 241.922 236.076 242.057 235.884 242.136C235.692 242.216 235.481 242.237 235.277 242.196C235.074 242.156 234.886 242.056 234.74 241.909C234.593 241.762 234.493 241.575 234.452 241.371C234.412 241.167 234.433 240.956 234.512 240.764C234.591 240.573 234.726 240.409 234.899 240.293C235.071 240.178 235.274 240.116 235.482 240.116C235.761 240.116 236.028 240.227 236.225 240.424C236.421 240.621 236.532 240.888 236.532 241.166Z" stroke="white" stroke-width="0.42" stroke-linecap="round" stroke-linejoin="round"/>
    <path d="M232.378 241.234C232.377 241.441 232.315 241.644 232.199 241.816C232.083 241.988 231.919 242.122 231.727 242.201C231.535 242.28 231.324 242.3 231.121 242.259C230.917 242.218 230.731 242.118 230.584 241.971C230.438 241.824 230.338 241.637 230.298 241.433C230.258 241.229 230.279 241.019 230.359 240.827C230.438 240.635 230.573 240.472 230.745 240.356C230.918 240.241 231.121 240.18 231.328 240.18C231.466 240.18 231.603 240.207 231.731 240.26C231.859 240.313 231.975 240.391 232.072 240.489C232.17 240.587 232.247 240.703 232.3 240.831C232.352 240.959 232.379 241.096 232.378 241.234Z" stroke="white" stroke-width="0.42" stroke-linecap="round" stroke-linejoin="round"/>
    <path d="M152.604 380.124H142.658L137.274 378.419L135.594 377.886L135.102 382.955L76.2097 383.064C76.2097 383.064 77.1085 380.796 78.5743 377.47C81.7369 370.292 87.5329 358.171 92.6023 353.219C96.7183 349.2 107 349.086 107 349.086C108.05 348.39 109.281 348.019 110.541 348.02C112.431 348.112 126.719 349.662 127.605 350.12C128.222 350.477 128.752 350.968 129.155 351.556C129.155 351.556 134.161 349.343 139.08 351.338C143.998 353.333 152.604 380.124 152.604 380.124Z" fill="#D1D5DB"/>
    <mask id="mask1_267_2961" style="mask-type:luminance" maskUnits="userSpaceOnUse" x="76" y="348" width="77" height="36">
        <path d="M152.604 380.125H142.658L137.274 378.42L135.594 377.887L135.103 382.956L76.2102 383.065C76.2102 383.065 77.109 380.797 78.5748 377.471C81.7374 370.293 87.5334 358.172 92.6028 353.22C96.7188 349.201 107 349.087 107 349.087C108.05 348.391 109.282 348.02 110.541 348.021C112.431 348.113 126.719 349.663 127.606 350.121C128.223 350.478 128.752 350.969 129.155 351.557C129.155 351.557 134.162 349.344 139.08 351.339C143.998 353.334 152.604 380.125 152.604 380.125Z" fill="white"/>
    </mask>
    <g mask="url(#mask1_267_2961)">
        <path opacity="0.2" d="M137.274 378.419L135.594 377.886L135.103 382.955L76.2102 383.064C76.2102 383.064 77.109 380.796 78.5748 377.47C80.847 377.415 83.409 377.298 83.409 377.298L84.7278 372.984C84.7278 372.984 86.7984 370.796 89.3856 372.086C89.2993 371.759 89.3173 371.414 89.4371 371.098C89.5568 370.783 89.7723 370.513 90.0534 370.326C91.053 369.662 95.1522 371.792 95.1522 371.792C95.1522 371.792 97.1262 368.012 97.7982 365.538C98.4702 363.064 98.9154 369.036 98.9154 369.036C98.9154 369.036 100.595 366.29 100.595 365.538C100.595 364.786 103.695 372.984 103.695 372.984C103.695 372.984 107.794 373.476 108.903 373.896C110.012 374.316 121.049 374.736 124.603 373.896C128.156 373.056 122.083 378.096 122.083 378.096C122.083 378.096 128.324 380.196 131.852 378.818C135.38 377.441 136.959 375.966 136.959 375.966C136.959 375.966 137.089 376.987 137.274 378.419Z" fill="black" fill-opacity="0.7"/>
    </g>
    <path d="M152.604 380.124H142.658L137.274 378.419L135.594 377.886L135.102 382.955L76.2097 383.064C76.2097 383.064 77.1085 380.796 78.5743 377.47C81.7369 370.292 87.5329 358.171 92.6023 353.219C96.7183 349.2 107 349.086 107 349.086C108.05 348.39 109.281 348.019 110.541 348.02C112.431 348.112 126.719 349.662 127.605 350.12C128.222 350.477 128.752 350.968 129.155 351.556C129.155 351.556 134.161 349.343 139.08 351.338C143.998 353.333 152.604 380.124 152.604 380.124Z" stroke="#1F2937" stroke-width="0.42" stroke-linecap="round" stroke-linejoin="round"/>
    <path d="M134.031 367.172C133.156 368.405 132.159 369.546 131.053 370.578" stroke="#1F2937" stroke-width="0.42" stroke-linecap="round" stroke-linejoin="round"/>
    <path d="M128.142 373.025C123.864 376.186 118.835 378.177 113.552 378.8" stroke="#1F2937" stroke-width="0.42" stroke-linecap="round" stroke-linejoin="round"/>
    <path d="M146.534 371.594C146.534 371.594 148.063 370.645 149.403 370.956C150.743 371.267 151.852 372.59 151.852 372.59C151.852 372.59 162.973 371.67 165.497 371.75C168.022 371.829 173.671 373.484 173.671 373.484C173.671 373.484 176.409 372.93 176.703 373.043C176.997 373.157 176.111 382.476 176.111 382.476H139.991C138.218 382.476 136.904 379.91 135.572 377.894C137.866 369.872 139.039 361.571 139.058 353.228" fill="#D1D5DB"/>
    <mask id="mask2_267_2961" style="mask-type:luminance" maskUnits="userSpaceOnUse" x="135" y="353" width="42" height="30">
        <path d="M146.534 371.594C146.534 371.594 148.063 370.645 149.403 370.956C150.743 371.267 151.852 372.59 151.852 372.59C151.852 372.59 162.973 371.67 165.497 371.75C168.022 371.829 173.671 373.484 173.671 373.484C173.671 373.484 176.409 372.93 176.703 373.043C176.997 373.157 176.111 382.476 176.111 382.476H139.991C138.218 382.476 136.904 379.91 135.572 377.894C137.866 369.872 139.039 361.571 139.058 353.228" fill="white"/>
    </mask>
    <g mask="url(#mask2_267_2961)">
        <path opacity="0.2" d="M156.447 382.468H139.999C138.227 382.468 136.912 379.902 135.581 377.886C136.898 373.36 137.835 368.732 138.382 364.051C138.382 364.051 140.13 366.642 139.067 369.645L140.13 366.642C140.13 366.642 141.15 369.859 140.13 372.585C139.109 375.311 138.382 376.092 138.382 376.092C138.382 376.092 139.642 377.739 140.978 377.298C142.314 376.857 143.767 379.528 143.767 379.528C143.767 379.528 146.976 379.65 147.643 379.528C147.95 379.473 152.104 380.905 156.447 382.468Z" fill="black" fill-opacity="0.7"/>
    </g>
    <path d="M146.534 371.594C146.534 371.594 148.063 370.645 149.403 370.956C150.743 371.267 151.852 372.59 151.852 372.59C151.852 372.59 162.973 371.67 165.497 371.75C168.022 371.829 173.671 373.484 173.671 373.484C173.671 373.484 176.409 372.93 176.703 373.043C176.997 373.157 176.111 382.476 176.111 382.476H139.991C138.218 382.476 136.904 379.91 135.572 377.894C137.866 369.872 139.039 361.571 139.058 353.228" stroke="#1F2937" stroke-width="0.42" stroke-linecap="round" stroke-linejoin="round"/>
    <path d="M125.887 342.571V351.542C124.75 352.317 123.572 353.031 122.359 353.68C119.911 354.978 116.769 356.263 114.9 355.532C111.511 354.201 109.314 349.085 109.314 349.085C112.972 346.297 113.413 342.571 113.968 340.799L125.887 342.571Z" fill="white" stroke="#1F2937" stroke-width="0.42" stroke-linecap="round" stroke-linejoin="round"/>
    <path d="M107.542 349.771C107.542 349.771 110.645 356.528 114.413 357.751C118.18 358.973 124.56 354.202 124.56 354.202" stroke="#1F2937" stroke-width="0.42" stroke-linecap="round" stroke-linejoin="round"/>
    <path d="M90.5945 357.948C90.5945 357.948 96.4745 362.526 97.4615 364.068C98.4485 365.609 97.4615 380.124 97.4615 380.124" stroke="#1F2937" stroke-width="0.42" stroke-linecap="round" stroke-linejoin="round"/>
    <path d="M82.5894 372.718C86.0544 370.484 88.4904 372.928 90.5946 373.369C92.6988 373.81 97.3524 371.433 100.843 373.369C104.333 375.306 104.333 374.629 104.333 374.629C104.333 374.629 107.987 377.418 106.101 383L76.197 383.055C76.197 383.055 74.202 378.792 80.7582 372.71" fill="#D1D5DB"/>
    <path d="M82.5894 372.718C86.0544 370.484 88.4904 372.928 90.5946 373.369C92.6988 373.81 97.3524 371.433 100.843 373.369C104.333 375.306 104.333 374.629 104.333 374.629C104.333 374.629 107.987 377.418 106.101 383L76.197 383.055C76.197 383.055 74.202 378.792 80.7582 372.71" stroke="#1F2937" stroke-width="0.42" stroke-linecap="round" stroke-linejoin="round"/>
    <path d="M111.893 364.079L119.785 378.515L120.032 380.136L118.772 379.015L110.633 364.684C110.753 364.464 110.939 364.287 111.165 364.178C111.391 364.069 111.646 364.035 111.893 364.079Z" fill="#60A5FA" stroke="#1F2937" stroke-width="0.42" stroke-linecap="round" stroke-linejoin="round"/>
    <path d="M104.4 375.386C104.996 375.213 105.608 375.102 106.227 375.054C106.895 375.054 111.002 372.017 112.397 371.791C113.791 371.564 116.298 373.643 117.575 373.975C118.852 374.306 118.772 375.97 119.52 376.633C120.267 377.297 119.188 378.044 118.26 377.297C118.326 377.556 118.33 377.828 118.272 378.089C118.213 378.35 118.094 378.594 117.924 378.8C117.924 378.8 118.176 379.708 117.924 380.123H103.14C103.14 380.123 102.917 377.297 104.4 375.386Z" fill="white" stroke="#1F2937" stroke-width="0.42" stroke-linecap="round" stroke-linejoin="round"/>
    <path d="M118.289 377.297L116.958 375.983L113.552 374.891" stroke="#1F2937" stroke-width="0.42" stroke-linecap="round" stroke-linejoin="round"/>
    <path d="M117.958 378.802L115.921 377.886L113.136 377.361" stroke="#1F2937" stroke-width="0.42" stroke-linecap="round" stroke-linejoin="round"/>
    <path d="M113.136 379.528L115.921 379.654L117.958 380.125" stroke="#1F2937" stroke-width="0.42" stroke-linecap="round" stroke-linejoin="round"/>
    <path d="M112.409 371.791C111.149 372.896 112.409 374.059 111.809 374.891C111.208 375.722 110.549 375.97 111.061 377.297" stroke="#1F2937" stroke-width="0.42" stroke-linecap="round" stroke-linejoin="round"/>
    <path d="M130.389 380.825H197.665C197.665 381.419 197.429 381.988 197.009 382.408C196.59 382.828 196.02 383.064 195.426 383.064H135.786C135.553 383.063 135.32 383.027 135.098 382.955L130.305 381.409C130.237 381.388 130.178 381.344 130.14 381.284C130.101 381.224 130.086 381.152 130.096 381.081C130.106 381.01 130.141 380.946 130.195 380.899C130.249 380.852 130.318 380.826 130.389 380.825Z" fill="#60A5FA"/>
    <mask id="mask3_267_2961" style="mask-type:luminance" maskUnits="userSpaceOnUse" x="130" y="380" width="68" height="4">
        <path d="M130.39 380.825H197.665C197.665 381.419 197.43 381.988 197.01 382.408C196.59 382.828 196.021 383.064 195.427 383.064H135.787C135.553 383.063 135.321 383.027 135.098 382.955L130.306 381.409C130.237 381.388 130.179 381.344 130.14 381.284C130.102 381.224 130.086 381.152 130.096 381.081C130.107 381.01 130.142 380.946 130.196 380.899C130.25 380.852 130.318 380.826 130.39 380.825Z" fill="white"/>
    </mask>
    <g mask="url(#mask3_267_2961)">
        <path opacity="0.2" d="M197.665 380.825C197.665 381.419 197.429 381.988 197.01 382.409L196.943 382.467C196.531 382.851 195.989 383.064 195.427 383.064H135.787C135.553 383.063 135.32 383.027 135.098 382.955L130.306 381.409C130.236 381.388 130.177 381.343 130.139 381.282C130.1 381.221 130.085 381.148 130.097 381.077C130.108 381.005 130.145 380.941 130.2 380.894C130.255 380.848 130.326 380.824 130.398 380.825H197.665Z" fill="black" fill-opacity="0.7"/>
        <path opacity="0.2" d="M197.666 380.825C197.665 381.419 197.429 381.988 197.01 382.409L196.943 382.467H158.45C158.014 382.467 157.596 382.295 157.287 381.987C156.979 381.679 156.805 381.261 156.804 380.825H197.666Z" fill="black" fill-opacity="0.7"/>
    </g>
    <path d="M130.389 380.825H197.665C197.665 381.419 197.429 381.988 197.009 382.408C196.59 382.828 196.02 383.064 195.426 383.064H135.786C135.553 383.063 135.32 383.027 135.098 382.955L130.305 381.409C130.237 381.388 130.178 381.344 130.14 381.284C130.101 381.224 130.086 381.152 130.096 381.081C130.106 381.01 130.141 380.946 130.195 380.899C130.249 380.852 130.318 380.826 130.389 380.825Z" stroke="#1F2937" stroke-width="0.42" stroke-linecap="round" stroke-linejoin="round"/>
    <path d="M156.803 380.825C156.804 381.261 156.978 381.679 157.287 381.987C157.596 382.295 158.014 382.467 158.45 382.467H164.838" stroke="#1F2937" stroke-width="0.42" stroke-linecap="round" stroke-linejoin="round"/>
    <path d="M209.707 353.209V353.264L201.878 380.501C201.761 380.851 201.541 381.157 201.246 381.378C200.951 381.599 200.596 381.726 200.227 381.74H159.445C159.291 381.752 159.136 381.726 158.994 381.662C158.853 381.599 158.73 381.501 158.636 381.378C158.542 381.254 158.481 381.109 158.458 380.956C158.435 380.803 158.451 380.647 158.504 380.501L166.325 353.264C166.441 352.914 166.661 352.608 166.956 352.386C167.251 352.165 167.607 352.039 167.975 352.025H208.757C208.907 352.012 209.058 352.036 209.196 352.095C209.334 352.154 209.455 352.246 209.549 352.363C209.643 352.48 209.707 352.619 209.734 352.766C209.762 352.914 209.752 353.066 209.707 353.209Z" fill="#60A5FA"/>
    <mask id="mask4_267_2961" style="mask-type:luminance" maskUnits="userSpaceOnUse" x="158" y="352" width="52" height="30">
        <path d="M209.706 353.208V353.262L201.878 380.499C201.761 380.849 201.54 381.155 201.246 381.376C200.951 381.598 200.595 381.724 200.227 381.738H159.445C159.291 381.75 159.136 381.724 158.994 381.66C158.853 381.597 158.73 381.499 158.636 381.376C158.542 381.252 158.481 381.107 158.458 380.954C158.435 380.801 158.451 380.645 158.504 380.499L166.325 353.262C166.441 352.912 166.661 352.606 166.956 352.384C167.251 352.163 167.607 352.037 167.975 352.023H208.757C208.907 352.01 209.057 352.034 209.196 352.093C209.334 352.152 209.455 352.244 209.549 352.361C209.643 352.478 209.707 352.617 209.734 352.765C209.761 352.912 209.752 353.064 209.706 353.208Z" fill="white"/>
    </mask>
    <g mask="url(#mask4_267_2961)">
        <path opacity="0.4" d="M209.706 353.208V353.263L201.878 380.5C201.761 380.849 201.541 381.155 201.246 381.377C200.951 381.598 200.595 381.724 200.227 381.739H159.714V381.684L167.53 354.447C167.647 354.097 167.867 353.791 168.162 353.57C168.457 353.349 168.812 353.222 169.181 353.208H209.706Z" fill="white"/>
    </g>
    <path d="M209.707 353.209V353.264L201.878 380.501C201.761 380.851 201.541 381.157 201.246 381.378C200.951 381.599 200.596 381.726 200.227 381.74H159.445C159.291 381.752 159.136 381.726 158.994 381.662C158.853 381.599 158.73 381.501 158.636 381.378C158.542 381.254 158.481 381.109 158.458 380.956C158.435 380.803 158.451 380.647 158.504 380.501L166.325 353.264C166.441 352.914 166.661 352.608 166.956 352.386C167.251 352.165 167.607 352.039 167.975 352.025H208.757C208.907 352.012 209.058 352.036 209.196 352.095C209.334 352.154 209.455 352.246 209.549 352.363C209.643 352.48 209.707 352.619 209.734 352.766C209.762 352.914 209.752 353.066 209.707 353.209Z" stroke="#1F2937" stroke-width="0.42" stroke-linecap="round" stroke-linejoin="round"/>
    <path d="M187.039 367.385C186.692 368.1 186.157 368.707 185.491 369.142C184.825 369.576 184.054 369.821 183.259 369.851C181.546 369.851 180.533 368.523 181.004 366.885C181.285 366.047 181.814 365.314 182.522 364.784C183.229 364.254 184.081 363.951 184.964 363.916H185.04C184.961 364.078 184.896 364.247 184.847 364.42C184.364 366.045 185.351 367.36 187.039 367.385Z" fill="white" stroke="#1F2937" stroke-width="0.42" stroke-linecap="round" stroke-linejoin="round"/>
    <path d="M159.924 380.405L167.555 353.819C167.623 353.615 167.752 353.437 167.924 353.308C168.095 353.179 168.302 353.105 168.517 353.097H208.047" stroke="#1F2937" stroke-width="0.42" stroke-linecap="round" stroke-linejoin="round"/>
    <path d="M140.978 383.064H84.6979L85.3783 381.645C85.3783 381.645 90.6955 382.14 94.9081 380.826C96.7687 380.246 99.6331 379.986 102.506 380.019C104.316 380.045 108.722 380.061 111.456 380.049C112.43 380.049 113.195 380.049 113.556 380.024C113.695 380.024 113.833 380.024 113.976 380.024C114.756 380.014 115.534 380.087 116.299 380.242C117.036 380.159 117.778 380.122 118.52 380.133C119.818 380.133 125.4 380.112 126.92 380.133C128.924 380.158 131.238 380.553 133.435 380.855L133.493 380.834V380.864C136.148 381.233 138.634 381.485 140.213 380.834L140.978 383.064Z" fill="white"/>
    <mask id="mask5_267_2961" style="mask-type:luminance" maskUnits="userSpaceOnUse" x="84" y="380" width="57" height="4">
        <path d="M140.978 383.064H84.6979L85.3783 381.645C85.3783 381.645 90.6955 382.14 94.9081 380.826C96.7687 380.246 99.6331 379.986 102.506 380.019C104.316 380.045 108.722 380.061 111.456 380.049C112.43 380.049 113.195 380.049 113.556 380.024C113.695 380.024 113.833 380.024 113.976 380.024C114.756 380.014 115.534 380.087 116.299 380.242C117.036 380.159 117.778 380.122 118.52 380.133C119.818 380.133 125.4 380.112 126.92 380.133C128.924 380.158 131.238 380.553 133.435 380.855L133.493 380.834V380.864C136.148 381.233 138.634 381.485 140.213 380.834L140.978 383.064Z" fill="white"/>
    </mask>
    <g mask="url(#mask5_267_2961)">
        <path opacity="0.4" d="M140.978 383.065H97.3527L98.2389 381.54C98.2389 381.54 100.62 382.93 102.947 381.96C105.274 380.99 107.618 380.461 111.456 380.041C112.293 379.951 113.137 379.94 113.976 380.007C115.647 380.135 117.29 380.509 118.853 381.116C118.853 381.116 121.142 380.116 126.921 380.116C128.924 380.141 131.238 380.536 133.435 380.839L133.494 380.818V380.847C136.148 381.217 138.635 381.469 140.214 380.818L140.978 383.065Z" fill="#60A5FA"/>
        <path d="M98.2389 381.54L85.3953 381.645L84.7149 383.065H97.3527L98.2389 381.54Z" fill="#60A5FA"/>
        <path d="M97.7138 382.439L98.2388 381.54C99.3744 382.035 100.6 382.289 101.838 382.288C103.72 382.233 106.693 379.902 112.41 380.016" stroke="#1F2937" stroke-width="0.42" stroke-linecap="round" stroke-linejoin="round"/>
        <path d="M116.286 380.234C117.341 380.62 118.84 381.124 118.84 381.124C118.84 381.124 120.78 380.007 125.043 380.125" stroke="#1F2937" stroke-width="0.42" stroke-linecap="round" stroke-linejoin="round"/>
        <path d="M98.2388 381.54C98.2388 381.54 91.5944 381.658 88.9358 381.716" stroke="#1F2937" stroke-width="0.42" stroke-linecap="round" stroke-linejoin="round"/>
        <path d="M117.954 383.064C117.99 382.791 118.111 382.535 118.3 382.334C118.489 382.133 118.737 381.996 119.008 381.943C119.949 381.788 120.558 382.951 120.558 382.951" stroke="#1F2937" stroke-width="0.42" stroke-linecap="round" stroke-linejoin="round"/>
        <path d="M118.84 381.125L119.008 381.944" stroke="#1F2937" stroke-width="0.42" stroke-linecap="round" stroke-linejoin="round"/>
        <path d="M119.785 381.943C119.785 381.943 122.775 380.578 125.665 380.826" stroke="#1F2937" stroke-width="0.42" stroke-linecap="round" stroke-linejoin="round"/>
        <path d="M118.554 382.107C118.29 381.901 113.8 380.515 109.205 381.54" stroke="#1F2937" stroke-width="0.42" stroke-linecap="round" stroke-linejoin="round"/>
        <path d="M117.954 382.675C117.954 382.675 114.174 381.956 110.885 382.456" stroke="#1F2937" stroke-width="0.42" stroke-linecap="round" stroke-linejoin="round"/>
        <path d="M120.205 382.464C122.714 381.765 125.34 381.587 127.92 381.943C130.461 382.321 133.029 382.493 135.598 382.456" stroke="#1F2937" stroke-width="0.42" stroke-linecap="round" stroke-linejoin="round"/>
    </g>
    <path d="M140.978 383.064H84.6979L85.3783 381.645C85.3783 381.645 90.6955 382.14 94.9081 380.826C96.7687 380.246 99.6331 379.986 102.506 380.019C104.316 380.045 108.722 380.061 111.456 380.049C112.43 380.049 113.195 380.049 113.556 380.024C113.695 380.024 113.833 380.024 113.976 380.024C114.756 380.014 115.534 380.087 116.299 380.242C117.036 380.159 117.778 380.122 118.52 380.133C119.818 380.133 125.4 380.112 126.92 380.133C128.924 380.158 131.238 380.553 133.435 380.855L133.493 380.834V380.864C136.148 381.233 138.634 381.485 140.213 380.834L140.978 383.064Z" stroke="#1F2937" stroke-width="0.42" stroke-linecap="round" stroke-linejoin="round"/>
    <path d="M125.887 350.053V351.544C124.75 352.318 123.572 353.032 122.359 353.681C119.667 351.208 119.285 346.508 119.285 346.508L125.887 350.053Z" fill="#1F2937"/>
    <path d="M114.413 341.463C111.246 336.78 111.893 328.023 115.962 323.244C121.943 316.263 137.55 321.362 137.538 331.224C137.526 332.595 137.408 333.962 137.185 335.315C136.979 336.617 135.849 337.931 135.505 339.229C135.161 340.527 135.299 342.589 135.161 343.849C134.85 346.718 130.881 352.409 129.806 353.026C128.302 353.866 120.175 351.585 118.403 346.373" fill="white"/>
    <path d="M114.413 341.463C111.246 336.78 111.893 328.023 115.962 323.244C121.943 316.263 137.55 321.362 137.538 331.224C137.526 332.595 137.408 333.962 137.185 335.315C136.979 336.617 135.849 337.931 135.505 339.229C135.161 340.527 135.299 342.589 135.161 343.849C134.85 346.718 130.881 352.409 129.806 353.026C128.302 353.866 120.175 351.585 118.403 346.373" stroke="#1F2937" stroke-width="0.42" stroke-linecap="round" stroke-linejoin="round"/>
    <path d="M125.488 335.676C125.488 335.676 127.701 334.869 129.688 335.676" stroke="#1F2937" stroke-width="0.42" stroke-linecap="round" stroke-linejoin="round"/>
    <path d="M134.22 335.676C134.22 335.676 135.833 334.869 136.912 335.676" stroke="#1F2937" stroke-width="0.42" stroke-linecap="round" stroke-linejoin="round"/>
    <path d="M127.559 339.438C127.441 340.005 127.055 340.408 126.719 340.337C126.383 340.266 126.16 339.741 126.278 339.169C126.395 338.598 126.782 338.199 127.139 338.275C127.496 338.35 127.676 338.88 127.559 339.438Z" fill="#1F2937"/>
    <path d="M134.682 339.438C134.564 340.005 134.178 340.408 133.842 340.337C133.506 340.266 133.283 339.741 133.401 339.169C133.519 338.598 133.901 338.199 134.262 338.275C134.623 338.35 134.8 338.88 134.682 339.438Z" fill="#1F2937"/>
    <path d="M133.519 336.536C133.519 336.536 132.464 338.363 132.355 339.896C132.246 341.429 344.604 133.519 345.6C133.002 346" fill="white"/>
    <path d="M117.588 337.145C117.588 337.145 118.621 336.146 119.839 336.536C121.057 336.927 121.28 340.245 121.28 340.245L122.166 339.3C122.166 339.3 121.834 337.422 123.161 334.789C124.489 332.156 123.825 329.056 123.825 329.056C123.825 329.056 126.114 329.829 126.908 331.601C126.908 331.601 127.773 329.72 126.908 328.279C126.908 328.279 130.474 329.165 131.36 331.824C131.36 331.824 132.061 329.829 131.822 328.833C131.822 328.833 134.237 329.606 135.123 331.933C135.123 331.933 135.929 330.161 135.581 328.72C135.581 328.72 136.555 329.56 136.929 332.046C137.656 330.53 137.87 328.819 137.538 327.17C137.538 327.17 138.798 328.611 139 329.829C139 329.829 140.024 326.284 134.031 321.521C128.038 316.758 117.777 317.838 116.181 321.521C116.181 321.521 116.71 318.808 117.777 317.838C117.777 317.838 114.837 319.148 114.9 321.853C114.9 321.853 112.304 321.521 110.977 323.184C111.791 323.123 112.608 323.16 113.413 323.294C113.413 323.294 109.868 325.394 110.091 330.383C110.314 335.373 113.413 342.563 113.413 342.563L115.841 341.853C115.841 341.853 116.227 338.46 117.588 337.145Z" fill="#1F2937"/>
    <path d="M120.28 338.363C120.28 338.363 118.399 335.041 117.403 334.818C116.408 334.596 114.522 335.927 114.963 337.699C115.404 339.472 115.74 342.462 116.294 342.794C116.849 343.126 117.735 345.121 118.621 344.566C118.738 344.506 118.839 344.42 118.916 344.314C118.993 344.208 119.044 344.085 119.065 343.956C119.087 343.826 119.077 343.694 119.038 343.569C118.999 343.443 118.931 343.329 118.84 343.235" fill="white"/>
    <path d="M120.28 338.363C120.28 338.363 118.399 335.041 117.403 334.818C116.408 334.596 114.522 335.927 114.963 337.699C115.404 339.472 115.74 342.462 116.294 342.794C116.849 343.126 117.735 345.121 118.621 344.566C118.738 344.506 118.839 344.42 118.916 344.314C118.993 344.208 119.044 344.085 119.065 343.956C119.087 343.826 119.077 343.694 119.038 343.569C118.999 343.443 118.931 343.329 118.84 343.235" stroke="#1F2937" stroke-width="0.42" stroke-linecap="round" stroke-linejoin="round"/>
    <path d="M141.326 364.05C141.136 364.869 140.892 365.674 140.596 366.461" stroke="#1F2937" stroke-width="0.42" stroke-linecap="round" stroke-linejoin="round"/>
    <path d="M139.919 368.065C139.25 369.592 138.269 370.961 137.038 372.085" stroke="#1F2937" stroke-width="0.42" stroke-linecap="round" stroke-linejoin="round"/>
    <path d="M151.86 372.588C151.285 372.513 150.113 373.239 149.038 374.176" stroke="#1F2937" stroke-width="0.42" stroke-linecap="round" stroke-linejoin="round"/>
    <path d="M148.248 374.921C147.408 375.79 146.757 376.71 146.757 377.298" stroke="#1F2937" stroke-width="0.42" stroke-linecap="round" stroke-linejoin="round"/>
    <path d="M87.1798 370.325C87.1798 370.325 89.5696 370.989 89.5906 373.038" stroke="#1F2937" stroke-width="0.42" stroke-linecap="round" stroke-linejoin="round"/>
    <path d="M96.1342 359.136C96.5309 359.58 96.8919 360.054 97.2136 360.555" stroke="#1F2937" stroke-width="0.42" stroke-linecap="round" stroke-linejoin="round"/>
    <path d="M98.1587 362.287C98.6288 363.308 98.882 364.415 98.9021 365.538C98.9021 368.995 97.9067 370.998 97.9067 370.998" stroke="#1F2937" stroke-width="0.42" stroke-linecap="round" stroke-linejoin="round"/>
    <path d="M110.645 355.746C111.279 356.335 111.957 356.874 112.674 357.359" stroke="#1F2937" stroke-width="0.42" stroke-linecap="round" stroke-linejoin="round"/>
    <path d="M114.782 358.62C116.928 359.704 119.705 360.519 122.586 359.8" stroke="#1F2937" stroke-width="0.42" stroke-linecap="round" stroke-linejoin="round"/>
    <g opacity="0.2">
        <path d="M119.285 321.696C120.035 321.581 120.794 321.532 121.553 321.549" stroke="white" stroke-width="0.42" stroke-linecap="round" stroke-linejoin="round"/>
        <path d="M122.657 321.609C124.711 321.803 127.239 322.521 128.81 324.688" stroke="white" stroke-width="0.42" stroke-linecap="round" stroke-linejoin="round"/>
        <path d="M124.27 320.013C124.27 320.013 128.121 320.055 130.881 321.982" stroke="white" stroke-width="0.42" stroke-linecap="round" stroke-linejoin="round"/>
        <path d="M131.964 322.919C132.458 323.435 132.854 324.037 133.132 324.696" stroke="white" stroke-width="0.42" stroke-linecap="round" stroke-linejoin="round"/>
        <path d="M118.289 323.339C118.289 323.339 122.069 324.67 123.384 327.052" stroke="white" stroke-width="0.42" stroke-linecap="round" stroke-linejoin="round"/>
        <path d="M116.458 324.688C117.277 325.823 117.866 327.107 118.192 328.468" stroke="white" stroke-width="0.42" stroke-linecap="round" stroke-linejoin="round"/>
        <path d="M118.428 330.336C118.433 330.838 118.386 331.339 118.289 331.831" stroke="white" stroke-width="0.42" stroke-linecap="round" stroke-linejoin="round"/>
        <path d="M113.913 326.237C113.718 326.731 113.557 327.238 113.43 327.754" stroke="white" stroke-width="0.42" stroke-linecap="round" stroke-linejoin="round"/>
        <path d="M113.132 329.22C112.911 330.529 112.894 331.865 113.081 333.18" stroke="white" stroke-width="0.42" stroke-linecap="round" stroke-linejoin="round"/>
    </g>
    <path d="M163.481 390.532H216.485V383.064H68.8301V390.532H98.6837" fill="white"/>
    <path d="M163.481 390.532H216.485V383.064H68.8301V390.532H98.6837" stroke="#1F2937" stroke-width="0.42" stroke-linecap="round" stroke-linejoin="round"/>
    <path d="M159.676 390.531H152.15" stroke="#1F2937" stroke-width="0.42" stroke-linecap="round" stroke-linejoin="round"/>
</svg>