<svg width="210" height="210" viewBox="0 0 210 210" fill="none" xmlns="http://www.w3.org/2000/svg">
    <g id="Frame">
        <g id="freepik--Window--inject-100">
            <path id="Vector" d="M26.998 112.108V38.8389H33.2308" stroke="#1F2937" stroke-width="0.42" stroke-linecap="round" stroke-linejoin="round"/>
            <path id="Vector_2" d="M27.0021 124.085V121.414" stroke="#1F2937" stroke-width="0.42" stroke-linecap="round" stroke-linejoin="round"/>
            <path id="Vector_3" d="M49.2538 38.8389H113.539V133.465H26.998" stroke="#1F2937" stroke-width="0.42" stroke-linecap="round" stroke-linejoin="round"/>
            <path id="Vector_4" d="M41.3704 38.8389H47.0194" stroke="#1F2937" stroke-width="0.42" stroke-linecap="round" stroke-linejoin="round"/>
            <path id="Vector_5" d="M110.284 42.0889H30.2531V130.217H110.284V42.0889Z" stroke="#1F2937" stroke-width="0.42" stroke-linecap="round" stroke-linejoin="round"/>
            <path id="Vector_6" d="M106.563 48.2725V82.5487H33.9742V79.4239" stroke="#1F2937" stroke-width="0.42" stroke-linecap="round" stroke-linejoin="round"/>
            <path id="Vector_7" d="M33.9742 72.0898V45.4912H106.563" stroke="#1F2937" stroke-width="0.42" stroke-linecap="round" stroke-linejoin="round"/>
            <path id="Vector_8" d="M33.9784 77.0164V73.9756" stroke="#1F2937" stroke-width="0.42" stroke-linecap="round" stroke-linejoin="round"/>
            <path id="Vector_9" d="M94.3071 86.1523H110.284" stroke="#1F2937" stroke-width="0.42" stroke-linecap="round" stroke-linejoin="round"/>
            <path id="Vector_10" d="M88.6246 86.1523H90.8842" stroke="#1F2937" stroke-width="0.42" stroke-linecap="round" stroke-linejoin="round"/>
            <path id="Vector_11" d="M30.2531 86.1523H85.9241" stroke="#1F2937" stroke-width="0.42" stroke-linecap="round" stroke-linejoin="round"/>
            <path id="Vector_12" d="M66.2469 82.5478V80.9014H72.9375V81.838H70.2705V82.5478" stroke="#1F2937" stroke-width="0.42" stroke-linecap="round" stroke-linejoin="round"/>
            <path id="Vector_13" d="M30.3918 115.691C30.3918 115.691 31.5006 116.531 32.2818 121.613C32.2818 121.613 33.6258 113.494 35.2554 113.368C36.885 113.242 36.5406 118.652 36.5406 118.652C36.5406 118.652 36.8094 115.985 38.0862 116.107C39.363 116.229 38.0862 121.613 38.0862 121.613C38.0862 121.613 39.6192 117.413 41.0682 117.489C42.5172 117.564 40.1064 125.095 40.1064 125.095C40.1064 125.095 43.8276 122.398 45.3354 123.717C46.8432 125.036 44.4954 128.362 44.4954 128.362C44.4954 128.362 49.8336 127.203 50.661 130.332" stroke="#1F2937" stroke-width="0.42" stroke-linecap="round" stroke-linejoin="round"/>
            <path id="Vector_14" d="M50.6732 127.299C50.6732 127.299 53 125.774 54.827 126.484C54.827 126.484 53.6636 124.712 54.827 123.628C55.9904 122.545 57.4856 126.484 57.4856 126.484C57.4856 126.484 57.6536 119.886 59.9804 120.218C62.3072 120.55 59.9804 126.484 59.9804 126.484C59.9804 126.484 64.1342 122.805 65.1296 124.086C66.125 125.367 64.466 127.299 64.466 127.299C64.466 127.299 66.9566 126.501 68.7836 128.362C68.7836 128.362 71.5682 125.518 74.6636 125.111C74.6636 125.111 72.6056 119.138 73.6052 117.933C74.6048 116.728 76.4108 123.145 76.4108 123.145C76.4108 123.145 77.2046 118.97 79.8044 118.651C79.8044 118.651 77.6372 117.471 78.2798 115.69C78.9224 113.909 81.9128 116.11 81.9128 116.11C81.9128 116.11 80.6822 112.973 82.6268 112.112C84.5714 111.251 85.382 114.737 85.382 114.737C85.382 114.737 85.9238 111.083 88.2086 111.284C90.4934 111.486 89.7542 115.694 89.7542 115.694C89.7542 115.694 91.9088 112.334 93.0638 112.691C95.3696 113.372 94.6682 118.655 94.6682 118.655C94.6682 118.655 97.8896 116.417 98.717 117.446C99.6116 118.559 95.357 121.419 95.357 121.419C95.357 121.419 98.5532 121.772 100.54 123.632" stroke="#1F2937" stroke-width="0.42" stroke-linecap="round" stroke-linejoin="round"/>
            <path id="Vector_15" d="M110.284 116.896C110.284 116.896 109.919 113.536 106.563 113.368C103.207 113.2 107.487 120.718 107.487 120.718C107.487 120.718 104.719 118.429 103.728 119.135C102.737 119.84 106.563 123.717 106.563 123.717C106.563 123.717 104.728 122.037 102.783 122.545C100.838 123.053 103.888 128.467 103.888 128.467C101.013 127.887 98.0289 128.235 95.3657 129.462" stroke="#1F2937" stroke-width="0.42" stroke-linecap="round" stroke-linejoin="round"/>
        </g>
        <g id="freepik--book-shelf--inject-100">
            <path id="Vector_16" d="M143.665 161.961V120.096H190.806" stroke="#1F2937" stroke-width="0.42" stroke-linecap="round" stroke-linejoin="round"/>
            <path id="Vector_17" d="M189.093 124.426H147.458V163.423" stroke="#1F2937" stroke-width="0.42" stroke-linecap="round" stroke-linejoin="round"/>
            <path id="Vector_18" d="M155.791 145.694V128.36H158.517V131.935H162.154V130.33H165.405V132.275H169.794V128.36H174.283V130.99H176.703V129.461H181.037V139.671" stroke="#1F2937" stroke-width="0.42" stroke-linecap="round" stroke-linejoin="round"/>
            <path id="Vector_19" d="M176.703 130.99V145.694" stroke="#1F2937" stroke-width="0.42" stroke-linecap="round" stroke-linejoin="round"/>
            <path id="Vector_20" d="M174.632 133.191V135.816" stroke="#1F2937" stroke-width="0.42" stroke-linecap="round" stroke-linejoin="round"/>
            <path id="Vector_21" d="M174.632 137.697V148.479" stroke="#1F2937" stroke-width="0.42" stroke-linecap="round" stroke-linejoin="round"/>
            <path id="Vector_22" d="M169.794 132.28V141.965" stroke="#1F2937" stroke-width="0.42" stroke-linecap="round" stroke-linejoin="round"/>
            <path id="Vector_23" d="M169.962 145.156V148.172" stroke="#1F2937" stroke-width="0.42" stroke-linecap="round" stroke-linejoin="round"/>
            <path id="Vector_24" d="M165.405 132.28V137.698" stroke="#1F2937" stroke-width="0.42" stroke-linecap="round" stroke-linejoin="round"/>
            <path id="Vector_25" d="M165.405 141.027V152.443" stroke="#1F2937" stroke-width="0.42" stroke-linecap="round" stroke-linejoin="round"/>
            <path id="Vector_26" d="M162.154 131.935V145.391" stroke="#1F2937" stroke-width="0.42" stroke-linecap="round" stroke-linejoin="round"/>
            <path id="Vector_27" d="M158.517 131.935V137.025" stroke="#1F2937" stroke-width="0.42" stroke-linecap="round" stroke-linejoin="round"/>
            <path id="Vector_28" d="M158.517 139.672V151.772" stroke="#1F2937" stroke-width="0.42" stroke-linecap="round" stroke-linejoin="round"/>
            <path id="Vector_29" d="M155.791 148.172V153.636" stroke="#1F2937" stroke-width="0.42" stroke-linecap="round" stroke-linejoin="round"/>
            <path id="Vector_30" d="M150.167 153.637H183.255" stroke="#1F2937" stroke-width="0.42" stroke-linecap="round" stroke-linejoin="round"/>
            <path id="Vector_31" d="M176.703 153.636V150.138" stroke="#1F2937" stroke-width="0.42" stroke-linecap="round" stroke-linejoin="round"/>
            <path id="Vector_32" d="M169.962 151.062V153.473" stroke="#1F2937" stroke-width="0.42" stroke-linecap="round" stroke-linejoin="round"/>
            <path id="Vector_33" d="M181.407 133.952H184.615" stroke="#1F2937" stroke-width="0.42" stroke-linecap="round" stroke-linejoin="round"/>
            <path id="Vector_34" d="M150.293 156.686H181.037" stroke="#1F2937" stroke-width="0.42" stroke-linecap="round" stroke-linejoin="round"/>
            <path id="Vector_35" d="M156.891 165.577V161.503H162.587V164.128H167.169V169.248H169.794V161.658H175.611V163.422H179.185" stroke="#1F2937" stroke-width="0.42" stroke-linecap="round" stroke-linejoin="round"/>
            <path id="Vector_36" d="M175.611 163.423V167.791" stroke="#1F2937" stroke-width="0.42" stroke-linecap="round" stroke-linejoin="round"/>
            <path id="Vector_37" d="M169.962 171.096V174.036" stroke="#1F2937" stroke-width="0.42" stroke-linecap="round" stroke-linejoin="round"/>
            <path id="Vector_38" d="M167.169 169.247V173.119" stroke="#1F2937" stroke-width="0.42" stroke-linecap="round" stroke-linejoin="round"/>
            <path id="Vector_39" d="M162.587 164.128V166.35" stroke="#1F2937" stroke-width="0.42" stroke-linecap="round" stroke-linejoin="round"/>
        </g>
        <g id="freepik--Screen--inject-100">
            <path id="Vector_40" d="M189.235 30.7314H88.5865V100.271H189.235V30.7314Z" fill="#DBEAFE" stroke="#1F2937" stroke-width="0.42" stroke-linecap="round" stroke-linejoin="round"/>
            <path id="Vector_41" d="M189.235 30.7314H88.5865V37.6068H189.235V30.7314Z" fill="#1F2937"/>
            <path id="Vector_42" d="M129.36 78.4096L126.999 75.1252C126.999 74.4393 126.964 73.7538 126.894 73.0714C126.806 72.7648 125.374 70.5094 125.34 69.976C125.335 69.7213 125.303 69.4679 125.244 69.22C125.244 69.22 124.509 69.4048 124.517 69.8542C124.526 70.3036 124.605 71.8198 124.605 71.8198C124.605 71.8198 122.69 70.7026 122.476 70.4086C122.262 70.1146 119.927 68.401 119.708 68.1448C119.49 67.8886 118.599 67.8718 118.494 68.1448L118.62 68.4598L117.885 68.8084L118.377 70.2658C118.236 70.5939 118.151 70.943 118.125 71.299C118.205 71.4796 118.465 72.559 118.465 72.559C118.465 72.559 118.305 72.7228 118.326 73.294C118.347 73.8652 121.485 76.7842 122.106 77.0992C122.849 77.4111 123.609 77.679 124.383 77.9014L126.353 80.4508L129.36 78.4096Z" fill="white" stroke="#1F2937" stroke-width="0.42" stroke-linecap="round" stroke-linejoin="round"/>
            <path id="Vector_43" d="M124.601 71.8203C124.235 72.6548 124.141 73.5837 124.332 74.4747" stroke="#1F2937" stroke-width="0.42" stroke-linecap="round" stroke-linejoin="round"/>
            <path id="Vector_44" d="M118.616 68.4609C119.251 68.7045 120.044 69.8889 120.41 70.2543C120.74 70.5524 121.094 70.8235 121.468 71.0649" stroke="#1F2937" stroke-width="0.42" stroke-linecap="round" stroke-linejoin="round"/>
            <path id="Vector_45" d="M118.373 70.2544C118.893 70.1452 119.246 70.3468 119.234 70.855C119.221 71.3632 120.347 72.136 120.347 72.136" stroke="#1F2937" stroke-width="0.42" stroke-linecap="round" stroke-linejoin="round"/>
            <path id="Vector_46" d="M118.461 72.5472C118.461 72.5472 118.826 71.8962 119.116 72.1944C119.406 72.4926 119.498 73.257 120.032 73.4166" stroke="#1F2937" stroke-width="0.42" stroke-linecap="round" stroke-linejoin="round"/>
            <path id="Vector_47" d="M160.053 74.8396C160.053 74.8396 151.767 75.352 149.94 76.0996C148.44 76.717 137.894 83.6596 137.894 83.6596C137.894 83.6596 131.691 78.9808 129.889 77.3596C129.542 77.1916 129.168 77.0837 128.784 77.0404L127.839 76.4398L125.517 79.7116L126.168 80.6146C126.168 80.6146 126.273 82.072 126.563 82.4374C130.418 87.28 137.802 94.0588 138.911 94.7266C140.019 95.3944 149.856 89.5732 149.856 89.5732L151.683 100.283H181.02C181.02 100.283 180.944 81.4882 179.709 80.0476C178.475 78.607 164.321 72.958 164.321 72.958L160.053 74.8396Z" fill="#1F2937" stroke="#4B5563" stroke-width="0.42" stroke-linecap="round" stroke-linejoin="round"/>
            <g id="Vector_48">
                <path d="M169.962 68.04C169.962 68.04 167.332 69.804 168.727 75.4404C168.727 75.4404 164.766 78.2712 160.848 75.4152C160.848 75.4152 161.751 70.9212 160.848 70.0182" fill="white"/>
                <path d="M169.962 68.04C169.962 68.04 167.332 69.804 168.727 75.4404C168.727 75.4404 164.766 78.2712 160.848 75.4152C160.848 75.4152 161.751 70.9212 160.848 70.0182" stroke="#1F2937" stroke-width="0.42" stroke-linecap="round" stroke-linejoin="round"/>
            </g>
            <g id="Vector_49">
                <path d="M179.184 80.9219C179.184 80.9219 175.61 85.0337 175.194 92.0729L179.184 80.9219Z" fill="#374151"/>
                <path d="M179.184 80.9219C179.184 80.9219 175.61 85.0337 175.194 92.0729" stroke="#4B5563" stroke-width="0.42" stroke-linecap="round" stroke-linejoin="round"/>
            </g>
            <path id="Vector_50" d="M163.455 56.7461C163.455 56.7461 161.112 56.3933 160.293 59.2661C159.816 61.0255 160.009 62.8994 160.835 64.5245L165.144 60.4799L163.455 56.7461Z" fill="#1F2937"/>
            <g id="Vector_51">
                <path d="M169.159 69.754C172.179 66.1504 174.313 60.1444 169.777 57.7462C161.024 53.1178 158.13 62.1604 159.6 70.5604C160.054 73.1518 163.573 71.9968 166.148 71.0602" fill="white"/>
                <path d="M169.159 69.754C172.179 66.1504 174.313 60.1444 169.777 57.7462C161.024 53.1178 158.13 62.1604 159.6 70.5604C160.054 73.1518 163.573 71.9968 166.148 71.0602" stroke="#1F2937" stroke-width="0.42" stroke-linecap="round" stroke-linejoin="round"/>
            </g>
            <path id="Vector_52" d="M163.044 61.9199C163.044 61.9199 164.489 62.3105 164.854 63.0833" stroke="#1F2937" stroke-width="0.42" stroke-linecap="round" stroke-linejoin="round"/>
            <path id="Vector_53" d="M160.952 61.5387C160.782 61.4548 160.593 61.4161 160.403 61.4264C160.213 61.4367 160.029 61.4956 159.869 61.5975" stroke="#1F2937" stroke-width="0.42" stroke-linecap="round" stroke-linejoin="round"/>
            <path id="Vector_54" d="" fill="#1F2937"/>
            <path id="Vector_55" d="" fill="#1F2937"/>
            <path id="Vector_56" d="M167.811 65.5957C167.811 65.5957 166.455 67.5613 165.543 68.1913C164.954 68.5684 164.245 68.7094 163.557 68.5861C163.557 68.5861 162.393 67.1497 160.696 67.1287C160.257 66.8491 159.757 66.6778 159.239 66.6289L159.336 64.4365C159.336 64.4365 158.046 69.1363 158.168 70.8205C158.29 72.5047 162.431 73.6723 164.502 73.2019C166.572 72.7315 167.626 69.5101 168.256 66.4819C168.303 66.2299 167.811 65.5957 167.811 65.5957Z" fill="#1F2937"/>
            <path id="Vector_57" d="M159.491 68.2119C159.491 68.2119 161.129 68.9973 162.586 68.8125" stroke="white" stroke-width="0.42" stroke-linecap="round" stroke-linejoin="round"/>
            <path id="Vector_58" d="M169.168 59.6062C169.705 59.1862 168.328 57.3802 167.555 57.418C166.782 57.4558 162.989 57.5986 162.989 57.5986C162.989 57.5986 162.191 53.4238 168.575 55.6792C169.621 56.0488 169.957 57.0274 170.894 57.5272C171.83 58.027 173.099 60.6562 172.738 62.899C172.376 65.1418 171.179 69.0772 169.008 70.2574C169.008 70.2574 168.26 70.1818 168.714 69.6652C170.852 67.2586 168.613 62.731 168.256 66.4732L167.504 66.0238C167.498 65.6129 167.541 65.2027 167.63 64.8016C167.79 63.7726 166.652 61.6684 169.168 59.6062Z" fill="#1F2937"/>
            <g id="Vector_59">
                <path d="M168.84 65.3221C168.84 65.3221 170.213 63.6925 171.045 64.2469C171.876 64.8013 171.318 66.7669 170.873 67.2583C170.427 67.7497 170.066 67.8589 169.449 68.6443C168.831 69.4297 168.054 69.1651 168.189 68.5351" fill="white"/>
                <path d="M168.84 65.3221C168.84 65.3221 170.213 63.6925 171.045 64.2469C171.876 64.8013 171.318 66.7669 170.873 67.2583C170.427 67.7497 170.066 67.8589 169.449 68.6443C168.831 69.4297 168.054 69.1651 168.189 68.5351" stroke="#1F2937" stroke-width="0.42" stroke-linecap="round" stroke-linejoin="round"/>
            </g>
            <path id="Vector_60" d="M164.64 64.1207C164.686 65.0321 164.132 65.8007 163.38 65.8385C162.628 65.8763 162.015 65.1707 161.969 64.2593C161.922 63.3479 162.477 62.5793 163.229 62.5415C163.98 62.5037 164.585 63.2093 164.64 64.1207Z" stroke="#1F2937" stroke-width="0.21" stroke-miterlimit="10"/>
            <path id="Vector_61" d="M160.768 63.2935C160.818 64.2049 160.259 64.9735 159.529 65.0155C158.798 65.0575 158.164 64.3435 158.113 63.4321C158.063 62.5207 158.626 61.7521 159.373 61.7143C160.121 61.6765 160.721 62.3821 160.768 63.2935Z" stroke="#1F2937" stroke-width="0.21" stroke-miterlimit="10"/>
            <g id="Vector_62">
                <path d="M161.167 62.5137C161.167 62.9337 158.991 65.4159 158.966 65.9619C158.941 66.5079 160.99 66.5415 160.99 66.5415" fill="white"/>
                <path d=" 62.5137C161.167 62.9337 158.991 65.4159 158.966 65.9619C158.941 66.5079 160.99 66.5415 160.99 66.5415" stroke="#1F2937" stroke-width="0.42" stroke-linecap="round" stroke-linejoin="round"/>
            </g>
            <path id="Vector_63" d="M160.768 63.2943C160.768 63.2943 161.419 63.1305 161.965 64.0083" stroke="#1F2937" stroke-width="0.21" stroke-miterlimit="10"/>
            <path id="Vector_64" d="M164.649 64.4404L165.354 64.5454L169.315 64.8226" stroke="#1F2937" stroke-width="0.21" stroke-miterlimit="10"/>
            <path id="Vector_65" d="M176.703 83.1602L175.913 82.1816C175.913 82.1816 169.26 82.9418 166.32 86.9066C166.32 86.9066 160.86 84.3278 155.946 85.5836L155.803 87.3434L166.551 93.7736L170.751 92.0264L176.703 83.1602Z" fill="white" stroke="#1F2937" stroke-width="0.42" stroke-linecap="round" stroke-linejoin="round"/>
            <path id="Vector_66" d="M177.782 82.5674L176.648 90.1274C176.648 90.1274 170.39 92.8742 169.088 95.0834L168.777 95.1254L167.307 95.3312L166.513 95.096C164.571 94.5306 162.592 94.0983 160.591 93.8024C159.896 93.6951 159.192 93.6683 158.491 93.7226L154.258 87.1244C154.258 87.1244 160.805 86.2172 165.333 87.767L167.5 87.6158L167.58 87.5486C168.231 87.0152 172.792 83.3906 177.782 82.5674Z" fill="#60A5FA"/>
            <g id="Clip path group">
                <mask id="mask0_267_3197" style="mask-type:luminance" maskUnits="userSpaceOnUse" x="154" y="82" width="24" height="14">
                    <g id="freepik--clip-path--inject-100">
                        <path id="Vector_67" d="M177.782 82.5664L176.648 90.1264C176.648 90.1264 170.39 92.8732 169.088 95.0824L168.777 95.1244L167.307 95.3302L166.513 95.095C164.571 94.5296 162.592 94.0974 160.591 93.8014C159.897 93.6941 159.192 93.6674 158.491 93.7216L154.258 87.1234C154.258 87.1234 160.806 86.2162 165.333 87.766L167.5 87.6148L167.58 87.5476C168.231 87.0142 172.792 83.3896 177.782 82.5664Z" fill="white"/>
                    </g>
                </mask>
                <g mask="url(#mask0_267_3197)">
                    <g id="Group">
                        <path id="Vector_68" opacity="0.3" d="M168.693 93.3604L167.58 87.5434C168.227 87.0142 172.788 83.3896 177.778 82.5664L176.644 90.1264C176.644 90.1264 170.386 92.8732 169.084 95.0824L168.773 95.1244L168.693 93.3604Z" fill="black" fill-opacity="0.7"/>
                        <path id="Vector_69" opacity="0.3" d="M166.538 93.7726L166.509 95.0914C164.567 94.526 162.588 94.0938 160.587 93.7978C160.676 92.4637 161.198 91.1951 162.073 90.1846C162.949 89.1741 164.13 88.477 165.438 88.1992L166.538 93.7726Z" fill="black" fill-opacity="0.7"/>
                    </g>
                </g>
            </g>
            <path id="Vector_70" d="M177.782 82.5674L176.648 90.1274C176.648 90.1274 170.39 92.8742 169.088 95.0834L168.777 95.1254L167.307 95.3312L166.513 95.096C164.571 94.5306 162.592 94.0983 160.591 93.8024C159.896 93.6951 159.192 93.6683 158.491 93.7226L154.258 87.1244C154.258 87.1244 160.805 86.2172 165.333 87.767L167.5 87.6158L167.58 87.5486C168.231 87.0152 172.792 83.3906 177.782 82.5674Z" stroke="#1F2937" stroke-width="0.42" stroke-linecap="round" stroke-linejoin="round"/>
            <path id="Vector_71" d="M168.668 96.9287C166.425 96.7859 162.158 93.3503 162.158 93.3503C161.901 92.7092 161.541 92.1146 161.091 91.5905C160.482 90.9815 161.293 90.4733 161.293 90.4733C161.293 90.4733 160.583 90.0155 160.18 89.7635C159.776 89.5115 160.482 88.8479 160.482 88.8479C160.482 88.8479 163.527 89.2679 163.842 89.1545C164.157 89.0411 167.08 90.9311 167.534 90.9815C168.15 90.9927 168.757 90.8344 169.289 90.5237C169.592 90.2717 170.528 88.6967 171.137 88.3901C171.746 88.0835 172.817 88.0877 172.305 88.7471C171.793 89.4065 171.885 90.8765 171.633 91.0823C171.381 91.2881 170.965 93.4973 170.965 94.2575L174.283 97.2899L172.393 99.8645L168.668 96.9287Z" fill="white" stroke="#1F2937" stroke-width="0.42" stroke-linecap="round" stroke-linejoin="round"/>
            <path id="Vector_72" d="M161.28 90.4727C161.876 90.5393 162.458 90.7025 163.002 90.9557" stroke="#1F2937" stroke-width="0.42" stroke-linecap="round" stroke-linejoin="round"/>
            <path id="Vector_73" d="M163.539 91.6729C163.539 91.6729 163.35 92.4415 163.3 92.5591C163.25 92.6767 163.926 93.4285 163.829 93.7729C163.733 94.1173 164.514 95.0329 164.514 95.0329" stroke="#1F2937" stroke-width="0.42" stroke-linecap="round" stroke-linejoin="round"/>
            <path id="Vector_74" d="M162.775 92.56C162.191 92.2793 161.63 91.955 161.095 91.5898" stroke="#1F2937" stroke-width="0.42" stroke-linecap="round" stroke-linejoin="round"/>
            <path id="Vector_75" d="M161.15 73.433L162.603 76.3604L168.575 73.0508L169.89 75.9824L163.796 79.8506L162.624 76.8224L160.255 79.103L159.453 75.4154L161.15 73.433Z" fill="#1F2937" stroke="#1F2937" stroke-width="0.42" stroke-linecap="round" stroke-linejoin="round"/>
            <g id="Vector_76">
                <path d="M179.726 80.0352C181.175 81.585 186.329 92.9502 186.824 100.271H171.125V99.6156L169.411 98.6118C169.411 98.6118 170.474 94.8738 173.502 95.4576L174.384 96.7176L176.337 98.1876C176.337 98.1876 179.764 98.2758 180.759 99.2628" fill="#1F2937"/>
                <path d="M179.726 80.0352C181.175 81.585 186.329 92.9502 186.824 100.271H171.125V99.6156L169.411 98.6118C169.411 98.6118 170.474 94.8738 173.502 95.4576L174.384 96.7176L176.337 98.1876C176.337 98.1876 179.764 98.2758 180.759 99.2628" stroke="#4B5563" stroke-width="0.42" stroke-linecap="round" stroke-linejoin="round"/>
            </g>
            <g id="Vector_77">
                <path d="M176.337 98.2041C176.337 98.2041 178.24 95.4615 181.037 96.6207L176.337 98.2041Z" fill="#374151"/>
                <path d="M176.337 98.2041C176.337 98.2041 178.24 95.4615 181.037 96.6207" stroke="#4B5563" stroke-width="0.42" stroke-linecap="round" stroke-linejoin="round"/>
            </g>
            <g id="Vector_78">
                <path d="M175.61 93.7734C176.221 94.907 176.765 96.0752 177.24 97.272L175.61 93.7734Z" fill="#374151"/>
                <path d="M175.61 93.7734C176.221 94.907 176.765 96.0752 177.24 97.272" stroke="#4B5563" stroke-width="0.42" stroke-linecap="round" stroke-linejoin="round"/>
            </g>
            <g id="Vector_79">
                <path d="M149.856 89.5599C149.856 89.5599 148.693 82.7811 149.016 80.4375L149.856 89.5599Z" fill="#374151"/>
                <path d="M149.856 89.5599C149.856 89.5599 148.693 82.7811 149.016 80.4375" stroke="#4B5563" stroke-width="0.42" stroke-linecap="round" stroke-linejoin="round"/>
            </g>
            <g id="Vector_80">
                <path d="M147.529 83.0801C147.529 83.0801 148.176 86.4107 149.629 88.1957L147.529 83.0801Z" fill="#374151"/>
                <path d="M147.529 83.0801C147.529 83.0801 148.176 86.4107 149.629 88.1957" stroke="#4B5563" stroke-width="0.42" stroke-linecap="round" stroke-linejoin="round"/>
            </g>
            <g id="Vector_81">
                <path d="M137.894 83.6631C137.894 83.6631 139.721 85.1751 138.558 88.9467L137.894 83.6631Z" fill="#374151"/>
                <path d="M137.894 83.6631C137.894 83.6631 139.721 85.1751 138.558 88.9467" stroke="#4B5563" stroke-width="0.42" stroke-linecap="round" stroke-linejoin="round"/>
            </g>
            <path id="Vector_82" d="M162.116 79.2178L162.116 79.22C162.116 79.2567 162.105 79.2925 162.085 79.3229C162.064 79.3533 162.035 79.377 162.001 79.3909C161.967 79.4048 161.93 79.4084 161.894 79.4011C161.858 79.3938 161.825 79.376 161.8 79.35C161.774 79.3239 161.756 79.2908 161.75 79.2548C161.743 79.2189 161.747 79.1816 161.761 79.1479C161.775 79.1142 161.799 79.0855 161.83 79.0654C161.86 79.0453 161.896 79.0348 161.933 79.0352L161.933 79.0352L161.935 79.0352C161.959 79.0352 161.983 79.04 162.005 79.0492C162.027 79.0584 162.047 79.0718 162.064 79.0888C162.08 79.1058 162.094 79.1259 162.103 79.1481C162.112 79.1702 162.116 79.1939 162.116 79.2178Z" fill="#374151" stroke="#4B5563" stroke-width="0.42"/>
            <path id="Vector_83" d="M161.477 84.6048C161.477 84.7068 161.395 84.7896 161.293 84.7896C161.19 84.7896 161.108 84.7068 161.108 84.6048C161.108 84.5027 161.19 84.42 161.293 84.42C161.395 84.42 161.477 84.5027 161.477 84.6048Z" fill="#374151" stroke="#4B5563" stroke-width="0.42"/>
            <path id="Vector_84" d="M160.881 96.7298C160.881 96.8318 160.798 96.9146 160.696 96.9146C160.594 96.9146 160.511 96.8318 160.511 96.7298C160.511 96.6277 160.594 96.545 160.696 96.545C160.798 96.545 160.881 96.6277 160.881 96.7298Z" fill="#374151" stroke="#4B5563" stroke-width="0.42"/>
            <path id="Vector_85" d="M109.595 61.1015H114.542L117.02 56.8133L114.542 52.5293H109.595L107.121 56.8133L109.595 61.1015Z" stroke="#1F2937" stroke-width="0.42" stroke-linecap="round" stroke-linejoin="round"/>
            <path id="Vector_86" d="M108.876 70.5018L106.403 66.2178H101.455" stroke="#1F2937" stroke-width="0.42" stroke-linecap="round" stroke-linejoin="round"/>
            <path id="Vector_87" d="M102.119 56.8124H107.067L109.54 52.5284L107.067 48.2402H102.119L99.6451 52.5284L102.119 56.8124Z" stroke="#1F2937" stroke-width="0.42" stroke-linecap="round" stroke-linejoin="round"/>
            <path id="Vector_88" d="M109.595 52.5292H114.543L117.021 48.241L114.543 43.957H109.595L107.121 48.241L109.595 52.5292Z" stroke="#1F2937" stroke-width="0.42" stroke-linecap="round" stroke-linejoin="round"/>
            <path id="Vector_89" d="M108.877 52.5304C108.876 52.398 108.914 52.2683 108.987 52.1578C109.06 52.0473 109.165 51.9611 109.287 51.91C109.409 51.859 109.544 51.8454 109.674 51.871C109.804 51.8967 109.923 51.9603 110.017 52.054C110.11 52.1476 110.174 52.267 110.199 52.3969C110.225 52.5269 110.212 52.6615 110.16 52.7837C110.109 52.9059 110.023 53.0101 109.913 53.0832C109.802 53.1563 109.673 53.1948 109.54 53.194C109.364 53.194 109.195 53.1241 109.071 52.9996C108.946 52.8752 108.877 52.7064 108.877 52.5304Z" fill="#1F2937"/>
            <path id="Vector_90" d="M99.2082 44.1973C99.5747 44.1973 99.8718 43.9002 99.8718 43.5337C99.8718 43.1672 99.5747 42.8701 99.2082 42.8701C98.8417 42.8701 98.5446 43.1672 98.5446 43.5337C98.5446 43.9002 98.8417 44.1973 99.2082 44.1973Z" fill="#1F2937"/>
            <path id="Vector_91" d="M108.213 70.5005C108.213 70.3693 108.252 70.241 108.325 70.1318C108.398 70.0227 108.501 69.9377 108.623 69.8874C108.744 69.8372 108.877 69.8241 109.006 69.8497C109.135 69.8753 109.253 69.9385 109.346 70.0313C109.439 70.1241 109.502 70.2423 109.527 70.3711C109.553 70.4998 109.54 70.6332 109.49 70.7545C109.439 70.8757 109.354 70.9794 109.245 71.0523C109.136 71.1252 109.008 71.1641 108.877 71.1641C108.701 71.1641 108.532 71.0942 108.407 70.9698C108.283 70.8453 108.213 70.6765 108.213 70.5005Z" fill="#1F2937"/>
            <path id="Vector_92" d="M101.455 66.8809C101.822 66.8809 102.119 66.5838 102.119 66.2173C102.119 65.8508 101.822 65.5537 101.455 65.5537C101.089 65.5537 100.791 65.8508 100.791 66.2173C100.791 66.5838 101.089 66.8809 101.455 66.8809Z" fill="#1F2937"/>
            <path id="Vector_93" d="M121.8 48.3533C121.8 48.2211 121.839 48.0918 121.913 47.9819C121.986 47.872 122.091 47.7864 122.213 47.736C122.335 47.6856 122.47 47.6726 122.6 47.6987C122.729 47.7248 122.848 47.7888 122.941 47.8826C123.035 47.9764 123.098 48.0958 123.123 48.2256C123.149 48.3555 123.135 48.4899 123.084 48.6118C123.032 48.7338 122.946 48.8378 122.836 48.9106C122.725 48.9835 122.596 49.022 122.464 49.0211C122.376 49.0211 122.289 49.0038 122.209 48.9702C122.128 48.9366 122.055 48.8874 121.993 48.8253C121.931 48.7632 121.882 48.6896 121.849 48.6086C121.816 48.5276 121.799 48.4408 121.8 48.3533Z" fill="#1F2937"/>
            <path id="Vector_94" d="M106.352 66.8809C106.719 66.8809 107.016 66.5838 107.016 66.2173C107.016 65.8508 106.719 65.5537 106.352 65.5537C105.986 65.5537 105.689 65.8508 105.689 66.2173C105.689 66.5838 105.986 66.8809 106.352 66.8809Z" fill="#1F2937"/>
            <path id="Vector_95" d="M116.34 48.3533C116.34 48.2213 116.379 48.0922 116.453 47.9823C116.526 47.8725 116.63 47.7869 116.752 47.7364C116.874 47.6858 117.009 47.6726 117.138 47.6984C117.268 47.7241 117.387 47.7877 117.48 47.8811C117.573 47.9745 117.637 48.0935 117.663 48.2231C117.688 48.3526 117.675 48.4869 117.625 48.6089C117.574 48.7309 117.489 48.8352 117.379 48.9086C117.269 48.982 117.14 49.0211 117.008 49.0211C116.831 49.0211 116.661 48.9508 116.536 48.8256C116.41 48.7003 116.34 48.5305 116.34 48.3533Z" fill="#1F2937"/>
            <path id="Vector_96" d="M108.877 61.1027C108.876 60.9702 108.914 60.8405 108.987 60.7301C109.06 60.6196 109.165 60.5334 109.287 60.4823C109.409 60.4312 109.544 60.4177 109.674 60.4433C109.804 60.4689 109.923 60.5326 110.017 60.6263C110.11 60.7199 110.174 60.8393 110.199 60.9692C110.225 61.0991 110.212 61.2338 110.16 61.356C110.109 61.4781 110.023 61.5824 109.913 61.6555C109.802 61.7285 109.673 61.7671 109.54 61.7663C109.364 61.7652 109.196 61.6949 109.072 61.5707C108.948 61.4465 108.878 61.2783 108.877 61.1027Z" fill="#1F2937"/>
            <path id="Vector_97" d="M117.02 48.3555H122.468" stroke="#1F2937" stroke-width="0.42" stroke-linecap="round" stroke-linejoin="round"/>
            <path id="Vector_98" d="M109.54 61.1025L106.352 66.2181" stroke="#1F2937" stroke-width="0.42" stroke-linecap="round" stroke-linejoin="round"/>
            <path id="Vector_99" d="M102.119 48.2414L99.2082 43.5332" stroke="#1F2937" stroke-width="0.42" stroke-linecap="round" stroke-linejoin="round"/>
            <path id="Vector_100" d="M96.4151 81.8111C96.8611 81.4095 97.3617 81.073 97.9019 80.8115C97.9237 80.9464 97.9964 81.0677 98.1051 81.1505C98.2137 81.2334 98.3499 81.2714 98.4857 81.2567C98.7839 81.2105 99.1199 80.9165 99.3257 81.1307C99.4097 81.2147 99.4265 81.3491 99.5147 81.4289C99.7835 81.6767 100.241 81.1433 100.544 81.3449C100.624 81.3995 100.666 81.4919 100.75 81.5465C100.816 81.5752 100.887 81.59 100.96 81.59C101.032 81.59 101.103 81.5752 101.17 81.5465C101.92 81.3756 102.69 81.3091 103.459 81.3491L106.982 81.3743L106.714 81.2357" stroke="#1F2937" stroke-width="0.42" stroke-linecap="round" stroke-linejoin="round"/>
            <path id="Vector_101" d="M96.2262 84.752C96.2556 84.614 96.3323 84.4906 96.443 84.4032C96.5538 84.3158 96.6916 84.2698 96.8327 84.2733C96.9738 84.2768 97.1092 84.3295 97.2155 84.4223C97.3218 84.5151 97.3923 84.6421 97.4148 84.7814C97.5021 84.7407 97.58 84.6824 97.6436 84.6101C97.7072 84.5378 97.7551 84.4532 97.7844 84.3614C98.0112 84.8696 98.7126 84.9116 99.2712 84.8738L101.762 84.6974C102.509 84.6428 103.383 84.5084 103.719 83.8574C104.088 84.5312 104.235 85.3044 104.139 86.0666C104.37 85.5179 104.671 85.0013 105.034 84.5294C105.109 84.7982 105.185 85.067 105.256 85.3358C106.991 84.122 109.364 84.9158 111.464 84.6512" stroke="#1F2937" stroke-width="0.42" stroke-linecap="round" stroke-linejoin="round"/>
            <path id="Vector_102" d="M96.4487 88.6456C96.4408 88.5684 96.4617 88.4909 96.5074 88.4281C96.5532 88.3653 96.6205 88.3216 96.6965 88.3054C96.72 88.3816 96.7589 88.4522 96.8107 88.5127C96.8625 88.5733 96.9262 88.6226 96.9978 88.6577C97.0695 88.6927 97.1475 88.7127 97.2271 88.7164C97.3068 88.7201 97.3863 88.7075 97.4609 88.6792C97.7606 88.5534 98.0174 88.3433 98.2001 88.0744C98.2627 88.1253 98.3354 88.1621 98.4134 88.1826C98.4914 88.2031 98.5729 88.2067 98.6524 88.1932C98.7319 88.1796 98.8076 88.1493 98.8745 88.1042C98.9413 88.0591 98.9978 88.0003 99.0401 87.9316C99.2275 88.2351 99.3824 88.5575 99.5021 88.8934C99.7289 88.3138 100.497 88.2214 101.123 88.2256H106.163" stroke="#1F2937" stroke-width="0.42" stroke-linecap="round" stroke-linejoin="round"/>
            <path id="Vector_103" d="M135.408 42.9333C134.205 42.9041 133.025 43.2683 132.048 43.9707C130.839 44.7435 129.688 46.0455 129.99 47.4483C130.293 48.8511 131.947 49.5945 133.405 49.8759C134.658 50.1199 135.933 50.2326 137.21 50.2119C137.702 50.2193 138.192 50.1671 138.672 50.0565C139.156 49.9193 139.626 49.735 140.074 49.5063L143.325 47.9775C143.77 47.7675 144.27 47.4987 144.392 47.0199C144.543 46.4277 144.035 45.8775 143.552 45.5205C141.727 44.2155 139.477 43.6484 137.252 43.9329" stroke="#1F2937" stroke-width="0.42" stroke-linecap="round" stroke-linejoin="round"/>
            <path id="Vector_104" d="M131.548 46.0727C131.739 45.8581 131.987 45.701 132.262 45.6191C132.208 45.7798 132.208 45.9541 132.262 46.1147C132.338 46.2659 132.569 46.3415 132.682 46.2155C132.796 46.0895 132.821 45.8879 132.947 45.9509L133.098 46.2869C133.304 46.2155 133.464 46.0475 133.665 45.9593C133.895 45.8823 134.139 45.8593 134.379 45.8921C136.182 45.9847 137.99 45.9299 139.785 45.7283" stroke="#1F2937" stroke-width="0.42" stroke-linecap="round" stroke-linejoin="round"/>
            <path id="Vector_105" d="M134.488 47.8805C134.514 47.7947 134.56 47.7162 134.622 47.6513C134.684 47.5864 134.761 47.5369 134.845 47.5067C134.749 47.6117 134.866 47.7923 135.009 47.8175C135.154 47.8202 135.297 47.79 135.429 47.7293C135.588 47.6882 135.752 47.6657 135.916 47.6621L138.978 47.4521" stroke="#1F2937" stroke-width="0.42" stroke-linecap="round" stroke-linejoin="round"/>
            <path id="Vector_106" d="M135.795 52.1475C134.909 55.3045 133.072 58.112 130.534 60.1883C127.997 62.2647 124.881 63.509 121.611 63.7521" stroke="#1F2937" stroke-width="0.42" stroke-linecap="round" stroke-linejoin="round"/>
            <path id="Vector_107" d="M121.661 62.8398C121.067 63.2068 120.538 63.6695 120.095 64.209C120.357 64.1541 120.629 64.173 120.881 64.2634C121.133 64.3539 121.355 64.5124 121.523 64.7214" stroke="#1F2937" stroke-width="0.42" stroke-linecap="round" stroke-linejoin="round"/>
            <path id="Vector_108" d="M134.786 63.8408L135.169 64.6808L135.715 64.034C135.817 64.1102 135.888 64.2205 135.916 64.3448C135.958 64.4624 136.021 64.5926 136.139 64.6262C136.256 64.6598 136.403 64.5002 136.315 64.412C136.392 64.4643 136.48 64.4993 136.572 64.5145C136.664 64.5298 136.759 64.5249 136.849 64.5002C136.928 64.5002 137 64.4414 137.08 64.4204C137.175 64.3996 137.272 64.3911 137.369 64.3952H143.044" stroke="#1F2937" stroke-width="0.42" stroke-linecap="round" stroke-linejoin="round"/>
            <path id="Vector_109" d="M135.051 68.4604C135.077 68.3931 135.121 68.3339 135.178 68.2885C135.234 68.243 135.301 68.2129 135.372 68.2011C135.444 68.1893 135.517 68.1961 135.585 68.2209C135.653 68.2457 135.714 68.2877 135.761 68.3428C135.779 68.3966 135.808 68.4464 135.845 68.4898C135.895 68.5255 135.957 68.541 136.019 68.5332C136.08 68.5254 136.136 68.495 136.176 68.4478C136.269 68.3638 136.328 68.2504 136.424 68.1748C136.689 67.969 137.067 68.1286 137.39 68.2168C137.804 68.3034 138.229 68.3261 138.65 68.284L141.872 68.116" stroke="#1F2937" stroke-width="0.42" stroke-linecap="round" stroke-linejoin="round"/>
            <path id="Vector_110" d="M135.152 72.0303C135.259 72.0331 135.364 71.9999 135.45 71.9359C135.536 71.8719 135.598 71.7809 135.626 71.6775C135.68 71.6865 135.729 71.7113 135.768 71.7488C135.807 71.7862 135.834 71.8346 135.845 71.8875C135.999 71.7921 136.131 71.6646 136.231 71.5137C138.306 71.5389 140.383 71.5389 142.464 71.5137" stroke="#1F2937" stroke-width="0.42" stroke-linecap="round" stroke-linejoin="round"/>
            <path id="Vector_111" d="M135.147 74.6973C135.276 74.7504 135.42 74.7541 135.551 74.7076C135.682 74.661 135.791 74.5676 135.857 74.4453C135.989 74.552 136.081 74.7 136.118 74.8653C136.2 74.8092 136.294 74.771 136.392 74.7529C136.491 74.7348 136.592 74.7373 136.689 74.7603C136.769 74.7603 136.848 74.8149 136.928 74.8359C137.13 74.8875 137.338 74.906 137.546 74.8905L144.786 74.7855" stroke="#1F2937" stroke-width="0.42" stroke-linecap="round" stroke-linejoin="round"/>
            <path id="Vector_112" d="M115.706 91.6775L118.994 91.3584C119.026 91.3626 119.059 91.3587 119.089 91.347C119.119 91.3354 119.146 91.3164 119.167 91.2917C119.188 91.267 119.202 91.2376 119.209 91.2059C119.215 91.1743 119.214 91.1415 119.204 91.1105V89.0105C119.212 88.9408 119.194 88.8705 119.154 88.8132C119.127 88.7885 119.095 88.7695 119.06 88.7572C119.026 88.745 118.989 88.7397 118.952 88.7417C118.238 88.6787 116.63 88.3218 116.012 88.8048C115.395 89.2878 115.71 90.9593 115.706 91.6775Z" stroke="#1F2937" stroke-width="0.42" stroke-linecap="round" stroke-linejoin="round"/>
            <path id="Vector_113" d="M116.647 89.8047C116.689 90.0021 116.726 90.1995 116.768 90.4011C117.267 90.297 117.778 90.2701 118.285 90.3213" stroke="#1F2937" stroke-width="0.42" stroke-linecap="round" stroke-linejoin="round"/>
            <path id="Vector_114" d="M118.322 92.585C118.292 92.6323 118.275 92.6873 118.274 92.7437C118.273 92.8001 118.287 92.8557 118.316 92.9042C118.345 92.9527 118.387 92.9922 118.437 93.0182C118.487 93.0441 118.543 93.0556 118.6 93.0512C118.822 93.0092 118.999 92.711 119.204 92.8034" stroke="#1F2937" stroke-width="0.42" stroke-linecap="round" stroke-linejoin="round"/>
            <path id="Vector_115" d="M116.058 87.742C116.1 87.6795 116.159 87.6304 116.228 87.6007C116.297 87.5711 116.373 87.5622 116.447 87.5751C116.521 87.588 116.589 87.6222 116.644 87.6735C116.699 87.7247 116.738 87.7909 116.756 87.8638L117.545 87.7714" stroke="#1F2937" stroke-width="0.42" stroke-linecap="round" stroke-linejoin="round"/>
            <path id="Vector_116" d="M122.61 94.7063C123.73 94.7063 124.85 94.7063 125.97 94.7063C126.841 94.7178 127.711 94.6658 128.574 94.5509C128.671 94.5457 128.763 94.5071 128.835 94.4417C128.894 94.356 128.92 94.2512 128.906 94.1477V89.0405C128.906 88.9817 123.761 88.8179 123.161 89.2337C121.951 90.0821 122.61 93.4001 122.61 94.7063Z" stroke="#1F2937" stroke-width="0.42" stroke-linecap="round" stroke-linejoin="round"/>
            <path id="Vector_117" d="M124.433 90.5527L125.236 90.5737C125.091 91.1194 124.863 91.6394 124.559 92.1151C124.45 92.2621 124.32 92.4469 124.4 92.6107C124.82 92.6779 125.311 92.7157 125.576 92.3923C125.92 91.9723 125.618 91.3129 125.878 90.8425L125.979 91.8379L126.328 92.1697C126.418 92.2711 126.532 92.3489 126.659 92.3965C126.723 92.4187 126.793 92.4183 126.856 92.3954C126.919 92.3724 126.973 92.3284 127.008 92.2705" stroke="#1F2937" stroke-width="0.42" stroke-linecap="round" stroke-linejoin="round"/>
            <path id="Vector_118" d="M126.769 95.5621C127.033 95.4655 127.142 95.9611 127.415 96.0325C127.688 96.1039 127.835 95.7427 128.066 95.5831C128.176 95.5104 128.308 95.4798 128.439 95.4968C128.569 95.5137 128.689 95.5772 128.776 95.6755" stroke="#1F2937" stroke-width="0.42" stroke-linecap="round" stroke-linejoin="round"/>
            <path id="Vector_119" d="M124.602 87.4814C124.854 87.5444 124.753 87.9644 124.942 88.145C125.131 88.3256 125.446 88.1451 125.66 87.9729C125.874 87.8007 126.265 87.7251 126.344 87.9729" stroke="#1F2937" stroke-width="0.42" stroke-linecap="round" stroke-linejoin="round"/>
            <path id="Vector_120" d="M189.235 100.174H88.5865V107.28H189.235V100.174Z" fill="#D1D5DB" stroke="#1F2937" stroke-width="0.42" stroke-linecap="round" stroke-linejoin="round"/>
            <path id="Vector_121" d="M170.612 102.972H104.849V104.484H170.612V102.972Z" fill="#1F2937"/>
            <path id="Vector_122" d="M142.145 103.739C142.145 103.958 142.08 104.171 141.959 104.353C141.837 104.535 141.665 104.676 141.463 104.76C141.261 104.843 141.039 104.865 140.825 104.823C140.611 104.78 140.414 104.675 140.259 104.52C140.105 104.366 140 104.169 139.957 103.955C139.914 103.741 139.936 103.518 140.02 103.317C140.103 103.115 140.245 102.942 140.427 102.821C140.608 102.7 140.822 102.635 141.04 102.635C141.333 102.635 141.614 102.751 141.821 102.958C142.029 103.165 142.145 103.446 142.145 103.739Z" fill="#60A5FA" stroke="#1F2937" stroke-width="0.42" stroke-linecap="round" stroke-linejoin="round"/>
            <path id="Vector_123" d="M185.976 102.367H183.254V105.089H185.976V102.367Z" stroke="#1F2937" stroke-width="0.42" stroke-linecap="round" stroke-linejoin="round"/>
            <path id="Vector_124" d="M181.41 102.367H178.689V105.089H181.41V102.367Z" stroke="#1F2937" stroke-width="0.42" stroke-linecap="round" stroke-linejoin="round"/>
            <path id="Vector_125" d="M96.4447 102.337H91.7029V105.117H96.4447V102.337Z" stroke="#1F2937" stroke-width="0.42" stroke-linecap="round" stroke-linejoin="round"/>
            <path id="Vector_126" d="M91.648 34.168H109.54" stroke="white" stroke-width="0.42" stroke-linecap="round" stroke-linejoin="round"/>
            <path id="Vector_127" d="M186.686 34.1027C186.687 34.3116 186.625 34.516 186.51 34.69C186.394 34.864 186.23 34.9998 186.037 35.0801C185.844 35.1604 185.632 35.1816 185.427 35.1411C185.222 35.1005 185.034 35.0001 184.886 34.8524C184.739 34.7047 184.638 34.5165 184.598 34.3116C184.557 34.1067 184.578 33.8944 184.659 33.7016C184.739 33.5088 184.875 33.3442 185.049 33.2287C185.223 33.1131 185.427 33.0519 185.636 33.0527C185.914 33.0527 186.181 33.1634 186.378 33.3603C186.575 33.5572 186.686 33.8243 186.686 34.1027Z" stroke="white" stroke-width="0.42" stroke-linecap="round" stroke-linejoin="round"/>
            <path id="Vector_128" d="M182.532 34.1662C182.532 34.3739 182.47 34.5769 182.355 34.7496C182.24 34.9222 182.076 35.0568 181.884 35.1363C181.692 35.2158 181.481 35.2366 181.277 35.196C181.074 35.1555 180.886 35.0555 180.74 34.9087C180.593 34.7618 180.493 34.5747 180.452 34.3711C180.412 34.1674 180.432 33.9563 180.512 33.7644C180.591 33.5725 180.726 33.4085 180.899 33.2932C181.071 33.1778 181.274 33.1162 181.482 33.1162C181.761 33.1162 182.028 33.2268 182.224 33.4237C182.421 33.6207 182.532 33.8877 182.532 34.1662Z" stroke="white" stroke-width="0.42" stroke-linecap="round" stroke-linejoin="round"/>
            <path id="Vector_129" d="M178.378 34.2339C178.377 34.4414 178.315 34.644 178.199 34.8161C178.083 34.9882 177.919 35.1221 177.727 35.201C177.535 35.2798 177.324 35.3 177.121 35.259C176.917 35.218 176.731 35.1177 176.584 34.9707C176.438 34.8237 176.338 34.6366 176.298 34.433C176.258 34.2294 176.279 34.0185 176.359 33.8269C176.438 33.6353 176.573 33.4715 176.745 33.3564C176.918 33.2412 177.121 33.1797 177.328 33.1797C177.466 33.1797 177.603 33.207 177.731 33.26C177.859 33.313 177.975 33.3908 178.072 33.4887C178.17 33.5867 178.247 33.7029 178.3 33.8308C178.352 33.9587 178.379 34.0956 178.378 34.2339Z" stroke="white" stroke-width="0.42" stroke-linecap="round" stroke-linejoin="round"/>
        </g>
        <g id="freepik--Character--inject-100">
            <path id="Vector_130" d="M98.6035 173.124H88.6579L83.2735 171.419L81.5935 170.886L81.1021 175.955L22.2097 176.064C22.2097 176.064 23.1085 173.796 24.5743 170.47C27.7369 163.292 33.5329 151.171 38.6023 146.219C42.7183 142.2 52.9999 142.086 52.9999 142.086C54.0496 141.39 55.2811 141.019 56.5405 141.02C58.4305 141.112 72.7189 142.662 73.6051 143.12C74.2221 143.477 74.7515 143.968 75.1549 144.556C75.1549 144.556 80.1613 142.343 85.0795 144.338C89.9977 146.333 98.6035 173.124 98.6035 173.124Z" fill="#D1D5DB"/>
            <g id="Clip path group_2">
                <mask id="mask1_267_3197" style="mask-type:luminance" maskUnits="userSpaceOnUse" x="22" y="141" width="77" height="36">
                    <g id="freepik--clip-path-2--inject-100">
                        <path id="Vector_131" d="M98.604 173.125H88.6584L83.274 171.42L81.594 170.887L81.1026 175.956L22.2102 176.065C22.2102 176.065 23.109 173.797 24.5748 170.471C27.7374 163.293 33.5334 151.172 38.6028 146.22C42.7188 142.201 53.0004 142.087 53.0004 142.087C54.05 141.391 55.2816 141.02 56.541 141.021C58.431 141.113 72.7194 142.663 73.6056 143.121C74.2225 143.478 74.752 143.969 75.1554 144.557C75.1554 144.557 80.1618 142.344 85.08 144.339C89.9982 146.334 98.604 173.125 98.604 173.125Z" fill="white"/>
                    </g>
                </mask>
                <g mask="url(#mask1_267_3197)">
                    <g id="Group_2">
                        <path id="Vector_132" opacity="0.2" d="M83.274 171.419L81.594 170.886L81.1026 175.955L22.2102 176.064C22.2102 176.064 23.109 173.796 24.5748 170.47C26.847 170.415 29.409 170.298 29.409 170.298L30.7278 165.984C30.7278 165.984 32.7984 163.796 35.3856 165.086C35.2993 164.759 35.3173 164.414 35.437 164.098C35.5568 163.783 35.7723 163.513 36.0534 163.326C37.053 162.662 41.1522 164.792 41.1522 164.792C41.1522 164.792 43.1262 161.012 43.7982 158.538C44.4702 156.064 44.9154 162.036 44.9154 162.036C44.9154 162.036 46.5954 159.29 46.5954 158.538C46.5954 157.786 49.695 165.984 49.695 165.984C49.695 165.984 53.7942 166.476 54.903 166.896C56.0118 167.316 67.0494 167.736 70.6026 166.896C74.1558 166.056 68.0826 171.096 68.0826 171.096C68.0826 171.096 74.3238 173.196 77.8518 171.818C81.3798 170.441 82.959 168.966 82.959 168.966C82.959 168.966 83.0892 169.987 83.274 171.419Z" fill="black" fill-opacity="0.7"/>
                    </g>
                </g>
            </g>
            <path id="Vector_133" d="M98.6035 173.124H88.6579L83.2735 171.419L81.5935 170.886L81.1021 175.955L22.2097 176.064C22.2097 176.064 23.1085 173.796 24.5743 170.47C27.7369 163.292 33.5329 151.171 38.6023 146.219C42.7183 142.2 52.9999 142.086 52.9999 142.086C54.0496 141.39 55.2811 141.019 56.5405 141.02C58.4305 141.112 72.7189 142.662 73.6051 143.12C74.2221 143.477 74.7515 143.968 75.1549 144.556C75.1549 144.556 80.1613 142.343 85.0795 144.338C89.9977 146.333 98.6035 173.124 98.6035 173.124Z" stroke="#1F2937" stroke-width="0.42" stroke-linecap="round" stroke-linejoin="round"/>
            <path id="Vector_134" d="M80.0309 160.172C79.1563 161.405 78.1585 162.546 77.0531 163.578" stroke="#1F2937" stroke-width="0.42" stroke-linecap="round" stroke-linejoin="round"/>
            <path id="Vector_135" d="M74.1425 166.025C69.8636 169.186 64.8346 171.177 59.5517 171.8" stroke="#1F2937" stroke-width="0.42" stroke-linecap="round" stroke-linejoin="round"/>
            <path id="Vector_136" d="M92.5344 164.594C92.5344 164.594 94.0632 163.645 95.403 163.956C96.7428 164.267 97.8516 165.59 97.8516 165.59C97.8516 165.59 108.973 164.67 111.497 164.75C114.022 164.829 119.671 166.484 119.671 166.484C119.671 166.484 122.409 165.93 122.703 166.043C122.997 166.157 122.111 175.476 122.111 175.476H85.9908C84.2184 175.476 82.9038 172.91 81.5724 170.894C83.8661 162.872 85.0392 154.571 85.0584 146.228" fill="#D1D5DB"/>
            <g id="Clip path group_3">
                <mask id="mask2_267_3197" style="mask-type:luminance" maskUnits="userSpaceOnUse" x="81" y="146" width="42" height="30">
                    <g id="freepik--clip-path-3--inject-100">
                        <path id="Vector_137" d="M92.5344 164.594C92.5344 164.594 94.0632 163.645 95.403 163.956C96.7428 164.267 97.8516 165.59 97.8516 165.59C97.8516 165.59 108.973 164.67 111.497 164.75C114.022 164.829 119.671 166.484 119.671 166.484C119.671 166.484 122.409 165.93 122.703 166.043C122.997 166.157 122.111 175.476 122.111 175.476H85.9908C84.2184 175.476 82.9038 172.91 81.5724 170.894C83.8661 162.872 85.0392 154.571 85.0584 146.228" fill="white"/>
                    </g>
                </mask>
                <g mask="url(#mask2_267_3197)">
                    <g id="Group_3">
                        <path id="Vector_138" opacity="0.2" d="M102.447 175.468H85.9994C84.227 175.468 82.9124 172.902 81.581 170.886C82.8979 166.36 83.8349 161.732 84.3824 157.051C84.3824 157.051 86.1296 159.642 85.067 162.645L86.1296 159.642C86.1296 159.642 87.1502 162.859 86.1296 165.585C85.109 168.311 84.3824 169.092 84.3824 169.092C84.3824 169.092 85.6424 170.739 86.978 170.298C88.3136 169.857 89.7668 172.528 89.7668 172.528C89.7668 172.528 92.9756 172.65 93.6434 172.528C93.95 172.473 98.1038 173.905 102.447 175.468Z" fill="black" fill-opacity="0.7"/>
                    </g>
                </g>
            </g>
            <path id="Vector_139" d="M92.5344 164.594C92.5344 164.594 94.0632 163.645 95.403 163.956C96.7428 164.267 97.8516 165.59 97.8516 165.59C97.8516 165.59 108.973 164.67 111.497 164.75C114.022 164.829 119.671 166.484 119.671 166.484C119.671 166.484 122.409 165.93 122.703 166.043C122.997 166.157 122.111 175.476 122.111 175.476H85.9908C84.2184 175.476 82.9038 172.91 81.5724 170.894C83.8661 162.872 85.0392 154.571 85.0584 146.228" stroke="#1F2937" stroke-width="0.42" stroke-linecap="round" stroke-linejoin="round"/>
            <path id="Vector_140" d="M71.8872 135.571V144.542C70.7499 145.317 69.5723 146.031 68.3592 146.68C65.9106 147.978 62.769 149.263 60.9 148.532C57.5106 147.201 55.314 142.085 55.314 142.085C58.9722 139.297 59.4132 135.571 59.9676 133.799L71.8872 135.571Z" fill="white" stroke="#1F2937" stroke-width="0.42" stroke-linecap="round" stroke-linejoin="round"/>
            <path id="Vector_141" d="M53.5415 142.771C53.5415 142.771 56.6453 149.528 60.4127 150.751C64.1801 151.973 70.5599 147.202 70.5599 147.202" stroke="#1F2937" stroke-width="0.42" stroke-linecap="round" stroke-linejoin="round"/>
            <path id="Vector_142" d="M36.5945 150.948C36.5945 150.948 42.4745 155.526 43.4615 157.068C44.4485 158.609 43.4615 173.124 43.4615 173.124" stroke="#1F2937" stroke-width="0.42" stroke-linecap="round" stroke-linejoin="round"/>
            <g id="Vector_143">
                <path d="M28.5894 165.718C32.0544 163.484 34.4904 165.928 36.5946 166.369C38.6988 166.81 43.3524 164.433 46.8426 166.369C50.3328 168.306 50.3328 167.629 50.3328 167.629C50.3328 167.629 53.9868 170.418 52.101 176L22.197 176.055C22.197 176.055 20.202 171.792 26.7582 165.71" fill="#D1D5DB"/>
                <path d="M28.5894 165.718C32.0544 163.484 34.4904 165.928 36.5946 166.369C38.6988 166.81 43.3524 164.433 46.8426 166.369C50.3328 168.306 50.3328 167.629 50.3328 167.629C50.3328 167.629 53.9868 170.418 52.101 176L22.197 176.055C22.197 176.055 20.202 171.792 26.7582 165.71" stroke="#1F2937" stroke-width="0.42" stroke-linecap="round" stroke-linejoin="round"/>
            </g>
            <path id="Vector_144" d="M57.8929 157.079L65.7847 171.515L66.0325 173.136L64.7725 172.015L56.6329 157.684C56.7526 157.464 56.9388 157.287 57.165 157.178C57.3912 157.069 57.6459 157.035 57.8929 157.079Z" fill="#60A5FA" stroke="#1F2937" stroke-width="0.42" stroke-linecap="round" stroke-linejoin="round"/>
            <path id="Vector_145" d="M50.3999 168.386C50.9959 168.213 51.6081 168.102 52.2269 168.054C52.8947 168.054 57.0023 165.017 58.3967 164.791C59.7911 164.564 62.2985 166.643 63.5753 166.975C64.8521 167.306 64.7723 168.97 65.5199 169.633C66.2675 170.297 65.1881 171.044 64.2599 170.297C64.3262 170.556 64.3303 170.828 64.2719 171.089C64.2135 171.35 64.0943 171.594 63.9239 171.8C63.9239 171.8 64.1759 172.708 63.9239 173.123H49.1399C49.1399 173.123 48.9173 170.297 50.3999 168.386Z" fill="white" stroke="#1F2937" stroke-width="0.42" stroke-linecap="round" stroke-linejoin="round"/>
            <path id="Vector_146" d="M64.2893 170.297L62.9579 168.983L59.5517 167.891" stroke="#1F2937" stroke-width="0.42" stroke-linecap="round" stroke-linejoin="round"/>
            <path id="Vector_147" d="M63.9576 171.802L61.9206 170.886L59.136 170.361" stroke="#1F2937" stroke-width="0.42" stroke-linecap="round" stroke-linejoin="round"/>
            <path id="Vector_148" d="M59.1359 172.528L61.9205 172.654L63.9575 173.125" stroke="#1F2937" stroke-width="0.42" stroke-linecap="round" stroke-linejoin="round"/>
            <path id="Vector_149" d="M58.4093 164.791C57.1493 165.896 58.4093 167.059 57.8087 167.891C57.2081 168.722 56.5487 168.97 57.0611 170.297" stroke="#1F2937" stroke-width="0.42" stroke-linecap="round" stroke-linejoin="round"/>
            <path id="Vector_150" d="M76.3895 173.825H143.665C143.665 174.419 143.429 174.988 143.009 175.408C142.59 175.828 142.02 176.064 141.426 176.064H81.7865C81.5526 176.063 81.3202 176.027 81.0977 175.955L76.3055 174.409C76.2371 174.388 76.1783 174.344 76.1399 174.284C76.1015 174.224 76.0859 174.152 76.0961 174.081C76.1063 174.01 76.1415 173.946 76.1953 173.899C76.2492 173.852 76.3181 173.826 76.3895 173.825Z" fill="#60A5FA"/>
            <g id="Clip path group_4">
                <mask id="mask3_267_3197" style="mask-type:luminance" maskUnits="userSpaceOnUse" x="76" y="173" width="68" height="4">
                    <g id="freepik--clip-path-4--inject-100">
                        <path id="Vector_151" d="M76.3898 173.825H143.665C143.665 174.419 143.43 174.988 143.01 175.408C142.59 175.828 142.021 176.064 141.427 176.064H81.7868C81.5529 176.063 81.3205 176.027 81.098 175.955L76.3058 174.409C76.2374 174.388 76.1786 174.344 76.1402 174.284C76.1018 174.224 76.0862 174.152 76.0964 174.081C76.1066 174.01 76.1418 173.946 76.1956 173.899C76.2495 173.852 76.3184 173.826 76.3898 173.825Z" fill="white"/>
                    </g>
                </mask>
                <g mask="url(#mask3_267_3197)">
                    <g id="Group_4">
                        <path id="Vector_152" opacity="0.2" d="M143.665 173.825C143.664 174.419 143.429 174.988 143.01 175.409L142.943 175.467C142.531 175.851 141.989 176.064 141.427 176.064H81.7866C81.5527 176.063 81.3203 176.027 81.0978 175.955L76.3056 174.409C76.2364 174.388 76.1771 174.343 76.1387 174.282C76.1002 174.221 76.0852 174.148 76.0965 174.077C76.1078 174.005 76.1446 173.941 76.2 173.894C76.2555 173.848 76.3258 173.824 76.398 173.825H143.665Z" fill="black" fill-opacity="0.7"/>
                        <path id="Vector_153" opacity="0.2" d="M143.665 173.825C143.665 174.419 143.429 174.988 143.01 175.409L142.943 175.467H104.45C104.014 175.467 103.596 175.295 103.287 174.987C102.979 174.679 102.805 174.261 102.804 173.825H143.665Z" fill="black" fill-opacity="0.7"/>
                    </g>
                </g>
            </g>
            <path id="Vector_154" d="M76.3895 173.825H143.665C143.665 174.419 143.429 174.988 143.009 175.408C142.59 175.828 142.02 176.064 141.426 176.064H81.7865C81.5526 176.063 81.3202 176.027 81.0977 175.955L76.3055 174.409C76.2371 174.388 76.1783 174.344 76.1399 174.284C76.1015 174.224 76.0859 174.152 76.0961 174.081C76.1063 174.01 76.1415 173.946 76.1953 173.899C76.2492 173.852 76.3181 173.826 76.3895 173.825Z" stroke="#1F2937" stroke-width="0.42" stroke-linecap="round" stroke-linejoin="round"/>
            <path id="Vector_155" d="M102.803 173.825C102.804 174.261 102.978 174.679 103.287 174.987C103.596 175.295 104.014 175.467 104.45 175.467H110.838" stroke="#1F2937" stroke-width="0.42" stroke-linecap="round" stroke-linejoin="round"/>
            <path id="Vector_156" d="M155.707 146.209V146.264L147.878 173.501C147.761 173.851 147.541 174.157 147.246 174.378C146.951 174.599 146.596 174.726 146.227 174.74H105.445C105.291 174.752 105.136 174.726 104.994 174.662C104.853 174.599 104.73 174.501 104.636 174.378C104.542 174.254 104.481 174.109 104.458 173.956C104.435 173.803 104.451 173.647 104.504 173.501L112.325 146.264C112.441 145.914 112.661 145.608 112.956 145.386C113.251 145.165 113.607 145.039 113.975 145.025H154.757C154.907 145.012 155.058 145.036 155.196 145.095C155.334 145.154 155.455 145.246 155.549 145.363C155.643 145.48 155.707 145.619 155.734 145.766C155.762 145.914 155.752 146.066 155.707 146.209Z" fill="#60A5FA"/>
            <g id="Clip path group_5">
                <mask id="mask4_267_3197" style="mask-type:luminance" maskUnits="userSpaceOnUse" x="104" y="145" width="52" height="30">
                    <g id="freepik--clip-path-5--inject-100">
                        <path id="Vector_157" d="M155.706 146.208V146.262L147.878 173.499C147.761 173.849 147.54 174.155 147.246 174.376C146.951 174.598 146.595 174.724 146.227 174.738H105.445C105.291 174.75 105.136 174.724 104.994 174.66C104.853 174.597 104.73 174.499 104.636 174.376C104.542 174.252 104.481 174.107 104.458 173.954C104.435 173.801 104.451 173.645 104.504 173.499L112.325 146.262C112.441 145.912 112.661 145.606 112.956 145.384C113.251 145.163 113.607 145.037 113.975 145.023H154.757C154.907 145.01 155.057 145.034 155.196 145.093C155.334 145.152 155.455 145.244 155.549 145.361C155.643 145.478 155.707 145.617 155.734 145.765C155.761 145.912 155.752 146.064 155.706 146.208Z" fill="white"/>
                    </g>
                </mask>
                <g mask="url(#mask4_267_3197)">
                    <g id="Group_5">
                        <path id="Vector_158" opacity="0.4" d="M155.706 146.208V146.263L147.878 173.5C147.761 173.849 147.541 174.155 147.246 174.377C146.951 174.598 146.595 174.724 146.227 174.739H105.714V174.684L113.53 147.447C113.647 147.097 113.867 146.791 114.162 146.57C114.457 146.349 114.812 146.222 115.181 146.208H155.706Z" fill="white"/>
                    </g>
                </g>
            </g>
            <path id="Vector_159" d="M155.707 146.209V146.264L147.878 173.501C147.761 173.851 147.541 174.157 147.246 174.378C146.951 174.599 146.596 174.726 146.227 174.74H105.445C105.291 174.752 105.136 174.726 104.994 174.662C104.853 174.599 104.73 174.501 104.636 174.378C104.542 174.254 104.481 174.109 104.458 173.956C104.435 173.803 104.451 173.647 104.504 173.501L112.325 146.264C112.441 145.914 112.661 145.608 112.956 145.386C113.251 145.165 113.607 145.039 113.975 145.025H154.757C154.907 145.012 155.058 145.036 155.196 145.095C155.334 145.154 155.455 145.246 155.549 145.363C155.643 145.48 155.707 145.619 155.734 145.766C155.762 145.914 155.752 146.066 155.707 146.209Z" stroke="#1F2937" stroke-width="0.42" stroke-linecap="round" stroke-linejoin="round"/>
            <path id="Vector_160" d="M133.039 160.385C132.692 161.1 132.157 161.707 131.491 162.142C130.825 162.576 130.054 162.821 129.259 162.851C127.546 162.851 126.533 161.523 127.004 159.885C127.285 159.047 127.814 158.314 128.522 157.784C129.229 157.254 130.081 156.951 130.964 156.916H131.04C130.961 157.078 130.896 157.247 130.847 157.42C130.364 159.045 131.351 160.36 133.039 160.385Z" fill="white" stroke="#1F2937" stroke-width="0.42" stroke-linecap="round" stroke-linejoin="round"/>
            <path id="Vector_161" d="M105.924 173.405L113.555 146.819C113.623 146.615 113.752 146.437 113.924 146.308C114.095 146.179 114.302 146.105 114.517 146.097H154.047" stroke="#1F2937" stroke-width="0.42" stroke-linecap="round" stroke-linejoin="round"/>
            <path id="Vector_162" d="M86.9779 176.064H30.6979L31.3783 174.645C31.3783 174.645 36.6955 175.14 40.9081 173.826C42.7687 173.246 45.6331 172.986 48.5059 173.019C50.3161 173.045 54.7219 173.061 57.4561 173.049C58.4305 173.049 59.1949 173.049 59.5561 173.024C59.6947 173.024 59.8333 173.024 59.9761 173.024C60.7558 173.014 61.5344 173.087 62.2987 173.242C63.0362 173.159 63.7783 173.122 64.5205 173.133C65.8183 173.133 71.4001 173.112 72.9205 173.133C74.9239 173.158 77.2381 173.553 79.4347 173.855L79.4935 173.834V173.864C82.1479 174.233 84.6343 174.485 86.2135 173.834L86.9779 176.064Z" fill="white"/>
            <g id="Clip path group_6">
                <mask id="mask5_267_3197" style="mask-type:luminance" maskUnits="userSpaceOnUse" x="30" y="173" width="57" height="4">
                    <g id="freepik--clip-path-6--inject-100">
                        <path id="Vector_163" d="M86.9779 176.064H30.6979L31.3783 174.645C31.3783 174.645 36.6955 175.14 40.9081 173.826C42.7687 173.246 45.6331 172.986 48.5059 173.019C50.3161 173.045 54.7219 173.061 57.4561 173.049C58.4305 173.049 59.1949 173.049 59.5561 173.024C59.6947 173.024 59.8333 173.024 59.9761 173.024C60.7558 173.014 61.5344 173.087 62.2987 173.242C63.0362 173.159 63.7783 173.122 64.5205 173.133C65.8183 173.133 71.4001 173.112 72.9205 173.133C74.9239 173.158 77.2381 173.553 79.4347 173.855L79.4935 173.834V173.864C82.1479 174.233 84.6343 174.485 86.2135 173.834L86.9779 176.064Z" fill="white"/>
                    </g>
                </mask>
                <g mask="url(#mask5_267_3197)">
                    <g id="Group_6">
                        <path id="Vector_164" opacity="0.4" d="M86.9782 176.065H43.3528L44.239 174.54C44.239 174.54 46.6204 175.93 48.9472 174.96C51.274 173.99 53.6176 173.461 57.4564 173.041C58.2935 172.951 59.1372 172.94 59.9764 173.007C61.6474 173.135 63.2905 173.509 64.8526 174.116C64.8526 174.116 67.1416 173.116 72.9208 173.116C74.9242 173.141 77.2384 173.536 79.435 173.839L79.4938 173.818V173.847C82.1482 174.217 84.6346 174.469 86.2138 173.818L86.9782 176.065Z" fill="#60A5FA"/>
                        <path id="Vector_165" d="M44.239 174.54L31.3954 174.645L30.715 176.065H43.3528L44.239 174.54Z" fill="#60A5FA"/>
                        <path id="Vector_166" d="M43.7139 175.439L44.2389 174.54C45.3744 175.035 46.5998 175.289 47.8383 175.288C49.7199 175.233 52.6935 172.902 58.4097 173.016" stroke="#1F2937" stroke-width="0.42" stroke-linecap="round" stroke-linejoin="round"/>
                        <path id="Vector_167" d="M62.2864 173.234C63.3406 173.62 64.84 174.124 64.84 174.124C64.84 174.124 66.7804 173.007 71.0434 173.125" stroke="#1F2937" stroke-width="0.42" stroke-linecap="round" stroke-linejoin="round"/>
                        <path id="Vector_168" d="M44.2389 174.54C44.2389 174.54 37.5945 174.658 34.9359 174.716" stroke="#1F2937" stroke-width="0.42" stroke-linecap="round" stroke-linejoin="round"/>
                        <path id="Vector_169" d="M63.9537 176.064C63.9899 175.791 64.1111 175.535 64.3003 175.334C64.4894 175.133 64.7369 174.996 65.0079 174.943C65.9487 174.788 66.5577 175.951 66.5577 175.951" stroke="#1F2937" stroke-width="0.42" stroke-linecap="round" stroke-linejoin="round"/>
                        <path id="Vector_170" d="M64.84 174.125L65.008 174.944" stroke="#1F2937" stroke-width="0.42" stroke-linecap="round" stroke-linejoin="round"/>
                        <path id="Vector_171" d="M65.785 174.943C65.785 174.943 68.7754 173.578 71.665 173.826" stroke="#1F2937" stroke-width="0.42" stroke-linecap="round" stroke-linejoin="round"/>
                        <path id="Vector_172" d="M64.5542 175.107C64.2896 174.901 59.7998 173.515 55.205 174.54" stroke="#1F2937" stroke-width="0.42" stroke-linecap="round" stroke-linejoin="round"/>
                        <path id="Vector_173" d="M63.9539 175.675C63.9539 175.675 60.1739 174.956 56.8853 175.456" stroke="#1F2937" stroke-width="0.42" stroke-linecap="round" stroke-linejoin="round"/>
                        <path id="Vector_174" d="M66.205 175.464C68.7141 174.765 71.34 174.587 73.9204 174.943C76.4615 175.321 79.0291 175.493 81.598 175.456" stroke="#1F2937" stroke-width="0.42" stroke-linecap="round" stroke-linejoin="round"/>
                    </g>
                </g>
            </g>
            <path id="Vector_175" d="M86.9779 176.064H30.6979L31.3783 174.645C31.3783 174.645 36.6955 175.14 40.9081 173.826C42.7687 173.246 45.6331 172.986 48.5059 173.019C50.3161 173.045 54.7219 173.061 57.4561 173.049C58.4305 173.049 59.1949 173.049 59.5561 173.024C59.6947 173.024 59.8333 173.024 59.9761 173.024C60.7558 173.014 61.5344 173.087 62.2987 173.242C63.0362 173.159 63.7783 173.122 64.5205 173.133C65.8183 173.133 71.4001 173.112 72.9205 173.133C74.9239 173.158 77.2381 173.553 79.4347 173.855L79.4935 173.834V173.864C82.1479 174.233 84.6343 174.485 86.2135 173.834L86.9779 176.064Z" stroke="#1F2937" stroke-width="0.42" stroke-linecap="round" stroke-linejoin="round"/>
            <path id="Vector_176" d="M71.8873 143.053V144.544C70.7499 145.318 69.5723 146.032 68.3592 146.681C65.667 144.208 65.2849 139.508 65.2849 139.508L71.8873 143.053Z" fill="#1F2937"/>
            <g id="Vector_177">
                <path d="M60.4127 134.463C57.2459 129.78 57.8927 121.023 61.9625 116.244C67.9433 109.263 83.5505 114.362 83.5379 124.224C83.5256 125.595 83.4077 126.962 83.1851 128.315C82.9793 129.617 81.8495 130.931 81.5051 132.229C81.1607 133.527 81.2993 135.589 81.1607 136.849C80.8499 139.718 76.8809 145.409 75.8057 146.026C74.3021 146.866 66.1751 144.585 64.4027 139.373" fill="white"/>
                <path d="M60.4127 134.463C57.2459 129.78 57.8927 121.023 61.9625 116.244C67.9433 109.263 83.5505 114.362 83.5379 124.224C83.5256 125.595 83.4077 126.962 83.1851 128.315C82.9793 129.617 81.8495 130.931 81.5051 132.229C81.1607 133.527 81.2993 135.589 81.1607 136.849C80.8499 139.718 76.8809 145.409 75.8057 146.026C74.3021 146.866 66.1751 144.585 64.4027 139.373" stroke="#1F2937" stroke-width="0.42" stroke-linecap="round" stroke-linejoin="round"/>
            </g>
            <path id="Vector_178" d="M71.4881 128.676C71.4881 128.676 73.7015 127.869 75.6881 128.676" stroke="#1F2937" stroke-width="0.42" stroke-linecap="round" stroke-linejoin="round"/>
            <path id="Vector_179" d="M80.2198 128.676C80.2198 128.676 81.8326 127.869 82.912 128.676" stroke="#1F2937" stroke-width="0.42" stroke-linecap="round" stroke-linejoin="round"/>
            <path id="Vector_180" d="" fill="#1F2937"/>
            <path id="Vector_181" d="" fill="#1F2937"/>
            <g id="Vector_182">
                <path d="" fill="white"/>
                <path d="" stroke="#1F2937" stroke-width="0.42" stroke-linecap="round" stroke-linejoin="round"/>
            </g>
            <path id="Vector_183" d="" stroke="#1F2937" stroke-width="0.42" stroke-linecap="round" stroke-linejoin="round"/>
            <path id="Vector_184" d="M63.5879 130.145C63.5879 130.145 64.6211 129.146 65.8391 129.536C67.0571 129.927 67.2797 133.245 67.2797 133.245L68.1659 132.3C68.1659 132.3 67.8341 130.422 69.1613 127.789C70.4885 125.156 69.8249 122.056 69.8249 122.056C69.8249 122.056 72.1139 122.829 72.9077 124.601C72.9077 124.601 73.7729 122.72 72.9077 121.279C72.9077 121.279 76.4735 122.165 77.3597 124.824C77.3597 124.824 78.0611 122.829 77.8217 121.833C77.8217 121.833 80.2367 122.606 81.1229 124.933C81.1229 124.933 81.9293 123.161 81.5807 121.72C81.5807 121.72 82.5551 122.56 82.9289 125.046C83.6565 123.53 83.8703 121.819 83.5379 120.17C83.5379 120.17 84.7979 121.611 84.9995 122.829C84.9995 122.829 86.0243 119.284 80.0309 114.521C74.0375 109.758 63.7769 110.838 62.1809 114.521C62.1809 114.521 62.7101 111.808 63.7769 110.838C63.7769 110.838 60.8369 112.148 60.8999 114.853C60.8999 114.853 58.3043 114.521 56.9771 116.184C57.7906 116.123 58.6085 116.16 59.4131 116.294C59.4131 116.294 55.8683 118.394 56.0909 123.383C56.3135 128.373 59.4131 135.563 59.4131 135.563L61.8407 134.853C61.8407 134.853 62.2271 131.46 63.5879 130.145Z" fill="#1F2937"/>
            <g id="Vector_185">
                <path d="M66.2802 131.363C66.2802 131.363 64.3986 128.041 63.4032 127.818C62.4078 127.596 60.522 128.927 60.963 130.699C61.404 132.472 61.74 135.462 62.2944 135.794C62.8488 136.126 63.735 138.121 64.6212 137.566C64.7378 137.506 64.8387 137.42 64.9158 137.314C64.9929 137.208 65.0442 137.085 65.0654 136.956C65.0866 136.826 65.0773 136.694 65.038 136.569C64.9988 136.443 64.9309 136.329 64.8396 136.235" fill="white"/>
                <path d="M66.2802 131.363C66.2802 131.363 64.3986 128.041 63.4032 127.818C62.4078 127.596 60.522 128.927 60.963 130.699C61.404 132.472 61.74 135.462 62.2944 135.794C62.8488 136.126 63.735 138.121 64.6212 137.566C64.7378 137.506 64.8387 137.42 64.9158 137.314C64.9929 137.208 65.0442 137.085 65.0654 136.956C65.0866 136.826 65.0772 136.694 65.038 136.569C64.9988 136.443 64.9309 136.329 64.8396 136.235" stroke="#1F2937" stroke-width="0.42" stroke-linecap="round" stroke-linejoin="round"/>
            </g>
            <path id="Vector_186" d="M87.3264 157.05C87.136 157.869 86.8919 158.674 86.5956 159.461" stroke="#1F2937" stroke-width="0.42" stroke-linecap="round" stroke-linejoin="round"/>
            <path id="Vector_187" d="M85.9195 161.065C85.2501 162.592 84.2686 163.961 83.0383 165.085" stroke="#1F2937" stroke-width="0.42" stroke-linecap="round" stroke-linejoin="round"/>
            <path id="Vector_188" d="M97.86 165.588C97.2846 165.513 96.1128 166.239 95.0376 167.176" stroke="#1F2937" stroke-width="0.42" stroke-linecap="round" stroke-linejoin="round"/>
            <path id="Vector_189" d="M94.2479 167.921C93.4079 168.79 92.7569 169.71 92.7569 170.298" stroke="#1F2937" stroke-width="0.42" stroke-linecap="round" stroke-linejoin="round"/>
            <path id="Vector_190" d="M33.1798 163.325C33.1798 163.325 35.5696 163.989 35.5906 166.038" stroke="#1F2937" stroke-width="0.42" stroke-linecap="round" stroke-linejoin="round"/>
            <path id="Vector_191" d="M42.1342 152.136C42.5309 152.58 42.8919 153.054 43.2136 153.555" stroke="#1F2937" stroke-width="0.42" stroke-linecap="round" stroke-linejoin="round"/>
            <path id="Vector_192" d="M44.1587 155.287C44.6288 156.308 44.882 157.415 44.9021 158.538C44.9021 161.995 43.9067 163.998 43.9067 163.998" stroke="#1F2937" stroke-width="0.42" stroke-linecap="round" stroke-linejoin="round"/>
            <path id="Vector_193" d="M56.6454 148.746C57.2791 149.335 57.9573 149.874 58.674 150.359" stroke="#1F2937" stroke-width="0.42" stroke-linecap="round" stroke-linejoin="round"/>
            <path id="Vector_194" d="M60.7821 151.62C62.9283 152.704 65.7045 153.519 68.5857 152.8" stroke="#1F2937" stroke-width="0.42" stroke-linecap="round" stroke-linejoin="round"/>
            <g id="Group_7" opacity="0.2">
                <path id="Vector_195" d="M65.2848 114.696C66.0351 114.581 66.7939 114.532 67.5528 114.549" stroke="white" stroke-width="0.42" stroke-linecap="round" stroke-linejoin="round"/>
                <path id="Vector_196" d="M68.6573 114.609C70.7111 114.803 73.2395 115.521 74.8103 117.688" stroke="white" stroke-width="0.42" stroke-linecap="round" stroke-linejoin="round"/>
                <path id="Vector_197" d="M70.27 113.013C70.27 113.013 74.1214 113.055 76.8808 114.982" stroke="white" stroke-width="0.42" stroke-linecap="round" stroke-linejoin="round"/>
                <path id="Vector_198" d="M77.9644 115.919C78.4584 116.435 78.854 117.037 79.132 117.696" stroke="white" stroke-width="0.42" stroke-linecap="round" stroke-linejoin="round"/>
                <path id="Vector_199" d="M64.2892 116.339C64.2892 116.339 68.0692 117.67 69.3838 120.052" stroke="white" stroke-width="0.42" stroke-linecap="round" stroke-linejoin="round"/>
                <path id="Vector_200" d="M62.4578 117.688C63.2769 118.823 63.8662 120.107 64.1924 121.468" stroke="white" stroke-width="0.42" stroke-linecap="round" stroke-linejoin="round"/>
                <path id="Vector_201" d="M64.4278 123.336C64.4328 123.838 64.3864 124.339 64.2892 124.831" stroke="white" stroke-width="0.42" stroke-linecap="round" stroke-linejoin="round"/>
                <path id="Vector_202" d="M59.9128 119.237C59.7182 119.731 59.5569 120.238 59.4298 120.754" stroke="white" stroke-width="0.42" stroke-linecap="round" stroke-linejoin="round"/>
                <path id="Vector_203" d="M59.1316 122.22C58.9111 123.529 58.8941 124.865 59.0812 126.18" stroke="white" stroke-width="0.42" stroke-linecap="round" stroke-linejoin="round"/>
            </g>
            <g id="Vector_204">
                <path d="M109.481 183.532H162.485V176.064H14.8301V183.532H44.6837" fill="white"/>
                <path d="M109.481 183.532H162.485V176.064H14.8301V183.532H44.6837" stroke="#1F2937" stroke-width="0.42" stroke-linecap="round" stroke-linejoin="round"/>
            </g>
            <path id="Vector_205" d="M105.676 183.531H98.1499" stroke="#1F2937" stroke-width="0.42" stroke-linecap="round" stroke-linejoin="round"/>
        </g>
    </g>
</svg>