<?xml version="1.0" encoding="UTF-8"?>
<svg version="1.1" xmlns="http://www.w3.org/2000/svg" width="600" height="480">
<path d="M0 0 C1.1577506 3.47325181 1.06866652 6.36067448 1 10 C-1 10 -3 10 -5 10 C-5.32274902 11.08531006 -5.64549805 12.17062012 -5.97802734 13.28881836 C-7.1741507 17.30355424 -8.38042747 21.3151782 -9.58984375 25.32592773 C-10.11249145 27.06434891 -10.63235801 28.80360869 -11.14941406 30.54370117 C-11.89183783 33.04049223 -12.64411495 35.53412563 -13.3984375 38.02734375 C-13.6287265 38.80963852 -13.8590155 39.59193329 -14.09628296 40.39793396 C-14.67229925 42.28417448 -15.32896099 44.14543679 -16 46 C-16.99 46.495 -16.99 46.495 -18 47 C-19.29243536 42.8803623 -20.26252625 39.33168317 -20 35 C-20.66 35 -21.32 35 -22 35 C-22.39807861 36.08039551 -22.39807861 36.08039551 -22.80419922 37.18261719 C-24.01909329 40.04498502 -25.44431569 42.46956077 -27.1328125 45.078125 C-27.76590332 46.06127686 -28.39899414 47.04442871 -29.05126953 48.05737305 C-30.07776611 49.63772339 -30.07776611 49.63772339 -31.125 51.25 C-32.21130885 52.93457837 -33.29761141 54.61916084 -34.3835144 56.30400085 C-35.50958905 58.05002446 -36.63746812 59.794872 -37.765625 61.53955078 C-41.23660915 66.9107485 -44.6797812 72.29975524 -48.125 77.6875 C-48.78902832 78.72487305 -49.45305664 79.76224609 -50.13720703 80.83105469 C-54.43552483 87.54724197 -58.7217802 94.27099578 -63 101 C-69.96629284 111.9569438 -76.96500032 122.89300601 -83.96777344 133.82666016 C-87.31304948 139.05033843 -90.65646141 144.27520952 -94 149.5 C-98.02249344 155.78576129 -102.04540556 162.07125252 -106.0703125 168.35546875 C-112.39313236 178.22879515 -118.70952987 188.10602493 -125 198 C-131.96171435 208.94974251 -138.9561788 219.87837422 -145.95458984 230.8046875 C-148.00927333 234.01448668 -150.0616145 237.22577186 -152.11328125 240.4375 C-153.47129195 242.56253976 -154.82936425 244.68754016 -156.1875 246.8125 C-156.84419678 247.84044678 -157.50089355 248.86839355 -158.17749023 249.92749023 C-161.38216627 254.93676434 -164.60270398 259.93450183 -167.859375 264.91015625 C-168.46370361 265.83401123 -169.06803223 266.75786621 -169.69067383 267.7097168 C-170.82541678 269.44109189 -171.96311078 271.17053774 -173.10424805 272.89770508 C-173.60480713 273.66107178 -174.10536621 274.42443848 -174.62109375 275.2109375 C-175.0586499 275.87399902 -175.49620605 276.53706055 -175.94702148 277.22021484 C-177.15937672 279.12663346 -177.15937672 279.12663346 -178 282 C-177.41863281 282.26425781 -176.83726562 282.52851563 -176.23828125 282.80078125 C-172.31954742 284.90034719 -169.26001098 288.01063144 -166 291 C-165.41992188 291.50273437 -164.83984375 292.00546875 -164.2421875 292.5234375 C-155.12357801 300.87862852 -149.11527794 312.49705442 -145 324 C-144.62746094 325.0209375 -144.25492187 326.041875 -143.87109375 327.09375 C-143 330 -143 330 -143 334 C-141.74083015 333.67203682 -141.74083015 333.67203682 -140.45622253 333.33744812 C-126.97536502 329.89296255 -113.38998808 326.93925343 -99.80078125 323.95703125 C-97.18999718 323.3824021 -94.57925112 322.80760278 -91.96855164 322.23258972 C-86.53022626 321.03515099 -81.09154013 319.83936347 -75.65258789 318.64477539 C-67.98906419 316.96158663 -60.32625168 315.27517738 -52.66355383 313.58823359 C-46.688611 312.27299334 -40.71344697 310.95875848 -34.73828125 309.64453125 C-33.46924768 309.36536173 -32.20021412 309.08619221 -30.89272499 308.798563 C-27.31051895 308.01075833 -23.72816294 307.2236397 -20.14575195 306.43676758 C-19.08547791 306.20352783 -18.02520386 305.97028809 -16.93280029 305.72998047 C-15.46786888 305.40843742 -15.46786888 305.40843742 -13.9733429 305.08039856 C-13.12856038 304.89478269 -12.28377787 304.70916681 -11.41339588 304.51792622 C-8.94660052 303.98854022 -6.47509724 303.48896149 -4 303 C-4.58402076 296.80761136 -5.57481243 290.94680745 -7.06640625 284.9140625 C-7.26475571 284.09046234 -7.46310516 283.26686218 -7.66746521 282.41830444 C-8.29395715 279.81924767 -8.92761434 277.22201802 -9.5625 274.625 C-10.20019407 272.00638906 -10.83624906 269.38741744 -11.46824646 266.76742554 C-11.85981955 265.14501578 -12.25476088 263.52341435 -12.65345764 261.90274048 C-13.38847785 258.86431671 -14 256.13851508 -14 253 C-3.09715459 250.19573721 7.84448215 247.64740937 18.8503418 245.28027344 C21.35624603 244.74057845 23.86075305 244.19469338 26.36523438 243.6484375 C27.96867088 243.30171722 29.5721836 242.9553492 31.17578125 242.609375 C31.91943436 242.44693298 32.66308746 242.28449097 33.42927551 242.11712646 C36.34896284 241.49302945 39.00454097 241 42 241 C42 239.35 42 237.7 42 236 C43.32 235.67 44.64 235.34 46 235 C46.66 238.3 47.32 241.6 48 245 C46.35 245.33 44.7 245.66 43 246 C42.67 245.34 42.34 244.68 42 244 C41.36550934 244.13780884 40.73101868 244.27561768 40.07730103 244.41760254 C33.49217277 245.84744452 26.90642798 247.27441946 20.3203125 248.69970703 C17.86019103 249.23249497 15.40022942 249.7660216 12.94042969 250.30029297 C9.41122215 251.0667083 5.88145419 251.83049274 2.3515625 252.59375 C1.24632233 252.83436157 0.14108215 253.07497314 -0.99765015 253.32287598 C-2.01855743 253.54310425 -3.03946472 253.76333252 -4.09130859 253.99023438 C-4.99287689 254.18564819 -5.89444519 254.38106201 -6.82333374 254.58239746 C-9 255 -9 255 -11 255 C-10.79246094 255.73476563 -10.58492187 256.46953125 -10.37109375 257.2265625 C-7.76828572 266.70121934 -5.48718045 276.24624453 -3.25 285.8125 C-3.08966278 286.4949176 -2.92932556 287.17733521 -2.76412964 287.88043213 C-2.30368714 289.84285517 -1.84708297 291.80617758 -1.390625 293.76953125 C-1.12282227 294.92042236 -0.85501953 296.07131348 -0.57910156 297.25708008 C0 300 0 300 0 302 C0.62196259 301.86219116 1.24392517 301.72438232 1.88473511 301.58239746 C8.34008194 300.15251025 14.79606912 298.72554266 21.25244141 297.30029297 C23.66406648 296.76751854 26.07552553 296.23399198 28.48681641 295.69970703 C31.94650923 294.93325638 35.40678404 294.16948494 38.8671875 293.40625 C39.95055389 293.16563843 41.03392029 292.92502686 42.15011597 292.67712402 C43.1510025 292.45689575 44.15188904 292.23666748 45.18310547 292.00976562 C46.50881058 291.7166449 46.50881058 291.7166449 47.86129761 291.41760254 C50 291 50 291 52 291 C51.67 290.34 51.34 289.68 51 289 C50.960008 287.00039988 50.95653201 284.99952758 51 283 C52.32 282.67 53.64 282.34 55 282 C57 287.75 57 287.75 57 290 C58.38159805 289.6453215 58.38159805 289.6453215 59.79110718 289.28347778 C70.86818411 286.46377912 82.00142901 283.94782353 93.1640625 281.4921875 C95.15180516 281.05318048 97.13950528 280.61398079 99.12716675 280.17460632 C104.50473256 278.98648692 109.88290549 277.80113758 115.26119995 276.61632156 C120.93685277 275.36550886 126.61194139 274.11214113 132.28710938 272.85913086 C145.86992189 269.86082004 159.45369078 266.86685458 173.03755188 263.87329865 C179.14364076 262.52760363 185.2496162 261.18139403 191.3556025 259.83523369 C225.90270889 252.21882894 260.45088835 244.60730379 295 237 C294.278125 236.50628906 293.55625 236.01257813 292.8125 235.50390625 C291.4203125 234.54291016 291.4203125 234.54291016 290 233.5625 C289.071875 232.92441406 288.14375 232.28632813 287.1875 231.62890625 C286.465625 231.09136719 285.74375 230.55382812 285 230 C285 229.67 285 229.34 285 229 C301.39364251 229.48699868 317.67723453 230.38836736 334 232 C331.41653747 234.96125679 328.45389412 236.52964754 325.00390625 238.36328125 C324.12072975 238.83497993 324.12072975 238.83497993 323.2197113 239.31620789 C321.97114419 239.98181042 320.72119404 240.64482418 319.4699707 241.30541992 C317.59754204 242.29399899 315.72908399 243.28973517 313.86132812 244.28710938 C306.30004282 248.31364901 298.68319671 252.21033313 291 256 C292.45044271 251.89041233 294.51110752 248.56741255 297 245 C249.33117051 255.33308125 201.6919666 265.79971992 154.0625 276.3125 C153.33891753 276.47220654 152.61533505 276.63191307 151.86982584 276.7964592 C137.74339403 279.91441142 123.61709016 283.03294314 109.4908905 286.15194702 C89.81490871 290.49626211 70.13827703 294.83762009 50.4609375 299.17578125 C49.47668116 299.39277652 49.47668116 299.39277652 48.47254086 299.61415553 C39.93115936 301.49722977 31.38973603 303.3801142 22.84829712 305.26292801 C12.42913408 307.55965596 2.01000165 309.85652277 -8.40912628 312.15340996 C-11.01432393 312.72772339 -13.61952344 313.30202838 -16.22472382 313.87632942 C-31.10021685 317.15555306 -45.97555246 320.43548918 -60.85058594 323.71679688 C-61.55400911 323.87196514 -62.25743227 324.0271334 -62.9821713 324.18700373 C-69.38088642 325.5985026 -75.77959514 327.0100305 -82.17827988 328.4216671 C-97.2972267 331.75709875 -112.41643398 335.09133747 -127.53662109 338.42114258 C-128.84428517 338.70913513 -130.15194877 338.99712982 -131.45961189 339.28512669 C-132.73935324 339.56697284 -134.01909458 339.84881899 -135.33761597 340.13920593 C-136.60179226 340.41762518 -137.86596855 340.69604443 -139.16845322 340.98290062 C-141.6776136 341.53549789 -144.1867815 342.08806099 -146.69595718 342.64058876 C-160.46991426 345.67393543 -174.24191951 348.71563785 -188.0087738 351.78106689 C-193.50839837 353.00563261 -199.00916595 354.22501526 -204.51039982 355.44232941 C-207.88375999 356.18919361 -211.25635962 356.93913803 -214.62716675 357.69744873 C-218.10783758 358.47929673 -221.59063078 359.25080589 -225.07421875 360.01953125 C-226.04965637 360.2418895 -227.02509399 360.46424774 -228.03009033 360.69334412 C-229.34490387 360.98012779 -229.34490387 360.98012779 -230.6862793 361.27270508 C-231.43129196 361.43918045 -232.17630463 361.60565582 -232.94389343 361.7771759 C-235.21523894 362.02332584 -236.83433674 361.6826624 -239 361 C-238.36835938 360.02804687 -237.73671875 359.05609375 -237.0859375 358.0546875 C-231.19092647 348.9706089 -225.34974665 339.85370877 -219.54199219 330.71362305 C-215.08242349 323.69671408 -210.60814133 316.6893705 -206.125 309.6875 C-205.45911865 308.64746826 -204.7932373 307.60743652 -204.10717773 306.53588867 C-201.39146723 302.29485791 -198.67521447 298.05417456 -195.95898438 293.81347656 C-188.95915357 282.88421053 -181.9634587 271.95248612 -175 261 C-168.03370716 250.0430562 -161.03499968 239.10699399 -154.03222656 228.17333984 C-150.68695052 222.94966157 -147.34353859 217.72479048 -144 212.5 C-139.97750656 206.21423871 -135.95459444 199.92874748 -131.9296875 193.64453125 C-125.60686764 183.77120485 -119.29047013 173.89397507 -113 164 C-106.03370716 153.0430562 -99.03499968 142.10699399 -92.03222656 131.17333984 C-88.68695051 125.94966156 -85.34356187 120.72477559 -82 115.5 C-80.66667591 113.41666075 -79.33334257 111.33332742 -78 109.25 C-77.34 108.21875 -76.68 107.1875 -76 106.125 C-70 96.75 -70 96.75 -67.99951172 93.62426758 C-66.66776903 91.5433993 -65.33606323 89.46250742 -64.00439453 87.3815918 C-60.64702821 82.1353477 -57.28899812 76.88953061 -53.9296875 71.64453125 C-45.26303468 58.11120354 -36.61928895 44.5635449 -28 31 C-29.64162109 31.49113281 -29.64162109 31.49113281 -31.31640625 31.9921875 C-34.4727967 32.85575986 -36.77535906 33.19543278 -40 33 C-30.92422743 23.82070151 -21.51728668 14.94895604 -11.3671875 6.96484375 C-8.86823434 4.97615502 -8.86823434 4.97615502 -6.4453125 2.25390625 C-4 0 -4 0 0 0 Z M-183 287 C-183.92914032 288.3191903 -184.80821081 289.6736391 -185.66796875 291.0390625 C-186.5024353 292.35801514 -186.5024353 292.35801514 -187.35375977 293.70361328 C-188.26146118 295.14969971 -188.26146118 295.14969971 -189.1875 296.625 C-190.47129578 298.6562869 -191.75515159 300.68753587 -193.0390625 302.71875 C-193.6980957 303.76417969 -194.35712891 304.80960937 -195.03613281 305.88671875 C-198.03426202 310.63959588 -201.0467778 315.38327166 -204.0625 320.125 C-204.63137939 321.01993164 -205.20025879 321.91486328 -205.78637695 322.83691406 C-211.79081293 332.26796533 -217.88589002 341.63978639 -224 351 C-220.88479799 352.557601 -218.52010413 351.39911748 -215.16357422 350.64477539 C-214.46102509 350.48886429 -213.75847595 350.33295319 -213.03463745 350.1723175 C-210.70647893 349.65394044 -208.3806395 349.12583802 -206.0546875 348.59765625 C-204.44342215 348.2369041 -202.83202091 347.87675841 -201.2204895 347.51719666 C-196.97434874 346.56808835 -192.73010949 345.61072802 -188.48620605 344.65167236 C-184.15728101 343.67492716 -179.82661896 342.70594934 -175.49609375 341.73632812 C-166.99567057 339.8318424 -158.49723936 337.91864074 -150 336 C-150.14099121 334.75202637 -150.28198242 333.50405273 -150.42724609 332.21826172 C-150.50655365 331.51627655 -150.58586121 330.81429138 -150.66757202 330.09103394 C-153.32442294 313.37894651 -167.2737273 297.95694853 -180.25 288.1796875 C-181.78645052 286.90683931 -181.78645052 286.90683931 -183 287 Z " fill="#000000" transform="translate(246,12)"/>
<path d="M0 0 C1.65 0 3.3 0 5 0 C5.6695256 2.62430124 6.33573718 5.24936657 7 7.875 C7.19078125 8.62136719 7.3815625 9.36773437 7.578125 10.13671875 C9 15.7734375 9 15.7734375 9 18 C7.35 18.33 5.7 18.66 4 19 C3.67 17.02 3.34 15.04 3 13 C-29.5663295 19.86990528 -62.08478364 26.94222961 -94.58296967 34.12705231 C-104.79708158 36.38446571 -115.01224049 38.63714073 -125.22721481 40.89064789 C-127.88716829 41.477463 -130.54710243 42.0643656 -133.20701981 42.6513443 C-165.06723812 49.68202763 -196.93504766 56.67807599 -228.80367851 63.67051172 C-232.25881916 64.42863688 -235.71394262 65.18684034 -239.16906738 65.94503784 C-254.44589518 69.29737456 -269.72286355 72.64907014 -285 76 C-285 78.31 -285 80.62 -285 83 C-287.475 83.495 -287.475 83.495 -290 84 C-290.67099984 81.39688008 -291.33695338 78.79264602 -292 76.1875 C-292.19078125 75.44951172 -292.3815625 74.71152344 -292.578125 73.95117188 C-293.35262914 70.89464659 -294 68.16626522 -294 65 C-291.525 64.505 -291.525 64.505 -289 64 C-288.67 66.31 -288.34 68.62 -288 71 C-286.62887054 70.64729286 -286.62887054 70.64729286 -285.2300415 70.28746033 C-273.94895011 67.41196319 -262.60587478 64.86883255 -251.234375 62.37890625 C-249.17420168 61.92600461 -247.11407328 61.47289858 -245.0539856 61.01960754 C-239.45781314 59.78885171 -233.86102323 58.56092529 -228.26412201 57.33348846 C-222.31779638 56.02888138 -216.37206625 54.72156586 -210.42626953 53.41455078 C-200.14225215 51.15428005 -189.85787637 48.89564574 -179.57324219 46.63818359 C-168.17784168 44.13689786 -156.78265293 41.63465029 -145.38769531 39.13134766 C-144.64852403 38.96896319 -143.90935274 38.80657873 -143.14778233 38.63927352 C-135.64687474 36.99142542 -128.14599326 35.34345851 -120.64511442 33.69547957 C-117.66452793 33.04063207 -114.68393997 32.38579131 -111.70335102 31.730955 C-110.22101455 31.40528518 -108.73867851 31.07961343 -107.25634289 30.75393975 C-97.83366555 28.68376574 -88.41085131 26.61421635 -78.9878788 24.54538631 C-74.17316148 23.48830383 -69.35849248 22.43100132 -64.54383504 21.37364608 C-61.35657571 20.67370308 -58.16928253 19.97391482 -54.98193741 19.27436256 C-52.61762849 18.75544251 -50.25336029 18.23633691 -47.88913536 17.71703434 C-45.62619561 17.22010799 -43.36312831 16.7237621 -41.09992409 16.22804165 C-35.21343944 14.93639376 -29.33209408 13.62493004 -23.45562744 12.28839111 C-22.22084719 12.00911585 -20.98606693 11.72984058 -19.71386909 11.44210243 C-17.35155054 10.90705494 -14.99019537 10.36772985 -12.62998772 9.82344627 C-11.57115946 9.58422762 -10.5123312 9.34500896 -9.42141724 9.09854126 C-8.49262316 8.88590952 -7.56382908 8.67327778 -6.60688972 8.45420265 C-4.0143999 8.00250892 -1.62555894 7.91658754 1 8 C0.67 5.36 0.34 2.72 0 0 Z " fill="#000000" transform="translate(304,327)"/>
<path d="M0 0 C27.75675676 0 27.75675676 0 33.5 5.3125 C35.2428324 8.43507471 35.92826943 10.41347141 36 14 C34.67552193 17.72115268 33.18897086 20.7165437 31 24 C31.969375 24.763125 32.93875 25.52625 33.9375 26.3125 C36.42086332 28.26748815 36.9521672 28.85650159 38 32 C38.50171564 38.12093081 38.08833623 41.1167095 34 46 C29.78095929 49.70764184 26.30901101 50.12351648 20.80078125 50.09765625 C19.71192627 50.09515869 18.62307129 50.09266113 17.5012207 50.09008789 C16.11894287 50.08098389 14.73666504 50.07187988 13.3125 50.0625 C8.919375 50.041875 4.52625 50.02125 0 50 C0 33.5 0 17 0 0 Z M7 7 C7 11.62 7 16.24 7 21 C9.56364483 21.10845031 12.12266279 21.18749744 14.6875 21.25 C15.40873047 21.28351563 16.12996094 21.31703125 16.87304688 21.3515625 C20.74359993 21.42225753 22.59450818 21.24753553 25.98828125 19.17578125 C28.27152077 17.10769256 28.27152077 17.10769256 28.5 13.9375 C28.22869141 11.03455665 28.22869141 11.03455665 26.6875 9.1875 C22.84128972 6.48090758 18.79913896 6.88304033 14.3125 6.9375 C13.61060547 6.94201172 12.90871094 6.94652344 12.18554688 6.95117188 C10.45699462 6.96293073 8.72848635 6.98086546 7 7 Z M7 28 C7 33.28 7 38.56 7 44 C9.371875 44.04125 11.74375 44.0825 14.1875 44.125 C14.92508545 44.14320801 15.6626709 44.16141602 16.42260742 44.18017578 C21.29086419 44.22093634 24.80498389 43.51380422 28.8125 40.75 C30.67261431 38.00877891 30.51712419 36.2320262 30 33 C27.96879477 30.21167218 26.40179241 28.26750518 22.90185547 27.59960938 C20.47879764 27.50811569 18.10892938 27.56327513 15.6875 27.6875 C14.43356445 27.72133789 14.43356445 27.72133789 13.15429688 27.75585938 C11.10208851 27.8144939 9.05080798 27.90416785 7 28 Z " fill="#000000" transform="translate(546,269)"/>
<path d="M0 0 C3.96671712 3.50547095 5.49240072 6.74214207 6.12109375 12.00390625 C6.13370843 24.70688638 4.25970419 36.39274656 -4.3125 46.375 C-8.10775873 49.57100735 -12.39161072 50.51532954 -17.3125 50.375 C-21.75865611 49.11525577 -23.77427955 48.04069372 -26.6875 44.4375 C-31.20355413 35.92647492 -29.78738586 26.21912505 -27.28515625 17.234375 C-24.71591592 9.68142751 -21.04089785 3.83933981 -14.3125 -0.625 C-9.03026236 -2.38574588 -4.93564139 -2.42125804 0 0 Z M-15.3125 8.375 C-17.99599151 12.67397134 -19.31015128 16.36325639 -20.3125 21.375 C-14.0425 21.375 -7.7725 21.375 -1.3125 21.375 C-1.23 19.3125 -1.1475 17.25 -1.0625 15.125 C-1.01609375 13.96484375 -0.9696875 12.8046875 -0.921875 11.609375 C-1.03927702 8.30174212 -1.03927702 8.30174212 -3.17578125 5.984375 C-5.20701731 4.21508468 -5.20701731 4.21508468 -7.75 3.875 C-11.31188389 4.57000173 -12.7731613 5.77055005 -15.3125 8.375 Z M-21.3125 27.375 C-22.90811887 30.56623774 -22.6924142 33.90245091 -22.3125 37.375 C-20.67562815 40.96052881 -19.62277417 42.16815055 -16.3125 44.375 C-13.83923046 44.51591482 -13.83923046 44.51591482 -11.3125 43.375 C-7.34744334 39.40994334 -5.19785818 35.63415702 -3.3125 30.375 C-3.3125 29.385 -3.3125 28.395 -3.3125 27.375 C-9.2525 27.375 -15.1925 27.375 -21.3125 27.375 Z " fill="#000000" transform="translate(122.3125,266.625)"/>
<path d="M0 0 C4.05420015 1.76910552 6.10217935 3.58386563 7.875 7.5625 C11.28485025 18.54302968 8.36063131 30.27720806 3.6875 40.4375 C1.07992332 45.35238696 -1.96868322 48.48434161 -7 51 C-12.14112877 51.5880376 -17.31516132 52.17453731 -21.5625 48.8125 C-25.77477697 43.95218042 -26.36380997 39.60726706 -26.3125 33.3125 C-26.30758545 32.60279053 -26.3026709 31.89308105 -26.29760742 31.16186523 C-26.084623 21.56009064 -23.2722716 11.44108818 -16.4140625 4.36328125 C-11.02794541 -0.22148671 -6.90940394 -0.73233314 0 0 Z M-13 11 C-15.12306851 14.94876912 -17 18.468788 -17 23 C-11.06 23 -5.12 23 1 23 C2.85410784 19.29178431 2.45112295 15.04739883 2 11 C0.60308883 7.79131449 0.60308883 7.79131449 -2 6 C-7.49001177 4.83191239 -9.68879003 6.73028188 -13 11 Z M-19 29 C-19.04125 30.7325 -19.0825 32.465 -19.125 34.25 C-19.14820313 35.22453125 -19.17140625 36.1990625 -19.1953125 37.203125 C-18.99645953 40.05069951 -18.55438946 41.63037132 -17 44 C-14.11138291 45.44430855 -12.20352299 45.37688506 -9 45 C-4.15586202 41.42456483 -1.95373803 36.55560145 0 31 C0 30.34 0 29.68 0 29 C-6.27 29 -12.54 29 -19 29 Z " fill="#000000" transform="translate(318,392)"/>
<path d="M0 0 C2.05078125 0.03255208 4.1015625 0.06510417 6.15234375 0.09765625 C8.52256273 5.77019421 10.8885394 11.44447645 13.25073242 17.12036133 C14.0536266 19.04792086 14.85764466 20.97501268 15.6628418 22.90161133 C16.82511939 25.68316112 17.98324203 28.46641062 19.140625 31.25 C19.49699539 32.10037338 19.85336578 32.95074677 20.22053528 33.82688904 C22.44294343 39.18594366 24.37597975 44.57416054 26.15234375 50.09765625 C23.18234375 50.09765625 20.21234375 50.09765625 17.15234375 50.09765625 C15.50234375 45.80765625 13.85234375 41.51765625 12.15234375 37.09765625 C5.55234375 37.09765625 -1.04765625 37.09765625 -7.84765625 37.09765625 C-9.49765625 41.38765625 -11.14765625 45.67765625 -12.84765625 50.09765625 C-15.48765625 50.09765625 -18.12765625 50.09765625 -20.84765625 50.09765625 C-20.24651519 46.74120818 -19.41847721 43.68549894 -18.18945312 40.50683594 C-17.85240356 39.6295282 -17.515354 38.75222046 -17.16809082 37.84832764 C-16.80453491 36.91482483 -16.440979 35.98132202 -16.06640625 35.01953125 C-15.69286011 34.05235168 -15.31931396 33.08517212 -14.93444824 32.08868408 C-14.14623147 30.0505572 -13.35602574 28.01319855 -12.56396484 25.9765625 C-11.34740646 22.84701367 -10.13808741 19.71473805 -8.9296875 16.58203125 C-8.16318718 14.60269927 -7.39627445 12.62352693 -6.62890625 10.64453125 C-6.26535034 9.70293152 -5.90179443 8.76133179 -5.52722168 7.79119873 C-5.02164734 6.49415009 -5.02164734 6.49415009 -4.50585938 5.17089844 C-4.20909302 4.4065448 -3.91232666 3.64219116 -3.60656738 2.85467529 C-2.42899679 0.12838249 -2.42899679 0.12838249 0 0 Z M1.15234375 9.09765625 C0.14657362 11.86651748 -0.85245772 14.63749729 -1.84765625 17.41015625 C-2.13382813 18.19583984 -2.42 18.98152344 -2.71484375 19.79101562 C-2.98554688 20.54833984 -3.25625 21.30566406 -3.53515625 22.0859375 C-3.78652344 22.78243408 -4.03789062 23.47893066 -4.296875 24.1965332 C-4.98679161 26.24802425 -4.98679161 26.24802425 -4.84765625 29.09765625 C-0.22765625 29.09765625 4.39234375 29.09765625 9.15234375 29.09765625 C7.19303087 22.24006117 4.90899619 15.67444127 2.15234375 9.09765625 C1.82234375 9.09765625 1.49234375 9.09765625 1.15234375 9.09765625 Z " fill="#000000" transform="translate(170.84765625,15.90234375)"/>
<path d="M0 0 C2.97 0 5.94 0 9 0 C11.37021898 5.67253796 13.73619565 11.3468202 16.09838867 17.02270508 C16.90128285 18.95026461 17.70530091 20.87735643 18.51049805 22.80395508 C19.67277564 25.58550487 20.83089828 28.36875437 21.98828125 31.15234375 C22.34465164 32.00271713 22.70102203 32.85309052 23.06819153 33.72923279 C25.29059968 39.08828741 27.223636 44.47650429 29 50 C26.03 50 23.06 50 20 50 C19.16260219 47.8765984 18.33019717 45.7512272 17.5 43.625 C17.0359375 42.44164062 16.571875 41.25828125 16.09375 40.0390625 C15 37 15 37 15 35 C5.1 35.495 5.1 35.495 -5 36 C-5.804375 38.124375 -6.60875 40.24875 -7.4375 42.4375 C-9.875 48.875 -9.875 48.875 -11 50 C-13.67058851 50.14115161 -16.32432238 50.04247107 -19 50 C-13.33972773 33.05904425 -6.72345226 16.53932797 0 0 Z M4 8 C2.82807565 11.12305373 1.66336124 14.24874739 0.5 17.375 C0.16613281 18.26445312 -0.16773438 19.15390625 -0.51171875 20.0703125 C-0.82753906 20.92109375 -1.14335938 21.771875 -1.46875 22.6484375 C-1.76201172 23.43395996 -2.05527344 24.21948242 -2.35742188 25.02880859 C-3.10331089 26.97137234 -3.10331089 26.97137234 -3 29 C1.95 29 6.9 29 12 29 C9.9376064 21.88474206 7.59810321 14.93706745 5 8 C4.67 8 4.34 8 4 8 Z " fill="#000000" transform="translate(115,393)"/>
<path d="M0 0 C4.45859604 3.66204872 5.86545493 7.33470262 6.4375 12.93359375 C6.68581358 19.64582015 6.51963394 25.51986223 2.125 30.875 C-3.13350827 35.35032618 -8.04981438 35.49543378 -14.84375 35.25390625 C-20.41359035 34.55767621 -22.74548741 32.2125807 -26.25 28.0625 C-29.22146846 22.34335568 -28.61958025 15.09325126 -27.875 8.875 C-25.93940911 4.23503424 -24.14683173 1.59343838 -19.875 -1.125 C-13.07353653 -3.87174486 -6.28452477 -4.0173228 0 0 Z M-17.875 5.875 C-21.51853326 9.76143548 -21.36856669 14.1258992 -21.23828125 19.20703125 C-20.70705254 23.10842058 -19.48333942 24.95979712 -16.875 27.875 C-13.65334396 29.48582802 -10.35860411 29.4756214 -6.875 28.875 C-4.14172577 26.78142825 -2.43590649 25.1693996 -1.0625 22 C-0.51750004 15.82333378 -0.7065654 11.3669533 -3.875 5.875 C-9.6541741 2.21878781 -12.05907269 2.43292057 -17.875 5.875 Z " fill="#000000" transform="translate(244.875,408.125)"/>
<path d="M0 0 C2.5 2.3125 2.5 2.3125 3.4375 5.5 C3.458125 6.428125 3.47875 7.35625 3.5 8.3125 C2.5 9.3125 2.5 9.3125 -0.5625 9.375 C-1.531875 9.354375 -2.50125 9.33375 -3.5 9.3125 C-3.83 7.9925 -4.16 6.6725 -4.5 5.3125 C-10.78851034 4.01633728 -10.78851034 4.01633728 -16.5 6.3125 C-16.5 7.3025 -16.5 8.2925 -16.5 9.3125 C-15.31921875 9.69921875 -14.1384375 10.0859375 -12.921875 10.484375 C-11.36437414 11.00979698 -9.80709387 11.53587313 -8.25 12.0625 C-7.47269531 12.31515625 -6.69539063 12.5678125 -5.89453125 12.828125 C-1.56301977 14.30898363 1.63451966 15.54877323 4.5 19.3125 C5.47808964 22.59608664 5.68136963 24.61999776 4.8125 27.9375 C2.6949152 31.76932012 0.67508074 33.92080642 -3.5 35.3125 C-5.78851645 35.45869515 -8.08200316 35.53341336 -10.375 35.5625 C-11.58929688 35.58828125 -12.80359375 35.6140625 -14.0546875 35.640625 C-17.76549701 35.28721457 -19.57162582 34.57077775 -22.5 32.3125 C-24.46457553 29.06078878 -25.5 27.12557353 -25.5 23.3125 C-22.035 22.8175 -22.035 22.8175 -18.5 22.3125 C-17.84 24.2925 -17.18 26.2725 -16.5 28.3125 C-11.46488101 29.3195238 -8.26052962 29.28637813 -3.5 27.3125 C-3.17 25.6625 -2.84 24.0125 -2.5 22.3125 C-3.2734375 22.14234375 -4.046875 21.9721875 -4.84375 21.796875 C-20.625 18.125 -20.625 18.125 -24.5 12.3125 C-24.83441775 8.70078827 -24.73524538 6.0025531 -23.5625 2.5625 C-17.3651097 -4.19828941 -7.69784239 -3.71145972 0 0 Z " fill="#000000" transform="translate(280.5,407.6875)"/>
<path d="M0 0 C2.70591059 2.30798256 3.82322249 4.52379893 5.125 7.8125 C5.125 8.8025 5.125 9.7925 5.125 10.8125 C2.815 10.8125 0.505 10.8125 -1.875 10.8125 C-2.535 9.1625 -3.195 7.5125 -3.875 5.8125 C-8.87655826 4.71533412 -8.87655826 4.71533412 -13.6875 6.0625 C-16.0852573 7.79941532 -16.0852573 7.79941532 -17.875 10.8125 C-18.23099164 13.61394454 -18.23099164 13.61394454 -18.1875 16.6875 C-18.20425781 17.71617187 -18.22101563 18.74484375 -18.23828125 19.8046875 C-17.82511744 23.22550614 -16.93847592 25.07414608 -14.875 27.8125 C-10.84288758 29.74090159 -8.15752751 30.07206691 -3.875 28.8125 C-3.565625 27.843125 -3.25625 26.87375 -2.9375 25.875 C-1.875 22.8125 -1.875 22.8125 -0.875 21.8125 C1.45797433 21.77157063 3.79205225 21.77008277 6.125 21.8125 C4.60231379 27.60613532 3.47599509 31.51957995 -1.875 34.8125 C-6.06111152 36.90555576 -11.31632948 36.23614608 -15.875 35.8125 C-20.77703297 33.53655612 -23.46429333 30.63391335 -25.875 25.8125 C-27.53853048 18.6848183 -27.48521946 11.16840764 -23.6484375 4.765625 C-17.5983153 -3.06394491 -8.75348611 -3.61557035 0 0 Z " fill="#000000" transform="translate(208.875,407.1875)"/>
<path d="M0 0 C1.98 0 3.96 0 6 0 C6 21.45 6 42.9 6 65 C4.02 65 2.04 65 0 65 C0 43.55 0 22.1 0 0 Z " fill="#000000" transform="translate(149,392)"/>
<path d="M0 0 C1.98 0 3.96 0 6 0 C6 21.45 6 42.9 6 65 C4.02 65 2.04 65 0 65 C0 43.55 0 22.1 0 0 Z " fill="#000000" transform="translate(85,392)"/>
<path d="M0 0 C1.98 0.495 1.98 0.495 4 1 C4.33 3.97 4.66 6.94 5 10 C3.68 10.33 2.36 10.66 1 11 C-0.59555725 7.50971852 -1.32049797 4.84597567 -1 1 C-0.67 0.67 -0.34 0.34 0 0 Z " fill="#000000" transform="translate(270,153)"/>
<path d="M0 0 C2.475 0.495 2.475 0.495 5 1 C5.33 3.97 5.66 6.94 6 10 C4.68 10.33 3.36 10.66 2 11 C-0.32590854 7.36576791 -0.16265833 4.22911669 0 0 Z " fill="#000000" transform="translate(260,106)"/>
<path d="M0 0 C2 0.25 2 0.25 4 1 C5.1577506 4.47325181 5.06866652 7.36067448 5 11 C3.35 10.67 1.7 10.34 0 10 C-0.19412181 8.52168779 -0.38012131 7.04230684 -0.5625 5.5625 C-0.66691406 4.73878906 -0.77132812 3.91507812 -0.87890625 3.06640625 C-0.91886719 2.38449219 -0.95882812 1.70257813 -1 1 C-0.67 0.67 -0.34 0.34 0 0 Z " fill="#000000" transform="translate(256,82)"/>
<path d="M0 0 C1.98 0.495 1.98 0.495 4 1 C4.33 3.97 4.66 6.94 5 10 C3.68 10.33 2.36 10.66 1 11 C-1.08997373 7.60379269 -1.2632246 4.94836905 -1 1 C-0.67 0.67 -0.34 0.34 0 0 Z " fill="#000000" transform="translate(247,35)"/>
<path d="M0 0 C2 0.3125 2 0.3125 4 1 C5.60725635 4.21451269 5.05748185 7.43612536 5 11 C3.68 11 2.36 11 1 11 C0.63890458 9.35567294 0.28629924 7.7094792 -0.0625 6.0625 C-0.25972656 5.14597656 -0.45695312 4.22945312 -0.66015625 3.28515625 C-0.77230469 2.53105469 -0.88445312 1.77695313 -1 1 C-0.67 0.67 -0.34 0.34 0 0 Z " fill="#000000" transform="translate(279,200)"/>
<path d="M0 0 C1.32 0 2.64 0 4 0 C5.1577506 3.47325181 5.06866652 6.36067448 5 10 C3.68 10 2.36 10 1 10 C-1.42857143 3.71428571 -1.42857143 3.71428571 0 0 Z " fill="#000000" transform="translate(293,271)"/>
<path d="M0 0 C1.65 0 3.3 0 5 0 C5.33 3.3 5.66 6.6 6 10 C4.35 10 2.7 10 1 10 C0.67 6.7 0.34 3.4 0 0 Z " fill="#000000" transform="translate(283,224)"/>
<path d="M0 0 C0.99 0.33 1.98 0.66 3 1 C3.765625 2.77734375 3.765625 2.77734375 4.25 4.9375 C4.42015625 5.64777344 4.5903125 6.35804688 4.765625 7.08984375 C5 9 5 9 4 11 C2.68 11 1.36 11 0 11 C-0.38909985 9.54536519 -0.76088029 8.08608793 -1.125 6.625 C-1.33382813 5.81289062 -1.54265625 5.00078125 -1.7578125 4.1640625 C-1.83773438 3.44992188 -1.91765625 2.73578125 -2 2 C-1.34 1.34 -0.68 0.68 0 0 Z " fill="#000000" transform="translate(266,129)"/>
<path d="M0 0 C1.32 0 2.64 0 4 0 C4.66 2.97 5.32 5.94 6 9 C4.02 9.99 4.02 9.99 2 11 C-0.14208427 7.7868736 -0.59687808 5.78934603 -1 2 C-0.67 1.34 -0.34 0.68 0 0 Z " fill="#000000" transform="translate(251,59)"/>
<path d="M0 0 C2.475 0.495 2.475 0.495 5 1 C5.33 3.64 5.66 6.28 6 9 C4.35 9.33 2.7 9.66 1 10 C-0.1577506 6.52674819 -0.06866652 3.63932552 0 0 Z " fill="#000000" transform="translate(274,177)"/>
</svg>
