<?xml version="1.0" encoding="UTF-8"?>
<svg version="1.1" xmlns="http://www.w3.org/2000/svg" width="1344" height="744">
<path d="M0 0 C0.96037284 -0.00275974 1.92074567 -0.00551949 2.91022071 -0.00836286 C3.96969035 -0.00630754 5.02915998 -0.00425222 6.12073475 -0.00213462 C7.24745477 -0.00388766 8.37417479 -0.0056407 9.53503785 -0.00744686 C13.34982998 -0.01213724 17.1645845 -0.00963358 20.97937828 -0.00721294 C23.72623475 -0.00852669 26.47308923 -0.01133927 29.2199446 -0.01407826 C35.21243292 -0.01924217 41.20491316 -0.02064775 47.19740349 -0.01962215 C56.10829647 -0.01810077 65.01918046 -0.02225106 73.9300717 -0.02749677 C90.76843002 -0.03718194 107.6067853 -0.03998144 124.44514608 -0.04055383 C137.44466121 -0.04101284 150.44417514 -0.04306841 163.44368988 -0.04625446 C167.18150258 -0.04715196 170.91931528 -0.04804177 174.65712798 -0.04892933 C175.58627657 -0.04915038 176.51542516 -0.04937143 177.47272976 -0.04959918 C203.61768385 -0.05575574 229.76263752 -0.0596995 255.90759236 -0.0592559 C256.89387837 -0.05924032 257.88016438 -0.05922474 258.89633784 -0.05920869 C263.89559534 -0.05912558 268.89485282 -0.05902654 273.89411031 -0.05892398 C275.38349933 -0.05889406 275.38349933 -0.05889406 276.90297701 -0.05886354 C278.91091588 -0.05882311 280.91885475 -0.05878131 282.92679362 -0.05873815 C314.17744518 -0.05812519 345.4280859 -0.06563477 376.67873436 -0.07931072 C411.76292562 -0.09465786 446.84710975 -0.10327778 481.93130457 -0.10234749 C485.66943163 -0.10227286 489.40755868 -0.10222415 493.14568573 -0.10219318 C494.06615476 -0.10218152 494.98662379 -0.10216987 495.93498581 -0.10215786 C510.77324196 -0.10212704 525.61148872 -0.10852366 540.44974207 -0.11712544 C555.3515692 -0.12558567 570.25338253 -0.1266047 585.15521073 -0.12001612 C594.01710064 -0.11630963 602.87894877 -0.11818544 611.74083429 -0.12795846 C617.65292066 -0.13392958 623.56497657 -0.13269519 629.47706151 -0.12548796 C632.85048389 -0.12158202 636.22375833 -0.12198974 639.5971859 -0.12894531 C643.22373856 -0.13593147 646.85007073 -0.13077033 650.47661549 -0.12238914 C652.06230819 -0.12984141 652.06230819 -0.12984141 653.68003508 -0.13744423 C655.12434961 -0.13031801 655.12434961 -0.13031801 656.59784222 -0.12304783 C657.42761184 -0.12313605 658.25738147 -0.12322427 659.11229562 -0.12331517 C661.64664163 0.15815801 663.2350851 0.72379138 665.36159569 2.12649983 C666.36159569 5.00149983 666.36159569 5.00149983 666.36159569 8.12649983 C665.04483521 10.29052663 665.04483521 10.29052663 662.36159569 12.12649983 C658.72370752 12.73677635 655.11080103 12.66052292 651.42976338 12.62707108 C650.29652479 12.63258525 649.16328621 12.63809942 647.99570706 12.64378068 C644.16456758 12.65747205 640.33406614 12.64242623 636.50293785 12.62770528 C633.7421208 12.62937502 630.98132791 12.63706626 628.22052109 12.64447618 C622.20063117 12.65740855 616.18088827 12.65539547 610.16099793 12.64369649 C601.20946526 12.62634766 592.25804871 12.63180058 583.30651012 12.6418634 C567.32170642 12.6590786 551.33697118 12.65349993 535.35216887 12.63850621 C521.36448653 12.62546982 507.37682796 12.62025549 493.38913971 12.62282437 C491.99900622 12.62306499 491.99900622 12.62306499 490.58078922 12.62331048 C486.81908044 12.62397403 483.05737168 12.62467644 479.29566292 12.62543582 C443.98747773 12.63246441 408.67933443 12.6169531 373.3711599 12.59081236 C341.97936818 12.56769433 310.58762252 12.56230934 279.19582421 12.57254475 C271.15756504 12.57514662 263.11930587 12.57773158 255.08104664 12.58014268 C253.59679166 12.58058885 253.59679166 12.58058885 252.08255173 12.58104403 C225.87644161 12.58865298 199.67033528 12.58225213 173.46422684 12.57144666 C170.64560287 12.57029882 167.8269789 12.56915563 165.00835493 12.56801983 C163.13843707 12.56726458 161.26851921 12.56649894 159.39860135 12.56572282 C145.41659601 12.56005637 131.43460259 12.56139991 117.4525972 12.56595105 C101.56053176 12.57105029 85.66851098 12.565244 69.77645671 12.54505675 C60.87434633 12.53404061 51.9723237 12.53130469 43.07021058 12.54034528 C37.13261502 12.54554345 31.19509493 12.53992279 25.25751524 12.52529194 C21.86871992 12.51724494 18.48010266 12.51403789 15.09130799 12.5238645 C11.44988741 12.53192742 7.80897435 12.52180931 4.16758686 12.50681657 C3.10330419 12.51355422 2.03902152 12.52029187 0.94248787 12.52723369 C-0.50452176 12.51558352 -0.50452176 12.51558352 -1.98076391 12.50369799 C-2.81420931 12.50327097 -3.64765471 12.50284396 -4.50635603 12.502404 C-7.16493813 12.03366598 -8.01557497 11.25035689 -9.63840431 9.12649983 C-10.63840431 6.12649983 -10.63840431 6.12649983 -9.38840431 3.50149983 C-6.752828 -0.07535373 -4.16766839 0.00146423 0 0 Z " fill="#000000" transform="translate(612.6384043097496,377.8735001683235)"/>
<path d="M0 0 C4.95576744 4.61001622 6.87308775 10.25733207 7.19224548 16.9602356 C7.20092307 18.96850049 7.18232395 20.97701768 7.14038086 22.98486328 C7.12766364 24.07419725 7.11494642 25.16353123 7.10184383 26.28587532 C6.83978993 38.23953169 5.22315449 49.93680132 3.44140625 61.7421875 C3.1058738 64.05641587 2.77200132 66.37088544 2.43968201 68.68557739 C1.57257402 74.69704221 0.68510972 80.70530962 -0.2076416 86.7130127 C-1.29131705 94.02995615 -2.35209733 101.35024774 -3.41449833 108.67030525 C-4.240305 114.35909974 -5.06990105 120.04723623 -5.91221619 125.73361206 C-6.06600235 126.77896118 -6.21978851 127.8243103 -6.37823486 128.90133667 C-6.66181296 130.82864198 -6.94757161 132.75562853 -7.23616028 134.68218994 C-8.60846998 144.04940327 -9.4968485 153.40477087 -9.5625 162.875 C-9.583125 163.64199219 -9.60375 164.40898438 -9.625 165.19921875 C-9.65672354 169.79120184 -9.31168405 172.78300175 -6.3125 176.5 C-0.74018883 179.28615558 5.2300865 179.29868932 11.20703125 177.91796875 C21.01060662 174.61999178 26.25917869 167.03476304 30.875 158.15234375 C31.143125 157.60707031 31.41125 157.06179688 31.6875 156.5 C33.6675 156.5 35.6475 156.5 37.6875 156.5 C37.14820624 161.515432 35.46429939 165.44422038 33.0625 169.8125 C32.7020459 170.47258057 32.3415918 171.13266113 31.97021484 171.81274414 C24.71544588 184.82190018 14.14277677 195.68157441 -0.3125 200.5 C-11.6967658 201.41638053 -11.6967658 201.41638053 -16.3125 197.5 C-17.034375 196.901875 -17.75625 196.30375 -18.5 195.6875 C-24.64566812 188.27031434 -22.77532475 176.48087657 -21.99414062 167.42138672 C-21.58640995 163.25153131 -21.07815269 159.09514034 -20.5625 154.9375 C-20.38245152 153.42773471 -20.20310268 151.91788583 -20.02441406 150.40795898 C-18.61896791 138.62672492 -17.10837671 126.85699858 -15.53222656 115.09741211 C-15.37206055 113.89093018 -15.21189453 112.68444824 -15.046875 111.44140625 C-14.83369629 109.85888062 -14.83369629 109.85888062 -14.61621094 108.24438477 C-14.23917013 105.29756838 -14.23917013 105.29756838 -14.3125 101.5 C-15.03953125 102.34820313 -15.7665625 103.19640625 -16.515625 104.0703125 C-65.3125 161 -65.3125 161 -66.81298828 162.75048828 C-67.81146795 163.91543541 -68.80984061 165.08047426 -69.80810547 166.24560547 C-72.33049047 169.18934809 -74.85480145 172.13139934 -77.3828125 175.0703125 C-77.88707764 175.65925293 -78.39134277 176.24819336 -78.91088867 176.85498047 C-79.92536386 178.0312071 -80.94896836 179.19962359 -81.98168945 180.35986328 C-84.43201593 183.14003381 -86.57786427 185.81918791 -88.41015625 189.046875 C-92.58948643 195.70255597 -92.58948643 195.70255597 -96.3125 197.5 C-104.54429161 198.95143531 -113.03169989 198.23817418 -121.3125 197.5 C-118.82912532 193.63263224 -116.25710594 190.17281038 -113.125 186.8125 C-109.90094843 183.29295434 -106.81147229 179.71326342 -103.8125 176 C-100.20217558 171.53723787 -96.42822071 167.27280467 -92.5625 163.03125 C-90.23387947 160.4115519 -88.01687053 157.7248469 -85.8125 155 C-82.20217558 150.53723787 -78.42822071 146.27280467 -74.5625 142.03125 C-72.23387947 139.4115519 -70.01687053 136.7248469 -67.8125 134 C-64.20217558 129.53723787 -60.42822071 125.27280467 -56.5625 121.03125 C-54.23387947 118.4115519 -52.01687053 115.7248469 -49.8125 113 C-46.20217558 108.53723787 -42.42822071 104.27280467 -38.5625 100.03125 C-35.44124823 96.51984176 -32.51101553 92.86436757 -29.55859375 89.2109375 C-27.40122217 86.6070838 -25.16506081 84.11227167 -22.875 81.625 C-21.34731097 79.92279465 -19.82685537 78.21407836 -18.3125 76.5 C-17.87695801 76.01305664 -17.44141602 75.52611328 -16.99267578 75.02441406 C-9.93462417 67.01366447 -6.4839565 60.37111636 -5.3125 49.5 C-5.16296875 48.200625 -5.0134375 46.90125 -4.859375 45.5625 C-4.11682618 37.42674772 -3.76212492 30.91411071 -7.9375 23.6875 C-11.88439725 20.0521999 -15.54049252 18.44276091 -20.9609375 18.5546875 C-30.206451 19.82367955 -37.16183246 24.33010413 -42.9609375 31.5546875 C-45.37988432 35.03629304 -47.38096727 38.73094719 -49.3125 42.5 C-50.9625 42.5 -52.6125 42.5 -54.3125 42.5 C-49.59914684 25.11951023 -36.69820911 9.65816019 -21.3125 0.5 C-14.01534303 -3.14857848 -7.44407743 -3.37090299 0 0 Z " fill="#000000" transform="translate(982.3125,482.5)"/>
<path d="M0 0 C0.969375 0.721875 1.93875 1.44375 2.9375 2.1875 C5.91387725 6.24619625 6.41420566 10.02156658 6 15 C4.40827058 18.30136473 3.08640528 20.17583048 0.1875 22.375 C-4.75752295 23.7878637 -7.94937756 23.56283345 -12.5 21.125 C-14.4964424 19.26624328 -14.96873918 18.39973943 -15.18359375 15.65234375 C-14.93661077 13.05314188 -14.52207119 10.5573331 -14 8 C-13.814375 6.80375 -13.62875 5.6075 -13.4375 4.375 C-13.293125 3.59125 -13.14875 2.8075 -13 2 C-19.50177927 0.61664271 -25.09197034 0.95012784 -31.0703125 4.0859375 C-46.78324794 14.74608586 -52.9236438 35.69516598 -58.4375 52.875 C-58.98272538 54.54589909 -59.52894407 56.21647439 -60.07617188 57.88671875 C-61.39740744 61.92038496 -62.6981665 65.95982706 -64 70 C-57.4 70 -50.8 70 -44 70 C-44.66 72.97 -45.32 75.94 -46 79 C-52.93 79 -59.86 79 -67 79 C-67.27005859 80.57386475 -67.54011719 82.14772949 -67.81835938 83.76928711 C-68.92046613 89.81850393 -70.36033099 95.74230863 -71.90625 101.69140625 C-72.18691315 102.78259766 -72.46757629 103.87378906 -72.75674438 104.99804688 C-73.66549524 108.52102919 -74.58152582 112.04204073 -75.5 115.5625 C-75.97152496 117.37136185 -75.97152496 117.37136185 -76.45257568 119.21676636 C-105.37805424 229.96671948 -105.37805424 229.96671948 -140 251 C-149.00166851 255.62399141 -158.11869416 257.86700012 -168.16015625 255.48828125 C-172.46473099 253.85159679 -175.85988119 251.28964828 -179 248 C-180.27298235 243.88152769 -180.29220314 241.79971384 -178.8125 237.75 C-176.59626102 234.38743052 -175.09401085 232.56749454 -171.140625 231.49609375 C-167.44529803 230.83621393 -165.53351207 230.75027095 -162.0625 232.375 C-159.02786624 234.76592357 -159.02786624 234.76592357 -158.6875 237.625 C-159.09450626 242.02066759 -160.63444814 244.30382522 -163 248 C-161.82064852 249.39315836 -161.82064852 249.39315836 -158.5 249.3125 C-151.31395735 249.22235251 -144.50535518 245.40428415 -139 241 C-129.66043187 231.33404911 -125.79432033 217.96652197 -122.39453125 205.33984375 C-122.05344833 204.08798279 -121.71236542 202.83612183 -121.36094666 201.54632568 C-116.77410953 184.65522984 -112.43267245 167.69808673 -108.0625 150.75 C-106.36862859 144.18158081 -104.67287329 137.6136548 -102.97265625 131.046875 C-102.76671467 130.25126663 -102.56077309 129.45565826 -102.34859085 128.63594055 C-98.05038926 112.04902572 -93.5550473 95.51798557 -89 79 C-97.25 79 -105.5 79 -114 79 C-113.34 76.03 -112.68 73.06 -112 70 C-111.01 69.90203125 -110.02 69.8040625 -109 69.703125 C-96.89482848 68.72031226 -96.89482848 68.72031226 -87.35107422 61.98583984 C-82.90872807 55.60718622 -79.20528323 49.01711369 -75.625 42.125 C-64.89710193 21.98282403 -51.03538362 3.1362915 -28.484375 -4.28515625 C-18.18113081 -7.24976897 -8.50776171 -6.77148381 0 0 Z " fill="#000000" transform="translate(227,262)"/>
<path d="M0 0 C1.41166166 3.09607926 2.34891883 6.38374708 3.375 9.625 C3.68590576 10.60686279 3.99681152 11.58872559 4.31713867 12.6003418 C11.35338704 35.70058175 12.99867604 60.09073249 14.625 84.0625 C14.76004572 86.00848932 14.89546035 87.95445307 15.03125 89.90039062 C15.35840394 94.59997769 15.68062087 99.29987843 16 104 C47.15553232 71.749799 47.15553232 71.749799 64.8125 32.25 C64.42660053 26.78803829 60.73621045 23.64801664 57 20 C52 14.34210526 52 14.34210526 52 10 C53.98173512 5.74293938 55.73544103 2.25770769 60 0 C63.79586479 -1.18093571 65.72453595 -1.08215595 69.5625 0.0625 C73.99093028 2.55852434 76.69489103 5.38978205 79 10 C79.98392393 20.73882686 78.47783011 29.12118522 74 39 C73.71543945 39.63599121 73.43087891 40.27198242 73.13769531 40.92724609 C64.32994995 60.17117849 50.03046653 76.36956798 36 92 C34.82050781 93.32837891 34.82050781 93.32837891 33.6171875 94.68359375 C29.07119761 99.77542831 24.45990859 104.81057693 19.8059082 109.80395508 C16.93440199 112.88520609 14.11132684 115.99917883 11.33203125 119.1640625 C10.71481201 119.8547583 10.09759277 120.5454541 9.46166992 121.25708008 C8.25985652 122.60203117 7.07059321 123.95832952 5.89575195 125.3269043 C5.34491943 125.93703369 4.79408691 126.54716309 4.2265625 127.17578125 C3.74783691 127.72145752 3.26911133 128.26713379 2.77587891 128.8293457 C0.19896859 130.52803762 -1.99137863 130.18977781 -5 130 C-5.07516846 128.72286133 -5.15033691 127.44572266 -5.2277832 126.12988281 C-4.03303572 67.41950565 -4.03303572 67.41950565 -22.421875 15.68359375 C-27.81455974 12.1620072 -34.76346027 12.88863322 -41 13 C-41.33 11.35 -41.66 9.7 -42 8 C-36.34198629 6.69118113 -30.68201688 5.39133045 -25.02001953 4.09985352 C-23.09301829 3.65897357 -21.16658101 3.21562122 -19.24072266 2.76977539 C-16.47702237 2.13041189 -13.71143489 1.49988384 -10.9453125 0.87109375 C-9.6483696 0.5680558 -9.6483696 0.5680558 -8.32522583 0.25889587 C-2.22774341 -1.11387171 -2.22774341 -1.11387171 0 0 Z " fill="#000000" transform="translate(1058,144)"/>
<path d="M0 0 C1.41166166 3.09607926 2.34891883 6.38374708 3.375 9.625 C3.68590576 10.60686279 3.99681152 11.58872559 4.31713867 12.6003418 C11.35338704 35.70058175 12.99867604 60.09073249 14.625 84.0625 C14.76004572 86.00848932 14.89546035 87.95445307 15.03125 89.90039062 C15.35840394 94.59997769 15.68062087 99.29987843 16 104 C47.15553232 71.749799 47.15553232 71.749799 64.8125 32.25 C64.42660053 26.78803829 60.73621045 23.64801664 57 20 C52 14.34210526 52 14.34210526 52 10 C53.98173512 5.74293938 55.73544103 2.25770769 60 0 C63.79586479 -1.18093571 65.72453595 -1.08215595 69.5625 0.0625 C73.99093028 2.55852434 76.69489103 5.38978205 79 10 C79.98392393 20.73882686 78.47783011 29.12118522 74 39 C73.71543945 39.63599121 73.43087891 40.27198242 73.13769531 40.92724609 C64.32994995 60.17117849 50.03046653 76.36956798 36 92 C34.82050781 93.32837891 34.82050781 93.32837891 33.6171875 94.68359375 C29.07119761 99.77542831 24.45990859 104.81057693 19.8059082 109.80395508 C16.93440199 112.88520609 14.11132684 115.99917883 11.33203125 119.1640625 C10.71481201 119.8547583 10.09759277 120.5454541 9.46166992 121.25708008 C8.25985652 122.60203117 7.07059321 123.95832952 5.89575195 125.3269043 C5.34491943 125.93703369 4.79408691 126.54716309 4.2265625 127.17578125 C3.74783691 127.72145752 3.26911133 128.26713379 2.77587891 128.8293457 C0.19896859 130.52803762 -1.99137863 130.18977781 -5 130 C-5.07516846 128.72286133 -5.15033691 127.44572266 -5.2277832 126.12988281 C-4.03303572 67.41950565 -4.03303572 67.41950565 -22.421875 15.68359375 C-27.81455974 12.1620072 -34.76346027 12.88863322 -41 13 C-41.33 11.35 -41.66 9.7 -42 8 C-36.34198629 6.69118113 -30.68201688 5.39133045 -25.02001953 4.09985352 C-23.09301829 3.65897357 -21.16658101 3.21562122 -19.24072266 2.76977539 C-16.47702237 2.13041189 -13.71143489 1.49988384 -10.9453125 0.87109375 C-9.6483696 0.5680558 -9.6483696 0.5680558 -8.32522583 0.25889587 C-2.22774341 -1.11387171 -2.22774341 -1.11387171 0 0 Z " fill="#000000" transform="translate(671,144)"/>
<path d="M0 0 C4.62 0 9.24 0 14 0 C14 22.11 14 44.22 14 67 C36.11 67 58.22 67 81 67 C81 71.62 81 76.24 81 81 C58.89 81 36.78 81 14 81 C14 103.11 14 125.22 14 148 C9.38 148 4.76 148 0 148 C0 125.89 0 103.78 0 81 C-22.11 81 -44.22 81 -67 81 C-67 76.38 -67 71.76 -67 67 C-44.89 67 -22.78 67 0 67 C0 44.89 0 22.78 0 0 Z " fill="#000000" transform="translate(875,123)"/>
<path d="M0 0 C10.48761121 9.59988034 15.27475872 24.26426328 16.13012695 38.12036133 C16.20472583 41.37451923 16.21500667 44.62012388 16.1875 47.875 C16.18145752 49.02033203 16.17541504 50.16566406 16.16918945 51.34570312 C16.07832149 59.07774102 15.72829531 66.45145776 13.9375 74 C13.75445313 74.85851562 13.57140625 75.71703125 13.3828125 76.6015625 C10.52270894 88.00666681 3.79207939 96.72084522 -6.0625 103 C-12.4381677 106.50017216 -18.80214257 108.31699507 -26.0625 107 C-36.15391481 103.27280592 -42.74681401 97.2811634 -48.0625 88 C-50.04001221 83.41694678 -51.62106888 78.77650704 -53.0625 74 C-53.29839844 73.23042969 -53.53429688 72.46085937 -53.77734375 71.66796875 C-59.3154299 50.52622381 -55.64095199 26.20244817 -44.72265625 7.4375 C-39.47246006 -0.27102334 -33.11683215 -5.32539749 -24.125 -7.8125 C-14.52141239 -8.40047475 -7.52351126 -5.93199926 0 0 Z M-27.0625 0 C-40.28235012 13.72107667 -40.44081282 40.8491597 -40.16210938 58.66967773 C-39.59638452 71.54962436 -38.00467671 90.7189399 -28.0625 100 C-24.20993649 102.33629353 -20.47673993 102.79208791 -16.0625 102 C-10.65875042 99.55466686 -7.23217207 95.48501209 -5.0625 90 C2.74267084 66.47506919 4.51030934 31.9613718 -4.9375 8.6875 C-7.33927805 4.10311755 -10.00257881 0.07900634 -14.6875 -2.375 C-19.35947382 -3.60446679 -23.09714568 -2.61544646 -27.0625 0 Z " fill="#000000" transform="translate(1203.0625,237)"/>
<path d="M0 0 C48.51 0 97.02 0 147 0 C147 4.62 147 9.24 147 14 C98.49 14 49.98 14 0 14 C0 9.38 0 4.76 0 0 Z " fill="#000000" transform="translate(387,401)"/>
<path d="M0 0 C48.51 0 97.02 0 147 0 C147 4.62 147 9.24 147 14 C98.49 14 49.98 14 0 14 C0 9.38 0 4.76 0 0 Z " fill="#000000" transform="translate(387,349)"/>
<path d="M0 0 C6.16777782 6.83818845 8.41965099 13.2586115 8.18359375 22.46484375 C7.1931515 36.14137606 0.34751267 49.46331638 -9.8671875 58.55078125 C-21.23597204 67.38834786 -31.63390089 71.21327765 -46.0703125 69.796875 C-52.868501 68.57053511 -57.75223852 64.2065223 -61.6484375 58.6484375 C-65.96389529 50.19213583 -65.72753026 39.89800856 -63 31 C-57.12856943 16.66865872 -49.02517066 5.17848925 -34.6484375 -1.57421875 C-23.47617886 -6.05596388 -9.88259241 -8.94139313 0 0 Z M-33.5625 4.8125 C-44.75405023 16.90249929 -52.40115761 34.42717619 -52 51 C-51.12287521 56.94495692 -48.41578231 61.0224251 -44 65 C-38.71694959 66.7610168 -34.54837023 66.57057365 -29.5625 64.125 C-17.92730214 57.00583656 -11.02545403 42.0997263 -7 29.4375 C-4.95117595 20.65682549 -4.33936752 10.92077934 -9 3 C-11.26492151 0.007068 -12.56114349 -0.87092456 -16.1875 -1.9375 C-23.39444095 -2.05564657 -28.25215002 -0.09568922 -33.5625 4.8125 Z " fill="#000000" transform="translate(267,460)"/>
</svg>
