<?xml version="1.0" encoding="UTF-8"?>
<svg version="1.1" xmlns="http://www.w3.org/2000/svg" width="512" height="512">
<path d="M0 0 C1.29389648 -0.0038269 2.58779297 -0.00765381 3.92089844 -0.01159668 C6.64407729 -0.01745331 9.36672702 -0.00905503 12.08984375 0.00976562 C15.55289853 0.03255423 19.01471273 0.01941015 22.47772217 -0.00452423 C25.81857666 -0.02258391 29.15911046 -0.00988121 32.5 0 C33.72944336 -0.00809692 34.95888672 -0.01619385 36.22558594 -0.02453613 C46.72518249 0.0887871 54.86031131 2.38063456 62.56640625 9.68359375 C70.29116103 18.16110885 71.86724084 29.83846002 73.61254883 40.75292969 C73.93931109 42.7925547 74.27836491 44.82986172 74.61914062 46.8671875 C76.39306616 57.7156318 76.39306616 57.7156318 76.25 62.53125 C77.425625 62.7375 78.60125 62.94375 79.8125 63.15625 C89.96861075 65.4113864 99.77588905 70.09299919 108.98046875 74.84375 C111.20988364 75.78152177 111.20988364 75.78152177 113.12963867 74.7487793 C115.3085277 73.4976429 117.37553548 72.16274727 119.4453125 70.73828125 C120.23905273 70.19349121 121.03279297 69.64870117 121.85058594 69.08740234 C122.68364258 68.51199707 123.51669922 67.9365918 124.375 67.34375 C125.22868164 66.75803223 126.08236328 66.17231445 126.96191406 65.56884766 C131.3414557 62.55926938 135.68705643 59.5107682 140 56.40625 C149.34107113 49.8431322 158.04203291 48.69387835 169.25 50.53125 C182.26207924 54.44638889 192.64902803 67.72600385 202.07958984 77.12060547 C203.63851811 78.66968269 205.20784235 80.20773904 206.77734375 81.74609375 C215.91938992 90.79138295 224.12100333 100.02883884 224.625 113.46875 C224.22511075 122.47315287 221.36623425 128.76936942 216.3125 136.09375 C215.84650391 136.77969238 215.38050781 137.46563477 214.90039062 138.17236328 C212.3199701 141.87936182 209.64155398 145.24045763 206.5078125 148.49609375 C201.14640626 154.30963905 201.14640626 154.30963905 198.25 161.53125 C199.32769312 169.25726512 203.19552548 176.13059175 206.87158203 182.90673828 C209.15445581 187.25333642 211.25 191.5534947 211.25 196.53125 C211.88019043 196.57660889 212.51038086 196.62196777 213.15966797 196.66870117 C220.98227978 197.29860129 228.64931345 198.48161127 236.375 199.84375 C237.58542969 200.04419922 238.79585938 200.24464844 240.04296875 200.45117188 C251.38365045 202.44412083 261.56168686 205.61487355 268.56640625 215.36328125 C271.72912645 220.72006566 273.49504211 225.32048498 273.54052734 231.53979492 C273.5596669 233.32271187 273.5596669 233.32271187 273.57919312 235.14164734 C273.58253159 237.05733269 273.58253159 237.05733269 273.5859375 239.01171875 C273.59237332 240.34825276 273.59910226 241.68478539 273.60610962 243.02131653 C273.61806542 245.8212917 273.62179247 248.6211437 273.62060547 251.42114258 C273.62040298 254.98401292 273.64763897 258.54607935 273.68214989 262.10875988 C273.70455385 264.87056496 273.70843884 267.63218117 273.70738602 270.39406776 C273.71085093 272.33814548 273.73243668 274.28216423 273.75448608 276.22612 C273.70168919 286.56001111 271.68633287 295.09897424 264.3828125 302.73291016 C255.11674308 310.54585284 243.79831069 312.1507157 232.25 313.90625 C230.65206209 314.16624355 229.05440234 314.42795265 227.45703125 314.69140625 C216.10501253 316.53125 216.10501253 316.53125 211.25 316.53125 C211.11464844 317.05589844 210.97929687 317.58054687 210.83984375 318.12109375 C209.20219921 324.01465283 207.07908382 329.63396922 204.75 335.28125 C204.30515259 336.36200806 204.30515259 336.36200806 203.85131836 337.46459961 C202.5040123 340.69105287 201.15589608 343.69473562 199.40625 346.734375 C198.00095844 349.40676229 198.00095844 349.40676229 198.70703125 351.89453125 C200.91047646 355.6599123 203.38137288 359.18573914 205.9375 362.71875 C206.47697266 363.47542969 207.01644531 364.23210937 207.57226562 365.01171875 C209.84943598 368.2046779 212.14278854 371.38456954 214.45703125 374.55078125 C220.6146197 383.06944937 224.72602854 390.99169721 224.125 401.71875 C224.05925781 403.28689453 224.05925781 403.28689453 223.9921875 404.88671875 C222.00651807 414.63740075 216.26276307 421.27662986 209.36328125 428.1171875 C208.07770576 429.41349594 208.07770576 429.41349594 206.76615906 430.73599243 C204.96109041 432.54880288 203.14967665 434.35531533 201.33227539 436.15576172 C198.56849893 438.90029284 195.83535233 441.67293598 193.10351562 444.44921875 C191.33770954 446.21531519 189.57018721 447.97969769 187.80078125 449.7421875 C186.9931282 450.56512299 186.18547516 451.38805847 185.35334778 452.2359314 C178.02851082 459.41421045 170.37507497 462.961244 160.125 463.78125 C150.68282793 463.17207761 143.49221872 459.99422587 135.9375 454.46875 C135.12643799 453.89890381 134.31537598 453.32905762 133.47973633 452.74194336 C129.63619524 450.02985722 125.85633523 447.24703215 122.125 444.3828125 C121.49762939 443.90980713 120.87025879 443.43680176 120.22387695 442.94946289 C119.06432258 442.06945668 117.91846073 441.17099717 116.78979492 440.25170898 C115.07584261 438.87774791 115.07584261 438.87774791 112.25 437.53125 C109.22782178 437.95895363 109.22782178 437.95895363 106.25 439.53125 C105.01785078 440.06204519 103.78472149 440.59056931 102.55078125 441.1171875 C101.22066868 441.71201119 99.89126338 442.30841846 98.5625 442.90625 C81.37498373 450.53125 81.37498373 450.53125 77.25 450.53125 C77.17978638 451.47979858 77.17978638 451.47979858 77.1081543 452.44750977 C76.47580429 460.19397161 75.37018139 467.80947331 74.0625 475.46875 C73.87880859 476.65404297 73.69511719 477.83933594 73.50585938 479.06054688 C71.69486334 489.60829694 68.42436242 500.32917542 59.52854919 507.01234436 C51.27062082 512.51716911 43.21803722 513.12650149 33.5 513.0625 C32.20610352 513.0663269 30.91220703 513.07015381 29.57910156 513.07409668 C26.85592271 513.07995331 24.13327298 513.07155503 21.41015625 513.05273438 C17.94710147 513.02994577 14.48528727 513.04308985 11.02227783 513.06702423 C7.68142334 513.08508391 4.34088954 513.07238121 1 513.0625 C-0.22944336 513.07059692 -1.45888672 513.07869385 -2.72558594 513.08703613 C-13.76982057 512.96783457 -21.817997 510.35311027 -29.84375 502.65234375 C-38.26592169 493.28095189 -38.91005041 478.96036364 -40.9375 467.03125 C-41.11667969 465.98001953 -41.29585937 464.92878906 -41.48046875 463.84570312 C-41.64546875 462.84474609 -41.81046875 461.84378906 -41.98046875 460.8125 C-42.12895264 459.91595703 -42.27743652 459.01941406 -42.43041992 458.09570312 C-42.74828744 455.54499236 -42.80690721 453.09871859 -42.75 450.53125 C-43.29785156 450.38429688 -43.84570312 450.23734375 -44.41015625 450.0859375 C-55.57390445 446.92741362 -66.18619088 442.27914819 -76.75 437.53125 C-77.69617188 438.25828125 -78.64234375 438.9853125 -79.6171875 439.734375 C-87.06528114 445.41428473 -94.60635733 450.92131559 -102.375 456.15625 C-103.11991699 456.66446289 -103.86483398 457.17267578 -104.63232422 457.69628906 C-113.73661976 463.7603229 -122.08103323 464.37157739 -132.75 463.53125 C-145.56076647 460.50522737 -155.69011085 446.8712765 -164.66015625 437.97119141 C-166.22189016 436.42607862 -167.78897863 434.88635956 -169.36132812 433.35205078 C-171.65429835 431.11406212 -173.93017945 428.85986513 -176.203125 426.6015625 C-177.25007538 425.58861618 -177.25007538 425.58861618 -178.31817627 424.5552063 C-185.05575314 417.78829416 -188.79347392 410.0828924 -189.0625 400.46875 C-188.86238943 390.34315511 -184.84528306 383.29470798 -179.125 375.21875 C-178.35265015 374.11793091 -178.35265015 374.11793091 -177.56469727 372.99487305 C-175.03131822 369.45501362 -172.46439911 366.15184658 -169.42578125 363.03125 C-166.24482431 359.61451798 -164.20756278 357.038554 -162.75 352.53125 C-163.78400555 346.23333638 -167.22089819 340.80557586 -170.33251953 335.3359375 C-173.04696863 329.96501237 -174.85177978 324.23258548 -176.75 318.53125 C-178.45144165 318.24459473 -178.45144165 318.24459473 -180.18725586 317.95214844 C-184.43302422 317.23355723 -188.67594202 316.49918873 -192.91821289 315.76025391 C-194.7475613 315.4438313 -196.577636 315.13157617 -198.40844727 314.82373047 C-201.05431181 314.37806563 -203.69711941 313.91700556 -206.33984375 313.453125 C-207.54978249 313.25441803 -207.54978249 313.25441803 -208.78416443 313.05169678 C-218.22759334 311.35890261 -226.27899242 307.74945454 -232.75 300.53125 C-236.95968235 294.34729975 -238.85533144 289.20397679 -238.92700195 281.72802734 C-238.93983719 280.55936127 -238.95267242 279.39069519 -238.96589661 278.18661499 C-238.97328354 276.92620392 -238.98067047 275.66579285 -238.98828125 274.3671875 C-238.996353 273.06480133 -239.00442474 271.76241516 -239.01274109 270.42056274 C-239.02774541 267.66172417 -239.03759259 264.90291109 -239.04516602 262.14404297 C-239.05619029 258.6338735 -239.09055208 255.12434498 -239.13033772 251.61440086 C-239.16300081 248.24035742 -239.16729986 244.86637668 -239.17578125 241.4921875 C-239.19328934 240.24392181 -239.21079742 238.99565613 -239.22883606 237.70956421 C-239.20305167 227.24287669 -237.0953534 218.94755863 -229.6875 211.27734375 C-220.97924612 203.42938108 -209.92315795 202.44382811 -198.75 200.53125 C-197.02990342 200.22681382 -195.30985026 199.92213217 -193.58984375 199.6171875 C-181.59036369 197.53125 -181.59036369 197.53125 -176.75 197.53125 C-176.54375 196.355625 -176.3375 195.18 -176.125 193.96875 C-174.01296407 184.41933041 -169.69559814 175.07014512 -165.31640625 166.36328125 C-164.58095909 163.98449009 -164.96796445 162.88936744 -165.75 160.53125 C-167.02185747 158.37076396 -167.02185747 158.37076396 -168.62890625 156.1875 C-169.21704102 155.35871338 -169.80517578 154.52992676 -170.41113281 153.67602539 C-171.03858398 152.80324951 -171.66603516 151.93047363 -172.3125 151.03125 C-173.59070461 149.22847464 -174.86805188 147.4250911 -176.14453125 145.62109375 C-176.76408691 144.7482373 -177.38364258 143.87538086 -178.02197266 142.97607422 C-180.21662291 139.8710689 -182.37180635 136.74473542 -184.5 133.59375 C-185.09296875 132.71847656 -185.6859375 131.84320313 -186.296875 130.94140625 C-191.29065697 122.65870873 -191.30369721 111.83694667 -189.015625 102.55078125 C-183.86825809 91.11840474 -171.9511464 81.52580988 -163.16064453 72.70166016 C-161.61156731 71.14273189 -160.07351096 69.57340765 -158.53515625 68.00390625 C-149.2139638 58.5840385 -140.10214239 50.59204205 -126.375 50.09375 C-112.91084076 50.49612717 -102.24513984 58.52562642 -92.55078125 67.2890625 C-85.4341593 73.97610185 -85.4341593 73.97610185 -76.44580078 76.41894531 C-71.63778062 75.09394082 -67.59872892 72.61724713 -63.45166016 69.91113281 C-61.09485509 68.707386 -59.31738083 68.1217001 -56.77880859 67.53417969 C-52.43474903 66.4570165 -48.26445119 65.42078996 -44.75 62.53125 C-41.40385248 56.88416398 -41.2399811 49.79690908 -40.625 43.40625 C-40.21685544 39.94087164 -39.76889532 36.48171951 -39.3046875 33.0234375 C-39.14359497 31.77781036 -39.14359497 31.77781036 -38.97924805 30.50701904 C-37.60200151 20.90876239 -34.00450503 12.04654929 -26.02853394 6.04873657 C-17.76808689 0.54734058 -9.7191159 -0.06400859 0 0 Z M-8.75 31.53125 C-9.32596467 33.53148618 -9.32596467 33.53148618 -9.66381836 35.86987305 C-9.88931618 37.21718758 -9.88931618 37.21718758 -10.11936951 38.59172058 C-10.27462601 39.56563248 -10.42988251 40.53954437 -10.58984375 41.54296875 C-10.75746719 42.54455521 -10.92509064 43.54614166 -11.09779358 44.57807922 C-11.81602497 48.86996192 -12.51577111 53.16479668 -13.21557617 57.4597168 C-13.72889351 60.59288733 -14.2528085 63.72415987 -14.77734375 66.85546875 C-15.00719215 68.30115486 -15.00719215 68.30115486 -15.24168396 69.77604675 C-17.43131958 82.81494217 -17.43131958 82.81494217 -22.7421875 86.74609375 C-27.56094857 89.12521519 -32.74868348 90.5353926 -37.875 92.09375 C-49.2661171 95.6961743 -59.49693004 100.63769802 -69.86254883 106.53491211 C-74.42118608 108.94130179 -78.71778026 109.30422419 -83.75 108.53125 C-94.53820843 104.16183225 -104.4351179 94.92237292 -113.77001953 88.04248047 C-115.54700248 86.73556483 -117.3343297 85.4443126 -119.125 84.15625 C-120.12273437 83.42664063 -121.12046875 82.69703125 -122.1484375 81.9453125 C-124.54825456 80.3164748 -124.54825456 80.3164748 -126.70536804 80.76287842 C-129.05016297 81.64405108 -130.279734 82.66267687 -132.06567383 84.41113281 C-133.00102715 85.31777679 -133.00102715 85.31777679 -133.95527649 86.24273682 C-134.9461451 87.22859772 -134.9461451 87.22859772 -135.95703125 88.234375 C-136.64182053 88.90917908 -137.3266098 89.58398315 -138.03215027 90.27923584 C-139.4758228 91.70772982 -140.91545612 93.14031582 -142.35131836 94.57666016 C-144.55617557 96.77494443 -146.78388966 98.94813224 -149.01367188 101.12109375 C-150.41292463 102.51154681 -151.8107608 103.90342718 -153.20703125 105.296875 C-153.87773148 105.94601868 -154.5484317 106.59516235 -155.23945618 107.26397705 C-158.82384045 110.66995272 -158.82384045 110.66995272 -159.78686523 115.27368164 C-158.22162823 118.68167471 -156.17245765 121.68046867 -154 124.71875 C-153.51917969 125.40565918 -153.03835937 126.09256836 -152.54296875 126.80029297 C-149.81167558 130.68505107 -147.02873776 134.53154073 -144.234375 138.37109375 C-143.65397461 139.16942627 -143.07357422 139.96775879 -142.47558594 140.7902832 C-141.34856623 142.33555032 -140.2166091 143.87723177 -139.07910156 145.41479492 C-131.02735589 156.40565184 -131.02735589 156.40565184 -131.30908203 164.03613281 C-132.20138325 169.08558932 -134.80384449 173.41928491 -137.1875 177.90625 C-142.4654719 188.24988852 -146.40565842 198.60542088 -149.63061523 209.75927734 C-151.56961931 216.15928633 -152.80466834 220.15821321 -158.75 223.53125 C-161.5679385 224.5157782 -164.37086843 225.0491776 -167.3125 225.53125 C-168.15151855 225.68585693 -168.99053711 225.84046387 -169.85498047 225.99975586 C-174.70922148 226.88072997 -179.57849272 227.66885263 -184.44804382 228.46011353 C-187.09988295 228.89252913 -189.75041996 229.33271521 -192.40109253 229.7722168 C-194.35741566 230.09088566 -196.316539 230.39220527 -198.27563477 230.69335938 C-199.47631592 230.88865234 -200.67699707 231.08394531 -201.9140625 231.28515625 C-203.52982178 231.53761108 -203.52982178 231.53761108 -205.17822266 231.79516602 C-208.08041948 232.32564304 -208.08041948 232.32564304 -209.75 235.53125 C-210.05198738 237.63605113 -210.05198738 237.63605113 -210.00878906 239.97094727 C-210.01509338 240.86519913 -210.02139771 241.75945099 -210.02789307 242.68080139 C-210.0238446 243.64336349 -210.01979614 244.6059256 -210.015625 245.59765625 C-210.01753845 246.58749008 -210.0194519 247.57732391 -210.02142334 248.59715271 C-210.02278438 250.68936416 -210.01909362 252.78158407 -210.01074219 254.8737793 C-210.00003031 258.08466446 -210.01064618 261.29499153 -210.0234375 264.50585938 C-210.02211611 266.53645957 -210.01955415 268.56705942 -210.015625 270.59765625 C-210.01967346 271.56224258 -210.02372192 272.52682892 -210.02789307 273.52064514 C-210.02158875 274.41174484 -210.01528442 275.30284454 -210.00878906 276.22094727 C-210.00719788 277.00687759 -210.00560669 277.79280792 -210.00396729 278.60255432 C-209.91771861 280.76935895 -209.91771861 280.76935895 -207.75 282.53125 C-205.79057933 283.10662487 -205.79057933 283.10662487 -203.50317383 283.44506836 C-202.18589043 283.67056618 -202.18589043 283.67056618 -200.84199524 283.90061951 C-199.88995712 284.05587601 -198.93791901 284.21113251 -197.95703125 284.37109375 C-196.97764084 284.53871719 -195.99825043 284.70634064 -194.98918152 284.87904358 C-190.79290779 285.5971668 -186.59362585 286.29688245 -182.39428711 286.99682617 C-179.33060926 287.51026637 -176.26883877 288.03413364 -173.20703125 288.55859375 C-171.79415581 288.78844215 -171.79415581 288.78844215 -170.35273743 289.02293396 C-164.18552344 290.08179541 -158.37534342 291.20178607 -153.56640625 295.46875 C-150.76128886 300.19823824 -149.33929137 305.30674259 -147.6875 310.53125 C-143.82342958 322.28281289 -138.84988554 332.94304055 -132.73046875 343.67553711 C-130.1851786 348.49295505 -129.89246658 353.22199961 -130.75 358.53125 C-132.55364038 362.55916775 -135.14616828 365.99260659 -137.75 369.53125 C-138.77768985 370.96757215 -139.80360325 372.40516634 -140.828125 373.84375 C-149.16708412 385.50088673 -149.16708412 385.50088673 -153.40234375 390.9921875 C-154.13582031 391.95382812 -154.86929688 392.91546875 -155.625 393.90625 C-156.26179688 394.71835937 -156.89859375 395.53046875 -157.5546875 396.3671875 C-158.95602258 398.40491197 -158.95602258 398.40491197 -158.51539612 400.45452881 C-157.61634635 402.89388754 -156.54415322 404.09938093 -154.69897461 405.92285156 C-154.05838608 406.5632135 -153.41779755 407.20357544 -152.75779724 407.86334229 C-151.71559776 408.88231598 -151.71559776 408.88231598 -150.65234375 409.921875 C-149.94348526 410.62648865 -149.23462677 411.33110229 -148.50428772 412.05706787 C-146.2389672 414.30559785 -143.96343792 416.54347238 -141.6875 418.78125 C-140.14970665 420.30399708 -138.61258869 421.82742654 -137.07617188 423.3515625 C-133.30858198 427.0860781 -129.53255735 430.8118985 -125.75 434.53125 C-122.48906853 433.32395321 -119.78062759 432.02296839 -116.9921875 429.94921875 C-116.29351562 429.43520508 -115.59484375 428.92119141 -114.875 428.39160156 C-114.1325 427.83956055 -113.39 427.28751953 -112.625 426.71875 C-111.0191698 425.54948832 -109.41236607 424.38156271 -107.8046875 423.21484375 C-105.27060533 421.37066619 -102.7392276 419.52331495 -100.21582031 417.66455078 C-97.7410946 415.84997565 -95.24801271 414.06357931 -92.75 412.28125 C-91.62247314 411.44049927 -91.62247314 411.44049927 -90.47216797 410.58276367 C-85.13097093 406.81599332 -80.37608012 404.79279377 -73.75 405.53125 C-69.89275076 406.79307437 -66.43849864 408.6046942 -62.875 410.53125 C-55.35882903 414.36969783 -47.94397014 417.7847023 -39.9375 420.46875 C-38.69734131 420.88713135 -38.69734131 420.88713135 -37.43212891 421.31396484 C-35.88855645 421.83038179 -34.34402079 422.34393256 -32.79833984 422.85400391 C-30.09906 423.7464714 -27.41696863 424.67122363 -24.75 425.65625 C-24.04875 425.90632813 -23.3475 426.15640625 -22.625 426.4140625 C-18.49888321 428.87254042 -16.95087027 431.82280431 -15.66015625 436.375 C-15.36221946 437.92420367 -15.08075402 439.47663168 -14.8125 441.03125 C-14.57490967 442.29654541 -14.57490967 442.29654541 -14.33251953 443.58740234 C-13.43134165 448.4603421 -12.6093497 453.34640949 -11.79081726 458.23382568 C-11.56857271 459.56064852 -11.34560287 460.88735007 -11.12190247 462.21392822 C-10.5690512 465.49311653 -10.02621659 468.7729611 -9.50024414 472.05664062 C-9.30164795 473.25740234 -9.10305176 474.45816406 -8.8984375 475.6953125 C-8.72489746 476.77248535 -8.55135742 477.8496582 -8.37255859 478.95947266 C-7.95092978 481.67758051 -7.95092978 481.67758051 -5.75 483.53125 C-3.70412325 483.83656902 -3.70412325 483.83656902 -1.33203125 483.79003906 C-0.41768311 483.79634338 0.49666504 483.80264771 1.4387207 483.80914307 C2.42831787 483.8050946 3.41791504 483.80104614 4.4375 483.796875 C5.45094482 483.79878845 6.46438965 483.8007019 7.50854492 483.80267334 C9.65381112 483.80403591 11.79908553 483.80033447 13.94433594 483.79199219 C17.23651572 483.78129382 20.52814978 483.79188519 23.8203125 483.8046875 C25.90104288 483.80336592 27.98177291 483.80080355 30.0625 483.796875 C31.54689575 483.80294769 31.54689575 483.80294769 33.0612793 483.80914307 C34.43280151 483.79968658 34.43280151 483.79968658 35.83203125 483.79003906 C36.63874268 483.78844788 37.4454541 483.78685669 38.27661133 483.78521729 C40.48306436 483.7055625 40.48306436 483.7055625 42.25 481.53125 C42.82604071 479.52384202 42.82604071 479.52384202 43.16381836 477.17675781 C43.38931618 475.82460175 43.38931618 475.82460175 43.61936951 474.44512939 C43.77462601 473.46808044 43.92988251 472.49103149 44.08984375 471.484375 C44.43420518 469.42186839 44.77860752 467.3593686 45.12304688 465.296875 C45.65664757 462.04080676 46.18701575 458.78423384 46.71557617 455.52734375 C47.22813571 452.38663457 47.75231772 449.24802041 48.27734375 446.109375 C48.43057602 445.14042297 48.58380829 444.17147095 48.74168396 443.17315674 C49.77908066 436.99513113 50.78785616 431.65941218 55.7265625 427.390625 C60.51632534 424.86298962 65.46008875 423.36784618 70.625 421.78125 C80.75062193 418.5480384 89.92305691 414.57627831 99.25 409.53125 C100.65259866 408.79895311 102.05893839 408.07378133 103.46875 407.35546875 C104.4268457 406.86566528 104.4268457 406.86566528 105.40429688 406.3659668 C109.96217525 404.30467233 113.24102867 404.21713628 117.9765625 405.69140625 C122.50814905 407.47731719 126.22136431 410.02956719 130.125 412.90625 C130.84389404 413.42356689 131.56278809 413.94088379 132.3034668 414.47387695 C135.45608513 416.74693212 138.58921661 419.04613606 141.72216797 421.34619141 C143.37016883 422.55580144 145.01956137 423.76351794 146.67041016 424.96923828 C148.23858593 426.11616088 149.80225174 427.2692812 151.36083984 428.42919922 C152.07320801 428.95143066 152.78557617 429.47366211 153.51953125 430.01171875 C154.14448486 430.47473389 154.76943848 430.93774902 155.41333008 431.41479492 C157.46065907 432.65930316 158.86610887 433.25013084 161.25 433.53125 C163.09068149 432.41737501 163.09068149 432.41737501 164.73339844 430.61547852 C165.39378113 429.95471817 166.05416382 429.29395782 166.73455811 428.61317444 C167.43574768 427.88617844 168.13693726 427.15918243 168.859375 426.41015625 C169.58618469 425.67627182 170.31299438 424.94238739 171.06182861 424.18626404 C173.38651039 421.83353545 175.6932402 419.46404039 178 417.09375 C179.57046458 415.49821621 181.14206535 413.90379989 182.71484375 412.31054688 C186.57318607 408.39699854 190.41691815 404.46953406 194.25 400.53125 C192.97922456 397.07584484 191.5139011 394.22544401 189.37890625 391.23046875 C188.52474121 390.02342285 188.52474121 390.02342285 187.65332031 388.79199219 C186.74211426 387.5182373 186.74211426 387.5182373 185.8125 386.21875 C184.54800285 384.42590412 183.28368229 382.63293369 182.01953125 380.83984375 C179.67531564 377.53117134 177.31703345 374.23321092 174.94921875 370.94140625 C173.96589249 369.55486713 172.9828051 368.16815857 172 366.78125 C171.5469751 366.16338623 171.0939502 365.54552246 170.62719727 364.90893555 C167.41482951 360.34926624 164.64937162 355.21181491 165.59179688 349.43676758 C167.21246766 343.64494732 170.32317053 338.36399423 173.05517578 333.03588867 C178.66675953 321.94718404 183.11295849 310.31415138 186.03515625 298.23046875 C187.66093929 294.6181984 189.87696594 292.48594599 193.25 290.53125 C196.0569638 289.5170115 198.87226606 289.01279351 201.8125 288.53125 C203.07102783 288.30042725 203.07102783 288.30042725 204.35498047 288.06494141 C207.31625631 287.5293634 210.28185642 287.02736105 213.25 286.53125 C214.48250488 286.32467773 215.71500977 286.11810547 216.98486328 285.90527344 C217.95663765 285.74257965 217.95663765 285.74257965 218.94804382 285.57659912 C220.93820252 285.24272497 222.92796794 284.90657327 224.91772461 284.5703125 C227.53539182 284.12822798 230.15418543 283.7012857 232.77563477 283.28125 C233.97631592 283.08273437 235.17699707 282.88421875 236.4140625 282.6796875 C237.49123535 282.50614746 238.5684082 282.33260742 239.67822266 282.15380859 C242.39633051 281.73217978 242.39633051 281.73217978 244.25 279.53125 C244.55531902 277.48537325 244.55531902 277.48537325 244.50878906 275.11328125 C244.51824554 273.74175903 244.51824554 273.74175903 244.52789307 272.3425293 C244.5238446 271.35293213 244.51979614 270.36333496 244.515625 269.34375 C244.51753845 268.33030518 244.5194519 267.31686035 244.52142334 266.27270508 C244.52278591 264.12743888 244.51908447 261.98216447 244.51074219 259.83691406 C244.50004382 256.54473428 244.51063519 253.25310022 244.5234375 249.9609375 C244.52211592 247.88020712 244.51955355 245.79947709 244.515625 243.71875 C244.52169769 242.23435425 244.52169769 242.23435425 244.52789307 240.7199707 C244.52158875 239.80562256 244.51528442 238.89127441 244.50878906 237.94921875 C244.50719788 237.14250732 244.50560669 236.3357959 244.50396729 235.50463867 C244.4243125 233.29818564 244.4243125 233.29818564 242.25 231.53125 C239.36786512 230.88831942 236.5315798 230.35006124 233.62109375 229.875 C232.32559349 229.65330139 232.32559349 229.65330139 231.00392151 229.42712402 C228.23300091 228.95427718 225.46040256 228.49231867 222.6875 228.03125 C219.93996377 227.56821736 217.19283799 227.10288636 214.44606018 226.63537598 C212.73688881 226.34513653 211.02722708 226.0577643 209.31700134 225.77380371 C191.93632119 222.84951197 191.93632119 222.84951197 188.25 218.53125 C186.6065057 214.97148225 185.46870076 211.25367613 184.25 207.53125 C179.67511419 194.22529006 174.26433036 181.77425527 167.5546875 169.40625 C165.41488796 164.69100312 165.34176022 160.59827191 166.25 155.53125 C167.75461462 152.1207902 169.76023268 149.22228967 171.98242188 146.23779297 C173.45789411 144.25136175 174.89290744 142.2383571 176.328125 140.22265625 C184.62142615 128.62081191 184.62142615 128.62081191 188.90234375 123.0703125 C189.63582031 122.10867187 190.36929687 121.14703125 191.125 120.15625 C191.76179688 119.34414062 192.39859375 118.53203125 193.0546875 117.6953125 C194.45602258 115.65758803 194.45602258 115.65758803 194.01539612 113.60797119 C193.11634635 111.16861246 192.04415322 109.96311907 190.19897461 108.13964844 C189.23809181 107.17910553 189.23809181 107.17910553 188.25779724 106.19915771 C187.56299759 105.51984192 186.86819794 104.84052612 186.15234375 104.140625 C185.44348526 103.43601135 184.73462677 102.73139771 184.00428772 102.00543213 C181.7389672 99.75690215 179.46343792 97.51902762 177.1875 95.28125 C175.64970665 93.75850292 174.11258869 92.23507346 172.57617188 90.7109375 C168.80858198 86.9764219 165.03255735 83.2506015 161.25 79.53125 C157.92066471 80.76014361 155.17164801 82.11575948 152.31640625 84.21875 C151.59155029 84.74807129 150.86669434 85.27739258 150.11987305 85.82275391 C149.35843994 86.38655762 148.59700684 86.95036133 147.8125 87.53125 C146.20593111 88.7060054 144.5991578 89.88048127 142.9921875 91.0546875 C142.19522461 91.63959961 141.39826172 92.22451172 140.57714844 92.82714844 C137.21222152 95.29118431 133.82835985 97.72807883 130.4375 100.15625 C129.88199463 100.55714844 129.32648926 100.95804687 128.75415039 101.37109375 C118.24459603 108.90264448 118.24459603 108.90264448 111.25 108.53125 C105.77119853 107.13449989 100.8475128 104.32793882 95.85620117 101.7409668 C84.88048631 96.07795779 73.45495294 92.08689108 61.67578125 88.41796875 C60.71027344 88.10472656 59.74476563 87.79148438 58.75 87.46875 C57.9559375 87.23027344 57.161875 86.99179688 56.34375 86.74609375 C52.67192987 84.61561603 50.84109934 81.49470968 49.62695312 77.46166992 C49.08949348 75.03499781 48.65539272 72.60842657 48.25 70.15625 C48.08830322 69.25519531 47.92660645 68.35414062 47.76000977 67.42578125 C46.84991162 62.2909487 46.02607076 57.14344084 45.21484375 51.9921875 C45.04275391 50.91501465 44.87066406 49.8378418 44.69335938 48.72802734 C44.36195589 46.63372366 44.04123663 44.53769488 43.73242188 42.43994141 C43.5071582 41.00013916 43.5071582 41.00013916 43.27734375 39.53125 C43.15093506 38.685625 43.02452637 37.84 42.89428711 36.96875 C42.04671128 33.76215769 41.55297268 31.99354273 39.25 29.53125 C35.82863824 28.78997846 32.45207567 28.90346564 28.96484375 28.97265625 C27.95281387 28.97498764 26.940784 28.97731903 25.89808655 28.97972107 C23.7587135 28.98946588 21.61936656 29.01126969 19.48022461 29.04418945 C16.19671666 29.09361128 12.91470567 29.10566929 9.63085938 29.11132812 C7.55467148 29.12541304 5.47849665 29.14161705 3.40234375 29.16015625 C1.92265358 29.1682003 1.92265358 29.1682003 0.41307068 29.17640686 C-0.49804977 29.19239426 -1.40917023 29.20838165 -2.34790039 29.22485352 C-3.15159561 29.23549332 -3.95529083 29.24613312 -4.78334045 29.25709534 C-6.98287568 29.3623208 -6.98287568 29.3623208 -8.75 31.53125 Z " fill="#000000" transform="translate(238.75,-0.53125)"/>
<path d="M0 0 C1.65351243 1.44962068 3.30016146 2.90713557 4.9375 4.375 C5.61683594 4.91253906 6.29617188 5.45007813 6.99609375 6.00390625 C27.96025947 22.83429282 39.99840496 51.2590412 42.9375 77.375 C44.58605074 108.34767328 36.95985651 137.90070516 15.9375 161.375 C15.43863281 162.0040625 14.93976563 162.633125 14.42578125 163.28125 C-2.33183042 184.40832488 -30.74713607 195.85330433 -56.73193359 199.13183594 C-87.16250388 202.30686716 -116.49797652 192.4476476 -140.0625 173.375 C-140.73925781 172.84003906 -141.41601562 172.30507813 -142.11328125 171.75390625 C-162.8084161 154.82152319 -175.83737579 127.14181522 -178.81640625 100.9140625 C-180.99801736 69.540417 -173.15804318 40.8617915 -153.0625 16.375 C-152.49015625 15.65054688 -151.9178125 14.92609375 -151.328125 14.1796875 C-146.59146576 8.42802985 -140.94833031 3.90635053 -135.0625 -0.625 C-134.29292969 -1.2334375 -133.52335937 -1.841875 -132.73046875 -2.46875 C-94.78272454 -30.91339642 -36.86518348 -29.84808648 0 0 Z M-130.0625 35.375 C-144.59038833 53.543059 -150.44418952 74.45579172 -149.0625 97.375 C-146.31893087 118.54584841 -135.86978257 137.69028726 -119.55078125 151.47265625 C-100.4630018 166.06566817 -78.89731506 171.54381676 -55.1328125 168.9453125 C-34.27750289 165.37389584 -15.22486122 153.87145802 -2.5625 136.875 C10.64434465 117.07984383 16.3838886 95.42407239 11.90527344 71.73681641 C7.37796027 51.29774602 -5.22290287 32.16661613 -22.75 20.6875 C-57.3359703 -1.04904875 -102.98880993 3.53150349 -130.0625 35.375 Z " fill="#000000" transform="translate(324.0625,167.625)"/>
</svg>
